<?xml version="1.0" encoding="utf-8"?>
<!-- Generator: Adobe Illustrator 24.0.3, SVG Export Plug-In . SVG Version: 6.00 Build 0)  -->
<svg version="1.1" id="Layer_1" xmlns="http://www.w3.org/2000/svg" xmlns:xlink="http://www.w3.org/1999/xlink" x="0px" y="0px"
	 width="512.4px" height="335.5px" viewBox="0 0 512.4 335.5" style="enable-background:new 0 0 512.4 335.5;" xml:space="preserve"
	>
<style type="text/css">
	.st0{fill:none;stroke:#E80F2E;stroke-width:3;stroke-linecap:round;stroke-linejoin:round;stroke-miterlimit:10;}
	.st1{fill:none;stroke:#78BF5A;stroke-width:3;stroke-linecap:round;stroke-linejoin:round;stroke-miterlimit:10;}
	.st2{fill:none;stroke:#5E7CEA;stroke-width:3;stroke-linecap:round;stroke-linejoin:round;stroke-miterlimit:10;}
	.st3{fill:none;stroke:#000000;stroke-width:2;stroke-linecap:square;stroke-linejoin:round;stroke-miterlimit:10;}
	.st4{fill:none;stroke:#000000;stroke-width:2;stroke-linejoin:round;stroke-miterlimit:10;}
	.st5{fill:none;}
</style>
<polyline class="st0" points="47.7,285.1 47.7,285.1 47.7,285.1 47.7,285.1 47.7,285.1 47.7,285.1 47.7,285.1 47.7,285.1 
	47.7,285.1 47.7,285.1 47.7,285.1 47.7,285.1 47.7,285.1 47.7,285.1 47.7,285.1 47.7,285.1 47.7,285.1 47.7,285.1 47.7,285.1 
	47.7,285.1 47.7,285.1 47.7,285.1 47.7,285.1 47.8,285.1 47.8,285.1 47.8,285.1 47.8,285.1 47.8,285.1 47.8,285.1 47.8,285.1 
	47.8,285.1 47.8,285.1 47.8,285.1 47.8,285.1 47.8,285.1 47.8,285.1 47.8,285.1 47.8,285.1 47.8,285.1 47.8,285.1 47.8,285.1 
	47.8,285.1 47.8,285.1 47.8,285.1 47.8,285.1 47.8,285.1 47.8,285.1 47.8,285.1 47.8,285.1 47.8,285.1 47.8,285.1 47.8,285.1 
	47.8,285.1 47.9,285.1 47.9,285.1 47.9,285.1 47.9,285.1 47.9,285.1 47.9,285.1 47.9,285.1 47.9,285.1 47.9,285.1 47.9,285.1 
	47.9,285.1 48,285.1 48,285.1 48,285.1 48,285.1 48,285.1 48.1,285.1 48.1,285.1 48.1,285.1 48.1,285.1 48.2,285.1 48.2,285.1 
	48.3,285.1 48.3,285.1 48.3,285.1 48.4,285.1 48.5,285.1 48.5,285.1 48.5,285.1 48.5,285.1 48.5,285.1 48.6,285.1 48.6,285.1 
	48.6,285.1 48.6,285.1 48.6,285.1 48.6,285.1 48.6,285.1 48.6,285.1 48.6,285.1 48.6,285.1 48.6,285.1 48.7,285.1 48.7,285.1 
	48.7,285.1 48.7,285.1 48.7,285.1 48.7,285.1 48.7,285.1 48.7,285.1 48.7,285.1 48.7,285.1 48.8,285.1 48.8,285.1 48.8,285.1 
	48.8,285.1 48.8,285.1 48.9,285.1 48.9,285.1 48.9,285.1 48.9,285.1 48.9,285.1 48.9,285.1 48.9,285.1 49,285.1 49,285.1 49,285.1 
	49,285.1 49,285.1 49,285.1 49,285.1 49.1,285.1 49.1,285.1 49.1,285.1 49.1,285.1 49.1,285.1 49.1,285.1 49.2,285.1 49.2,285.1 
	49.2,285.1 49.2,285.1 49.2,285.1 49.2,285.1 49.3,285.1 49.3,285.1 49.3,285.1 49.3,285.1 49.3,285.1 49.4,285.1 49.4,285.1 
	49.4,285.1 49.4,285.1 49.4,285.1 49.5,285.1 49.5,285.1 49.5,285.1 49.5,285.1 49.6,285.1 49.6,285.1 49.6,285.1 49.7,285.1 
	49.7,285.1 49.7,285.1 49.8,285.1 49.8,285.1 49.8,285.1 49.9,285.1 49.9,285.1 49.9,285.1 50,285.1 50,285.1 50,285.1 50.1,285.1 
	50.1,285.1 50.1,285.1 50.2,285.1 50.2,285.1 50.3,285.1 50.3,285.1 50.3,285.1 50.4,285.1 50.4,285.1 50.5,285.1 50.5,285.1 
	50.6,285.1 50.6,285.1 50.7,285.1 50.7,285.1 50.8,285.1 50.8,285.1 50.9,285.1 51,285.1 51,285.1 51.1,285.1 51.2,285.1 
	51.2,285.1 51.3,285.1 51.4,285.1 51.4,285.1 51.5,285.1 51.6,285.1 51.7,285.1 51.8,285.1 51.9,285.1 51.9,285.1 52,285.1 
	52.2,285.1 52.3,285.1 52.4,285 52.5,285.1 52.7,285.1 52.8,285.1 52.9,285.1 53,285.1 53.1,285 53.2,285 53.4,285 53.5,285 
	53.7,285 53.8,285 53.9,285 54.1,285 54.3,285 54.4,285 54.6,285 54.9,285 55.1,285 55.3,285 55.5,285 55.7,285 55.9,285 56.2,285 
	56.5,285 56.8,285 57.1,285 57.4,285 57.7,285 58,285 58.4,285 58.8,285 59.2,285 59.6,284.9 60,285 60.4,285 60.9,284.9 
	61.4,284.9 62,284.9 62.6,284.9 63.2,284.9 63.9,284.9 64.6,284.8 65.4,284.8 66.4,284.8 67.2,284.8 68.1,284.7 69.1,284.7 
	70.1,284.7 71.3,284.7 72.5,284.7 73.8,284.6 75.3,284.6 76.9,284.6 78.5,284.6 80.4,284.5 82.5,284.5 84.9,284.4 87.3,284.3 
	90.1,284.3 93.2,284.2 96.5,284.1 100.3,284 104.6,283.7 109.3,283.7 114.6,283.6 121.4,283.4 128.5,283.1 136.6,282.8 146,282.5 
	156.9,282 169.9,281.4 185.6,280.6 204.8,279.8 227.8,278.6 255.9,277 291.4,275.2 338.7,272.7 398.7,269.4 "/>
<polyline class="st1" points="47.7,285.1 47.7,285.1 47.7,285.1 47.7,285.1 47.7,285.1 47.7,285.1 47.7,285.1 47.7,285.1 
	47.7,285.1 47.7,285.1 47.7,285.1 47.7,285.1 47.7,285.1 47.7,285.1 47.7,285.1 47.7,285.1 47.7,285.1 47.7,285.1 47.7,285.1 
	47.7,285.1 47.7,285.1 47.7,285.1 47.7,285.1 47.8,285.1 47.8,285.1 47.8,285.1 47.8,285.1 47.8,285.1 47.8,285.1 47.8,285.1 
	47.8,285.1 47.8,285.1 47.8,285.1 47.8,285.1 47.8,285.1 47.8,285.1 47.8,285.1 47.8,285.1 47.8,285.1 47.8,285.1 47.8,285.1 
	47.8,285.1 47.8,285.1 47.8,285.1 47.8,285.1 47.8,285.1 47.8,285.1 47.8,285.1 47.8,285.1 47.8,285.1 47.8,285.1 47.8,285.1 
	47.8,285.1 47.9,285.1 47.9,285.1 47.9,285.1 47.9,285.1 47.9,285.1 47.9,285.1 47.9,285.1 47.9,285.1 47.9,285.1 47.9,285.1 
	47.9,285.1 48,285.1 48,285.1 48,285.1 48,285.1 48,285.1 48.1,285.1 48.1,285.1 48.1,285.1 48.1,285.1 48.2,285.1 48.2,285.1 
	48.3,285.1 48.3,285.1 48.3,285.1 48.4,285.1 48.5,285.1 48.5,285.1 48.5,285.1 48.5,285.1 48.5,285.1 48.6,285.1 48.6,285.1 
	48.6,285.1 48.6,285.1 48.6,285.1 48.6,285.1 48.6,285.1 48.6,285.1 48.6,285.1 48.6,285.1 48.6,285.1 48.7,285.1 48.7,285.1 
	48.7,285.1 48.7,285.1 48.7,285.1 48.7,285.1 48.7,285.1 48.7,285.1 48.7,285.1 48.7,285.1 48.8,285.1 48.8,285.1 48.8,285.1 
	48.8,285.1 48.8,285.1 48.9,285.1 48.9,285.1 48.9,285.1 48.9,285.1 48.9,285.1 48.9,285.1 48.9,285.1 49,285.1 49,285.1 49,285.1 
	49,285.1 49,285.1 49,285.1 49,285.1 49.1,285.1 49.1,285.1 49.1,285.1 49.1,285.1 49.1,285.1 49.1,285.1 49.2,285 49.2,285.1 
	49.2,285 49.2,285 49.2,285.1 49.2,285 49.3,285 49.3,285 49.3,285 49.3,285 49.3,285 49.4,285 49.4,285 49.4,285 49.4,285 
	49.4,285 49.5,285 49.5,285 49.5,285 49.5,285 49.6,285 49.6,285 49.6,285 49.7,285 49.7,285 49.7,285 49.8,285 49.8,285 49.8,285 
	49.9,285 49.9,285 49.9,285 50,285 50,285 50,285 50.1,285 50.1,285 50.1,285 50.2,285 50.2,285 50.3,285 50.3,285 50.3,285 
	50.4,285 50.4,285 50.5,285 50.5,285 50.6,285 50.6,285 50.7,285 50.7,285 50.8,285 50.8,284.9 50.9,285 51,285 51,284.9 
	51.1,284.9 51.2,284.9 51.2,284.9 51.3,284.9 51.4,284.9 51.4,284.9 51.5,284.9 51.6,284.9 51.7,284.9 51.8,284.9 51.9,284.9 
	51.9,284.9 52,284.9 52.2,284.8 52.3,284.8 52.4,284.7 52.5,284.8 52.7,284.8 52.8,284.8 52.9,284.8 53,284.8 53.1,284.8 
	53.2,284.8 53.4,284.8 53.5,284.7 53.7,284.7 53.8,284.7 53.9,284.7 54.1,284.7 54.3,284.7 54.4,284.7 54.6,284.6 54.9,284.6 
	55.1,284.6 55.3,284.6 55.5,284.5 55.7,284.5 55.9,284.5 56.2,284.5 56.5,284.4 56.8,284.5 57.1,284.4 57.4,284.4 57.7,284.3 
	58,284.3 58.4,284.3 58.8,284.2 59.2,284.2 59.6,284.1 60,284.1 60.4,284 60.9,283.9 61.4,283.9 62,283.6 62.6,283.6 63.2,283.5 
	63.9,283.3 64.6,283.3 65.4,283 66.4,283 67.2,282.8 68.1,282.6 69.1,282.7 70.1,282.3 71.3,282.1 72.5,281.7 73.8,281.4 
	75.3,281.6 76.9,281 78.5,281 80.4,280.6 82.5,280.1 84.9,279.8 87.3,278.9 90.1,277.5 93.2,276.8 96.5,275.7 100.3,274.8 
	104.6,273.9 109.3,272.5 114.6,270.2 121.4,266.3 128.5,264.1 136.6,258.3 146,254.9 156.9,251 169.9,240.4 185.6,230.2 
	204.8,212.5 227.8,195.3 255.9,166.1 291.4,142.2 338.7,91.3 398.7,7.8 "/>
<polyline class="st2" points="47.7,285.1 47.7,285.1 47.7,285.1 47.7,285.1 47.7,285.1 47.7,285.1 47.7,285.1 47.7,285.1 
	47.7,285.1 47.7,285.1 47.7,285.1 47.7,285.1 47.7,285.1 47.7,285.1 47.7,285.1 47.7,285.1 47.7,285.1 47.7,285.1 47.7,285.1 
	47.7,285.1 47.7,285.1 47.7,285.1 47.7,285.1 47.8,285.1 47.8,285.1 47.8,285.1 47.8,285.1 47.8,285.1 47.8,285.1 47.8,285.1 
	47.8,285.1 47.8,285.1 47.8,285.1 47.8,285.1 47.8,285.1 47.8,285.1 47.8,285.1 47.8,285.1 47.8,285.1 47.8,285.1 47.8,285.1 
	47.8,285.1 47.8,285.1 47.8,285.1 47.8,285.1 47.8,285.1 47.8,285.1 47.8,285.1 47.8,285.1 47.8,285.1 47.8,285.1 47.8,285.1 
	47.8,285.1 47.9,285.1 47.9,285.1 47.9,285.1 47.9,285.1 47.9,285.1 47.9,285.1 47.9,285.1 47.9,285.1 47.9,285.1 47.9,285.1 
	47.9,285.1 48,285.1 48,285.1 48,285.1 48,285.1 48,285.1 48.1,285.1 48.1,285.1 48.1,285.1 48.1,285.1 48.2,285.1 48.2,285.1 
	48.3,285.1 48.3,285.1 48.3,285.1 48.4,285.1 48.5,285.1 48.5,285.1 48.5,285.1 48.5,285.1 48.5,285.1 48.6,285.1 48.6,285.1 
	48.6,285.1 48.6,285.1 48.6,285.1 48.6,285.1 48.6,285.1 48.6,285.1 48.6,285.1 48.6,285.1 48.6,285.1 48.7,285.1 48.7,285.1 
	48.7,285.1 48.7,285.1 48.7,285.1 48.7,285.1 48.7,285.1 48.7,285.1 48.7,285.1 48.7,285.1 48.8,285.1 48.8,285.1 48.8,285.1 
	48.8,285.1 48.8,285.1 48.9,285.1 48.9,285.1 48.9,285.1 48.9,285.1 48.9,285.1 48.9,285.1 48.9,285.1 49,285.1 49,285.1 49,285.1 
	49,285.1 49,285.1 49,285.1 49,285.1 49.1,285.1 49.1,285.1 49.1,285.1 49.1,285.1 49.1,285.1 49.1,285.1 49.2,285.1 49.2,285.1 
	49.2,285.1 49.2,285.1 49.2,285.1 49.2,285.1 49.3,285.1 49.3,285.1 49.3,285.1 49.3,285.1 49.3,285.1 49.4,285.1 49.4,285.1 
	49.4,285.1 49.4,285.1 49.4,285.1 49.5,285.1 49.5,285.1 49.5,285.1 49.5,285.1 49.6,285.1 49.6,285.1 49.6,285.1 49.7,285.1 
	49.7,285.1 49.7,285.1 49.8,285.1 49.8,285.1 49.8,285.1 49.9,285.1 49.9,285.1 49.9,285.1 50,285.1 50,285.1 50,285.1 50.1,285.1 
	50.1,285.1 50.1,285.1 50.2,285.1 50.2,285.1 50.3,285.1 50.3,285.1 50.3,285.1 50.4,285.1 50.4,285.1 50.5,285.1 50.5,285.1 
	50.6,285.1 50.6,285.1 50.7,285.1 50.7,285.1 50.8,285.1 50.8,285.1 50.9,285.1 51,285.1 51,285.1 51.1,285.1 51.2,285.1 
	51.2,285.1 51.3,285.1 51.4,285.1 51.4,285.1 51.5,285.1 51.6,285.1 51.7,285.1 51.8,285.1 51.9,285.1 51.9,285.1 52,285.1 
	52.2,285.1 52.3,285.1 52.4,285.1 52.5,285.1 52.7,285.1 52.8,285.1 52.9,285.1 53,285.1 53.1,285.1 53.2,285.1 53.4,285.1 
	53.5,285.1 53.7,285.1 53.8,285.1 53.9,285.1 54.1,285.1 54.3,285.1 54.4,285.1 54.6,285.1 54.9,285 55.1,285 55.3,285 55.5,285 
	55.7,285 55.9,285 56.2,285 56.5,285 56.8,285 57.1,285 57.4,285 57.7,285 58,285 58.4,285 58.8,285 59.2,285 59.6,285 60,285 
	60.4,285 60.9,285 61.4,285 62,285 62.6,284.9 63.2,285 63.9,284.9 64.6,284.9 65.4,284.9 66.4,284.9 67.2,284.9 68.1,284.8 
	69.1,284.8 70.1,284.8 71.3,284.7 72.5,284.7 73.8,284.7 75.3,284.8 76.9,284.7 78.5,284.7 80.4,284.7 82.5,284.6 84.9,284.6 
	87.3,284.5 90.1,284.4 93.2,284.4 96.5,284.3 100.3,284.2 104.6,284.2 109.3,284.1 114.6,283.9 121.4,283.7 128.5,283.6 
	136.6,283.4 146,283.2 156.9,282.9 169.9,282.4 185.6,282.2 204.8,281.6 227.8,280.9 255.9,280.2 291.4,279.1 338.7,277.5 
	398.7,275.5 "/>
<path class="st3" d="M47.7,285.1h428 M47.7,285.1V6.1"/>
<line class="st4" x1="47.7" y1="280.1" x2="47.7" y2="290.1"/>
<path class="st4" d="M90.5,282.6v5 M133.3,280.1v10"/>
<path class="st4" d="M176.1,282.6v5 M218.9,280.1v10"/>
<path class="st4" d="M261.7,282.6v5 M304.5,280.1v10"/>
<path class="st4" d="M347.3,282.6v5 M390.1,280.1v10"/>
<path class="st4" d="M432.9,282.6v5 M475.7,280.1v10"/>
<line class="st4" x1="42.7" y1="285.1" x2="52.7" y2="285.1"/>
<path class="st4" d="M50.2,267.7h-5 M42.7,250.2h10"/>
<path class="st4" d="M50.2,232.8h-5 M42.7,215.4h10"/>
<path class="st4" d="M50.2,197.9h-5 M42.7,180.5h10"/>
<path class="st4" d="M50.2,163h-5 M42.7,145.6h10"/>
<path class="st4" d="M50.2,128.2h-5 M42.7,110.7h10"/>
<path class="st4" d="M50.2,93.3h-5 M42.7,75.9h10"/>
<path class="st4" d="M50.2,58.4h-5 M42.7,41h10"/>
<path class="st4" d="M50.2,23.5h-5 M42.7,6.1h10"/>
<g>
	<g>
		<path d="M44.8,296.9c0,4.5-1.9,6-3.7,6c-1.9,0-3.8-1.6-3.8-6c0-4.5,1.9-6.1,3.8-6.1C42.9,290.9,44.8,292.5,44.8,296.9z
			 M41.1,302.2c1.1,0,2.1-1.1,2.1-5.2c0-4.2-1-5.3-2.1-5.3s-2.2,1-2.2,5.3C38.9,301.1,39.9,302.2,41.1,302.2z"/>
	</g>
</g>
<g>
	<g>
		<path d="M31.2,254.1c1-0.9,1.9-1.9,2.7-2.7c1.8-1.9,2.6-3.4,2.6-4.8c0-1.5-0.9-2.4-2.2-2.4c-0.4,0-1.2,0.1-1.8,0.4l1-0.6l-0.4,1.6
			c-0.2,0.9-0.5,1.2-1,1.2c-0.4,0-0.7-0.2-0.9-0.6c0.2-1.9,1.8-2.8,3.6-2.8c2.3,0,3.3,1.3,3.3,3.1c0,1.6-0.8,2.8-3.5,5.5
			c-0.6,0.6-1.4,1.4-2.3,2.3l-0.2-0.4h6.4v1.4h-7.3V254.1z"/>
	</g>
</g>
<g>
	<g>
		<path d="M30.7,217.7v-0.9l5.4-7.3h1v11.8h-1.4v-10.6h0.5l-4.5,6.3v-0.3h7.4v1.1h-8.4V217.7z"/>
	</g>
</g>
<g>
	<g>
		<path d="M37,182.7c0-1.9-0.9-2.7-2.1-2.7c-0.8,0-1.8,0.3-2.5,1.1l-0.3-0.3c0.8-1.2,2-1.9,3.2-1.9c1.9,0,3.3,1.4,3.3,3.5
			c0,2.6-1.6,3.9-3.7,3.9c-2.4,0-3.9-1.9-3.9-5.1c0-3.5,2.4-6.5,6.8-7l0.1,0.6c-3.8,0.9-5.4,2.9-5.4,6.2c0,3.1,0.9,4.6,2.4,4.6
			C36.2,185.5,37,184.6,37,182.7z"/>
	</g>
</g>
<g>
	<g>
		<path d="M33.9,145.6l0.8,0.3c-1.4,0.8-2.2,1.5-2.2,2.8s1,2.2,2.3,2.2s2.1-1,2.1-2.2c0-1.1-0.7-1.7-2.8-2.7
			c-1.9-0.9-2.7-2.1-2.7-3.4c0-1.9,1.5-3,3.3-3c1.9,0,3.1,1.2,3.1,2.8c0,0.9-0.6,2.1-2.6,3.1l-0.7-0.3c1.5-1,2-1.7,2-2.8
			s-0.6-2-1.8-2c-1,0-1.9,0.7-1.9,1.8c0,1,0.5,1.9,2.6,2.9c2,0.9,3,1.9,3,3.6c0,1.8-1.6,3.1-3.6,3.1c-2.1,0-3.7-1-3.7-2.9
			C31.1,147.4,32.1,146.5,33.9,145.6z"/>
	</g>
</g>
<g>
	<g>
		<path d="M29.3,115.2v0.6h-6.6v-0.6l2.6-0.4h1.4L29.3,115.2z M26.5,104.1l0.3,0.2l-0.1,2.6v5.2c0,1.3,0,2.5,0.1,3.8h-1.5
			c0-1.3,0.1-2.5,0.1-3.8v-6.5l-2.4,0.2v-0.7L26.5,104.1z"/>
		<path d="M38.5,110.1c0,4.5-1.9,6-3.7,6c-1.9,0-3.8-1.6-3.8-6c0-4.5,1.9-6.1,3.8-6.1C36.7,104,38.5,105.6,38.5,110.1z M34.8,115.3
			c1.1,0,2.1-1.1,2.1-5.2c0-4.2-1-5.3-2.1-5.3s-2.2,1-2.2,5.3C32.6,114.3,33.7,115.3,34.8,115.3z"/>
	</g>
</g>
<g>
	<g>
		<path d="M29.3,80.8v0.6h-6.6v-0.6l2.6-0.4h1.4L29.3,80.8z M26.5,69.6l0.3,0.2l-0.1,2.6v5.2c0,1.3,0,2.5,0.1,3.8h-1.5
			c0-1.3,0.1-2.5,0.1-3.8v-6.5L23,71.3v-0.7L26.5,69.6z"/>
		<path d="M31.2,80.3c1-0.9,1.9-1.9,2.7-2.7c1.8-1.9,2.6-3.4,2.6-4.8c0-1.5-0.9-2.4-2.2-2.4c-0.4,0-1.2,0.1-1.8,0.4l1-0.6l-0.4,1.6
			c-0.2,0.9-0.5,1.2-1,1.2c-0.4,0-0.7-0.2-0.9-0.6c0.2-1.9,1.8-2.8,3.6-2.8c2.3,0,3.3,1.3,3.3,3.1c0,1.6-0.8,2.8-3.5,5.5
			c-0.6,0.6-1.4,1.4-2.3,2.3l-0.2-0.4h6.4v1.4h-7.3V80.3z"/>
	</g>
</g>
<g>
	<g>
		<path d="M29.3,46.5v0.6h-6.6v-0.6l2.6-0.4h1.4L29.3,46.5z M26.5,35.3l0.3,0.2l-0.1,2.6v5.2c0,1.3,0,2.5,0.1,3.8h-1.5
			c0-1.3,0.1-2.5,0.1-3.8v-6.5L23,37v-0.7L26.5,35.3z"/>
		<path d="M30.7,43.6v-0.9l5.4-7.3h1v11.8h-1.4V36.5h0.5l-4.6,6.3v-0.3H39v1.1H30.7z"/>
	</g>
</g>
<g>
	<g>
		<path d="M29.3,11.2v0.6h-6.6v-0.6l2.6-0.4h1.4L29.3,11.2z M26.5,0l0.3,0.2l-0.1,2.6V8c0,1.3,0,2.5,0.1,3.8h-1.5
			c0-1.3,0.1-2.5,0.1-3.8V1.5L23,1.7V1L26.5,0z"/>
		<path d="M37,8.5c0-1.9-0.9-2.7-2.1-2.7c-0.8,0-1.8,0.3-2.5,1.1l-0.3-0.3c0.8-1.2,2-1.9,3.2-1.9c1.9,0,3.3,1.4,3.3,3.5
			c0,2.6-1.6,3.9-3.7,3.9c-2.4,0-3.9-1.9-3.9-5.1c0-3.5,2.4-6.5,6.8-7l0.1,0.6c-3.8,0.9-5.4,2.9-5.4,6.2c0,3.1,0.9,4.6,2.4,4.6
			C36.2,11.3,37,10.3,37,8.5z"/>
	</g>
</g>
<g>
	<g>
		<path d="M12.9,165.4c0-0.4-0.2-0.8-0.5-1.2l0.5-0.4c0.6,0.5,0.9,1.2,0.9,2.1c0,1.2-0.6,2-2,2c-0.4,0-0.8,0-1.5,0H5.9v1.5H5.2
			l-0.3-2.2l0.6,0.7l-3-0.6v-1l3.2,0.1h5.8C12.5,166.4,12.9,166,12.9,165.4z M5,164h0.9v3.2H5V164z"/>
		<path d="M1.6,162.2c-0.7,0-1.1-0.5-1.1-1.2s0.5-1.2,1.1-1.2c0.7,0,1.1,0.5,1.1,1.2S2.3,162.2,1.6,162.2z M13.5,161.7
			c-0.8,0-2.7-0.1-3.8-0.1H8.9c-1,0-1.5,0-2.3,0.1l-0.1,1.5H5.8l-1.1-2.7l0.2-0.3l2.4,0.1h2.4c1.1,0,3,0,3.8-0.1
			C13.5,160.2,13.5,161.7,13.5,161.7z M12.9,159h0.6v4.1h-0.6l-0.4-2v-0.3L12.9,159z"/>
		<path d="M7.9,144h1.9c1.2,0,3,0,3.8-0.1v1.5c-0.8,0-2.6-0.1-3.8-0.1H8.2c-1.7,0-2.2,0.5-2.2,1.5c0,0.8,0.3,1.6,1.2,2.6v0.4H6.6v-1
			l0.1,0.8c-1.3-0.9-2-2.3-2-3.5C4.8,144.9,5.7,144,7.9,144z M8.1,149.4h1.7c1.2,0,3,0,3.8-0.1v1.5c-0.8,0-2.6-0.1-3.8-0.1H8.2
			c-1.7,0-2.2,0.4-2.2,1.5c0,0.9,0.4,1.6,1.2,2.6v0.4H6.5v-0.9l0.3,0.8c-1.1-0.8-2-2.2-2-3.5C4.8,150.2,5.7,149.4,8.1,149.4z
			 M13.5,156.3c-0.8,0-2.7-0.1-3.8-0.1H8.9c-1,0-1.5,0-2.3,0.1l-0.1,1.5H5.8l-1.1-2.4l0.2-0.3l2.1-0.2h2.7c1.1,0,3,0,3.8-0.1V156.3z
			 M12.5,144.5l0.4-1.8h0.6v4.1h-0.6l-0.4-2V144.5z M12.5,149.9l0.4-1.8h0.6v4.1h-0.6l-0.4-2V149.9z M12.9,153.5h0.6v4.1h-0.6
			l-0.4-2v-0.4L12.9,153.5z"/>
		<path d="M8.2,133.9c0.4,0,0.8,0.1,1,0.1v6.6H8.5v-4.3c0-0.9-0.4-1.1-0.9-1.1c-1,0-2,0.9-2,2c0,1.2,1,2.5,3.5,2.5
			c2.3,0,3.5-1.2,3.5-3c0-1.2-0.5-1.9-1.3-2.5l0.3-0.4c1.3,0.6,2.1,1.8,2.1,3.4c0,2.4-1.7,4-4.4,4c-2.8,0-4.6-1.9-4.6-4.1
			C4.8,135.4,6,133.9,8.2,133.9z"/>
		<path d="M16.6,123.2l0.4,0.5c-2.4,2.5-5.2,3.7-8.5,3.7s-6.1-1.2-8.5-3.7l0.4-0.5c3.1,2.1,5.2,2.8,8.1,2.8S13.5,125.3,16.6,123.2z"
			/>
		<path d="M13.1,121.8l-2,0.1v-1l2.1-0.5l-0.4,0.9h-0.6c0.5-0.6,0.7-1.3,0.7-2.2c0-1.4-0.6-2-1.4-2c-0.8,0-1.2,0.5-1.6,1.7l-0.3,0.8
			c-0.5,1.3-1.2,2.2-2.4,2.2c-1.3,0-2.5-1.1-2.5-3.1c0-1,0.3-1.7,0.7-2.5l1.8,0.1v0.9l-1.7,0.3l0.3-0.6h0.5
			c-0.5,0.6-0.7,1.2-0.7,1.8c0,1.1,0.5,1.7,1.2,1.7c0.8,0,1.1-0.4,1.6-1.7l0.2-0.5c0.7-1.8,1.5-2.5,2.6-2.5c1.3,0,2.6,1.2,2.6,3.5
			C13.8,120.1,13.5,120.9,13.1,121.8z"/>
		<path d="M8.2,106.7c0.4,0,0.8,0.1,1,0.1v6.6H8.5v-4.3c0-0.9-0.4-1.1-0.9-1.1c-1,0-2,0.9-2,2c0,1.2,1,2.5,3.5,2.5
			c2.3,0,3.5-1.2,3.5-3c0-1.2-0.5-1.9-1.3-2.5l0.3-0.4c1.3,0.6,2.1,1.8,2.1,3.4c0,2.4-1.7,4-4.4,4c-2.8,0-4.6-1.9-4.6-4.1
			C4.8,108.2,6,106.7,8.2,106.7z"/>
		<path d="M9.1,103.5c2.3,0,3.5-1.2,3.5-2.9c0-1-0.5-2-1.4-2.5l0.2-0.4c1.5,0.5,2.3,1.6,2.3,3.3c0,2.5-1.7,4-4.5,4s-4.5-2-4.5-4.1
			c0-1.6,1-2.9,2.3-3.2c0.5,0.1,0.7,0.4,0.7,0.8c0,0.6-0.4,0.8-0.8,1L5.3,100L6,99.2c-0.3,0.6-0.5,1.2-0.5,1.7
			C5.6,102.4,6.8,103.5,9.1,103.5z"/>
		<path d="M0.4,96.6L0,96.1c2.4-2.5,5.2-3.7,8.5-3.7s6.1,1.2,8.5,3.7l-0.4,0.5c-3.1-2.1-5.2-2.8-8.1-2.8S3.5,94.5,0.4,96.6z"/>
	</g>
</g>
<g>
	<g>
		<path d="M215.1,331.2c0-0.8,0.1-2.7,0.1-3.8v-0.8c0-1,0-1.5-0.1-2.3l-1.4-0.2v-0.6l2.4-1.1l0.3,0.2l0.2,2.1v2.7c0,1.1,0,3,0.1,3.8
			L215.1,331.2L215.1,331.2z M217.9,330.6v0.6h-4.1v-0.6l2-0.4h0.4L217.9,330.6z M222.1,325.8v1.7c0,1.2,0,3,0.1,3.8h-1.5
			c0-0.8,0.1-2.6,0.1-3.8V326c0-1.7-0.4-2.2-1.5-2.2c-0.9,0-1.6,0.4-2.7,1.2h-0.4v-0.8h0.9l-0.8,0.3c0.8-1.1,2.3-2,3.6-2
			C221.4,322.4,222.1,323.4,222.1,325.8z M221.6,330.2l1.8,0.4v0.6h-4.1v-0.6l2-0.4H221.6z"/>
		<path d="M227.1,328c0,1.6,0.5,2.2,1.5,2.2c0.9,0,1.9-0.5,2.8-1.4h0.4v0.9h-0.9l0.6-0.3c-1,1.4-2.3,2-3.4,2c-1.4,0-2.3-0.9-2.3-3.2
			l0.1-4.8l0.4,0.3l-1.7-0.4v-0.5l2.6-0.2l0.2,0.2l-0.1,2.5v2.7H227.1z M231.4,331.3l-0.3-2.1l0.1-5.8l0.4,0.3l-1.7-0.4v-0.5
			l2.6-0.2l0.2,0.2l-0.1,2.5v5.4l-0.4-0.4l1.7,0.4v0.6H231.4z"/>
		<path d="M236.5,331.2c0-0.8,0.1-2.7,0.1-3.8v-0.8c0-1,0-1.5-0.1-2.3l-1.4-0.2v-0.6l2.4-1.1l0.3,0.2l0.2,2.1v2.7c0,1.1,0,3,0.1,3.8
			L236.5,331.2L236.5,331.2z M239.3,330.6v0.6h-4.1v-0.6l2-0.4h0.4L239.3,330.6z M243.4,325.8v1.7c0,1.2,0,3,0.1,3.8H242
			c0-0.8,0.1-2.6,0.1-3.8V326c0-1.7-0.4-2.2-1.5-2.2c-0.9,0-1.6,0.4-2.6,1.2h-0.5v-0.8h0.9l-0.8,0.3c0.8-1.1,2.2-2,3.5-2
			C242.6,322.4,243.4,323.4,243.4,325.8z M242.9,330.2l1.8,0.4v0.6h-4.1v-0.6l2-0.4H242.9z M248.8,325.6v1.9c0,1.2,0,3,0.1,3.8h-1.5
			c0-0.8,0.1-2.6,0.1-3.8V326c0-1.7-0.5-2.2-1.5-2.2c-0.8,0-1.6,0.3-2.6,1.2H243v-0.6h1l-0.8,0.1c0.9-1.3,2.3-2,3.5-2
			C247.9,322.4,248.8,323.3,248.8,325.6z M248.3,330.2l1.8,0.4v0.6H246v-0.6l2-0.4H248.3z"/>
		<path d="M259.7,330.4c0.9,0,1.5-0.4,2.4-1.5l0.2,0.5c-0.8,1.4-1.7,2-2.9,2c-2.2,0-3.7-1.8-3.7-4.4c0-2.7,1.6-4.6,3.8-4.6
			c1,0,2,0.4,2.9,1.8l-0.2,0.5c-1-1-1.8-1.3-2.4-1.3c-1.3,0-2.5,1.1-2.5,3.6C257.2,329.4,258.3,330.4,259.7,330.4z M262.8,334.5
			l2,0.4v0.6h-4.6v-0.6l2.2-0.4H262.8z M263.4,335.5h-1.5c0-1.3,0.1-2.6,0.1-3.8v-1.8l-0.1-0.3v-5.9l1.2-1.3l0.3,0.2l-0.1,2.4v6.7
			C263.3,333,263.3,334.3,263.4,335.5z"/>
		<path d="M268,328c0,1.6,0.5,2.2,1.5,2.2c0.9,0,1.9-0.5,2.8-1.4h0.4v0.9h-0.9l0.6-0.3c-1,1.4-2.3,2-3.4,2c-1.4,0-2.3-0.9-2.3-3.2
			l0.1-4.8l0.4,0.3l-1.7-0.4v-0.5l2.6-0.2l0.2,0.2l-0.1,2.5v2.7H268z M272.3,331.3l-0.3-2.1l0.1-5.8l0.4,0.3l-1.7-0.4v-0.5l2.6-0.2
			l0.2,0.2l-0.1,2.5v5.4l-0.4-0.4l1.7,0.4v0.6H272.3z"/>
		<path d="M283.6,325.9c0,0.4-0.1,0.8-0.1,1h-6.6v-0.8h4.3c0.9,0,1.1-0.4,1.1-0.9c0-1-0.9-2-2-2c-1.2,0-2.5,1-2.5,3.5
			c0,2.3,1.2,3.5,3,3.5c1.2,0,1.9-0.5,2.5-1.3l0.4,0.3c-0.6,1.3-1.8,2.1-3.4,2.1c-2.4,0-4-1.7-4-4.4c0-2.8,1.9-4.6,4.1-4.6
			C282.1,322.4,283.6,323.7,283.6,325.9z"/>
		<path d="M286.6,327.4v-0.8c0-1,0-1.5-0.1-2.3l-1.4-0.2v-0.6l2.4-1.1l0.3,0.2l0.2,2.3v2.6c0,1.1,0,3,0.1,3.8h-1.6
			C286.6,330.4,286.6,328.5,286.6,327.4z M285.2,330.6l2-0.4h0.4l2,0.4v0.6h-4.3v-0.6H285.2z M287.3,325h1l-0.5,0.1
			c0.6-1.7,1.7-2.7,2.7-2.7c0.5,0,1.1,0.3,1.3,0.6c0,0.8-0.3,1.3-1,1.3c-0.4,0-0.8-0.2-1.1-0.4l-0.5-0.4l0.9-0.2
			c-1.1,0.6-1.8,1.5-2.2,2.9h-0.7V325H287.3z"/>
		<path d="M294,331.2c0-0.8,0.1-2.7,0.1-3.8v-0.8c0-1,0-1.5-0.1-2.3l-1.5-0.2v-0.6l2.7-1.1l0.3,0.2l-0.1,2.4v2.4c0,1.1,0,3,0.1,3.8
			H294z M296.8,330.6v0.6h-4.1v-0.6l2-0.4h0.4L296.8,330.6z M293.6,319.3c0-0.7,0.5-1.1,1.2-1.1s1.2,0.5,1.2,1.1
			c0,0.7-0.5,1.1-1.2,1.1S293.6,319.9,293.6,319.3z"/>
		<path d="M305.6,325.9c0,0.4-0.1,0.8-0.1,1h-6.6v-0.8h4.3c0.9,0,1.1-0.4,1.1-0.9c0-1-0.9-2-2-2c-1.2,0-2.5,1-2.5,3.5
			c0,2.3,1.2,3.5,3,3.5c1.2,0,1.9-0.5,2.5-1.3l0.4,0.3c-0.6,1.3-1.8,2.1-3.4,2.1c-2.4,0-4-1.7-4-4.4c0-2.8,1.9-4.6,4.1-4.6
			C304.2,322.4,305.6,323.7,305.6,325.9z"/>
		<path d="M307.5,330.8l-0.1-2h1l0.5,2.1l-0.9-0.4v-0.6c0.6,0.5,1.3,0.7,2.2,0.7c1.4,0,2-0.6,2-1.4s-0.5-1.2-1.7-1.6l-0.8-0.3
			c-1.3-0.5-2.2-1.2-2.2-2.4c0-1.3,1.1-2.5,3.1-2.5c1,0,1.7,0.3,2.5,0.7l-0.1,1.8h-0.9l-0.4-1.8l0.6,0.3v0.5
			c-0.6-0.5-1.2-0.7-1.8-0.7c-1.1,0-1.7,0.5-1.7,1.2c0,0.8,0.5,1.1,1.7,1.6l0.5,0.2c1.8,0.7,2.5,1.5,2.5,2.6c0,1.3-1.2,2.6-3.5,2.6
			C309.1,331.4,308.4,331.2,307.5,330.8z"/>
	</g>
</g>
<g>
	<g>
		<path d="M104.7,305.9c1-0.9,1.9-1.9,2.7-2.7c1.8-1.9,2.6-3.4,2.6-4.8c0-1.5-0.9-2.4-2.2-2.4c-0.4,0-1.2,0.1-1.8,0.4l1-0.6
			l-0.4,1.6c-0.2,0.9-0.5,1.2-1,1.2c-0.4,0-0.7-0.2-0.9-0.6c0.2-1.9,1.8-2.8,3.6-2.8c2.3,0,3.3,1.3,3.3,3.1c0,1.6-0.8,2.8-3.5,5.5
			c-0.6,0.6-1.4,1.4-2.3,2.3l-0.2-0.4h6.6v1.4h-7.3V305.9z"/>
		<path d="M121,301.3c0,4.5-1.9,6-3.7,6c-1.9,0-3.8-1.6-3.8-6c0-4.5,1.9-6.1,3.8-6.1C119.1,295.2,121,296.8,121,301.3z M117.3,306.5
			c1.1,0,2.1-1.1,2.1-5.2c0-4.2-1-5.3-2.1-5.3c-1.1,0-2.2,1-2.2,5.3C115.1,305.5,116.1,306.5,117.3,306.5z"/>
		<path d="M129.9,301.3c0,4.5-1.9,6-3.7,6c-1.9,0-3.8-1.6-3.8-6c0-4.5,1.9-6.1,3.8-6.1C128.1,295.2,129.9,296.8,129.9,301.3z
			 M126.2,306.5c1.1,0,2.1-1.1,2.1-5.2c0-4.2-1-5.3-2.1-5.3c-1.1,0-2.2,1-2.2,5.3C124.1,305.5,125.1,306.5,126.2,306.5z"/>
		<path d="M131,311.2l-0.3-0.6c1.4-0.7,2.5-1.7,2.8-3.5l0.1,0.8l-0.9-0.7c-0.5-0.4-0.7-0.8-0.7-1.3c0-0.6,0.4-1.1,1.1-1.1
			c0.3,0,0.7,0.1,1.1,0.5c0.1,0.5,0.2,0.9,0.2,1.3C134.5,308.8,132.7,310.5,131,311.2z"/>
		<path d="M144.3,301.3c0,4.5-1.9,6-3.7,6c-1.9,0-3.8-1.6-3.8-6c0-4.5,1.9-6.1,3.8-6.1C142.4,295.2,144.3,296.8,144.3,301.3z
			 M140.6,306.5c1.1,0,2.1-1.1,2.1-5.2c0-4.2-1-5.3-2.1-5.3c-1.1,0-2.2,1-2.2,5.3C138.4,305.5,139.4,306.5,140.6,306.5z"/>
		<path d="M153.2,301.3c0,4.5-1.9,6-3.7,6c-1.9,0-3.8-1.6-3.8-6c0-4.5,1.9-6.1,3.8-6.1C151.4,295.2,153.2,296.8,153.2,301.3z
			 M149.5,306.5c1.1,0,2.1-1.1,2.1-5.2c0-4.2-1-5.3-2.1-5.3c-1.1,0-2.2,1-2.2,5.3C147.3,305.5,148.4,306.5,149.5,306.5z"/>
		<path d="M162.2,301.3c0,4.5-1.9,6-3.7,6c-1.9,0-3.8-1.6-3.8-6c0-4.5,1.9-6.1,3.8-6.1C160.3,295.2,162.2,296.8,162.2,301.3z
			 M158.5,306.5c1.1,0,2.1-1.1,2.1-5.2c0-4.2-1-5.3-2.1-5.3c-1.1,0-2.2,1-2.2,5.3C156.3,305.5,157.3,306.5,158.5,306.5z"/>
	</g>
</g>
<polygon class="st5" points="174.6,150 177.9,150 177.9,150 174.6,150 "/>
<g>
	<g>
		<path d="M189.3,303.6v-0.9l5.4-7.3h1v11.8h-1.4v-10.6h0.5l-4.5,6.3l0-0.3h7.4v1.1H189.3z"/>
		<path d="M206,301.3c0,4.5-1.9,6-3.7,6c-1.9,0-3.8-1.6-3.8-6c0-4.5,1.9-6.1,3.8-6.1C204.2,295.2,206,296.8,206,301.3z M202.3,306.5
			c1.1,0,2.1-1.1,2.1-5.2c0-4.2-1-5.3-2.1-5.3c-1.1,0-2.2,1-2.2,5.3C200.1,305.5,201.2,306.5,202.3,306.5z"/>
		<path d="M215,301.3c0,4.5-1.9,6-3.7,6c-1.9,0-3.8-1.6-3.8-6c0-4.5,1.9-6.1,3.8-6.1C213.1,295.2,215,296.8,215,301.3z M211.2,306.5
			c1.1,0,2.1-1.1,2.1-5.2c0-4.2-1-5.3-2.1-5.3c-1.1,0-2.2,1-2.2,5.3C209.1,305.5,210.1,306.5,211.2,306.5z"/>
		<path d="M216,311.2l-0.3-0.6c1.4-0.7,2.5-1.7,2.8-3.5l0.1,0.8l-0.9-0.7c-0.5-0.4-0.7-0.8-0.7-1.3c0-0.6,0.4-1.1,1.1-1.1
			c0.3,0,0.7,0.1,1.1,0.5c0.1,0.5,0.2,0.9,0.2,1.3C219.5,308.8,217.8,310.5,216,311.2z"/>
		<path d="M229.3,301.3c0,4.5-1.9,6-3.7,6c-1.9,0-3.8-1.6-3.8-6c0-4.5,1.9-6.1,3.8-6.1C227.5,295.2,229.3,296.8,229.3,301.3z
			 M225.6,306.5c1.1,0,2.1-1.1,2.1-5.2c0-4.2-1-5.3-2.1-5.3c-1.1,0-2.2,1-2.2,5.3C223.4,305.5,224.4,306.5,225.6,306.5z"/>
		<path d="M238.3,301.3c0,4.5-1.9,6-3.7,6c-1.9,0-3.8-1.6-3.8-6c0-4.5,1.9-6.1,3.8-6.1C236.4,295.2,238.3,296.8,238.3,301.3z
			 M234.5,306.5c1.1,0,2.1-1.1,2.1-5.2c0-4.2-1-5.3-2.1-5.3c-1.1,0-2.2,1-2.2,5.3C232.4,305.5,233.4,306.5,234.5,306.5z"/>
		<path d="M247.2,301.3c0,4.5-1.9,6-3.7,6c-1.9,0-3.8-1.6-3.8-6c0-4.5,1.9-6.1,3.8-6.1C245.3,295.2,247.2,296.8,247.2,301.3z
			 M243.5,306.5c1.1,0,2.1-1.1,2.1-5.2c0-4.2-1-5.3-2.1-5.3c-1.1,0-2.2,1-2.2,5.3C241.3,305.5,242.3,306.5,243.5,306.5z"/>
	</g>
</g>
<g>
	<g>
		<path d="M281.4,303.7c0-1.9-0.9-2.7-2.1-2.7c-0.8,0-1.8,0.3-2.5,1.1l-0.3-0.3c0.8-1.2,2-1.9,3.2-1.9c1.9,0,3.3,1.4,3.3,3.5
			c0,2.6-1.6,3.9-3.7,3.9c-2.4,0-3.9-1.9-3.9-5.1c0-3.5,2.4-6.5,6.8-7l0.1,0.6c-3.8,0.9-5.4,2.9-5.4,6.2c0,3.1,0.9,4.6,2.4,4.6
			C280.6,306.5,281.4,305.6,281.4,303.7z"/>
		<path d="M291.9,301.3c0,4.5-1.9,6-3.7,6c-1.9,0-3.8-1.6-3.8-6c0-4.5,1.9-6.1,3.8-6.1C290,295.2,291.9,296.8,291.9,301.3z
			 M288.1,306.5c1.1,0,2.1-1.1,2.1-5.2c0-4.2-1-5.3-2.1-5.3c-1.1,0-2.2,1-2.2,5.3C286,305.5,287,306.5,288.1,306.5z"/>
		<path d="M300.8,301.3c0,4.5-1.9,6-3.7,6c-1.9,0-3.8-1.6-3.8-6c0-4.5,1.9-6.1,3.8-6.1C299,295.2,300.8,296.8,300.8,301.3z
			 M297.1,306.5c1.1,0,2.1-1.1,2.1-5.2c0-4.2-1-5.3-2.1-5.3c-1.1,0-2.2,1-2.2,5.3C294.9,305.5,296,306.5,297.1,306.5z"/>
		<path d="M301.9,311.2l-0.3-0.6c1.4-0.7,2.5-1.7,2.8-3.5l0.1,0.8l-0.9-0.7c-0.5-0.4-0.7-0.8-0.7-1.3c0-0.6,0.4-1.1,1.1-1.1
			c0.3,0,0.7,0.1,1.1,0.5c0.1,0.5,0.2,0.9,0.2,1.3C305.4,308.8,303.6,310.5,301.9,311.2z"/>
		<path d="M315.2,301.3c0,4.5-1.9,6-3.7,6c-1.9,0-3.8-1.6-3.8-6c0-4.5,1.9-6.1,3.8-6.1C313.3,295.2,315.2,296.8,315.2,301.3z
			 M311.4,306.5c1.1,0,2.1-1.1,2.1-5.2c0-4.2-1-5.3-2.1-5.3c-1.1,0-2.2,1-2.2,5.3C309.3,305.5,310.3,306.5,311.4,306.5z"/>
		<path d="M324.1,301.3c0,4.5-1.9,6-3.7,6c-1.9,0-3.8-1.6-3.8-6c0-4.5,1.9-6.1,3.8-6.1C322.3,295.2,324.1,296.8,324.1,301.3z
			 M320.4,306.5c1.1,0,2.1-1.1,2.1-5.2c0-4.2-1-5.3-2.1-5.3c-1.1,0-2.2,1-2.2,5.3C318.2,305.5,319.2,306.5,320.4,306.5z"/>
		<path d="M333.1,301.3c0,4.5-1.9,6-3.7,6c-1.9,0-3.8-1.6-3.8-6c0-4.5,1.9-6.1,3.8-6.1C331.2,295.2,333.1,296.8,333.1,301.3z
			 M329.3,306.5c1.1,0,2.1-1.1,2.1-5.2c0-4.2-1-5.3-2.1-5.3c-1.1,0-2.2,1-2.2,5.3C327.2,305.5,328.2,306.5,329.3,306.5z"/>
	</g>
</g>
<g>
	<g>
		<path d="M364.3,301.2l0.8,0.3c-1.4,0.8-2.2,1.5-2.2,2.8c0,1.3,1,2.2,2.3,2.2c1.3,0,2.1-1,2.1-2.2c0-1.1-0.7-1.7-2.8-2.7
			c-1.9-0.9-2.7-2.1-2.7-3.4c0-1.9,1.5-3,3.3-3c1.9,0,3.1,1.2,3.1,2.8c0,0.9-0.6,2.1-2.6,3.1l-0.7-0.3c1.5-1,2-1.7,2-2.8
			c0-1.1-0.6-2-1.8-2c-1,0-1.9,0.7-1.9,1.8c0,1,0.5,1.9,2.6,2.9c2,0.9,3,1.9,3,3.6c0,1.8-1.6,3.1-3.6,3.1c-2.1,0-3.7-1-3.7-2.9
			C361.5,303,362.5,302.1,364.3,301.2z"/>
		<path d="M377.9,301.3c0,4.5-1.9,6-3.7,6c-1.9,0-3.8-1.6-3.8-6c0-4.5,1.9-6.1,3.8-6.1C376,295.2,377.9,296.8,377.9,301.3z
			 M374.1,306.5c1.1,0,2.1-1.1,2.1-5.2c0-4.2-1-5.3-2.1-5.3c-1.1,0-2.2,1-2.2,5.3C372,305.5,373,306.5,374.1,306.5z"/>
		<path d="M386.8,301.3c0,4.5-1.9,6-3.7,6c-1.9,0-3.8-1.6-3.8-6c0-4.5,1.9-6.1,3.8-6.1C384.9,295.2,386.8,296.8,386.8,301.3z
			 M383.1,306.5c1.1,0,2.1-1.1,2.1-5.2c0-4.2-1-5.3-2.1-5.3c-1.1,0-2.2,1-2.2,5.3C380.9,305.5,381.9,306.5,383.1,306.5z"/>
		<path d="M387.9,311.2l-0.3-0.6c1.4-0.7,2.5-1.7,2.8-3.5l0.1,0.8l-0.9-0.7c-0.5-0.4-0.7-0.8-0.7-1.3c0-0.6,0.4-1.1,1.1-1.1
			c0.3,0,0.7,0.1,1.1,0.5c0.1,0.5,0.2,0.9,0.2,1.3C391.3,308.8,389.6,310.5,387.9,311.2z"/>
		<path d="M401.1,301.3c0,4.5-1.9,6-3.7,6c-1.9,0-3.8-1.6-3.8-6c0-4.5,1.9-6.1,3.8-6.1C399.3,295.2,401.1,296.8,401.1,301.3z
			 M397.4,306.5c1.1,0,2.1-1.1,2.1-5.2c0-4.2-1-5.3-2.1-5.3c-1.1,0-2.2,1-2.2,5.3C395.3,305.5,396.3,306.5,397.4,306.5z"/>
		<path d="M410.1,301.3c0,4.5-1.9,6-3.7,6c-1.9,0-3.8-1.6-3.8-6c0-4.5,1.9-6.1,3.8-6.1C408.2,295.2,410.1,296.8,410.1,301.3z
			 M406.4,306.5c1.1,0,2.1-1.1,2.1-5.2c0-4.2-1-5.3-2.1-5.3c-1.1,0-2.2,1-2.2,5.3C404.2,305.5,405.2,306.5,406.4,306.5z"/>
		<path d="M419,301.3c0,4.5-1.9,6-3.7,6c-1.9,0-3.8-1.6-3.8-6c0-4.5,1.9-6.1,3.8-6.1C417.2,295.2,419,296.8,419,301.3z M415.3,306.5
			c1.1,0,2.1-1.1,2.1-5.2c0-4.2-1-5.3-2.1-5.3c-1.1,0-2.2,1-2.2,5.3C413.2,305.5,414.2,306.5,415.3,306.5z"/>
	</g>
</g>
<g>
	<g>
		<path d="M447,306.5v0.6h-6.6v-0.6l2.6-0.4h1.4L447,306.5z M444.2,295.3l0.3,0.2l-0.1,2.6v5.2c0,1.3,0,2.5,0.1,3.8h-1.5
			c0-1.3,0.1-2.5,0.1-3.8v-6.5l-2.4,0.2v-0.7L444.2,295.3z"/>
		<path d="M448.3,311.2l-0.3-0.6c1.4-0.7,2.5-1.7,2.8-3.5l0.1,0.8l-0.9-0.7c-0.5-0.4-0.7-0.8-0.7-1.3c0-0.6,0.4-1.1,1.1-1.1
			c0.3,0,0.7,0.1,1.1,0.5c0.1,0.5,0.2,0.9,0.2,1.3C451.8,308.8,450,310.5,448.3,311.2z"/>
		<path d="M461.6,301.3c0,4.5-1.9,6-3.7,6c-1.9,0-3.8-1.6-3.8-6c0-4.5,1.9-6.1,3.8-6.1C459.7,295.2,461.6,296.8,461.6,301.3z
			 M457.9,306.5c1.1,0,2.1-1.1,2.1-5.2c0-4.2-1-5.3-2.1-5.3c-1.1,0-2.2,1-2.2,5.3C455.7,305.5,456.7,306.5,457.9,306.5z"/>
		<path d="M470.5,301.3c0,4.5-1.9,6-3.7,6c-1.9,0-3.8-1.6-3.8-6c0-4.5,1.9-6.1,3.8-6.1C468.7,295.2,470.5,296.8,470.5,301.3z
			 M466.8,306.5c1.1,0,2.1-1.1,2.1-5.2c0-4.2-1-5.3-2.1-5.3c-1.1,0-2.2,1-2.2,5.3C464.6,305.5,465.7,306.5,466.8,306.5z"/>
		<path d="M479.5,301.3c0,4.5-1.9,6-3.7,6c-1.9,0-3.8-1.6-3.8-6c0-4.5,1.9-6.1,3.8-6.1C477.6,295.2,479.5,296.8,479.5,301.3z
			 M475.7,306.5c1.1,0,2.1-1.1,2.1-5.2c0-4.2-1-5.3-2.1-5.3c-1.1,0-2.2,1-2.2,5.3C473.6,305.5,474.6,306.5,475.7,306.5z"/>
		<path d="M480.5,311.2l-0.3-0.6c1.4-0.7,2.5-1.7,2.8-3.5l0.1,0.8l-0.9-0.7c-0.5-0.4-0.7-0.8-0.7-1.3c0-0.6,0.4-1.1,1.1-1.1
			c0.3,0,0.7,0.1,1.1,0.5c0.1,0.5,0.2,0.9,0.2,1.3C484,308.8,482.3,310.5,480.5,311.2z"/>
		<path d="M493.8,301.3c0,4.5-1.9,6-3.7,6c-1.9,0-3.8-1.6-3.8-6c0-4.5,1.9-6.1,3.8-6.1C492,295.2,493.8,296.8,493.8,301.3z
			 M490.1,306.5c1.1,0,2.1-1.1,2.1-5.2c0-4.2-1-5.3-2.1-5.3c-1.1,0-2.2,1-2.2,5.3C487.9,305.5,489,306.5,490.1,306.5z"/>
		<path d="M502.8,301.3c0,4.5-1.9,6-3.7,6c-1.9,0-3.8-1.6-3.8-6c0-4.5,1.9-6.1,3.8-6.1C500.9,295.2,502.8,296.8,502.8,301.3z
			 M499,306.5c1.1,0,2.1-1.1,2.1-5.2c0-4.2-1-5.3-2.1-5.3c-1.1,0-2.2,1-2.2,5.3C496.9,305.5,497.9,306.5,499,306.5z"/>
		<path d="M511.7,301.3c0,4.5-1.9,6-3.7,6c-1.9,0-3.8-1.6-3.8-6c0-4.5,1.9-6.1,3.8-6.1C509.9,295.2,511.7,296.8,511.7,301.3z
			 M508,306.5c1.1,0,2.1-1.1,2.1-5.2c0-4.2-1-5.3-2.1-5.3c-1.1,0-2.2,1-2.2,5.3C505.8,305.5,506.8,306.5,508,306.5z"/>
	</g>
</g>
</svg>
