<?xml version="1.0" encoding="utf-8"?>
<!-- Generator: Adobe Illustrator 24.0.3, SVG Export Plug-In . SVG Version: 6.00 Build 0)  -->
<svg version="1.1" id="Layer_1" xmlns="http://www.w3.org/2000/svg" xmlns:xlink="http://www.w3.org/1999/xlink" x="0px" y="0px"
	 width="538px" height="338.3px" viewBox="0 0 538 338.3" style="enable-background:new 0 0 538 338.3;" xml:space="preserve">
<style type="text/css">
	.st0{fill:none;stroke:#E80F2E;stroke-width:2;stroke-linecap:round;stroke-linejoin:round;stroke-miterlimit:10;}
	.st1{fill:none;stroke:#78BF5A;stroke-width:2;stroke-linecap:round;stroke-linejoin:round;stroke-miterlimit:10;}
	.st2{fill:none;stroke:#000000;stroke-width:2;stroke-linecap:square;stroke-linejoin:round;stroke-miterlimit:10;}
	.st3{fill:none;stroke:#000000;stroke-width:2;stroke-linejoin:round;stroke-miterlimit:10;}
</style>
<polyline class="st0" points="90.6,287.8 91,287.7 91.4,287.6 91.8,287.5 92.3,287.4 92.7,287.3 93.1,287.1 93.5,287 94,286.9 
	94.4,286.8 94.8,286.7 95.3,286.6 95.7,286.5 96.1,286.4 96.5,286.2 97,286.1 97.4,286 97.8,285.9 98.2,285.8 98.7,285.7 
	99.1,285.6 99.5,285.5 100,285.4 100.4,285.3 100.8,285.1 101.2,285 101.7,284.9 102.1,284.8 102.5,284.7 103,284.6 103.4,284.5 
	103.8,284.4 104.2,284.3 104.7,284.2 105.1,284.1 105.5,284 106,283.9 106.4,283.8 106.8,283.7 107.2,283.6 107.7,283.4 
	108.1,283.3 108.5,283.2 108.9,283.1 109.4,283 109.8,282.9 110.2,282.8 110.7,282.7 111.1,282.6 111.5,282.5 111.9,282.4 
	112.4,282.3 112.8,282.2 113.2,282.1 113.7,282 114.1,281.9 114.5,281.8 114.9,281.7 115.4,281.6 115.8,281.5 116.2,281.4 
	116.7,281.3 117.1,281.2 117.5,281.1 117.9,281 118.4,280.9 118.8,280.8 119.2,280.7 119.6,280.6 120.1,280.5 120.5,280.4 
	120.9,280.3 121.4,280.2 121.8,280.1 122.2,280 122.6,279.9 123.1,279.8 123.5,279.7 123.9,279.6 124.4,279.5 124.8,279.5 
	125.2,279.4 125.6,279.3 126.1,279.2 126.5,279.1 126.9,279 127.4,278.9 127.8,278.8 128.2,278.7 128.6,278.6 129.1,278.5 
	129.5,278.4 129.9,278.3 130.3,278.2 130.8,278.1 131.2,278 131.6,277.9 132.1,277.8 132.5,277.7 132.9,277.6 133.3,277.5 
	133.8,277.5 134.2,277.4 134.6,277.3 135.1,277.2 135.5,277.1 135.9,277 136.3,276.9 136.8,276.8 137.2,276.7 137.6,276.6 
	138.1,276.5 138.5,276.4 138.9,276.3 139.3,276.2 139.8,276.1 140.2,276 140.6,276 141,275.9 141.5,275.8 141.9,275.7 142.3,275.6 
	142.8,275.5 143.2,275.4 143.6,275.3 144,275.2 144.5,275.1 144.9,275 145.3,274.9 145.8,274.8 146.2,274.7 146.6,274.6 147,274.5 
	147.5,274.5 147.9,274.4 148.3,274.3 148.8,274.2 149.2,274.1 149.6,274 150,273.9 150.5,273.8 150.9,273.7 151.3,273.6 
	151.7,273.5 152.2,273.4 152.6,273.3 153,273.2 153.5,273.1 153.9,273 154.3,272.9 154.7,272.9 155.2,272.8 155.6,272.7 156,272.6 
	156.5,272.5 156.9,272.4 157.3,272.3 157.7,272.2 158.2,272.1 158.6,272 159,271.9 159.5,271.8 159.9,271.7 160.3,271.6 
	160.7,271.5 161.2,271.4 161.6,271.3 162,271.2 162.4,271.1 162.9,271 163.3,270.9 163.7,270.8 164.2,270.7 164.6,270.7 165,270.6 
	165.4,270.5 165.9,270.4 166.3,270.3 166.7,270.2 167.2,270.1 167.6,270 168,269.9 168.4,269.8 168.9,269.7 169.3,269.6 
	169.7,269.5 170.2,269.4 170.6,269.3 171,269.2 171.4,269.1 171.9,269 172.3,268.9 172.7,268.8 173.1,268.7 173.6,268.6 174,268.5 
	174.4,268.4 174.9,268.3 175.3,268.2 175.7,268.1 176.1,268 176.6,267.9 177,267.8 177.4,267.7 177.9,267.6 178.3,267.4 
	178.7,267.3 179.1,267.2 179.6,267.1 180,267 180.4,266.9 180.9,266.8 181.3,266.7 181.7,266.6 182.1,266.5 182.6,266.4 183,266.3 
	183.4,266.2 183.8,266.1 184.3,266 184.7,265.9 185.1,265.8 185.6,265.7 186,265.6 186.4,265.4 186.8,265.3 187.3,265.2 
	187.7,265.1 188.1,265 188.6,264.9 189,264.8 189.4,264.7 189.8,264.6 190.3,264.5 190.7,264.4 191.1,264.3 191.6,264.1 192,264 
	192.4,263.9 192.8,263.8 193.3,263.7 193.7,263.6 194.1,263.5 194.5,263.4 195,263.2 195.4,263.1 195.8,263 196.3,262.9 
	196.7,262.8 197.1,262.7 197.5,262.6 198,262.5 198.4,262.3 198.8,262.2 199.3,262.1 199.7,262 200.1,261.9 200.5,261.8 201,261.6 
	201.4,261.5 201.8,261.4 202.3,261.3 202.7,261.2 203.1,261.1 203.5,260.9 204,260.8 204.4,260.7 204.8,260.6 205.2,260.5 
	205.7,260.4 206.1,260.2 206.5,260.1 207,260 207.4,259.9 207.8,259.8 208.2,259.6 208.7,259.5 209.1,259.4 209.5,259.3 210,259.2 
	210.4,259 210.8,258.9 211.2,258.8 211.7,258.7 212.1,258.5 212.5,258.4 213,258.3 213.4,258.2 213.8,258 214.2,257.9 214.7,257.8 
	215.1,257.7 215.5,257.5 215.9,257.4 216.4,257.3 216.8,257.2 217.2,257 217.7,256.9 218.1,256.8 218.5,256.7 "/>
<polyline class="st0" points="218.5,256.7 218.9,256.5 219.4,256.4 219.8,256.3 220.2,256.2 220.7,256 221.1,255.9 221.5,255.8 
	221.9,255.6 222.4,255.5 222.8,255.4 223.2,255.3 223.7,255.1 224.1,255 224.5,254.9 224.9,254.7 225.4,254.6 225.8,254.5 
	226.2,254.3 226.6,254.2 227.1,254.1 227.5,254 227.9,253.8 228.4,253.7 228.8,253.6 229.2,253.4 229.6,253.3 230.1,253.2 
	230.5,253 230.9,252.9 231.4,252.8 231.8,252.6 232.2,252.5 232.6,252.4 233.1,252.2 233.5,252.1 233.9,252 234.4,251.8 
	234.8,251.7 235.2,251.6 235.6,251.4 236.1,251.3 236.5,251.1 236.9,251 237.3,250.9 237.8,250.7 238.2,250.6 238.6,250.5 
	239.1,250.3 239.5,250.2 239.9,250.1 240.3,249.9 240.8,249.8 241.2,249.6 241.6,249.5 242.1,249.4 242.5,249.2 242.9,249.1 
	243.3,249 243.8,248.8 244.2,248.7 244.6,248.5 245.1,248.4 245.5,248.3 245.9,248.1 246.3,248 246.8,247.8 247.2,247.7 
	247.6,247.6 248,247.4 248.5,247.3 248.9,247.1 249.3,247 249.8,246.9 250.2,246.7 250.6,246.6 251,246.4 251.5,246.3 251.9,246.1 
	252.3,246 252.8,245.9 253.2,245.7 253.6,245.6 254,245.4 254.5,245.3 254.9,245.2 255.3,245 255.8,244.9 256.2,244.7 256.6,244.6 
	257,244.4 257.5,244.3 257.9,244.1 258.3,244 258.7,243.9 259.2,243.7 259.6,243.6 260,243.4 260.5,243.3 260.9,243.1 261.3,243 
	261.7,242.9 262.2,242.7 262.6,242.6 263,242.4 263.5,242.3 263.9,242.1 264.3,242 264.7,241.8 265.2,241.7 265.6,241.5 266,241.4 
	266.5,241.3 266.9,241.1 267.3,241 267.7,240.8 268.2,240.7 268.6,240.5 269,240.4 269.4,240.2 269.9,240.1 270.3,239.9 
	270.7,239.8 271.2,239.6 271.6,239.5 272,239.4 272.4,239.2 272.9,239.1 273.3,238.9 273.7,238.8 274.2,238.6 274.6,238.5 
	275,238.3 275.4,238.2 275.9,238 276.3,237.9 276.7,237.7 277.2,237.6 277.6,237.4 278,237.3 278.4,237.1 278.9,237 279.3,236.8 
	279.7,236.7 280.1,236.6 280.6,236.4 281,236.3 281.4,236.1 281.9,236 282.3,235.8 282.7,235.7 283.1,235.5 283.6,235.4 284,235.2 
	284.4,235.1 284.9,234.9 285.3,234.8 285.7,234.6 286.1,234.5 286.6,234.3 287,234.2 287.4,234 287.9,233.9 288.3,233.7 
	288.7,233.6 289.1,233.4 289.6,233.3 290,233.1 290.4,233 290.8,232.8 291.3,232.7 291.7,232.5 292.1,232.4 292.6,232.2 293,232.1 
	293.4,231.9 293.8,231.8 294.3,231.6 294.7,231.5 295.1,231.3 295.6,231.2 296,231 296.4,230.9 296.8,230.7 297.3,230.6 
	297.7,230.4 298.1,230.2 298.6,230.1 299,229.9 299.4,229.8 299.8,229.6 300.3,229.5 300.7,229.3 301.1,229.2 301.5,229 302,228.9 
	302.4,228.7 302.8,228.6 303.3,228.4 303.7,228.3 304.1,228.1 304.5,228 305,227.8 305.4,227.6 305.8,227.5 306.3,227.3 
	306.7,227.2 307.1,227 307.5,226.9 308,226.7 308.4,226.6 308.8,226.4 309.3,226.3 309.7,226.1 310.1,225.9 310.5,225.8 311,225.6 
	311.4,225.5 311.8,225.3 312.2,225.2 312.7,225 313.1,224.9 313.5,224.7 314,224.5 314.4,224.4 314.8,224.2 315.2,224.1 
	315.7,223.9 316.1,223.8 316.5,223.6 317,223.4 317.4,223.3 317.8,223.1 318.2,223 318.7,222.8 319.1,222.6 319.5,222.5 320,222.3 
	320.4,222.2 320.8,222 321.2,221.8 321.7,221.7 322.1,221.5 322.5,221.4 322.9,221.2 323.4,221 323.8,220.9 324.2,220.7 
	324.7,220.6 325.1,220.4 325.5,220.2 325.9,220.1 326.4,219.9 326.8,219.7 327.2,219.6 327.7,219.4 328.1,219.3 328.5,219.1 
	328.9,218.9 329.4,218.8 329.8,218.6 330.2,218.4 330.7,218.3 331.1,218.1 331.5,217.9 331.9,217.8 332.4,217.6 332.8,217.4 
	333.2,217.3 333.6,217.1 334.1,216.9 334.5,216.8 334.9,216.6 335.4,216.4 335.8,216.3 336.2,216.1 336.6,215.9 337.1,215.8 
	337.5,215.6 337.9,215.4 338.4,215.3 338.8,215.1 339.2,214.9 339.6,214.7 340.1,214.6 340.5,214.4 340.9,214.2 341.4,214.1 
	341.8,213.9 342.2,213.7 342.6,213.5 343.1,213.4 343.5,213.2 343.9,213 344.3,212.8 344.8,212.7 345.2,212.5 345.6,212.3 
	346.1,212.1 346.5,212 "/>
<polyline class="st0" points="346.5,212 346.9,211.8 347.3,211.6 347.8,211.4 348.2,211.3 348.6,211.1 349.1,210.9 349.5,210.7 
	349.9,210.5 350.3,210.4 350.8,210.2 351.2,210 351.6,209.8 352.1,209.6 352.5,209.5 352.9,209.3 353.3,209.1 353.8,208.9 
	354.2,208.7 354.6,208.6 355,208.4 355.5,208.2 355.9,208 356.3,207.8 356.8,207.6 357.2,207.4 357.6,207.3 358,207.1 358.5,206.9 
	358.9,206.7 359.3,206.5 359.8,206.3 360.2,206.1 360.6,205.9 361,205.8 361.5,205.6 361.9,205.4 362.3,205.2 362.8,205 
	363.2,204.8 363.6,204.6 364,204.4 364.5,204.2 364.9,204 365.3,203.8 365.7,203.6 366.2,203.5 366.6,203.3 367,203.1 367.5,202.9 
	367.9,202.7 368.3,202.5 368.7,202.3 369.2,202.1 369.6,201.9 370,201.7 370.5,201.5 370.9,201.3 371.3,201.1 371.7,200.9 
	372.2,200.7 372.6,200.5 373,200.3 373.5,200.1 373.9,199.9 374.3,199.7 374.7,199.5 375.2,199.3 375.6,199.1 376,198.9 
	376.4,198.6 376.9,198.4 377.3,198.2 377.7,198 378.2,197.8 378.6,197.6 379,197.4 379.4,197.2 379.9,197 380.3,196.8 380.7,196.6 
	381.2,196.4 381.6,196.1 382,195.9 382.4,195.7 382.9,195.5 383.3,195.3 383.7,195.1 384.2,194.9 384.6,194.7 385,194.4 
	385.4,194.2 385.9,194 386.3,193.8 386.7,193.6 387.1,193.4 387.6,193.1 388,192.9 388.4,192.7 388.9,192.5 389.3,192.3 389.7,192 
	390.1,191.8 390.6,191.6 391,191.4 391.4,191.2 391.9,190.9 392.3,190.7 392.7,190.5 393.1,190.3 393.6,190 394,189.8 394.4,189.6 
	394.9,189.4 395.3,189.1 395.7,188.9 396.1,188.7 396.6,188.5 397,188.2 397.4,188 397.8,187.8 398.3,187.6 398.7,187.3 
	399.1,187.1 399.6,186.9 400,186.6 400.4,186.4 400.8,186.2 401.3,185.9 401.7,185.7 402.1,185.5 402.6,185.2 403,185 403.4,184.8 
	403.8,184.5 404.3,184.3 404.7,184.1 405.1,183.8 405.6,183.6 406,183.4 406.4,183.1 406.8,182.9 407.3,182.6 407.7,182.4 
	408.1,182.2 408.5,181.9 409,181.7 409.4,181.5 409.8,181.2 410.3,181 410.7,180.7 411.1,180.5 411.5,180.3 412,180 412.4,179.8 
	412.8,179.5 413.3,179.3 413.7,179 414.1,178.8 414.5,178.6 415,178.3 415.4,178.1 415.8,177.8 416.3,177.6 416.7,177.3 
	417.1,177.1 417.5,176.8 418,176.6 418.4,176.3 418.8,176.1 419.2,175.9 419.7,175.6 420.1,175.4 420.5,175.1 421,174.9 
	421.4,174.6 421.8,174.4 422.2,174.1 422.7,173.9 423.1,173.6 423.5,173.4 424,173.1 424.4,172.9 424.8,172.6 425.2,172.4 
	425.7,172.1 426.1,171.9 426.5,171.6 427,171.4 427.4,171.1 427.8,170.9 428.2,170.6 428.7,170.3 429.1,170.1 429.5,169.8 
	429.9,169.6 430.4,169.3 430.8,169.1 431.2,168.8 431.7,168.6 432.1,168.3 432.5,168.1 432.9,167.8 433.4,167.6 433.8,167.3 
	434.2,167 434.7,166.8 435.1,166.5 435.5,166.3 435.9,166 436.4,165.8 436.8,165.5 437.2,165.3 437.7,165 438.1,164.7 438.5,164.5 
	438.9,164.2 439.4,164 439.8,163.7 440.2,163.5 440.6,163.2 441.1,163 441.5,162.7 441.9,162.4 442.4,162.2 442.8,161.9 
	443.2,161.7 443.6,161.4 444.1,161.2 444.5,160.9 444.9,160.6 445.4,160.4 445.8,160.1 446.2,159.9 446.6,159.6 447.1,159.4 
	447.5,159.1 447.9,158.8 448.4,158.6 448.8,158.3 449.2,158.1 449.6,157.8 450.1,157.6 450.5,157.3 450.9,157 451.3,156.8 
	451.8,156.5 452.2,156.3 452.6,156 453.1,155.8 453.5,155.5 453.9,155.2 454.3,155 454.8,154.7 455.2,154.5 455.6,154.2 456.1,154 
	456.5,153.7 456.9,153.5 457.3,153.2 457.8,152.9 458.2,152.7 458.6,152.4 459.1,152.2 459.5,151.9 459.9,151.7 460.3,151.4 
	460.8,151.2 461.2,150.9 461.6,150.7 462,150.4 462.5,150.1 462.9,149.9 463.3,149.6 463.8,149.4 464.2,149.1 464.6,148.9 
	465,148.6 465.5,148.4 465.9,148.1 466.3,147.9 466.8,147.6 467.2,147.4 467.6,147.1 468,146.9 468.5,146.6 468.9,146.4 
	469.3,146.1 469.8,145.9 470.2,145.6 470.6,145.4 471,145.1 471.5,144.9 471.9,144.6 472.3,144.4 472.7,144.1 473.2,143.9 
	473.6,143.6 474,143.4 474.5,143.1 "/>
<polyline class="st0" points="474.5,143.1 474.9,142.9 475.3,142.6 475.7,142.4 476.2,142.1 476.6,141.9 477,141.7 477.5,141.4 
	477.9,141.2 478.3,140.9 478.7,140.7 479.2,140.4 479.6,140.2 480,139.9 480.5,139.7 480.9,139.5 481.3,139.2 481.7,139 
	482.2,138.7 482.6,138.5 483,138.3 483.4,138 483.9,137.8 484.3,137.5 484.7,137.3 485.2,137.1 485.6,136.8 486,136.6 486.4,136.3 
	486.9,136.1 487.3,135.9 487.7,135.6 488.2,135.4 488.6,135.2 489,134.9 489.4,134.7 489.9,134.5 490.3,134.2 490.7,134 
	491.2,133.8 491.6,133.5 492,133.3 492.4,133.1 492.9,132.8 493.3,132.6 493.7,132.4 494.1,132.1 494.6,131.9 495,131.7 
	495.4,131.5 495.9,131.2 496.3,131 496.7,130.8 497.1,130.6 497.6,130.3 498,130.1 498.4,129.9 498.9,129.7 499.3,129.4 
	499.7,129.2 500.1,129 500.6,128.8 501,128.5 501.4,128.3 501.9,128.1 502.3,127.9 502.7,127.6 503.1,127.4 503.6,127.2 504,127 
	504.4,126.8 504.8,126.6 505.3,126.3 505.7,126.1 506.1,125.9 506.6,125.7 507,125.5 507.4,125.3 507.8,125 508.3,124.8 
	508.7,124.6 509.1,124.4 509.6,124.2 510,124 510.4,123.8 510.8,123.5 511.3,123.3 511.7,123.1 512.1,122.9 512.6,122.7 513,122.5 
	513.4,122.3 513.8,122.1 514.3,121.9 514.7,121.7 515.1,121.5 515.5,121.3 "/>
<polyline class="st1" points="93.5,287.8 93.5,287.8 94,287.7 94.4,287.6 94.8,287.5 95.3,287.4 95.7,287.3 96.1,287.2 96.5,287.1 
	97,286.9 97.4,286.8 97.8,286.7 98.2,286.6 98.7,286.5 99.1,286.4 99.5,286.3 100,286.2 100.4,286.1 100.8,286 101.2,285.9 
	101.7,285.8 102.1,285.7 102.5,285.6 103,285.5 103.4,285.4 103.8,285.3 104.2,285.2 104.7,285.1 105.1,285 105.5,284.8 106,284.7 
	106.4,284.6 106.8,284.5 107.2,284.4 107.7,284.3 108.1,284.2 108.5,284.1 108.9,284 109.4,283.9 109.8,283.8 110.2,283.7 
	110.7,283.6 111.1,283.5 111.5,283.4 111.9,283.3 112.4,283.2 112.8,283.1 113.2,283 113.7,282.9 114.1,282.8 114.5,282.7 
	114.9,282.6 115.4,282.5 115.8,282.5 116.2,282.4 116.7,282.3 117.1,282.2 117.5,282.1 117.9,282 118.4,281.9 118.8,281.8 
	119.2,281.7 119.6,281.6 120.1,281.5 120.5,281.4 120.9,281.3 121.4,281.2 121.8,281.1 122.2,281 122.6,280.9 123.1,280.8 
	123.5,280.7 123.9,280.6 124.4,280.5 124.8,280.4 125.2,280.3 125.6,280.2 126.1,280.2 126.5,280.1 126.9,280 127.4,279.9 
	127.8,279.8 128.2,279.7 128.6,279.6 129.1,279.5 129.5,279.4 129.9,279.3 130.3,279.2 130.8,279.1 131.2,279 131.6,278.9 
	132.1,278.8 132.5,278.7 132.9,278.7 133.3,278.6 133.8,278.5 134.2,278.4 134.6,278.3 135.1,278.2 135.5,278.1 135.9,278 
	136.3,277.9 136.8,277.8 137.2,277.7 137.6,277.6 138.1,277.5 138.5,277.4 138.9,277.4 139.3,277.3 139.8,277.2 140.2,277.1 
	140.6,277 141,276.9 141.5,276.8 141.9,276.7 142.3,276.6 142.8,276.5 143.2,276.4 143.6,276.3 144,276.2 144.5,276.1 144.9,276.1 
	145.3,276 145.8,275.9 146.2,275.8 146.6,275.7 147,275.6 147.5,275.5 147.9,275.4 148.3,275.3 148.8,275.2 149.2,275.1 149.6,275 
	150,274.9 150.5,274.8 150.9,274.8 151.3,274.7 151.7,274.6 152.2,274.5 152.6,274.4 153,274.3 153.5,274.2 153.9,274.1 154.3,274 
	154.7,273.9 155.2,273.8 155.6,273.7 156,273.6 156.5,273.5 156.9,273.4 157.3,273.3 157.7,273.2 158.2,273.1 158.6,273 159,273 
	159.5,272.9 159.9,272.8 160.3,272.7 160.7,272.6 161.2,272.5 161.6,272.4 162,272.3 162.4,272.2 162.9,272.1 163.3,272 
	163.7,271.9 164.2,271.8 164.6,271.7 165,271.6 165.4,271.5 165.9,271.4 166.3,271.3 166.7,271.2 167.2,271.1 167.6,271 168,270.9 
	168.4,270.8 168.9,270.7 169.3,270.6 169.7,270.5 170.2,270.4 170.6,270.3 171,270.2 171.4,270.1 171.9,270 172.3,269.9 
	172.7,269.8 173.1,269.7 173.6,269.6 174,269.5 174.4,269.4 174.9,269.3 175.3,269.2 175.7,269.1 176.1,269 176.6,268.9 177,268.8 
	177.4,268.7 177.9,268.6 178.3,268.5 178.7,268.4 179.1,268.3 179.6,268.2 180,268.1 180.4,268 180.9,267.9 181.3,267.7 
	181.7,267.6 182.1,267.5 182.6,267.4 183,267.3 183.4,267.2 183.8,267.1 184.3,267 184.7,266.9 185.1,266.8 185.6,266.7 186,266.6 
	186.4,266.5 186.8,266.4 187.3,266.2 187.7,266.1 188.1,266 188.6,265.9 189,265.8 189.4,265.7 189.8,265.6 190.3,265.5 
	190.7,265.4 191.1,265.3 191.6,265.1 192,265 192.4,264.9 192.8,264.8 193.3,264.7 193.7,264.6 194.1,264.5 194.5,264.4 195,264.2 
	195.4,264.1 195.8,264 196.3,263.9 196.7,263.8 197.1,263.7 197.5,263.6 198,263.4 198.4,263.3 198.8,263.2 199.3,263.1 199.7,263 
	200.1,262.9 200.5,262.7 201,262.6 201.4,262.5 201.8,262.4 202.3,262.3 202.7,262.2 203.1,262 203.5,261.9 204,261.8 204.4,261.7 
	204.8,261.6 205.2,261.4 205.7,261.3 206.1,261.2 206.5,261.1 207,261 207.4,260.8 207.8,260.7 208.2,260.6 208.7,260.5 
	209.1,260.4 209.5,260.2 210,260.1 210.4,260 210.8,259.9 211.2,259.7 211.7,259.6 212.1,259.5 212.5,259.4 213,259.2 213.4,259.1 
	213.8,259 214.2,258.9 214.7,258.7 215.1,258.6 215.5,258.5 215.9,258.4 216.4,258.2 216.8,258.1 217.2,258 217.7,257.9 
	218.1,257.7 218.5,257.6 218.9,257.5 219.4,257.4 219.8,257.2 220.2,257.1 220.7,257 221.1,256.8 "/>
<polyline class="st1" points="221.1,256.8 221.5,256.7 221.9,256.6 222.4,256.5 222.8,256.3 223.2,256.2 223.7,256.1 224.1,255.9 
	224.5,255.8 224.9,255.7 225.4,255.5 225.8,255.4 226.2,255.3 226.6,255.2 227.1,255 227.5,254.9 227.9,254.8 228.4,254.6 
	228.8,254.5 229.2,254.4 229.6,254.2 230.1,254.1 230.5,254 230.9,253.8 231.4,253.7 231.8,253.6 232.2,253.4 232.6,253.3 
	233.1,253.2 233.5,253 233.9,252.9 234.4,252.8 234.8,252.6 235.2,252.5 235.6,252.4 236.1,252.2 236.5,252.1 236.9,252 
	237.3,251.8 237.8,251.7 238.2,251.5 238.6,251.4 239.1,251.3 239.5,251.1 239.9,251 240.3,250.9 240.8,250.7 241.2,250.6 
	241.6,250.5 242.1,250.3 242.5,250.2 242.9,250 243.3,249.9 243.8,249.8 244.2,249.6 244.6,249.5 245.1,249.3 245.5,249.2 
	245.9,249.1 246.3,248.9 246.8,248.8 247.2,248.7 247.6,248.5 248,248.4 248.5,248.2 248.9,248.1 249.3,248 249.8,247.8 
	250.2,247.7 250.6,247.5 251,247.4 251.5,247.3 251.9,247.1 252.3,247 252.8,246.8 253.2,246.7 253.6,246.6 254,246.4 254.5,246.3 
	254.9,246.1 255.3,246 255.8,245.9 256.2,245.7 256.6,245.6 257,245.4 257.5,245.3 257.9,245.1 258.3,245 258.7,244.9 259.2,244.7 
	259.6,244.6 260,244.4 260.5,244.3 260.9,244.2 261.3,244 261.7,243.9 262.2,243.7 262.6,243.6 263,243.4 263.5,243.3 263.9,243.2 
	264.3,243 264.7,242.9 265.2,242.7 265.6,242.6 266,242.5 266.5,242.3 266.9,242.2 267.3,242 267.7,241.9 268.2,241.7 268.6,241.6 
	269,241.5 269.4,241.3 269.9,241.2 270.3,241 270.7,240.9 271.2,240.7 271.6,240.6 272,240.4 272.4,240.3 272.9,240.2 273.3,240 
	273.7,239.9 274.2,239.7 274.6,239.6 275,239.4 275.4,239.3 275.9,239.2 276.3,239 276.7,238.9 277.2,238.7 277.6,238.6 278,238.4 
	278.4,238.3 278.9,238.2 279.3,238 279.7,237.9 280.1,237.7 280.6,237.6 281,237.4 281.4,237.3 281.9,237.1 282.3,237 282.7,236.9 
	283.1,236.7 283.6,236.6 284,236.4 284.4,236.3 284.9,236.1 285.3,236 285.7,235.8 286.1,235.7 286.6,235.6 287,235.4 287.4,235.3 
	287.9,235.1 288.3,235 288.7,234.8 289.1,234.7 289.6,234.5 290,234.4 290.4,234.2 290.8,234.1 291.3,234 291.7,233.8 292.1,233.7 
	292.6,233.5 293,233.4 293.4,233.2 293.8,233.1 294.3,232.9 294.7,232.8 295.1,232.6 295.6,232.5 296,232.4 296.4,232.2 
	296.8,232.1 297.3,231.9 297.7,231.8 298.1,231.6 298.6,231.5 299,231.3 299.4,231.2 299.8,231 300.3,230.9 300.7,230.7 
	301.1,230.6 301.5,230.5 302,230.3 302.4,230.2 302.8,230 303.3,229.9 303.7,229.7 304.1,229.6 304.5,229.4 305,229.3 305.4,229.1 
	305.8,229 306.3,228.8 306.7,228.7 307.1,228.5 307.5,228.4 308,228.2 308.4,228.1 308.8,227.9 309.3,227.8 309.7,227.6 
	310.1,227.5 310.5,227.3 311,227.2 311.4,227 311.8,226.9 312.2,226.7 312.7,226.6 313.1,226.4 313.5,226.3 314,226.1 314.4,226 
	314.8,225.8 315.2,225.7 315.7,225.5 316.1,225.4 316.5,225.2 317,225.1 317.4,224.9 317.8,224.8 318.2,224.6 318.7,224.5 
	319.1,224.3 319.5,224.2 320,224 320.4,223.9 320.8,223.7 321.2,223.6 321.7,223.4 322.1,223.3 322.5,223.1 322.9,223 323.4,222.8 
	323.8,222.7 324.2,222.5 324.7,222.3 325.1,222.2 325.5,222 325.9,221.9 326.4,221.7 326.8,221.6 327.2,221.4 327.7,221.3 
	328.1,221.1 328.5,221 328.9,220.8 329.4,220.6 329.8,220.5 330.2,220.3 330.7,220.2 331.1,220 331.5,219.9 331.9,219.7 
	332.4,219.5 332.8,219.4 333.2,219.2 333.6,219.1 334.1,218.9 334.5,218.7 334.9,218.6 335.4,218.4 335.8,218.3 336.2,218.1 
	336.6,217.9 337.1,217.8 337.5,217.6 337.9,217.5 338.4,217.3 338.8,217.1 339.2,217 339.6,216.8 340.1,216.6 340.5,216.5 
	340.9,216.3 341.4,216.1 341.8,216 342.2,215.8 342.6,215.7 343.1,215.5 343.5,215.3 343.9,215.2 344.3,215 344.8,214.8 
	345.2,214.7 345.6,214.5 346.1,214.3 346.5,214.2 346.9,214 347.3,213.8 347.8,213.6 348.2,213.5 348.6,213.3 349.1,213.1 "/>
<polyline class="st1" points="349.1,213.1 349.5,213 349.9,212.8 350.3,212.6 350.8,212.5 351.2,212.3 351.6,212.1 352.1,211.9 
	352.5,211.8 352.9,211.6 353.3,211.4 353.8,211.2 354.2,211.1 354.6,210.9 355,210.7 355.5,210.5 355.9,210.4 356.3,210.2 
	356.8,210 357.2,209.8 357.6,209.7 358,209.5 358.5,209.3 358.9,209.1 359.3,208.9 359.8,208.8 360.2,208.6 360.6,208.4 361,208.2 
	361.5,208 361.9,207.9 362.3,207.7 362.8,207.5 363.2,207.3 363.6,207.1 364,206.9 364.5,206.8 364.9,206.6 365.3,206.4 
	365.7,206.2 366.2,206 366.6,205.8 367,205.6 367.5,205.5 367.9,205.3 368.3,205.1 368.7,204.9 369.2,204.7 369.6,204.5 370,204.3 
	370.5,204.1 370.9,203.9 371.3,203.8 371.7,203.6 372.2,203.4 372.6,203.2 373,203 373.5,202.8 373.9,202.6 374.3,202.4 
	374.7,202.2 375.2,202 375.6,201.8 376,201.6 376.4,201.4 376.9,201.2 377.3,201 377.7,200.8 378.2,200.6 378.6,200.4 379,200.2 
	379.4,200 379.9,199.8 380.3,199.6 380.7,199.4 381.2,199.2 381.6,199 382,198.8 382.4,198.6 382.9,198.4 383.3,198.2 383.7,198 
	384.2,197.8 384.6,197.6 385,197.4 385.4,197.2 385.9,197 386.3,196.8 386.7,196.6 387.1,196.4 387.6,196.2 388,196 388.4,195.8 
	388.9,195.5 389.3,195.3 389.7,195.1 390.1,194.9 390.6,194.7 391,194.5 391.4,194.3 391.9,194.1 392.3,193.9 392.7,193.6 
	393.1,193.4 393.6,193.2 394,193 394.4,192.8 394.9,192.6 395.3,192.4 395.7,192.1 396.1,191.9 396.6,191.7 397,191.5 397.4,191.3 
	397.8,191.1 398.3,190.8 398.7,190.6 399.1,190.4 399.6,190.2 400,190 400.4,189.7 400.8,189.5 401.3,189.3 401.7,189.1 
	402.1,188.9 402.6,188.6 403,188.4 403.4,188.2 403.8,188 404.3,187.8 404.7,187.5 405.1,187.3 405.6,187.1 406,186.9 406.4,186.6 
	406.8,186.4 407.3,186.2 407.7,186 408.1,185.7 408.5,185.5 409,185.3 409.4,185.1 409.8,184.8 410.3,184.6 410.7,184.4 
	411.1,184.1 411.5,183.9 412,183.7 412.4,183.5 412.8,183.2 413.3,183 413.7,182.8 414.1,182.5 414.5,182.3 415,182.1 415.4,181.8 
	415.8,181.6 416.3,181.4 416.7,181.2 417.1,180.9 417.5,180.7 418,180.5 418.4,180.2 418.8,180 419.2,179.8 419.7,179.5 
	420.1,179.3 420.5,179.1 421,178.8 421.4,178.6 421.8,178.4 422.2,178.1 422.7,177.9 423.1,177.7 423.5,177.4 424,177.2 
	424.4,176.9 424.8,176.7 425.2,176.5 425.7,176.2 426.1,176 426.5,175.8 427,175.5 427.4,175.3 427.8,175.1 428.2,174.8 
	428.7,174.6 429.1,174.4 429.5,174.1 429.9,173.9 430.4,173.6 430.8,173.4 431.2,173.2 431.7,172.9 432.1,172.7 432.5,172.5 
	432.9,172.2 433.4,172 433.8,171.7 434.2,171.5 434.7,171.3 435.1,171 435.5,170.8 435.9,170.6 436.4,170.3 436.8,170.1 
	437.2,169.8 437.7,169.6 438.1,169.4 438.5,169.1 438.9,168.9 439.4,168.7 439.8,168.4 440.2,168.2 440.6,167.9 441.1,167.7 
	441.5,167.5 441.9,167.2 442.4,167 442.8,166.8 443.2,166.5 443.6,166.3 444.1,166 444.5,165.8 444.9,165.6 445.4,165.3 
	445.8,165.1 446.2,164.9 446.6,164.6 447.1,164.4 447.5,164.2 447.9,163.9 448.4,163.7 448.8,163.4 449.2,163.2 449.6,163 
	450.1,162.7 450.5,162.5 450.9,162.3 451.3,162 451.8,161.8 452.2,161.6 452.6,161.3 453.1,161.1 453.5,160.9 453.9,160.6 
	454.3,160.4 454.8,160.2 455.2,159.9 455.6,159.7 456.1,159.5 456.5,159.2 456.9,159 457.3,158.8 457.8,158.5 458.2,158.3 
	458.6,158.1 459.1,157.8 459.5,157.6 459.9,157.4 460.3,157.2 460.8,156.9 461.2,156.7 461.6,156.5 462,156.2 462.5,156 
	462.9,155.8 463.3,155.5 463.8,155.3 464.2,155.1 464.6,154.9 465,154.6 465.5,154.4 465.9,154.2 466.3,154 466.8,153.7 
	467.2,153.5 467.6,153.3 468,153.1 468.5,152.8 468.9,152.6 469.3,152.4 469.8,152.2 470.2,151.9 470.6,151.7 471,151.5 
	471.5,151.3 471.9,151.1 472.3,150.8 472.7,150.6 473.2,150.4 473.6,150.2 474,150 474.5,149.7 474.9,149.5 475.3,149.3 
	475.7,149.1 476.2,148.9 476.6,148.7 477,148.4 "/>
<polyline class="st1" points="477,148.4 477.5,148.2 477.9,148 478.3,147.8 478.7,147.6 479.2,147.4 479.6,147.2 480,146.9 
	480.5,146.7 480.9,146.5 481.3,146.3 481.7,146.1 482.2,145.9 482.6,145.7 483,145.5 483.4,145.3 483.9,145 484.3,144.8 
	484.7,144.6 485.2,144.4 485.6,144.2 486,144 486.4,143.8 486.9,143.6 487.3,143.4 487.7,143.2 488.2,143 488.6,142.8 489,142.6 
	489.4,142.4 489.9,142.2 490.3,142 490.7,141.8 491.2,141.6 491.6,141.4 492,141.2 492.4,141 492.9,140.8 493.3,140.6 493.7,140.4 
	494.1,140.2 494.6,140 495,139.8 495.4,139.6 495.9,139.4 496.3,139.2 496.7,139 497.1,138.8 497.6,138.6 498,138.4 498.4,138.2 
	498.9,138.1 499.3,137.9 499.7,137.7 500.1,137.5 500.6,137.3 501,137.1 501.4,136.9 501.9,136.7 502.3,136.5 502.7,136.4 
	503.1,136.2 503.6,136 504,135.8 504.4,135.6 504.8,135.4 505.3,135.3 505.7,135.1 506.1,134.9 506.6,134.7 507,134.5 507.4,134.4 
	507.8,134.2 508.3,134 508.7,133.8 509.1,133.6 509.6,133.5 510,133.3 510.4,133.1 510.8,132.9 511.3,132.8 511.7,132.6 
	512.1,132.4 512.6,132.2 513,132.1 513.4,131.9 513.8,131.7 514.3,131.5 514.7,131.4 515.1,131.2 515.5,131 "/>
<path class="st2" d="M87.5,287.8h428 M87.5,287.8V8.8"/>
<line class="st3" x1="87.5" y1="282.8" x2="87.5" y2="292.8"/>
<path class="st3" d="M130.3,285.3v5 M173.1,282.8v10"/>
<path class="st3" d="M215.9,285.3v5 M258.7,282.8v10"/>
<path class="st3" d="M301.5,285.3v5 M344.3,282.8v10"/>
<path class="st3" d="M387.1,285.3v5 M429.9,282.8v10"/>
<path class="st3" d="M472.7,285.3v5 M515.5,282.8v10"/>
<line class="st3" x1="82.5" y1="287.8" x2="92.5" y2="287.8"/>
<path class="st3" d="M90,281.6h-5 M90,275.4h-5 M90,269.2h-5 M90,263h-5 M82.5,256.8h10"/>
<path class="st3" d="M90,250.6h-5 M90,244.4h-5 M90,238.2h-5 M90,232h-5 M82.5,225.8h10"/>
<path class="st3" d="M90,219.6h-5 M90,213.4h-5 M90,207.2h-5 M90,201h-5 M82.5,194.8h10"/>
<path class="st3" d="M90,188.6h-5 M90,182.4h-5 M90,176.2h-5 M90,170h-5 M82.5,163.8h10"/>
<path class="st3" d="M90,157.6h-5 M90,151.4h-5 M90,145.2h-5 M90,139h-5 M82.5,132.8h10"/>
<path class="st3" d="M90,126.6h-5 M90,120.4h-5 M90,114.2h-5 M90,108h-5 M82.5,101.8h10"/>
<path class="st3" d="M90,95.6h-5 M90,89.4h-5 M90,83.2h-5 M90,77h-5 M82.5,70.8h10"/>
<path class="st3" d="M90,64.6h-5 M90,58.4h-5 M90,52.2h-5 M90,46h-5 M82.5,39.8h10"/>
<path class="st3" d="M90,33.6h-5 M90,27.4h-5 M90,21.2h-5 M90,15h-5 M82.5,8.8h10"/>
<g>
	<g>
		<path d="M155.4,309.3c1-0.9,1.9-1.9,2.7-2.7c1.8-1.9,2.6-3.4,2.6-4.8c0-1.5-0.9-2.4-2.2-2.4c-0.4,0-1.2,0.1-1.8,0.4l1-0.6
			l-0.4,1.6c-0.2,0.9-0.5,1.2-1,1.2c-0.4,0-0.7-0.2-0.9-0.6c0.2-1.9,1.8-2.8,3.6-2.8c2.3,0,3.3,1.3,3.3,3.1c0,1.6-0.8,2.8-3.5,5.5
			c-0.6,0.6-1.4,1.4-2.3,2.3l-0.2-0.4h6.6v1.4h-7.3V309.3z"/>
		<path d="M171.7,304.7c0,4.5-1.9,6-3.7,6c-1.9,0-3.8-1.6-3.8-6c0-4.5,1.9-6.1,3.8-6.1C169.9,298.6,171.7,300.2,171.7,304.7z
			 M168,309.9c1.1,0,2.1-1.1,2.1-5.2c0-4.2-1-5.3-2.1-5.3c-1.1,0-2.2,1-2.2,5.3C165.8,308.9,166.8,309.9,168,309.9z"/>
		<path d="M180.7,304.7c0,4.5-1.9,6-3.7,6c-1.9,0-3.8-1.6-3.8-6c0-4.5,1.9-6.1,3.8-6.1C178.8,298.6,180.7,300.2,180.7,304.7z
			 M176.9,309.9c1.1,0,2.1-1.1,2.1-5.2c0-4.2-1-5.3-2.1-5.3c-1.1,0-2.2,1-2.2,5.3C174.8,308.9,175.8,309.9,176.9,309.9z"/>
		<path d="M189.6,304.7c0,4.5-1.9,6-3.7,6c-1.9,0-3.8-1.6-3.8-6c0-4.5,1.9-6.1,3.8-6.1C187.7,298.6,189.6,300.2,189.6,304.7z
			 M185.9,309.9c1.1,0,2.1-1.1,2.1-5.2c0-4.2-1-5.3-2.1-5.3c-1.1,0-2.2,1-2.2,5.3C183.7,308.9,184.7,309.9,185.9,309.9z"/>
	</g>
</g>
<g>
	<g>
		<path d="M241.1,306.9V306l5.4-7.3h1v11.8H246v-10.6h0.5l-4.5,6.3l0-0.3h7.4v1.1H241.1z"/>
		<path d="M257.8,304.7c0,4.5-1.9,6-3.7,6c-1.9,0-3.8-1.6-3.8-6c0-4.5,1.9-6.1,3.8-6.1C256,298.6,257.8,300.2,257.8,304.7z
			 M254.1,309.9c1.1,0,2.1-1.1,2.1-5.2c0-4.2-1-5.3-2.1-5.3c-1.1,0-2.2,1-2.2,5.3C251.9,308.9,253,309.9,254.1,309.9z"/>
		<path d="M266.8,304.7c0,4.5-1.9,6-3.7,6c-1.9,0-3.8-1.6-3.8-6c0-4.5,1.9-6.1,3.8-6.1C264.9,298.6,266.8,300.2,266.8,304.7z
			 M263,309.9c1.1,0,2.1-1.1,2.1-5.2c0-4.2-1-5.3-2.1-5.3c-1.1,0-2.2,1-2.2,5.3C260.9,308.9,261.9,309.9,263,309.9z"/>
		<path d="M275.7,304.7c0,4.5-1.9,6-3.7,6c-1.9,0-3.8-1.6-3.8-6c0-4.5,1.9-6.1,3.8-6.1C273.9,298.6,275.7,300.2,275.7,304.7z
			 M272,309.9c1.1,0,2.1-1.1,2.1-5.2c0-4.2-1-5.3-2.1-5.3c-1.1,0-2.2,1-2.2,5.3C269.8,308.9,270.9,309.9,272,309.9z"/>
	</g>
</g>
<g>
	<g>
		<path d="M332.2,307.1c0-1.9-0.9-2.7-2.1-2.7c-0.8,0-1.8,0.3-2.5,1.1l-0.3-0.3c0.8-1.2,2-1.9,3.2-1.9c1.9,0,3.3,1.4,3.3,3.5
			c0,2.6-1.6,3.9-3.7,3.9c-2.4,0-3.9-1.9-3.9-5.1c0-3.5,2.4-6.5,6.8-7l0.1,0.6c-3.8,0.9-5.4,2.9-5.4,6.2c0,3.1,0.9,4.6,2.4,4.6
			C331.4,309.9,332.2,309,332.2,307.1z"/>
		<path d="M342.7,304.7c0,4.5-1.9,6-3.7,6c-1.9,0-3.8-1.6-3.8-6c0-4.5,1.9-6.1,3.8-6.1C340.8,298.6,342.7,300.2,342.7,304.7z
			 M338.9,309.9c1.1,0,2.1-1.1,2.1-5.2c0-4.2-1-5.3-2.1-5.3c-1.1,0-2.2,1-2.2,5.3C336.8,308.9,337.8,309.9,338.9,309.9z"/>
		<path d="M351.6,304.7c0,4.5-1.9,6-3.7,6c-1.9,0-3.8-1.6-3.8-6c0-4.5,1.9-6.1,3.8-6.1C349.8,298.6,351.6,300.2,351.6,304.7z
			 M347.9,309.9c1.1,0,2.1-1.1,2.1-5.2c0-4.2-1-5.3-2.1-5.3c-1.1,0-2.2,1-2.2,5.3C345.7,308.9,346.7,309.9,347.9,309.9z"/>
		<path d="M360.6,304.7c0,4.5-1.9,6-3.7,6c-1.9,0-3.8-1.6-3.8-6c0-4.5,1.9-6.1,3.8-6.1C358.7,298.6,360.6,300.2,360.6,304.7z
			 M356.8,309.9c1.1,0,2.1-1.1,2.1-5.2c0-4.2-1-5.3-2.1-5.3c-1.1,0-2.2,1-2.2,5.3C354.7,308.9,355.7,309.9,356.8,309.9z"/>
	</g>
</g>
<g>
	<g>
		<path d="M415.7,304.6l0.8,0.3c-1.4,0.8-2.2,1.5-2.2,2.8c0,1.3,1,2.2,2.3,2.2c1.3,0,2.1-1,2.1-2.2c0-1.1-0.7-1.7-2.8-2.7
			c-1.9-0.9-2.7-2.1-2.7-3.4c0-1.9,1.5-3,3.3-3c1.9,0,3.1,1.2,3.1,2.8c0,0.9-0.6,2.1-2.6,3.1l-0.7-0.3c1.5-1,2-1.7,2-2.8
			c0-1.1-0.6-2-1.8-2c-1,0-1.9,0.7-1.9,1.8c0,1,0.5,1.9,2.6,2.9c2,0.9,3,1.9,3,3.6c0,1.8-1.6,3.1-3.6,3.1c-2.1,0-3.7-1-3.7-2.9
			C412.8,306.4,413.8,305.5,415.7,304.6z"/>
		<path d="M429.2,304.7c0,4.5-1.9,6-3.7,6c-1.9,0-3.8-1.6-3.8-6c0-4.5,1.9-6.1,3.8-6.1C427.4,298.6,429.2,300.2,429.2,304.7z
			 M425.5,309.9c1.1,0,2.1-1.1,2.1-5.2c0-4.2-1-5.3-2.1-5.3c-1.1,0-2.2,1-2.2,5.3C423.3,308.9,424.4,309.9,425.5,309.9z"/>
		<path d="M438.2,304.7c0,4.5-1.9,6-3.7,6c-1.9,0-3.8-1.6-3.8-6c0-4.5,1.9-6.1,3.8-6.1C436.3,298.6,438.2,300.2,438.2,304.7z
			 M434.4,309.9c1.1,0,2.1-1.1,2.1-5.2c0-4.2-1-5.3-2.1-5.3c-1.1,0-2.2,1-2.2,5.3C432.3,308.9,433.3,309.9,434.4,309.9z"/>
		<path d="M447.1,304.7c0,4.5-1.9,6-3.7,6c-1.9,0-3.8-1.6-3.8-6c0-4.5,1.9-6.1,3.8-6.1C445.3,298.6,447.1,300.2,447.1,304.7z
			 M443.4,309.9c1.1,0,2.1-1.1,2.1-5.2c0-4.2-1-5.3-2.1-5.3c-1.1,0-2.2,1-2.2,5.3C441.2,308.9,442.2,309.9,443.4,309.9z"/>
	</g>
</g>
<g>
	<g>
		<path d="M501.2,309.9v0.6h-6.6v-0.6l2.6-0.4h1.4L501.2,309.9z M498.4,298.7l0.3,0.2l-0.1,2.6v5.2c0,1.3,0,2.5,0.1,3.8h-1.5
			c0-1.3,0.1-2.5,0.1-3.8v-6.5l-2.4,0.2v-0.7L498.4,298.7z"/>
		<path d="M510.4,304.7c0,4.5-1.9,6-3.7,6c-1.9,0-3.8-1.6-3.8-6c0-4.5,1.9-6.1,3.8-6.1C508.6,298.6,510.4,300.2,510.4,304.7z
			 M506.7,309.9c1.1,0,2.1-1.1,2.1-5.2c0-4.2-1-5.3-2.1-5.3c-1.1,0-2.2,1-2.2,5.3C504.5,308.9,505.6,309.9,506.7,309.9z"/>
		<path d="M519.4,304.7c0,4.5-1.9,6-3.7,6c-1.9,0-3.8-1.6-3.8-6c0-4.5,1.9-6.1,3.8-6.1C517.5,298.6,519.4,300.2,519.4,304.7z
			 M515.6,309.9c1.1,0,2.1-1.1,2.1-5.2c0-4.2-1-5.3-2.1-5.3c-1.1,0-2.2,1-2.2,5.3C513.5,308.9,514.5,309.9,515.6,309.9z"/>
		<path d="M528.3,304.7c0,4.5-1.9,6-3.7,6c-1.9,0-3.8-1.6-3.8-6c0-4.5,1.9-6.1,3.8-6.1C526.5,298.6,528.3,300.2,528.3,304.7z
			 M524.6,309.9c1.1,0,2.1-1.1,2.1-5.2c0-4.2-1-5.3-2.1-5.3c-1.1,0-2.2,1-2.2,5.3C522.4,308.9,523.5,309.9,524.6,309.9z"/>
		<path d="M537.3,304.7c0,4.5-1.9,6-3.7,6c-1.9,0-3.8-1.6-3.8-6c0-4.5,1.9-6.1,3.8-6.1C535.4,298.6,537.3,300.2,537.3,304.7z
			 M533.5,309.9c1.1,0,2.1-1.1,2.1-5.2c0-4.2-1-5.3-2.1-5.3c-1.1,0-2.2,1-2.2,5.3C531.4,308.9,532.4,309.9,533.5,309.9z"/>
	</g>
</g>
<g>
	<g>
		<path d="M81.4,300.1c0,4.5-1.9,6-3.7,6c-1.9,0-3.8-1.6-3.8-6c0-4.5,1.9-6.1,3.8-6.1C79.6,294,81.4,295.6,81.4,300.1z M77.7,305.3
			c1.1,0,2.1-1.1,2.1-5.2c0-4.2-1-5.3-2.1-5.3c-1.1,0-2.2,1-2.2,5.3C75.5,304.3,76.6,305.3,77.7,305.3z"/>
	</g>
</g>
<g>
	<g>
		<path d="M34.6,257.2c0,4.5-1.9,6-3.7,6c-1.9,0-3.8-1.6-3.8-6c0-4.5,1.9-6.1,3.8-6.1C32.7,251.1,34.6,252.7,34.6,257.2z
			 M30.9,262.5c1.1,0,2.1-1.1,2.1-5.2c0-4.2-1-5.3-2.1-5.3c-1.1,0-2.2,1-2.2,5.3C28.7,261.4,29.7,262.5,30.9,262.5z"/>
		<path d="M36.7,262c0-0.7,0.6-1.3,1.3-1.3s1.3,0.6,1.3,1.3c0,0.7-0.6,1.3-1.3,1.3S36.7,262.7,36.7,262z"/>
		<path d="M48.9,257.2c0,4.5-1.9,6-3.7,6c-1.9,0-3.8-1.6-3.8-6c0-4.5,1.9-6.1,3.8-6.1C47.1,251.1,48.9,252.7,48.9,257.2z
			 M45.2,262.5c1.1,0,2.1-1.1,2.1-5.2c0-4.2-1-5.3-2.1-5.3c-1.1,0-2.2,1-2.2,5.3C43,261.4,44.1,262.5,45.2,262.5z"/>
		<path d="M57.9,257.2c0,4.5-1.9,6-3.7,6c-1.9,0-3.8-1.6-3.8-6c0-4.5,1.9-6.1,3.8-6.1C56,251.1,57.9,252.7,57.9,257.2z M54.1,262.5
			c1.1,0,2.1-1.1,2.1-5.2c0-4.2-1-5.3-2.1-5.3c-1.1,0-2.2,1-2.2,5.3C52,261.4,53,262.5,54.1,262.5z"/>
		<path d="M66.8,257.2c0,4.5-1.9,6-3.7,6c-1.9,0-3.8-1.6-3.8-6c0-4.5,1.9-6.1,3.8-6.1C65,251.1,66.8,252.7,66.8,257.2z M63.1,262.5
			c1.1,0,2.1-1.1,2.1-5.2c0-4.2-1-5.3-2.1-5.3c-1.1,0-2.2,1-2.2,5.3C60.9,261.4,62,262.5,63.1,262.5z"/>
		<path d="M69.3,256.2c0.8-0.3,1.6-0.5,2.5-0.5c2.3,0,3.9,1.3,3.9,3.7c0,2.3-1.7,3.9-4.2,3.9c-1.8,0-3-0.8-3.3-2.5
			c0.2-0.4,0.5-0.6,0.9-0.6c0.5,0,0.8,0.3,1,1.2l0.4,1.3l-0.7-0.6c0.6,0.3,1.2,0.4,1.7,0.4c1.8,0,2.7-1.1,2.7-2.9
			c0-1.8-1.1-2.8-2.9-2.8c-0.5,0-1.1,0.1-1.7,0.2l-0.5-0.1l0.4-5.5h5.9v1.4h-5.5l0.5-0.8l-0.3,4.4h-0.8V256.2z"/>
	</g>
</g>
<g>
	<g>
		<path d="M34.6,226.2c0,4.5-1.9,6-3.7,6c-1.9,0-3.8-1.6-3.8-6c0-4.5,1.9-6.1,3.8-6.1C32.7,220.1,34.6,221.7,34.6,226.2z
			 M30.9,231.5c1.1,0,2.1-1.1,2.1-5.2c0-4.2-1-5.3-2.1-5.3c-1.1,0-2.2,1-2.2,5.3C28.7,230.4,29.7,231.5,30.9,231.5z"/>
		<path d="M36.7,231c0-0.7,0.6-1.3,1.3-1.3s1.3,0.6,1.3,1.3c0,0.7-0.6,1.3-1.3,1.3S36.7,231.7,36.7,231z"/>
		<path d="M48.9,226.2c0,4.5-1.9,6-3.7,6c-1.9,0-3.8-1.6-3.8-6c0-4.5,1.9-6.1,3.8-6.1C47.1,220.1,48.9,221.7,48.9,226.2z
			 M45.2,231.5c1.1,0,2.1-1.1,2.1-5.2c0-4.2-1-5.3-2.1-5.3c-1.1,0-2.2,1-2.2,5.3C43,230.4,44.1,231.5,45.2,231.5z"/>
		<path d="M57.9,226.2c0,4.5-1.9,6-3.7,6c-1.9,0-3.8-1.6-3.8-6c0-4.5,1.9-6.1,3.8-6.1C56,220.1,57.9,221.7,57.9,226.2z M54.1,231.5
			c1.1,0,2.1-1.1,2.1-5.2c0-4.2-1-5.3-2.1-5.3c-1.1,0-2.2,1-2.2,5.3C52,230.4,53,231.5,54.1,231.5z"/>
		<path d="M66.6,231.4v0.6h-6.6v-0.6l2.6-0.4H64L66.6,231.4z M63.8,220.2l0.3,0.2L64,223v5.2c0,1.3,0,2.5,0.1,3.8h-1.5
			c0-1.3,0.1-2.5,0.1-3.8v-6.5l-2.4,0.2v-0.7L63.8,220.2z"/>
		<path d="M75.8,226.2c0,4.5-1.9,6-3.7,6c-1.9,0-3.8-1.6-3.8-6c0-4.5,1.9-6.1,3.8-6.1C73.9,220.1,75.8,221.7,75.8,226.2z M72,231.5
			c1.1,0,2.1-1.1,2.1-5.2c0-4.2-1-5.3-2.1-5.3c-1.1,0-2.2,1-2.2,5.3C69.9,230.4,70.9,231.5,72,231.5z"/>
	</g>
</g>
<g>
	<g>
		<path d="M34.6,195.2c0,4.5-1.9,6-3.7,6c-1.9,0-3.8-1.6-3.8-6c0-4.5,1.9-6.1,3.8-6.1C32.7,189.1,34.6,190.7,34.6,195.2z
			 M30.9,200.5c1.1,0,2.1-1.1,2.1-5.2c0-4.2-1-5.3-2.1-5.3c-1.1,0-2.2,1-2.2,5.3C28.7,199.4,29.7,200.5,30.9,200.5z"/>
		<path d="M36.7,200c0-0.7,0.6-1.3,1.3-1.3s1.3,0.6,1.3,1.3c0,0.7-0.6,1.3-1.3,1.3S36.7,200.7,36.7,200z"/>
		<path d="M48.9,195.2c0,4.5-1.9,6-3.7,6c-1.9,0-3.8-1.6-3.8-6c0-4.5,1.9-6.1,3.8-6.1C47.1,189.1,48.9,190.7,48.9,195.2z
			 M45.2,200.5c1.1,0,2.1-1.1,2.1-5.2c0-4.2-1-5.3-2.1-5.3c-1.1,0-2.2,1-2.2,5.3C43,199.4,44.1,200.5,45.2,200.5z"/>
		<path d="M57.9,195.2c0,4.5-1.9,6-3.7,6c-1.9,0-3.8-1.6-3.8-6c0-4.5,1.9-6.1,3.8-6.1C56,189.1,57.9,190.7,57.9,195.2z M54.1,200.5
			c1.1,0,2.1-1.1,2.1-5.2c0-4.2-1-5.3-2.1-5.3c-1.1,0-2.2,1-2.2,5.3C52,199.4,53,200.5,54.1,200.5z"/>
		<path d="M66.6,200.4v0.6h-6.6v-0.6l2.6-0.4H64L66.6,200.4z M63.8,189.2l0.3,0.2L64,192v5.2c0,1.3,0,2.5,0.1,3.8h-1.5
			c0-1.3,0.1-2.5,0.1-3.8v-6.5l-2.4,0.2v-0.7L63.8,189.2z"/>
		<path d="M69.3,194.2c0.8-0.3,1.6-0.5,2.5-0.5c2.3,0,3.9,1.3,3.9,3.7c0,2.3-1.7,3.9-4.2,3.9c-1.8,0-3-0.8-3.3-2.5
			c0.2-0.4,0.5-0.6,0.9-0.6c0.5,0,0.8,0.3,1,1.2l0.4,1.3l-0.7-0.6c0.6,0.3,1.2,0.4,1.7,0.4c1.8,0,2.7-1.1,2.7-2.9
			c0-1.8-1.1-2.8-2.9-2.8c-0.5,0-1.1,0.1-1.7,0.2l-0.5-0.1l0.4-5.5h5.9v1.4h-5.5l0.5-0.8l-0.3,4.4h-0.8V194.2z"/>
	</g>
</g>
<g>
	<g>
		<path d="M34.6,164.2c0,4.5-1.9,6-3.7,6c-1.9,0-3.8-1.6-3.8-6c0-4.5,1.9-6.1,3.8-6.1C32.7,158.1,34.6,159.7,34.6,164.2z
			 M30.9,169.5c1.1,0,2.1-1.1,2.1-5.2c0-4.2-1-5.3-2.1-5.3c-1.1,0-2.2,1-2.2,5.3C28.7,168.4,29.7,169.5,30.9,169.5z"/>
		<path d="M36.7,169c0-0.7,0.6-1.3,1.3-1.3s1.3,0.6,1.3,1.3c0,0.7-0.6,1.3-1.3,1.3S36.7,169.7,36.7,169z"/>
		<path d="M48.9,164.2c0,4.5-1.9,6-3.7,6c-1.9,0-3.8-1.6-3.8-6c0-4.5,1.9-6.1,3.8-6.1C47.1,158.1,48.9,159.7,48.9,164.2z
			 M45.2,169.5c1.1,0,2.1-1.1,2.1-5.2c0-4.2-1-5.3-2.1-5.3c-1.1,0-2.2,1-2.2,5.3C43,168.4,44.1,169.5,45.2,169.5z"/>
		<path d="M57.9,164.2c0,4.5-1.9,6-3.7,6c-1.9,0-3.8-1.6-3.8-6c0-4.5,1.9-6.1,3.8-6.1C56,158.1,57.9,159.7,57.9,164.2z M54.1,169.5
			c1.1,0,2.1-1.1,2.1-5.2c0-4.2-1-5.3-2.1-5.3c-1.1,0-2.2,1-2.2,5.3C52,168.4,53,169.5,54.1,169.5z"/>
		<path d="M59.5,168.9c1-0.9,1.9-1.9,2.7-2.7c1.8-1.9,2.6-3.4,2.6-4.8c0-1.5-0.9-2.4-2.2-2.4c-0.4,0-1.2,0.1-1.8,0.4l1-0.6l-0.4,1.6
			c-0.2,0.9-0.5,1.2-1,1.2c-0.4,0-0.7-0.2-0.9-0.6c0.2-1.9,1.8-2.8,3.6-2.8c2.3,0,3.3,1.3,3.3,3.1c0,1.6-0.8,2.8-3.5,5.5
			c-0.6,0.6-1.4,1.4-2.3,2.3l-0.2-0.4h6.6v1.4h-7.3V168.9z"/>
		<path d="M75.8,164.2c0,4.5-1.9,6-3.7,6c-1.9,0-3.8-1.6-3.8-6c0-4.5,1.9-6.1,3.8-6.1C73.9,158.1,75.8,159.7,75.8,164.2z M72,169.5
			c1.1,0,2.1-1.1,2.1-5.2c0-4.2-1-5.3-2.1-5.3c-1.1,0-2.2,1-2.2,5.3C69.9,168.4,70.9,169.5,72,169.5z"/>
	</g>
</g>
<g>
	<g>
		<path d="M34.6,132.9c0,4.5-1.9,6-3.7,6c-1.9,0-3.8-1.6-3.8-6c0-4.5,1.9-6.1,3.8-6.1C32.7,126.9,34.6,128.5,34.6,132.9z
			 M30.9,138.2c1.1,0,2.1-1.1,2.1-5.2c0-4.2-1-5.3-2.1-5.3c-1.1,0-2.2,1-2.2,5.3C28.7,137.1,29.7,138.2,30.9,138.2z"/>
		<path d="M36.7,137.7c0-0.7,0.6-1.3,1.3-1.3s1.3,0.6,1.3,1.3c0,0.7-0.6,1.3-1.3,1.3S36.7,138.4,36.7,137.7z"/>
		<path d="M48.9,132.9c0,4.5-1.9,6-3.7,6c-1.9,0-3.8-1.6-3.8-6c0-4.5,1.9-6.1,3.8-6.1C47.1,126.9,48.9,128.5,48.9,132.9z
			 M45.2,138.2c1.1,0,2.1-1.1,2.1-5.2c0-4.2-1-5.3-2.1-5.3c-1.1,0-2.2,1-2.2,5.3C43,137.1,44.1,138.2,45.2,138.2z"/>
		<path d="M57.9,132.9c0,4.5-1.9,6-3.7,6c-1.9,0-3.8-1.6-3.8-6c0-4.5,1.9-6.1,3.8-6.1C56,126.9,57.9,128.5,57.9,132.9z M54.1,138.2
			c1.1,0,2.1-1.1,2.1-5.2c0-4.2-1-5.3-2.1-5.3c-1.1,0-2.2,1-2.2,5.3C52,137.1,53,138.2,54.1,138.2z"/>
		<path d="M59.5,137.6c1-0.9,1.9-1.9,2.7-2.7c1.8-1.9,2.6-3.4,2.6-4.8c0-1.5-0.9-2.4-2.2-2.4c-0.4,0-1.2,0.1-1.8,0.4l1-0.6l-0.4,1.6
			c-0.2,0.9-0.5,1.2-1,1.2c-0.4,0-0.7-0.2-0.9-0.6c0.2-1.9,1.8-2.8,3.6-2.8c2.3,0,3.3,1.3,3.3,3.1c0,1.6-0.8,2.8-3.5,5.5
			c-0.6,0.6-1.4,1.4-2.3,2.3l-0.2-0.4h6.6v1.4h-7.3V137.6z"/>
		<path d="M69.3,131.9c0.8-0.3,1.6-0.5,2.5-0.5c2.3,0,3.9,1.3,3.9,3.7c0,2.3-1.7,3.9-4.2,3.9c-1.8,0-3-0.8-3.3-2.5
			c0.2-0.4,0.5-0.6,0.9-0.6c0.5,0,0.8,0.3,1,1.2l0.4,1.3l-0.7-0.6c0.6,0.3,1.2,0.4,1.7,0.4c1.8,0,2.7-1.1,2.7-2.9
			c0-1.8-1.1-2.8-2.9-2.8c-0.5,0-1.1,0.1-1.7,0.2l-0.5-0.1l0.4-5.5h5.9v1.4h-5.5l0.5-0.8l-0.3,4.4h-0.8V131.9z"/>
	</g>
</g>
<g>
	<g>
		<path d="M34.6,102.2c0,4.5-1.9,6-3.7,6c-1.9,0-3.8-1.6-3.8-6c0-4.5,1.9-6.1,3.8-6.1C32.7,96.1,34.6,97.7,34.6,102.2z M30.9,107.5
			c1.1,0,2.1-1.1,2.1-5.2c0-4.2-1-5.3-2.1-5.3c-1.1,0-2.2,1-2.2,5.3C28.7,106.4,29.7,107.5,30.9,107.5z"/>
		<path d="M36.7,107c0-0.7,0.6-1.3,1.3-1.3s1.3,0.6,1.3,1.3c0,0.7-0.6,1.3-1.3,1.3S36.7,107.7,36.7,107z"/>
		<path d="M48.9,102.2c0,4.5-1.9,6-3.7,6c-1.9,0-3.8-1.6-3.8-6c0-4.5,1.9-6.1,3.8-6.1C47.1,96.1,48.9,97.7,48.9,102.2z M45.2,107.5
			c1.1,0,2.1-1.1,2.1-5.2c0-4.2-1-5.3-2.1-5.3c-1.1,0-2.2,1-2.2,5.3C43,106.4,44.1,107.5,45.2,107.5z"/>
		<path d="M57.9,102.2c0,4.5-1.9,6-3.7,6c-1.9,0-3.8-1.6-3.8-6c0-4.5,1.9-6.1,3.8-6.1C56,96.1,57.9,97.7,57.9,102.2z M54.1,107.5
			c1.1,0,2.1-1.1,2.1-5.2c0-4.2-1-5.3-2.1-5.3c-1.1,0-2.2,1-2.2,5.3C52,106.4,53,107.5,54.1,107.5z"/>
		<path d="M62.4,101.4c1.6,0,2.6-0.9,2.6-2.4c0-1.3-0.8-2.1-2.2-2.1c-0.4,0-0.9,0.1-1.5,0.3l0.8-0.5l-0.3,1.2
			c-0.2,0.8-0.4,1.2-1,1.2c-0.4,0-0.7-0.2-0.9-0.7c0.3-1.5,1.7-2.3,3.3-2.3c2.1,0,3.4,1.2,3.4,2.8c0,1.5-1.2,2.7-3,3.1v-0.3
			c2.3,0.2,3.4,1.4,3.4,3c0,2-1.6,3.5-4,3.5c-1.7,0-3.1-0.7-3.4-2.5c0.2-0.4,0.5-0.6,0.9-0.6c0.6,0,0.8,0.4,1,1.3l0.4,1.4l-0.7-0.6
			c0.6,0.3,1.2,0.3,1.6,0.3c1.8,0,2.7-1,2.7-2.6c0-1.6-0.9-2.5-2.8-2.5h-0.9v-0.9H62.4z"/>
		<path d="M75.8,102.2c0,4.5-1.9,6-3.7,6c-1.9,0-3.8-1.6-3.8-6c0-4.5,1.9-6.1,3.8-6.1C73.9,96.1,75.8,97.7,75.8,102.2z M72,107.5
			c1.1,0,2.1-1.1,2.1-5.2c0-4.2-1-5.3-2.1-5.3c-1.1,0-2.2,1-2.2,5.3C69.9,106.4,70.9,107.5,72,107.5z"/>
	</g>
</g>
<g>
	<g>
		<path d="M34.6,71.2c0,4.5-1.9,6-3.7,6c-1.9,0-3.8-1.6-3.8-6c0-4.5,1.9-6.1,3.8-6.1C32.7,65.1,34.6,66.7,34.6,71.2z M30.9,76.5
			c1.1,0,2.1-1.1,2.1-5.2c0-4.2-1-5.3-2.1-5.3c-1.1,0-2.2,1-2.2,5.3C28.7,75.4,29.7,76.5,30.9,76.5z"/>
		<path d="M36.7,76c0-0.7,0.6-1.3,1.3-1.3s1.3,0.6,1.3,1.3c0,0.7-0.6,1.3-1.3,1.3S36.7,76.7,36.7,76z"/>
		<path d="M48.9,71.2c0,4.5-1.9,6-3.7,6c-1.9,0-3.8-1.6-3.8-6c0-4.5,1.9-6.1,3.8-6.1C47.1,65.1,48.9,66.7,48.9,71.2z M45.2,76.5
			c1.1,0,2.1-1.1,2.1-5.2c0-4.2-1-5.3-2.1-5.3c-1.1,0-2.2,1-2.2,5.3C43,75.4,44.1,76.5,45.2,76.5z"/>
		<path d="M57.9,71.2c0,4.5-1.9,6-3.7,6c-1.9,0-3.8-1.6-3.8-6c0-4.5,1.9-6.1,3.8-6.1C56,65.1,57.9,66.7,57.9,71.2z M54.1,76.5
			c1.1,0,2.1-1.1,2.1-5.2c0-4.2-1-5.3-2.1-5.3C53,66,52,67,52,71.2C52,75.4,53,76.5,54.1,76.5z"/>
		<path d="M62.4,70.4c1.6,0,2.6-0.9,2.6-2.4c0-1.3-0.8-2.1-2.2-2.1c-0.4,0-0.9,0.1-1.5,0.3l0.8-0.5l-0.3,1.2c-0.2,0.8-0.4,1.2-1,1.2
			c-0.4,0-0.7-0.2-0.9-0.7c0.3-1.5,1.7-2.3,3.3-2.3c2.1,0,3.4,1.2,3.4,2.8c0,1.5-1.2,2.7-3,3.1v-0.3c2.3,0.2,3.4,1.4,3.4,3
			c0,2-1.6,3.5-4,3.5c-1.7,0-3.1-0.7-3.4-2.5c0.2-0.4,0.5-0.6,0.9-0.6c0.6,0,0.8,0.4,1,1.3l0.4,1.4L61,76.1c0.6,0.3,1.2,0.3,1.6,0.3
			c1.8,0,2.7-1,2.7-2.6c0-1.6-0.9-2.5-2.8-2.5h-0.9v-0.9H62.4z"/>
		<path d="M69.3,70.2c0.8-0.3,1.6-0.5,2.5-0.5c2.3,0,3.9,1.3,3.9,3.7c0,2.3-1.7,3.9-4.2,3.9c-1.8,0-3-0.8-3.3-2.5
			c0.2-0.4,0.5-0.6,0.9-0.6c0.5,0,0.8,0.3,1,1.2l0.4,1.3l-0.7-0.6c0.6,0.3,1.2,0.4,1.7,0.4c1.8,0,2.7-1.1,2.7-2.9
			c0-1.8-1.1-2.8-2.9-2.8c-0.5,0-1.1,0.1-1.7,0.2l-0.5-0.1l0.4-5.5h5.9v1.4h-5.5l0.5-0.8l-0.3,4.4h-0.8V70.2z"/>
	</g>
</g>
<g>
	<g>
		<path d="M34.6,40.2c0,4.5-1.9,6-3.7,6c-1.9,0-3.8-1.6-3.8-6c0-4.5,1.9-6.1,3.8-6.1C32.7,34.1,34.6,35.7,34.6,40.2z M30.9,45.5
			c1.1,0,2.1-1.1,2.1-5.2c0-4.2-1-5.3-2.1-5.3c-1.1,0-2.2,1-2.2,5.3C28.7,44.4,29.7,45.5,30.9,45.5z"/>
		<path d="M36.7,45c0-0.7,0.6-1.3,1.3-1.3s1.3,0.6,1.3,1.3c0,0.7-0.6,1.3-1.3,1.3S36.7,45.7,36.7,45z"/>
		<path d="M48.9,40.2c0,4.5-1.9,6-3.7,6c-1.9,0-3.8-1.6-3.8-6c0-4.5,1.9-6.1,3.8-6.1C47.1,34.1,48.9,35.7,48.9,40.2z M45.2,45.5
			c1.1,0,2.1-1.1,2.1-5.2c0-4.2-1-5.3-2.1-5.3c-1.1,0-2.2,1-2.2,5.3C43,44.4,44.1,45.5,45.2,45.5z"/>
		<path d="M57.9,40.2c0,4.5-1.9,6-3.7,6c-1.9,0-3.8-1.6-3.8-6c0-4.5,1.9-6.1,3.8-6.1C56,34.1,57.9,35.7,57.9,40.2z M54.1,45.5
			c1.1,0,2.1-1.1,2.1-5.2c0-4.2-1-5.3-2.1-5.3C53,35,52,36,52,40.2C52,44.4,53,45.5,54.1,45.5z"/>
		<path d="M59,42.5v-0.9l5.4-7.3h1V46h-1.4V35.4h0.5l-4.5,6.3l0-0.3h7.4v1.1H59z"/>
		<path d="M75.8,40.2c0,4.5-1.9,6-3.7,6c-1.9,0-3.8-1.6-3.8-6c0-4.5,1.9-6.1,3.8-6.1C73.9,34.1,75.8,35.7,75.8,40.2z M72,45.5
			c1.1,0,2.1-1.1,2.1-5.2c0-4.2-1-5.3-2.1-5.3c-1.1,0-2.2,1-2.2,5.3C69.9,44.4,70.9,45.5,72,45.5z"/>
	</g>
</g>
<g>
	<g>
		<path d="M34.6,9.2c0,4.5-1.9,6-3.7,6c-1.9,0-3.8-1.6-3.8-6c0-4.5,1.9-6.1,3.8-6.1C32.7,3.1,34.6,4.7,34.6,9.2z M30.9,14.5
			c1.1,0,2.1-1.1,2.1-5.2C33,5,31.9,4,30.9,4c-1.1,0-2.2,1-2.2,5.3C28.7,13.4,29.7,14.5,30.9,14.5z"/>
		<path d="M36.7,14c0-0.7,0.6-1.3,1.3-1.3s1.3,0.6,1.3,1.3c0,0.7-0.6,1.3-1.3,1.3S36.7,14.7,36.7,14z"/>
		<path d="M48.9,9.2c0,4.5-1.9,6-3.7,6c-1.9,0-3.8-1.6-3.8-6c0-4.5,1.9-6.1,3.8-6.1C47.1,3.1,48.9,4.7,48.9,9.2z M45.2,14.5
			c1.1,0,2.1-1.1,2.1-5.2c0-4.2-1-5.3-2.1-5.3C44.1,4,43,5,43,9.2C43,13.4,44.1,14.5,45.2,14.5z"/>
		<path d="M57.9,9.2c0,4.5-1.9,6-3.7,6c-1.9,0-3.8-1.6-3.8-6c0-4.5,1.9-6.1,3.8-6.1C56,3.1,57.9,4.7,57.9,9.2z M54.1,14.5
			c1.1,0,2.1-1.1,2.1-5.2c0-4.2-1-5.3-2.1-5.3C53,4,52,5,52,9.2C52,13.4,53,14.5,54.1,14.5z"/>
		<path d="M59,11.5v-0.9l5.4-7.3h1V15h-1.4V4.4h0.5l-4.5,6.3l0-0.3h7.4v1.1H59z"/>
		<path d="M69.3,8.2c0.8-0.3,1.6-0.5,2.5-0.5c2.3,0,3.9,1.3,3.9,3.7c0,2.3-1.7,3.9-4.2,3.9c-1.8,0-3-0.8-3.3-2.5
			c0.2-0.4,0.5-0.6,0.9-0.6c0.5,0,0.8,0.3,1,1.2l0.4,1.3l-0.7-0.6c0.6,0.3,1.2,0.4,1.7,0.4c1.8,0,2.7-1.1,2.7-2.9
			c0-1.8-1.1-2.8-2.9-2.8c-0.5,0-1.1,0.1-1.7,0.2l-0.5-0.1l0.4-5.5h5.9v1.4h-5.5L70.4,4l-0.3,4.4h-0.8V8.2z"/>
	</g>
</g>
<g>
	<g>
		<path d="M14.4,167.9c0-0.4-0.2-0.8-0.5-1.2l0.5-0.4c0.6,0.5,0.9,1.2,0.9,2.1c0,1.2-0.6,2-2,2c-0.4,0-0.8,0-1.5,0H7.4v1.5H6.7
			l-0.3-2.2l0.6,0.7L4,169.8v-1l3.2,0.1H13C14,168.9,14.4,168.5,14.4,167.9z M6.5,166.4h0.9v3.2H6.5V166.4z"/>
		<path d="M3.1,164.7c-0.7,0-1.1-0.5-1.1-1.2s0.5-1.2,1.1-1.2c0.7,0,1.1,0.5,1.1,1.2S3.8,164.7,3.1,164.7z M15,164.2
			c-0.8,0-2.7-0.1-3.8-0.1h-0.8c-1,0-1.5,0-2.3,0.1L8,165.7H7.3L6.3,163l0.2-0.3l2.4,0.1h2.4c1.1,0,3,0,3.8-0.1V164.2z M14.4,161.4
			H15v4.1h-0.6l-0.4-2v-0.4L14.4,161.4z"/>
		<path d="M9.4,146.5h1.9c1.2,0,3,0,3.8-0.1v1.5c-0.8,0-2.6-0.1-3.8-0.1H9.7c-1.7,0-2.2,0.5-2.2,1.5c0,0.8,0.3,1.6,1.2,2.6v0.4H8.1
			v-1l0.1,0.8c-1.3-0.9-2-2.3-2-3.5C6.3,147.3,7.2,146.5,9.4,146.5z M9.6,151.9h1.7c1.2,0,3,0,3.8-0.1v1.5c-0.8,0-2.6-0.1-3.8-0.1
			H9.7c-1.7,0-2.2,0.4-2.2,1.5c0,0.9,0.4,1.6,1.2,2.6v0.4H8v-0.9l0.3,0.8c-1.1-0.8-2-2.2-2-3.5C6.3,152.6,7.2,151.9,9.6,151.9z
			 M15,158.8c-0.8,0-2.7-0.1-3.8-0.1h-0.8c-1,0-1.5,0-2.3,0.1L8,160.2H7.3l-1.1-2.4l0.2-0.3l2.1-0.2h2.7c1.1,0,3,0,3.8-0.1V158.8z
			 M14,147l0.4-1.8H15v4.1h-0.6l-0.4-2V147z M14,152.4l0.4-1.8H15v4.1h-0.6l-0.4-2V152.4z M14.4,156H15v4.1h-0.6l-0.4-2v-0.4
			L14.4,156z"/>
		<path d="M9.7,136.4c0.4,0,0.8,0.1,1,0.1v6.6H10v-4.3c0-0.9-0.4-1.1-0.9-1.1c-1,0-2,0.9-2,2c0,1.2,1,2.5,3.5,2.5
			c2.3,0,3.5-1.2,3.5-3c0-1.2-0.5-1.9-1.3-2.5l0.3-0.4c1.3,0.6,2.1,1.8,2.1,3.4c0,2.4-1.7,4-4.4,4c-2.8,0-4.6-1.9-4.6-4.1
			C6.3,137.9,7.5,136.4,9.7,136.4z"/>
		<path d="M18.1,125.7l0.4,0.5c-2.4,2.5-5.2,3.7-8.5,3.7s-6.1-1.2-8.5-3.7l0.4-0.5c3.1,2.1,5.2,2.8,8.1,2.8S15,127.8,18.1,125.7z"/>
		<path d="M14.6,124.3l-2,0.1v-1l2.1-0.5l-0.4,0.9h-0.6c0.5-0.6,0.7-1.3,0.7-2.2c0-1.4-0.6-2-1.4-2c-0.8,0-1.2,0.5-1.6,1.7l-0.3,0.8
			c-0.5,1.3-1.2,2.2-2.4,2.2c-1.3,0-2.5-1.1-2.5-3.1c0-1,0.3-1.7,0.7-2.5l1.8,0.1v0.9L7,120l0.3-0.6h0.5c-0.5,0.6-0.7,1.2-0.7,1.8
			c0,1.1,0.5,1.7,1.2,1.7c0.8,0,1.1-0.4,1.6-1.7l0.2-0.5c0.7-1.8,1.5-2.5,2.6-2.5c1.3,0,2.6,1.2,2.6,3.5
			C15.3,122.6,15,123.4,14.6,124.3z"/>
		<path d="M9.7,109.2c0.4,0,0.8,0.1,1,0.1v6.6H10v-4.3c0-0.9-0.4-1.1-0.9-1.1c-1,0-2,0.9-2,2c0,1.2,1,2.5,3.5,2.5
			c2.3,0,3.5-1.2,3.5-3c0-1.2-0.5-1.9-1.3-2.5l0.3-0.4c1.3,0.6,2.1,1.8,2.1,3.4c0,2.4-1.7,4-4.4,4c-2.8,0-4.6-1.9-4.6-4.1
			C6.3,110.6,7.5,109.2,9.7,109.2z"/>
		<path d="M10.6,106c2.3,0,3.5-1.2,3.5-2.9c0-1-0.5-2-1.4-2.5l0.2-0.4c1.5,0.5,2.3,1.6,2.3,3.3c0,2.5-1.7,4-4.5,4
			c-2.8,0-4.5-2-4.5-4.1c0-1.6,1-2.9,2.3-3.2c0.5,0.1,0.7,0.4,0.7,0.8c0,0.6-0.4,0.8-0.8,1l-1.6,0.5l0.7-0.8
			c-0.3,0.6-0.5,1.2-0.5,1.7C7.1,104.9,8.3,106,10.6,106z"/>
		<path d="M1.9,99.1l-0.4-0.5c2.4-2.5,5.2-3.7,8.5-3.7s6.1,1.2,8.5,3.7l-0.4,0.5c-3.1-2.1-5.2-2.8-8.1-2.8S5,96.9,1.9,99.1z"/>
	</g>
</g>
<g>
	<g>
		<path d="M218,332.3c0-0.8,0.1-2.7,0.1-3.8v-0.8c0-1,0-1.5-0.1-2.3l-1.4-0.2v-0.6l2.4-1.1l0.3,0.2l0.2,2.1v2.7c0,1.1,0,3,0.1,3.8
			H218z M220.8,331.6v0.6h-4.1v-0.6l2-0.4h0.4L220.8,331.6z M225,326.8v1.7c0,1.2,0,3,0.1,3.8h-1.5c0-0.8,0.1-2.6,0.1-3.8V327
			c0-1.7-0.4-2.2-1.5-2.2c-0.9,0-1.6,0.4-2.7,1.2H219v-0.8h0.9l-0.8,0.3c0.8-1.1,2.3-2,3.6-2C224.2,323.5,225,324.4,225,326.8z
			 M224.5,331.3l1.8,0.4v0.6h-4.1v-0.6l2-0.4H224.5z"/>
		<path d="M230,329.1c0,1.6,0.5,2.2,1.5,2.2c0.9,0,1.9-0.5,2.8-1.4h0.4v0.9h-0.9l0.6-0.3c-1,1.4-2.3,2-3.4,2c-1.4,0-2.3-0.9-2.3-3.2
			l0.1-4.8l0.4,0.3l-1.7-0.4v-0.6l2.6-0.2l0.2,0.2l-0.1,2.5V329.1z M234.3,332.4l-0.3-2.1l0.1-5.8l0.4,0.3l-1.7-0.4v-0.6l2.6-0.2
			l0.2,0.2l-0.1,2.5v5.4l-0.4-0.4l1.7,0.4v0.6L234.3,332.4z"/>
		<path d="M239.4,332.3c0-0.8,0.1-2.7,0.1-3.8v-0.8c0-1,0-1.5-0.1-2.3l-1.4-0.2v-0.6l2.4-1.1l0.3,0.2l0.2,2.1v2.7c0,1.1,0,3,0.1,3.8
			H239.4z M242.2,331.6v0.6h-4.1v-0.6l2-0.4h0.4L242.2,331.6z M246.3,326.8v1.7c0,1.2,0,3,0.1,3.8h-1.5c0-0.8,0.1-2.6,0.1-3.8V327
			c0-1.7-0.4-2.2-1.5-2.2c-0.9,0-1.6,0.4-2.6,1.2h-0.4v-0.8h0.9l-0.8,0.3c0.8-1.1,2.2-2,3.5-2C245.5,323.5,246.3,324.4,246.3,326.8z
			 M245.8,331.3l1.8,0.4v0.6h-4.1v-0.6l2-0.4H245.8z M251.7,326.6v1.9c0,1.2,0,3,0.1,3.8h-1.5c0-0.8,0.1-2.6,0.1-3.8v-1.5
			c0-1.7-0.5-2.2-1.5-2.2c-0.8,0-1.6,0.3-2.6,1.2h-0.4v-0.6h1l-0.8,0.1c0.9-1.3,2.3-2,3.5-2C250.8,323.5,251.7,324.4,251.7,326.6z
			 M251.2,331.3l1.8,0.4v0.6h-4.1v-0.6l2-0.4H251.2z"/>
		<path d="M260,327.8c0,2.3,1.2,3.5,2.9,3.5c1,0,2-0.5,2.5-1.4l0.4,0.2c-0.5,1.5-1.6,2.3-3.3,2.3c-2.5,0-4-1.7-4-4.5
			c0-2.8,2-4.5,4.1-4.5c1.6,0,2.9,1,3.2,2.3c-0.1,0.5-0.4,0.7-0.8,0.7c-0.6,0-0.8-0.4-1-0.8l-0.5-1.6l0.8,0.7
			c-0.6-0.3-1.2-0.5-1.7-0.5C261.1,324.3,260,325.5,260,327.8z"/>
		<path d="M267.3,328c0-3,2-4.5,4.1-4.5c2,0,4.1,1.5,4.1,4.5c0,3-2.1,4.5-4.1,4.5C269.4,332.5,267.3,331,267.3,328z M273.9,328
			c0-2.4-0.9-3.7-2.5-3.7c-1.6,0-2.5,1.3-2.5,3.7c0,2.4,0.9,3.7,2.5,3.7C273,331.7,273.9,330.4,273.9,328z"/>
		<path d="M278.4,332.3c0-0.8,0.1-2.7,0.1-3.8v-0.8c0-1,0-1.5-0.1-2.3l-1.4-0.2v-0.6l2.4-1.1l0.3,0.2l0.2,2.1v2.7c0,1.1,0,3,0.1,3.8
			H278.4z M281.2,331.6v0.6h-4.1v-0.6l2-0.4h0.4L281.2,331.6z M285.4,326.8v1.7c0,1.2,0,3,0.1,3.8h-1.5c0-0.8,0.1-2.6,0.1-3.8V327
			c0-1.7-0.4-2.2-1.5-2.2c-0.9,0-1.6,0.4-2.7,1.2h-0.4v-0.8h0.9l-0.8,0.3c0.8-1.1,2.3-2,3.6-2C284.7,323.5,285.4,324.4,285.4,326.8z
			 M284.9,331.3l1.8,0.4v0.6h-4.1v-0.6l2-0.4H284.9z"/>
		<path d="M291.4,331.6c0.4,0,0.8-0.2,1.2-0.5l0.4,0.5c-0.5,0.6-1.2,0.9-2.1,0.9c-1.2,0-2-0.6-2-2c0-0.4,0-0.8,0-1.5v-4.3h-1.5v-0.8
			l2.2-0.3l-0.7,0.6l0.5-2.9h1l-0.1,3.2v5.8C290.4,331.2,290.8,331.6,291.4,331.6z M292.8,323.7v0.9h-3.2v-0.9H292.8z"/>
		<path d="M293.9,328c0-3,2-4.5,4.1-4.5c2,0,4.1,1.5,4.1,4.5c0,3-2.1,4.5-4.1,4.5C295.9,332.5,293.9,331,293.9,328z M300.5,328
			c0-2.4-0.9-3.7-2.5-3.7c-1.6,0-2.5,1.3-2.5,3.7c0,2.4,0.9,3.7,2.5,3.7C299.6,331.7,300.5,330.4,300.5,328z"/>
		<path d="M306.1,329.1c0,1.6,0.5,2.2,1.5,2.2c0.9,0,1.9-0.5,2.8-1.4h0.4v0.9h-0.9l0.6-0.3c-1,1.4-2.2,2-3.4,2
			c-1.4,0-2.3-0.9-2.3-3.2l0.1-4.8l0.4,0.3l-1.7-0.4v-0.6l2.6-0.2l0.2,0.2l-0.1,2.5V329.1z M310.3,332.4l-0.3-2.1l0.1-5.8l0.4,0.3
			l-1.7-0.4v-0.6l2.6-0.2l0.2,0.2l-0.1,2.5v5.4l-0.4-0.4l1.7,0.4v0.6L310.3,332.4z"/>
		<path d="M315.5,328.5v-0.8c0-1,0-1.5-0.1-2.3l-1.4-0.2v-0.6l2.4-1.1l0.3,0.2l0.2,2.3v2.6c0,1.1,0,3,0.1,3.8h-1.5
			C315.5,331.4,315.5,329.6,315.5,328.5z M314.2,331.6l2-0.4h0.4l2,0.4v0.6h-4.3V331.6z M316.2,326h1l-0.5,0.1
			c0.6-1.7,1.7-2.7,2.7-2.7c0.5,0,1.1,0.3,1.3,0.6c0,0.8-0.3,1.3-1,1.3c-0.4,0-0.8-0.2-1.1-0.4l-0.5-0.4l0.9-0.2
			c-1.1,0.6-1.8,1.5-2.2,2.9h-0.7V326z"/>
		<path d="M326.9,324.7l-1.8-0.3v-0.7h4.3v0.7l-2.2,0.3H326.9z M327.5,323.7l2.8,7.3l-0.7,0.9l2.9-8.3h1l-3.3,8.6h-0.7l-3.6-8.6
			H327.5z M332.4,324.7l-1.8-0.3v-0.7h3.4v0.7l-1.3,0.3H332.4z"/>
		<path d="M342.5,326.9c0,0.4-0.1,0.8-0.1,1h-6.6v-0.8h4.3c0.9,0,1.1-0.4,1.1-0.9c0-1-0.9-2-2-2c-1.2,0-2.5,1-2.5,3.5
			c0,2.3,1.2,3.5,3,3.5c1.2,0,1.9-0.5,2.5-1.3l0.4,0.3c-0.6,1.3-1.8,2.1-3.4,2.1c-2.4,0-4-1.7-4-4.4c0-2.8,1.9-4.6,4.1-4.6
			C341,323.5,342.5,324.8,342.5,326.9z"/>
		<path d="M345.5,328.5v-0.8c0-1,0-1.5-0.1-2.3l-1.4-0.2v-0.6l2.4-1.1l0.3,0.2l0.2,2.3v2.6c0,1.1,0,3,0.1,3.8h-1.5
			C345.5,331.4,345.5,329.6,345.5,328.5z M344.2,331.6l2-0.4h0.4l2,0.4v0.6h-4.3V331.6z M346.2,326h1l-0.5,0.1
			c0.6-1.7,1.7-2.7,2.7-2.7c0.5,0,1.1,0.3,1.3,0.6c0,0.8-0.3,1.3-1,1.3c-0.4,0-0.8-0.2-1.1-0.4l-0.5-0.4l0.9-0.2
			c-1.1,0.6-1.8,1.5-2.2,2.9h-0.7V326z"/>
		<path d="M355.1,331.6c0.4,0,0.8-0.2,1.2-0.5l0.4,0.5c-0.5,0.6-1.2,0.9-2.1,0.9c-1.2,0-2-0.6-2-2c0-0.4,0-0.8,0-1.5v-4.3h-1.5v-0.8
			l2.2-0.3l-0.7,0.6l0.5-2.9h1l-0.1,3.2v5.8C354.1,331.2,354.5,331.6,355.1,331.6z M356.6,323.7v0.9h-3.2v-0.9H356.6z"/>
		<path d="M358.8,332.3c0-0.8,0.1-2.7,0.1-3.8v-0.8c0-1,0-1.5-0.1-2.3l-1.5-0.2v-0.6l2.7-1.1l0.3,0.2l-0.1,2.4v2.4
			c0,1.1,0,3,0.1,3.8H358.8z M361.5,331.6v0.6h-4.1v-0.6l2-0.4h0.4L361.5,331.6z M358.3,320.3c0-0.7,0.5-1.1,1.2-1.1
			s1.2,0.5,1.2,1.1c0,0.7-0.5,1.1-1.2,1.1S358.3,321,358.3,320.3z"/>
		<path d="M364.4,327.8c0,2.3,1.2,3.5,2.9,3.5c1,0,2-0.5,2.5-1.4l0.4,0.2c-0.5,1.5-1.6,2.3-3.3,2.3c-2.5,0-4-1.7-4-4.5
			c0-2.8,2-4.5,4.1-4.5c1.6,0,2.9,1,3.2,2.3c-0.1,0.5-0.4,0.7-0.8,0.7c-0.6,0-0.8-0.4-1-0.8l-0.5-1.6l0.8,0.7
			c-0.6-0.3-1.2-0.5-1.7-0.5C365.5,324.3,364.4,325.5,364.4,327.8z"/>
		<path d="M379.1,326.9c0,0.4-0.1,0.8-0.1,1h-6.6v-0.8h4.3c0.9,0,1.1-0.4,1.1-0.9c0-1-0.9-2-2-2c-1.2,0-2.5,1-2.5,3.5
			c0,2.3,1.2,3.5,3,3.5c1.2,0,1.9-0.5,2.5-1.3l0.4,0.3c-0.6,1.3-1.8,2.1-3.4,2.1c-2.4,0-4-1.7-4-4.4c0-2.8,1.9-4.6,4.1-4.6
			C377.7,323.5,379.1,324.8,379.1,326.9z"/>
		<path d="M381,331.8l-0.1-2h1l0.5,2.1l-0.9-0.4v-0.6c0.6,0.5,1.3,0.7,2.2,0.7c1.4,0,2-0.6,2-1.4c0-0.8-0.5-1.2-1.7-1.6l-0.8-0.3
			c-1.3-0.5-2.2-1.2-2.2-2.4c0-1.3,1.1-2.5,3.1-2.5c1,0,1.7,0.3,2.5,0.7l-0.1,1.8h-0.9l-0.4-1.8l0.6,0.3v0.5
			c-0.6-0.5-1.2-0.7-1.8-0.7c-1.1,0-1.7,0.5-1.7,1.2c0,0.8,0.5,1.1,1.7,1.6l0.5,0.2c1.8,0.7,2.5,1.5,2.5,2.6c0,1.3-1.2,2.6-3.5,2.6
			C382.6,332.5,381.9,332.3,381,331.8z"/>
	</g>
</g>
</svg>
