<?xml version="1.0" encoding="utf-8"?>
<!-- Generator: Adobe Illustrator 24.0.3, SVG Export Plug-In . SVG Version: 6.00 Build 0)  -->
<svg version="1.1" id="Layer_1" xmlns="http://www.w3.org/2000/svg" xmlns:xlink="http://www.w3.org/1999/xlink" x="0px" y="0px"
	 width="1127.43px" height="285.54px" viewBox="0 0 1127.43 285.54" style="enable-background:new 0 0 1127.43 285.54;"
	 xml:space="preserve">
<style type="text/css">
	.st0{fill:none;stroke:#B62025;stroke-width:2;stroke-linecap:round;stroke-linejoin:round;stroke-miterlimit:10;}
	.st1{fill:none;stroke:#157B3E;stroke-width:2;stroke-linecap:round;stroke-linejoin:round;stroke-miterlimit:10;}
	.st2{fill:none;stroke:#384A9F;stroke-width:2;stroke-linecap:round;stroke-linejoin:round;stroke-miterlimit:10;}
	.st3{fill:none;stroke:#000000;stroke-linecap:round;stroke-linejoin:round;stroke-miterlimit:10;}
	.st4{fill:none;stroke:#B62126;stroke-width:2;stroke-linecap:round;stroke-linejoin:round;stroke-miterlimit:10;}
	.st5{fill:none;stroke:#384C9F;stroke-width:2;stroke-linecap:round;stroke-linejoin:round;stroke-miterlimit:10;}
	.st6{fill:none;stroke:#157C3E;stroke-width:2;stroke-linecap:round;stroke-linejoin:round;stroke-miterlimit:10;}
	.st7{fill:none;stroke:#B62227;stroke-width:2;stroke-linecap:round;stroke-linejoin:round;stroke-miterlimit:10;}
	.st8{fill:none;stroke:#157D3F;stroke-width:2;stroke-linecap:round;stroke-linejoin:round;stroke-miterlimit:10;}
	.st9{fill:none;stroke:#384D9F;stroke-width:2;stroke-linecap:round;stroke-linejoin:round;stroke-miterlimit:10;}
</style>
<g>
	<g>
		<line class="st0" x1="316.62" y1="268.6" x2="316.62" y2="138.6"/>
		<line class="st0" x1="273.29" y1="268.6" x2="273.29" y2="138.6"/>
		<line class="st0" x1="229.96" y1="268.6" x2="221.72" y2="139.03"/>
		<line class="st1" x1="186.62" y1="268.6" x2="99.96" y2="268.6"/>
		<line class="st1" x1="143.29" y1="225.26" x2="13.29" y2="225.26"/>
		<line class="st2" x1="143.29" y1="181.93" x2="56.62" y2="51.93"/>
		<line class="st2" x1="99.96" y1="8.6" x2="186.62" y2="138.6"/>
	</g>
	<rect x="0.5" y="0.5" class="st3" width="333.82" height="284.54"/>
</g>
<g>
	<g>
		<line class="st4" x1="800.23" y1="181.93" x2="800.23" y2="51.93"/>
		<line class="st4" x1="713.57" y1="51.93" x2="717.9" y2="181.93"/>
		<line class="st4" x1="800.23" y1="268.6" x2="583.57" y2="268.6"/>
		<line class="st4" x1="670.23" y1="225.26" x2="670.23" y2="181.93"/>
		<line class="st4" x1="670.23" y1="138.6" x2="583.57" y2="138.6"/>
		<line class="st5" x1="583.57" y1="51.93" x2="453.57" y2="8.6"/>
		<line class="st6" x1="540.23" y1="138.6" x2="453.57" y2="233.93"/>
		<line class="st6" x1="366.9" y1="95.26" x2="453.57" y2="181.93"/>
	</g>
	<rect x="356.01" y="0.5" class="st3" width="459.49" height="284.54"/>
</g>
<g>
	<g>
		<line class="st7" x1="891.84" y1="268.6" x2="1021.84" y2="268.6"/>
		<line class="st7" x1="1065.18" y1="268.6" x2="1108.51" y2="268.6"/>
		<line class="st8" x1="848.51" y1="181.93" x2="978.51" y2="181.93"/>
		<line class="st8" x1="1021.84" y1="177.6" x2="1065.18" y2="177.6"/>
		<line class="st8" x1="978.51" y1="186.26" x2="1065.18" y2="186.26"/>
		<line class="st9" x1="891.84" y1="138.6" x2="935.18" y2="95.26"/>
		<line class="st9" x1="1021.84" y1="8.6" x2="978.51" y2="51.93"/>
	</g>
	<rect x="835.26" y="0.5" class="st3" width="291.67" height="284.54"/>
</g>
</svg>
