<?xml version="1.0" encoding="utf-8"?>
<!-- Generator: Adobe Illustrator 24.0.3, SVG Export Plug-In . SVG Version: 6.00 Build 0)  -->
<svg version="1.1" id="Layer_1" xmlns="http://www.w3.org/2000/svg" xmlns:xlink="http://www.w3.org/1999/xlink" x="0px" y="0px"
	 width="867.86px" height="316.71px" viewBox="0 0 867.86 316.71" style="enable-background:new 0 0 867.86 316.71;"
	 xml:space="preserve">
<style type="text/css">
	.st0{fill:none;stroke:#B70909;stroke-width:1.5;stroke-linecap:round;stroke-linejoin:round;stroke-miterlimit:10;}
	.st1{fill:none;stroke:#0D7A0A;stroke-width:1.5;stroke-linecap:round;stroke-linejoin:round;stroke-miterlimit:10;}
</style>
<g>
	<path class="st0" d="M477.43,176.32l-1.65-6.63 M475.78,169.69l4.49-8.39 M480.27,161.3l-3.26-36.75 M477.01,124.55l-13.33,5.89
		 M463.69,130.44l-5.58-0.73 M458.11,129.72l-2.59-4.76 M455.52,124.96l-17.24,2.4 M438.28,127.36l-2.83,5.63 M435.45,132.99
		l-19.61-3.35 M415.84,129.65l-38.74,7.51 M377.1,137.16l-2.98-5.36 M374.12,131.79l-16.19,0.03 M357.93,131.82l-2.94,6.13
		 M354.99,137.95l-8.51,0.7 M346.48,138.65l-4.57-9.9 M341.91,128.76l-29.77-4.58 M312.14,124.18l-3.55,6.51 M308.59,130.69
		l-78.36,4.9 M230.24,135.6l-2.56,11.43 M227.68,147.03l-8.4,0.21 M219.28,147.24l-3.47-5.48 M215.81,141.76l-14.53,1.97
		 M201.27,143.73l-4.43,5.79 M196.84,149.52l-43.59-3.49 M153.25,146.03l-4.56-19.29 M148.7,126.74l6.53-5.85 M155.23,120.89
		l-3.07-14.26 M152.16,106.63l-4.25-2 M147.9,104.64l-3.61-56.14 M144.29,48.49l5.72-18.56 M150.01,29.94l-4.47-5.7 M145.55,24.24
		l1.58-21.05 M147.13,3.19l-35.42,1.99 M111.71,5.18l-5.79-4.43 M105.91,0.75l-6.65,11.04 M99.26,11.79l-5.35-6.42 M93.91,5.37
		l2.61,30.34 M96.52,35.71l-16.25,2.63 M80.27,38.34l1.74,20.23 M82.01,58.56l8.73,3 M90.73,61.56L93,93.39 M93,93.39l-8.63,5.9
		 M84.37,99.29l1.79,22.32 M86.16,121.61l15.31-0.75 M101.47,120.86l1.62,20.72 M103.09,141.58l9.67,1.12 M112.76,142.7l-2.75,28.62
		 M110.01,171.32l-6.25,2.26 M103.76,173.58l0.07,22.99 M103.83,196.56l19.01-0.96 M122.84,195.6l2.77-7.73 M125.62,187.87
		l19.73-1.85 M145.34,186.02l4.19,4.59 M149.54,190.61l-0.79,8.18 M148.75,198.79l7.46,1.67 M156.21,200.46L158.4,214 M158.4,214
		l20.72-1.62 M179.12,212.37l1.78-7.95 M180.9,204.42l18.01-1.19 M198.91,203.23l4.99-8.28 M203.9,194.95l32.33-2.16 M236.22,192.79
		l7.34,6.86 M243.56,199.66l19.68-3.95 M263.24,195.71l3.77-7.51 M267.01,188.2l31.83-2.27 M298.84,185.93l3.8,8.68 M302.64,194.61
		l28.24-2.55 M330.87,192.06l-1.31-8.12 M329.56,183.94l5.48-8.17 M335.04,175.77l9.56,1.62 M344.6,177.38l-0.29,8.29
		 M344.31,185.67l21.22-1.51 M365.53,184.16l1.19,13.32 M366.72,197.48l3.64,2.38 M370.37,199.86l20.23-1.74 M390.59,198.12
		l1.39-8.56 M391.99,189.56l32.82-2.05 M424.81,187.51l12.92,7.59 M437.73,195.1l15.08,0.24 M452.81,195.35l1.8-17.35 M454.61,178
		l22.82-1.68"/>
</g>
<g>
	<line class="st1" x1="400.75" y1="278.35" x2="397.69" y2="229.41"/>
	<line class="st1" x1="397.68" y1="229.4" x2="377.15" y2="230.68"/>
	<line class="st1" x1="377.16" y1="230.68" x2="376.97" y2="227.63"/>
	<line class="st1" x1="376.97" y1="227.63" x2="356.92" y2="228.88"/>
	<line class="st1" x1="356.92" y1="228.9" x2="357.17" y2="232.92"/>
	<line class="st1" x1="357.17" y1="232.92" x2="295.89" y2="236.76"/>
	<line class="st1" x1="295.89" y1="236.75" x2="295.67" y2="233.31"/>
	<line class="st1" x1="295.68" y1="233.32" x2="276.58" y2="234.52"/>
	<line class="st1" x1="276.58" y1="234.51" x2="276.93" y2="240.03"/>
	<line class="st1" x1="276.93" y1="240.03" x2="264.79" y2="240.79"/>
	<line class="st1" x1="264.79" y1="240.79" x2="263.96" y2="227.52"/>
	<line class="st1" x1="263.96" y1="227.51" x2="230.65" y2="229.59"/>
	<line class="st1" x1="230.65" y1="229.6" x2="230.84" y2="232.66"/>
	<line class="st1" x1="230.84" y1="232.67" x2="148.89" y2="237.8"/>
	<line class="st1" x1="148.89" y1="237.79" x2="149.58" y2="248.86"/>
	<line class="st1" x1="149.58" y1="248.86" x2="138.01" y2="249.58"/>
	<line class="st1" x1="138.01" y1="249.59" x2="137.68" y2="244.29"/>
	<line class="st1" x1="137.68" y1="244.29" x2="119.14" y2="245.45"/>
	<line class="st1" x1="119.14" y1="245.45" x2="119.32" y2="248.37"/>
	<line class="st1" x1="119.32" y1="248.37" x2="72.07" y2="251.33"/>
	<line class="st1" x1="72.07" y1="251.32" x2="70.49" y2="226.02"/>
	<line class="st1" x1="70.49" y1="226.01" x2="74.6" y2="225.75"/>
	<line class="st1" x1="74.6" y1="225.76" x2="73.46" y2="207.53"/>
	<line class="st1" x1="73.46" y1="207.52" x2="69.05" y2="207.8"/>
	<polyline class="st1" points="69.05,207.8 62.64,105.37 14.8,108.87 16.66,138.62 	"/>
	<line class="st1" x1="16.66" y1="138.62" x2="0.75" y2="139.62"/>
	<line class="st1" x1="0.75" y1="139.62" x2="2.18" y2="162.44"/>
	<line class="st1" x1="2.18" y1="162.43" x2="11.06" y2="161.87"/>
	<line class="st1" x1="11.05" y1="161.88" x2="13.32" y2="198.16"/>
	<line class="st1" x1="13.32" y1="198.15" x2="4.69" y2="198.69"/>
	<line class="st1" x1="4.69" y1="198.7" x2="6.26" y2="223.82"/>
	<line class="st1" x1="6.27" y1="223.82" x2="21.92" y2="222.84"/>
	<line class="st1" x1="21.92" y1="222.84" x2="23.28" y2="244.54"/>
	<line class="st1" x1="23.27" y1="244.54" x2="30.73" y2="244.07"/>
	<line class="st1" x1="30.73" y1="244.07" x2="32.62" y2="274.19"/>
	<line class="st1" x1="32.62" y1="274.2" x2="23.31" y2="274.78"/>
	<line class="st1" x1="23.31" y1="274.77" x2="24.81" y2="298.71"/>
	<line class="st1" x1="24.81" y1="298.71" x2="44.75" y2="297.46"/>
	<line class="st1" x1="44.75" y1="297.46" x2="44.27" y2="289.74"/>
	<line class="st1" x1="44.27" y1="289.74" x2="68.43" y2="288.23"/>
	<line class="st1" x1="68.42" y1="288.23" x2="69.28" y2="301.92"/>
	<line class="st1" x1="69.28" y1="301.92" x2="77.1" y2="301.43"/>
	<line class="st1" x1="77.1" y1="301.43" x2="78.01" y2="315.95"/>
	<line class="st1" x1="78.01" y1="315.96" x2="100.55" y2="314.55"/>
	<line class="st1" x1="100.55" y1="314.54" x2="100.05" y2="306.54"/>
	<line class="st1" x1="100.05" y1="306.54" x2="121.94" y2="305.17"/>
	<line class="st1" x1="121.94" y1="305.17" x2="121.44" y2="297.14"/>
	<line class="st1" x1="121.44" y1="297.14" x2="159.95" y2="294.73"/>
	<line class="st1" x1="159.95" y1="294.73" x2="160.32" y2="300.6"/>
	<line class="st1" x1="160.32" y1="300.61" x2="185.72" y2="299.02"/>
	<line class="st1" x1="185.71" y1="299.01" x2="185.16" y2="290.28"/>
	<line class="st1" x1="185.17" y1="290.29" x2="220.75" y2="288.06"/>
	<line class="st1" x1="220.74" y1="288.05" x2="221.26" y2="296.4"/>
	<line class="st1" x1="221.27" y1="296.4" x2="252.3" y2="294.46"/>
	<line class="st1" x1="252.29" y1="294.46" x2="251.34" y2="279.2"/>
	<line class="st1" x1="251.34" y1="279.21" x2="264.4" y2="278.39"/>
	<line class="st1" x1="264.4" y1="278.39" x2="264.98" y2="287.64"/>
	<line class="st1" x1="264.98" y1="287.64" x2="285.99" y2="286.33"/>
	<line class="st1" x1="285.99" y1="286.32" x2="286.96" y2="301.89"/>
	<line class="st1" x1="286.96" y1="301.89" x2="311.83" y2="300.33"/>
	<line class="st1" x1="311.84" y1="300.33" x2="311.35" y2="292.42"/>
	<line class="st1" x1="311.34" y1="292.42" x2="351.32" y2="289.92"/>
	<line class="st1" x1="351.32" y1="289.92" x2="351.84" y2="298.16"/>
	<line class="st1" x1="351.84" y1="298.17" x2="374.48" y2="296.75"/>
	<line class="st1" x1="374.48" y1="296.76" x2="373.44" y2="280.06"/>
	<line class="st1" x1="373.43" y1="280.05" x2="400.75" y2="278.34"/>
</g>
<g>
	<path class="st1" d="M720.48,314.59l0.45-145.55 M720.93,168.71l0.45-142.38 M860.84,24.48L718.6,24.04 M866.68,165.75l0.44-141.64
		 M866.22,311.96l0.45-146.13 M859.55,166.58l-142.26-0.45 M859.1,313.53l-140.7-0.44 M764.21,95.62l22.46-28.08 M793.58,118.57
		l-29.23-23.39 M814.37,89.67l-26.11-20.89 M794.2,117.22l20.89-26.12 M769.51,246.36l24.58-24.41 M815.13,244.99l-21.67-21.82
		 M792.88,270.15L768.8,245.9 M792.58,268.86l22.38-22.23"/>
</g>
<g>
	<path class="st0" d="M522.87,312.92l-5.44-145.56 M522.87,167.01l4.87-142.4 M522.87,21.11l142.26,5.08 M668.77,24.76l-4.74,141.66
		 M675.01,166.77l-8.44,146 M519.14,164.59l142.34,2.42 M517.76,312.92l140.8-0.15 M566.64,94.06l24.23-26.61 M566.54,95.32
		l30.61,21.6 M592.31,67.57l24.73,22.54 M597.15,116.92l20.89-26.15 M569.71,245.18l25.66-23.31 M595.37,221.87l19.35,23.93
		 M568.82,245.58l24.72,23.63 M614.72,245.8l-21.18,23.4"/>
</g>
</svg>
