<?xml version="1.0" encoding="utf-8"?>
<!-- Generator: Adobe Illustrator 24.0.3, SVG Export Plug-In . SVG Version: 6.00 Build 0)  -->
<svg version="1.1" id="Layer_1" xmlns="http://www.w3.org/2000/svg" xmlns:xlink="http://www.w3.org/1999/xlink" x="0px" y="0px"
	 width="503.4px" height="338.2px" viewBox="0 0 503.4 338.2" style="enable-background:new 0 0 503.4 338.2;" xml:space="preserve"
	>
<style type="text/css">
	.st0{fill:none;stroke:#E80F2E;stroke-width:2;stroke-linecap:round;stroke-linejoin:round;stroke-miterlimit:10;}
	.st1{fill:none;stroke:#E80F2E;stroke-width:2;stroke-linecap:round;stroke-linejoin:round;}
	.st2{fill:none;stroke:#E80F2E;stroke-width:2;stroke-linecap:round;stroke-linejoin:round;stroke-dasharray:8.0087,8.0087;}
	.st3{fill:none;stroke:#E80F2E;stroke-width:2;stroke-linecap:round;stroke-linejoin:round;stroke-dasharray:8.1984,8.1984;}
	.st4{fill:none;stroke:#78BF5A;stroke-width:2;stroke-linecap:round;stroke-linejoin:round;stroke-miterlimit:10;}
	.st5{fill:none;stroke:#78BF5A;stroke-width:2;stroke-linecap:round;stroke-linejoin:round;}
	.st6{fill:none;stroke:#78BF5A;stroke-width:2;stroke-linecap:round;stroke-linejoin:round;stroke-dasharray:8.0047,8.0047;}
	.st7{fill:none;stroke:#78BF5A;stroke-width:2;stroke-linecap:round;stroke-linejoin:round;stroke-dasharray:8.2482,8.2482;}
	.st8{fill:none;stroke:#000000;stroke-width:2;stroke-linecap:square;stroke-linejoin:round;stroke-miterlimit:10;}
	.st9{fill:none;stroke:#000000;stroke-width:2;stroke-linejoin:round;stroke-miterlimit:10;}
	.st10{fill:none;stroke:#000000;stroke-width:2;stroke-miterlimit:10;}
</style>
<polyline class="st0" points="96.2,288.2 96.9,287.9 97.8,287.6 98.6,287.3 99.5,287 100.3,286.6 101.2,286.3 102.1,286 
	102.9,285.7 103.8,285.3 104.6,285 105.5,284.7 106.3,284.4 107.2,284.1 108.1,283.7 108.9,283.4 109.8,283.1 110.6,282.8 
	111.5,282.5 112.3,282.1 113.2,281.8 114,281.5 114.9,281.2 115.8,280.8 116.6,280.5 117.5,280.2 118.3,279.9 119.2,279.6 
	120,279.2 120.9,278.9 121.7,278.6 122.6,278.3 123.5,277.9 124.3,277.6 125.2,277.3 126,277 126.9,276.7 127.7,276.3 128.6,276 
	129.5,275.7 130.3,275.4 131.2,275 132,274.7 132.9,274.4 133.7,274.1 134.6,273.7 135.4,273.4 136.3,273.1 137.2,272.8 138,272.4 
	138.9,272.1 139.7,271.8 140.6,271.4 141.4,271.1 142.3,270.8 143.1,270.5 144,270.1 144.9,269.8 145.7,269.5 146.6,269.1 
	147.4,268.8 148.3,268.5 149.1,268.1 150,267.8 150.9,267.5 151.7,267.1 152.6,266.8 153.4,266.5 154.3,266.1 155.1,265.8 
	156,265.4 156.8,265.1 157.7,264.8 158.6,264.4 159.4,264.1 160.3,263.7 161.1,263.4 162,263.1 162.8,262.7 163.7,262.4 164.5,262 
	165.4,261.7 166.3,261.3 167.1,261 168,260.6 168.8,260.3 169.7,259.9 170.5,259.6 171.4,259.2 172.3,258.9 173.1,258.5 174,258.2 
	174.8,257.8 175.7,257.5 176.5,257.1 177.4,256.8 178.2,256.4 179.1,256.1 180,255.7 180.8,255.3 181.7,255 182.5,254.6 
	183.4,254.2 184.2,253.9 185.1,253.5 185.9,253.2 186.8,252.8 187.7,252.4 188.5,252 189.4,251.7 190.2,251.3 191.1,250.9 
	191.9,250.6 192.8,250.2 193.7,249.8 194.5,249.4 195.4,249.1 196.2,248.7 197.1,248.3 197.9,247.9 198.8,247.5 199.6,247.1 
	200.5,246.8 201.4,246.4 202.2,246 203.1,245.6 203.9,245.2 204.8,244.8 205.6,244.4 206.5,244 207.3,243.6 208.2,243.3 
	209.1,242.9 209.9,242.5 210.8,242.1 211.6,241.7 212.5,241.3 213.3,240.9 214.2,240.5 215.1,240 215.9,239.6 216.8,239.2 
	217.6,238.8 218.5,238.4 219.3,238 220.2,237.6 221,237.2 221.9,236.8 222.8,236.3 223.6,235.9 224.5,235.5 225.3,235.1 
	226.2,234.7 227,234.2 227.9,233.8 228.7,233.4 229.6,233 230.5,232.5 231.3,232.1 232.2,231.7 233,231.2 233.9,230.8 234.7,230.4 
	235.6,229.9 236.5,229.5 237.3,229 238.2,228.6 239,228.2 239.9,227.7 240.7,227.3 241.6,226.8 242.4,226.4 243.3,225.9 
	244.2,225.5 245,225 245.9,224.6 246.7,224.1 247.6,223.6 248.4,223.2 249.3,222.7 250.1,222.3 251,221.8 251.9,221.3 252.7,220.9 
	253.6,220.4 254.4,219.9 255.3,219.5 256.1,219 257,218.5 257.9,218 258.7,217.6 259.6,217.1 260.4,216.6 261.3,216.1 262.1,215.6 
	263,215.1 263.8,214.7 264.7,214.2 265.6,213.7 266.4,213.2 267.3,212.7 268.1,212.2 269,211.7 269.8,211.2 270.7,210.7 
	271.5,210.2 272.4,209.7 273.3,209.2 274.1,208.7 275,208.2 275.8,207.7 276.7,207.2 277.5,206.7 278.4,206.2 279.3,205.7 
	280.1,205.1 281,204.6 281.8,204.1 282.7,203.6 283.5,203.1 284.4,202.5 285.2,202 286.1,201.5 287,201 287.8,200.4 288.7,199.9 
	289.5,199.4 290.4,198.8 291.2,198.3 292.1,197.8 292.9,197.2 293.8,196.7 294.7,196.2 295.5,195.6 296.4,195.1 297.2,194.5 
	298.1,194 298.9,193.4 299.8,192.9 300.7,192.3 301.5,191.8 302.4,191.2 303.2,190.7 304.1,190.1 304.9,189.6 305.8,189 
	306.6,188.5 307.5,187.9 308.4,187.3 309.2,186.8 310.1,186.2 310.9,185.6 311.8,185.1 312.6,184.5 313.5,183.9 314.3,183.4 
	315.2,182.8 316.1,182.2 316.9,181.6 317.8,181.1 318.6,180.5 319.5,179.9 320.3,179.3 321.2,178.7 322.1,178.1 322.9,177.6 
	323.8,177 324.6,176.4 325.5,175.8 326.3,175.2 327.2,174.6 328,174 328.9,173.4 329.8,172.8 330.6,172.2 331.5,171.6 332.3,171.1 
	333.2,170.5 334,169.9 334.9,169.2 335.7,168.6 336.6,168 337.5,167.4 338.3,166.8 339.2,166.2 340,165.6 340.9,165 341.7,164.4 
	342.6,163.8 343.5,163.2 344.3,162.6 345.2,161.9 346,161.3 346.9,160.7 347.7,160.1 348.6,159.5 349.4,158.9 350.3,158.2 
	351.2,157.6 352,157 "/>
<polyline class="st0" points="352,157 352.9,156.4 353.7,155.7 354.6,155.1 355.4,154.5 356.3,153.9 357.1,153.2 358,152.6 
	358.9,152 359.7,151.3 360.6,150.7 361.4,150.1 362.3,149.4 363.1,148.8 364,148.2 364.9,147.5 365.7,146.9 366.6,146.3 
	367.4,145.6 368.3,145 369.1,144.3 370,143.7 370.8,143.1 371.7,142.4 372.6,141.8 373.4,141.1 374.3,140.5 375.1,139.8 376,139.2 
	376.8,138.5 377.7,137.9 378.5,137.2 379.4,136.6 380.3,136 381.1,135.3 382,134.7 382.8,134 383.7,133.3 384.5,132.7 385.4,132 
	386.3,131.4 387.1,130.7 388,130.1 388.8,129.4 389.7,128.8 390.5,128.1 391.4,127.5 392.2,126.8 393.1,126.1 394,125.5 
	394.8,124.8 395.7,124.2 396.5,123.5 397.4,122.9 398.2,122.2 399.1,121.5 399.9,120.9 400.8,120.2 401.7,119.6 402.5,118.9 
	403.4,118.2 404.2,117.6 405.1,116.9 405.9,116.2 406.8,115.6 407.7,114.9 408.5,114.3 409.4,113.6 410.2,112.9 411.1,112.3 
	411.9,111.6 412.8,110.9 413.6,110.3 414.5,109.6 415.4,108.9 416.2,108.3 417.1,107.6 417.9,107 418.8,106.3 419.6,105.6 
	420.5,105 421.3,104.3 422.2,103.6 423.1,103 423.9,102.3 424.8,101.6 425.6,101 426.5,100.3 427.3,99.6 428.2,99 429.1,98.3 
	429.9,97.6 430.8,97 431.6,96.3 432.5,95.6 433.3,95 434.2,94.3 435,93.7 435.9,93 436.8,92.3 437.6,91.7 438.5,91 439.3,90.3 
	440.2,89.7 441,89 441.9,88.3 442.7,87.7 443.6,87 444.5,86.4 445.3,85.7 446.2,85 447,84.4 447.9,83.7 448.7,83 449.6,82.4 
	450.5,81.7 451.3,81.1 452.2,80.4 453,79.7 453.9,79.1 454.7,78.4 455.6,77.8 456.4,77.1 457.3,76.4 458.2,75.8 459,75.1 
	459.9,74.5 460.7,73.8 461.6,73.2 462.4,72.5 463.3,71.8 464.1,71.2 465,70.5 465.9,69.9 466.7,69.2 467.6,68.6 468.4,67.9 
	469.3,67.3 470.1,66.6 471,66 471.9,65.3 472.7,64.7 473.6,64 474.4,63.4 475.3,62.7 476.1,62.1 477,61.4 477.8,60.8 478.7,60.1 
	479.6,59.5 480.4,58.8 481.3,58.2 482.1,57.6 483,56.9 483.8,56.3 484.7,55.6 485.5,55 "/>
<g>
	<g>
		<polyline class="st1" points="99.9,288.2 100.3,288.2 101.2,288.1 102.1,288.1 102.9,288 103.8,288 103.9,288 		"/>
		<polyline class="st2" points="111.9,287.5 112.3,287.5 113.2,287.5 114,287.4 114.9,287.4 115.8,287.3 116.6,287.3 117.5,287.3 
			118.3,287.2 119.2,287.2 120,287.1 120.9,287.1 121.7,287 122.6,287 123.5,286.9 124.3,286.9 125.2,286.9 126,286.8 126.9,286.8 
			127.7,286.7 128.6,286.7 129.5,286.6 130.3,286.6 131.2,286.5 132,286.5 132.9,286.4 133.7,286.4 134.6,286.4 135.4,286.3 
			136.3,286.3 137.2,286.2 138,286.2 138.9,286.1 139.7,286.1 140.6,286 141.4,286 142.3,285.9 143.1,285.9 144,285.8 144.9,285.8 
			145.7,285.8 146.6,285.7 147.4,285.7 148.3,285.6 149.1,285.6 150,285.5 150.9,285.5 151.7,285.4 152.6,285.4 153.4,285.3 
			154.3,285.3 155.1,285.2 156,285.2 156.8,285.2 157.7,285.1 158.6,285.1 159.4,285 160.3,285 161.1,284.9 162,284.9 162.8,284.8 
			163.7,284.8 164.5,284.7 165.4,284.7 166.3,284.6 167.1,284.6 168,284.5 168.8,284.5 169.7,284.4 170.5,284.4 171.4,284.3 
			172.3,284.3 173.1,284.2 174,284.2 174.8,284.1 175.7,284.1 176.5,284 177.4,284 178.2,283.9 179.1,283.9 180,283.8 180.8,283.8 
			181.7,283.7 182.5,283.7 183.4,283.6 184.2,283.6 185.1,283.5 185.9,283.5 186.8,283.4 187.7,283.4 188.5,283.3 189.4,283.3 
			190.2,283.2 191.1,283.2 191.9,283.1 192.8,283.1 193.7,283 194.5,283 195.4,282.9 196.2,282.9 197.1,282.8 197.9,282.7 
			198.8,282.7 199.6,282.6 200.5,282.6 201.4,282.5 202.2,282.5 203.1,282.4 203.9,282.4 204.8,282.3 205.6,282.3 206.5,282.2 
			207.3,282.1 208.2,282.1 209.1,282 209.9,282 210.8,281.9 211.6,281.9 212.5,281.8 213.3,281.7 214.2,281.7 215.1,281.6 
			215.9,281.6 216.8,281.5 217.6,281.5 218.5,281.4 219.3,281.3 220.2,281.3 221,281.2 221.9,281.2 222.8,281.1 223.6,281.1 
			224.5,281 225.3,280.9 226.2,280.9 227,280.8 227.9,280.8 228.7,280.7 229.6,280.6 230.5,280.6 231.3,280.5 232.2,280.4 
			233,280.4 233.9,280.3 234.7,280.3 235.6,280.2 236.5,280.1 237.3,280.1 238.2,280 239,279.9 239.9,279.9 240.7,279.8 
			241.6,279.8 242.4,279.7 243.3,279.6 244.2,279.6 245,279.5 245.9,279.4 246.7,279.4 247.6,279.3 248.4,279.2 249.3,279.2 
			250.1,279.1 251,279 251.9,279 252.7,278.9 253.6,278.8 254.4,278.8 255.3,278.7 256.1,278.6 257,278.6 257.9,278.5 258.7,278.4 
			259.6,278.4 260.4,278.3 261.3,278.2 262.1,278.2 263,278.1 263.8,278 264.7,277.9 265.6,277.9 266.4,277.8 267.3,277.7 
			268.1,277.7 269,277.6 269.8,277.5 270.7,277.4 271.5,277.4 272.4,277.3 273.3,277.2 274.1,277.2 275,277.1 275.8,277 
			276.7,276.9 277.5,276.9 278.4,276.8 279.3,276.7 280.1,276.6 281,276.6 281.8,276.5 282.7,276.4 283.5,276.3 284.4,276.3 
			285.2,276.2 286.1,276.1 287,276 287.8,276 288.7,275.9 289.5,275.8 290.4,275.7 291.2,275.6 292.1,275.6 292.9,275.5 
			293.8,275.4 294.7,275.3 295.5,275.2 296.4,275.2 297.2,275.1 298.1,275 298.9,274.9 299.8,274.9 300.7,274.8 301.5,274.7 
			302.4,274.6 303.2,274.5 304.1,274.4 304.9,274.4 305.8,274.3 306.6,274.2 307.5,274.1 308.4,274 309.2,274 310.1,273.9 
			310.9,273.8 311.8,273.7 312.6,273.6 313.5,273.5 314.3,273.5 315.2,273.4 316.1,273.3 316.9,273.2 317.8,273.1 318.6,273 
			319.5,272.9 320.3,272.9 321.2,272.8 322.1,272.7 322.9,272.6 323.8,272.5 324.6,272.4 325.5,272.3 326.3,272.3 327.2,272.2 
			328,272.1 328.9,272 329.8,271.9 330.6,271.8 331.5,271.7 332.3,271.6 333.2,271.6 334,271.5 334.9,271.4 335.7,271.3 
			336.6,271.2 337.5,271.1 338.3,271 339.2,270.9 340,270.8 340.9,270.7 341.7,270.7 342.6,270.6 343.5,270.5 344.3,270.4 
			345.2,270.3 346,270.2 346.9,270.1 347.5,270 		"/>
		<polyline class="st1" points="351.5,269.6 352,269.6 352.9,269.5 353.7,269.4 354.6,269.3 355.4,269.2 		"/>
	</g>
</g>
<g>
	<g>
		<polyline class="st1" points="355.4,269.2 356.3,269.1 357.1,269 358,268.9 358.9,268.8 359.4,268.7 		"/>
		<polyline class="st3" points="367.6,267.8 368.3,267.8 369.1,267.7 370,267.6 370.8,267.5 371.7,267.4 372.6,267.3 373.4,267.2 
			374.3,267.1 375.1,267 376,266.9 376.8,266.8 377.7,266.7 378.5,266.6 379.4,266.5 380.3,266.4 381.1,266.3 382,266.2 
			382.8,266.1 383.7,266 384.5,265.9 385.4,265.8 386.3,265.7 387.1,265.6 388,265.5 388.8,265.4 389.7,265.3 390.5,265.2 
			391.4,265.1 392.2,265 393.1,264.9 394,264.8 394.8,264.7 395.7,264.6 396.5,264.5 397.4,264.5 398.2,264.4 399.1,264.3 
			399.9,264.2 400.8,264.1 401.7,264 402.5,263.9 403.4,263.8 404.2,263.7 405.1,263.6 405.9,263.5 406.8,263.4 407.7,263.3 
			408.5,263.2 409.4,263.1 410.2,263 411.1,262.9 411.9,262.8 412.8,262.7 413.6,262.6 414.5,262.5 415.4,262.4 416.2,262.3 
			417.1,262.2 417.9,262.1 418.8,262 419.6,261.9 420.5,261.8 421.3,261.7 422.2,261.6 423.1,261.5 423.9,261.4 424.8,261.2 
			425.6,261.1 426.5,261 427.3,260.9 428.2,260.8 429.1,260.7 429.9,260.6 430.8,260.5 431.6,260.4 432.5,260.3 433.3,260.2 
			434.2,260.1 435,260 435.9,259.9 436.8,259.8 437.6,259.7 438.5,259.6 439.3,259.5 440.2,259.4 441,259.3 441.9,259.2 
			442.7,259.1 443.6,259 444.5,258.9 445.3,258.8 446.2,258.7 447,258.6 447.9,258.5 448.7,258.4 449.6,258.3 450.5,258.2 
			451.3,258.1 452.2,258 453,257.9 453.9,257.8 454.7,257.7 455.6,257.6 456.4,257.5 457.3,257.4 458.2,257.3 459,257.2 
			459.9,257.1 460.7,257 461.6,256.9 462.4,256.8 463.3,256.7 464.1,256.6 465,256.5 465.9,256.4 466.7,256.3 467.6,256.2 
			468.4,256.1 469.3,256 470.1,255.9 471,255.8 471.9,255.7 472.7,255.6 473.6,255.5 474.4,255.4 475.3,255.3 476.1,255.2 
			477,255.1 477.5,255.1 		"/>
		<polyline class="st1" points="481.6,254.6 482.1,254.6 483,254.5 483.8,254.4 484.7,254.3 485.5,254.2 		"/>
	</g>
</g>
<polyline class="st4" points="100.5,288.2 101.2,288.1 102.1,288 102.9,287.9 103.8,287.8 104.6,287.7 105.5,287.7 106.3,287.6 
	107.2,287.5 108.1,287.4 108.9,287.3 109.8,287.2 110.6,287.1 111.5,287 112.3,286.9 113.2,286.8 114,286.7 114.9,286.7 
	115.8,286.6 116.6,286.5 117.5,286.4 118.3,286.3 119.2,286.2 120,286.1 120.9,286 121.7,285.9 122.6,285.8 123.5,285.7 
	124.3,285.7 125.2,285.6 126,285.5 126.9,285.4 127.7,285.3 128.6,285.2 129.5,285.1 130.3,285 131.2,284.9 132,284.8 132.9,284.7 
	133.7,284.6 134.6,284.6 135.4,284.5 136.3,284.4 137.2,284.3 138,284.2 138.9,284.1 139.7,284 140.6,283.9 141.4,283.8 
	142.3,283.7 143.1,283.6 144,283.5 144.9,283.4 145.7,283.3 146.6,283.3 147.4,283.2 148.3,283.1 149.1,283 150,282.9 150.9,282.8 
	151.7,282.7 152.6,282.6 153.4,282.5 154.3,282.4 155.1,282.3 156,282.2 156.8,282.1 157.7,282 158.6,281.9 159.4,281.8 
	160.3,281.7 161.1,281.6 162,281.5 162.8,281.4 163.7,281.3 164.5,281.2 165.4,281.1 166.3,281 167.1,281 168,280.9 168.8,280.8 
	169.7,280.7 170.5,280.6 171.4,280.5 172.3,280.4 173.1,280.3 174,280.2 174.8,280.1 175.7,280 176.5,279.9 177.4,279.8 
	178.2,279.7 179.1,279.5 180,279.4 180.8,279.3 181.7,279.2 182.5,279.1 183.4,279 184.2,278.9 185.1,278.8 185.9,278.7 
	186.8,278.6 187.7,278.5 188.5,278.4 189.4,278.3 190.2,278.2 191.1,278.1 191.9,278 192.8,277.9 193.7,277.8 194.5,277.7 
	195.4,277.6 196.2,277.5 197.1,277.3 197.9,277.2 198.8,277.1 199.6,277 200.5,276.9 201.4,276.8 202.2,276.7 203.1,276.6 
	203.9,276.5 204.8,276.4 205.6,276.2 206.5,276.1 207.3,276 208.2,275.9 209.1,275.8 209.9,275.7 210.8,275.6 211.6,275.4 
	212.5,275.3 213.3,275.2 214.2,275.1 215.1,275 215.9,274.9 216.8,274.7 217.6,274.6 218.5,274.5 219.3,274.4 220.2,274.3 
	221,274.2 221.9,274 222.8,273.9 223.6,273.8 224.5,273.7 225.3,273.6 226.2,273.4 227,273.3 227.9,273.2 228.7,273.1 229.6,272.9 
	230.5,272.8 231.3,272.7 232.2,272.6 233,272.4 233.9,272.3 234.7,272.2 235.6,272.1 236.5,271.9 237.3,271.8 238.2,271.7 
	239,271.6 239.9,271.4 240.7,271.3 241.6,271.2 242.4,271 243.3,270.9 244.2,270.8 245,270.6 245.9,270.5 246.7,270.4 247.6,270.2 
	248.4,270.1 249.3,270 250.1,269.8 251,269.7 251.9,269.6 252.7,269.4 253.6,269.3 254.4,269.2 255.3,269 256.1,268.9 257,268.8 
	257.9,268.6 258.7,268.5 259.6,268.3 260.4,268.2 261.3,268.1 262.1,267.9 263,267.8 263.8,267.6 264.7,267.5 265.6,267.3 
	266.4,267.2 267.3,267.1 268.1,266.9 269,266.8 269.8,266.6 270.7,266.5 271.5,266.3 272.4,266.2 273.3,266 274.1,265.9 275,265.7 
	275.8,265.6 276.7,265.4 277.5,265.3 278.4,265.1 279.3,265 280.1,264.8 281,264.7 281.8,264.5 282.7,264.4 283.5,264.2 
	284.4,264.1 285.2,263.9 286.1,263.8 287,263.6 287.8,263.5 288.7,263.3 289.5,263.2 290.4,263 291.2,262.8 292.1,262.7 
	292.9,262.5 293.8,262.4 294.7,262.2 295.5,262 296.4,261.9 297.2,261.7 298.1,261.6 298.9,261.4 299.8,261.2 300.7,261.1 
	301.5,260.9 302.4,260.7 303.2,260.6 304.1,260.4 304.9,260.3 305.8,260.1 306.6,259.9 307.5,259.8 308.4,259.6 309.2,259.4 
	310.1,259.3 310.9,259.1 311.8,258.9 312.6,258.8 313.5,258.6 314.3,258.4 315.2,258.2 316.1,258.1 316.9,257.9 317.8,257.7 
	318.6,257.6 319.5,257.4 320.3,257.2 321.2,257 322.1,256.9 322.9,256.7 323.8,256.5 324.6,256.3 325.5,256.2 326.3,256 
	327.2,255.8 328,255.6 328.9,255.5 329.8,255.3 330.6,255.1 331.5,254.9 332.3,254.8 333.2,254.6 334,254.4 334.9,254.2 335.7,254 
	336.6,253.9 337.5,253.7 338.3,253.5 339.2,253.3 340,253.1 340.9,252.9 341.7,252.8 342.6,252.6 343.5,252.4 344.3,252.2 
	345.2,252 346,251.8 346.9,251.7 347.7,251.5 348.6,251.3 349.4,251.1 350.3,250.9 351.2,250.7 352,250.5 352.9,250.4 353.7,250.2 
	354.6,250 355.4,249.8 356.3,249.6 "/>
<polyline class="st4" points="356.3,249.6 357.1,249.4 358,249.2 358.9,249 359.7,248.9 360.6,248.7 361.4,248.5 362.3,248.3 
	363.1,248.1 364,247.9 364.9,247.7 365.7,247.5 366.6,247.3 367.4,247.1 368.3,246.9 369.1,246.7 370,246.6 370.8,246.4 
	371.7,246.2 372.6,246 373.4,245.8 374.3,245.6 375.1,245.4 376,245.2 376.8,245 377.7,244.8 378.5,244.6 379.4,244.4 380.3,244.2 
	381.1,244 382,243.8 382.8,243.6 383.7,243.4 384.5,243.2 385.4,243 386.3,242.8 387.1,242.6 388,242.4 388.8,242.2 389.7,242.1 
	390.5,241.9 391.4,241.7 392.2,241.5 393.1,241.3 394,241.1 394.8,240.9 395.7,240.7 396.5,240.5 397.4,240.3 398.2,240.1 
	399.1,239.9 399.9,239.7 400.8,239.5 401.7,239.3 402.5,239.1 403.4,238.9 404.2,238.7 405.1,238.5 405.9,238.3 406.8,238.1 
	407.7,237.9 408.5,237.7 409.4,237.5 410.2,237.3 411.1,237.1 411.9,236.9 412.8,236.7 413.6,236.4 414.5,236.2 415.4,236 
	416.2,235.8 417.1,235.6 417.9,235.4 418.8,235.2 419.6,235 420.5,234.8 421.3,234.6 422.2,234.4 423.1,234.2 423.9,234 
	424.8,233.8 425.6,233.6 426.5,233.4 427.3,233.2 428.2,233 429.1,232.8 429.9,232.6 430.8,232.4 431.6,232.2 432.5,232 
	433.3,231.8 434.2,231.6 435,231.4 435.9,231.2 436.8,231 437.6,230.8 438.5,230.6 439.3,230.4 440.2,230.2 441,230 441.9,229.8 
	442.7,229.6 443.6,229.4 444.5,229.2 445.3,229 446.2,228.8 447,228.6 447.9,228.4 448.7,228.2 449.6,228 450.5,227.8 451.3,227.6 
	452.2,227.4 453,227.2 453.9,227 454.7,226.8 455.6,226.6 456.4,226.4 457.3,226.2 458.2,226 459,225.8 459.9,225.5 460.7,225.3 
	461.6,225.1 462.4,224.9 463.3,224.7 464.1,224.5 465,224.3 465.9,224.1 466.7,223.9 467.6,223.8 468.4,223.6 469.3,223.4 
	470.1,223.2 471,223 471.9,222.8 472.7,222.6 473.6,222.4 474.4,222.2 475.3,222 476.1,221.8 477,221.6 477.8,221.4 478.7,221.2 
	479.6,221 480.4,220.8 481.3,220.6 482.1,220.4 483,220.2 483.8,220 484.7,219.8 485.5,219.6 "/>
<g>
	<g>
		<polyline class="st5" points="81.5,288.2 82.4,288.2 83.2,288.1 84.1,288.1 84.9,288.1 85.5,288.1 		"/>
		<polyline class="st6" points="93.5,287.8 94.4,287.8 95.2,287.7 96.1,287.7 96.9,287.7 97.8,287.6 98.6,287.6 99.5,287.6 
			100.3,287.6 101.2,287.5 102.1,287.5 102.9,287.5 103.8,287.4 104.6,287.4 105.5,287.4 106.3,287.4 107.2,287.3 108.1,287.3 
			108.9,287.3 109.8,287.2 110.6,287.2 111.5,287.2 112.3,287.2 113.2,287.1 114,287.1 114.9,287.1 115.8,287 116.6,287 117.5,287 
			118.3,287 119.2,286.9 120,286.9 120.9,286.9 121.7,286.8 122.6,286.8 123.5,286.8 124.3,286.7 125.2,286.7 126,286.7 
			126.9,286.7 127.7,286.6 128.6,286.6 129.5,286.6 130.3,286.5 131.2,286.5 132,286.5 132.9,286.4 133.7,286.4 134.6,286.4 
			135.4,286.4 136.3,286.3 137.2,286.3 138,286.3 138.9,286.2 139.7,286.2 140.6,286.2 141.4,286.1 142.3,286.1 143.1,286.1 
			144,286.1 144.9,286 145.7,286 146.6,286 147.4,285.9 148.3,285.9 149.1,285.9 150,285.8 150.9,285.8 151.7,285.8 152.6,285.7 
			153.4,285.7 154.3,285.7 155.1,285.7 156,285.6 156.8,285.6 157.7,285.6 158.6,285.5 159.4,285.5 160.3,285.5 161.1,285.4 
			162,285.4 162.8,285.4 163.7,285.3 164.5,285.3 165.4,285.3 166.3,285.2 167.1,285.2 168,285.2 168.8,285.1 169.7,285.1 
			170.5,285.1 171.4,285 172.3,285 173.1,285 174,284.9 174.8,284.9 175.7,284.9 176.5,284.8 177.4,284.8 178.2,284.8 179.1,284.8 
			180,284.7 180.8,284.7 181.7,284.7 182.5,284.6 183.4,284.6 184.2,284.6 185.1,284.5 185.9,284.5 186.8,284.5 187.7,284.4 
			188.5,284.4 189.4,284.4 190.2,284.3 191.1,284.3 191.9,284.3 192.8,284.2 193.7,284.2 194.5,284.1 195.4,284.1 196.2,284.1 
			197.1,284 197.9,284 198.8,284 199.6,283.9 200.5,283.9 201.4,283.9 202.2,283.8 203.1,283.8 203.9,283.8 204.8,283.7 
			205.6,283.7 206.5,283.7 207.3,283.6 208.2,283.6 209.1,283.6 209.9,283.5 210.8,283.5 211.6,283.5 212.5,283.4 213.3,283.4 
			214.2,283.4 215.1,283.3 215.9,283.3 216.8,283.3 217.6,283.2 218.5,283.2 219.3,283.1 220.2,283.1 221,283.1 221.9,283 
			222.8,283 223.6,283 224.5,282.9 225.3,282.9 226.2,282.9 227,282.8 227.9,282.8 228.7,282.8 229.6,282.7 230.5,282.7 
			231.3,282.6 232.2,282.6 233,282.6 233.9,282.5 234.7,282.5 235.6,282.5 236.5,282.4 237.3,282.4 238.2,282.4 239,282.3 
			239.9,282.3 240.7,282.2 241.6,282.2 242.4,282.2 243.3,282.1 244.2,282.1 245,282.1 245.9,282 246.7,282 247.6,282 248.4,281.9 
			249.3,281.9 250.1,281.8 251,281.8 251.9,281.8 252.7,281.7 253.6,281.7 254.4,281.7 255.3,281.6 256.1,281.6 257,281.5 
			257.9,281.5 258.7,281.5 259.6,281.4 260.4,281.4 261.3,281.4 262.1,281.3 263,281.3 263.8,281.2 264.7,281.2 265.6,281.2 
			266.4,281.1 267.3,281.1 268.1,281.1 269,281 269.8,281 270.7,280.9 271.5,280.9 272.4,280.9 273.3,280.8 274.1,280.8 275,280.8 
			275.8,280.7 276.7,280.7 277.5,280.6 278.4,280.6 279.3,280.6 280.1,280.5 281,280.5 281.8,280.5 282.7,280.4 283.5,280.4 
			284.4,280.3 285.2,280.3 286.1,280.3 287,280.2 287.8,280.2 288.7,280.2 289.5,280.1 290.4,280.1 291.2,280 292.1,280 292.9,280 
			293.8,279.9 294.7,279.9 295.5,279.8 296.4,279.8 297.2,279.8 298.1,279.7 298.9,279.7 299.8,279.7 300.7,279.6 301.5,279.6 
			302.4,279.5 303.2,279.5 304.1,279.5 304.9,279.4 305.8,279.4 306.6,279.4 307.5,279.3 308.4,279.3 309.2,279.2 310.1,279.2 
			310.9,279.2 311.8,279.1 312.6,279.1 313.5,279 314.3,279 315.2,279 316.1,278.9 316.9,278.9 317.8,278.9 318.6,278.8 
			319.5,278.8 320.3,278.7 321.2,278.7 322.1,278.7 322.9,278.6 323.8,278.6 324.6,278.5 325.5,278.5 326.3,278.5 327.2,278.4 
			328,278.4 328.9,278.4 329.5,278.3 		"/>
		<polyline class="st5" points="333.5,278.1 334,278.1 334.9,278.1 335.7,278 336.6,278 337.5,278 		"/>
	</g>
</g>
<g>
	<g>
		<polyline class="st5" points="337.5,278 338.3,277.9 339.2,277.9 340,277.9 340.9,277.8 341.5,277.8 		"/>
		<polyline class="st7" points="349.7,277.4 350.3,277.4 351.2,277.4 352,277.3 352.9,277.3 353.7,277.2 354.6,277.2 355.4,277.2 
			356.3,277.1 357.1,277.1 358,277.1 358.9,277 359.7,277 360.6,276.9 361.4,276.9 362.3,276.9 363.1,276.8 364,276.8 364.9,276.8 
			365.7,276.7 366.6,276.7 367.4,276.6 368.3,276.6 369.1,276.6 370,276.5 370.8,276.5 371.7,276.5 372.6,276.4 373.4,276.4 
			374.3,276.3 375.1,276.3 376,276.3 376.8,276.2 377.7,276.2 378.5,276.2 379.4,276.1 380.3,276.1 381.1,276 382,276 382.8,276 
			383.7,275.9 384.5,275.9 385.4,275.9 386.3,275.8 387.1,275.8 388,275.7 388.8,275.7 389.7,275.7 390.5,275.6 391.4,275.6 
			392.2,275.6 393.1,275.5 394,275.5 394.8,275.5 395.7,275.4 396.5,275.4 397.4,275.3 398.2,275.3 399.1,275.3 399.9,275.2 
			400.8,275.2 401.7,275.2 402.5,275.1 403.4,275.1 404.2,275 405.1,275 405.9,275 406.8,274.9 407.7,274.9 408.5,274.9 
			409.4,274.8 410.2,274.8 411.1,274.8 411.9,274.7 412.8,274.7 413.6,274.7 414.5,274.6 415.4,274.6 416.2,274.5 417.1,274.5 
			417.9,274.5 418.8,274.4 419.6,274.4 420.5,274.4 421.3,274.3 422.2,274.3 423.1,274.3 423.9,274.2 424.8,274.2 425.6,274.2 
			426.5,274.1 427.3,274.1 428.2,274 429.1,274 429.9,274 430.8,273.9 431.6,273.9 432.5,273.9 433.3,273.8 434.2,273.8 435,273.8 
			435.9,273.7 436.8,273.7 437.6,273.7 438.5,273.6 439.3,273.6 440.2,273.6 441,273.5 441.9,273.5 442.7,273.4 443.6,273.4 
			444.5,273.4 445.3,273.3 446.2,273.3 447,273.3 447.9,273.2 448.7,273.2 449.6,273.2 450.5,273.1 451.3,273.1 452.2,273.1 
			453,273 453.9,273 454.7,273 455.6,272.9 456.4,272.9 457.3,272.9 458.2,272.8 459,272.8 459.9,272.8 460.7,272.7 461.6,272.7 
			462.4,272.7 463.3,272.6 464.1,272.6 465,272.6 465.9,272.5 466.7,272.5 467.6,272.5 468.4,272.4 469.3,272.4 470.1,272.4 
			471,272.3 471.9,272.3 472.7,272.3 473.6,272.2 474.4,272.2 475.3,272.2 476.1,272.1 477,272.1 477.4,272.1 		"/>
		<polyline class="st5" points="481.6,271.9 482.1,271.9 483,271.9 483.8,271.8 484.7,271.8 485.5,271.8 		"/>
	</g>
</g>
<path class="st8" d="M57.5,288.2h428 M57.5,288.2V9.2"/>
<line class="st9" x1="57.5" y1="283.2" x2="57.5" y2="293.2"/>
<path class="st10" d="M100.3,285.7v5 M143.1,283.2v10"/>
<path class="st9" d="M185.9,285.7v5 M228.7,283.2v10"/>
<path class="st9" d="M271.5,285.7v5 M314.3,283.2v10"/>
<path class="st9" d="M357.1,285.7v5 M399.9,283.2v10"/>
<path class="st9" d="M442.7,285.7v5 M485.5,283.2v10"/>
<line class="st9" x1="52.5" y1="288.2" x2="62.5" y2="288.2"/>
<path class="st9" d="M60,272.7h-5 M52.5,257.2h10"/>
<path class="st9" d="M60,241.7h-5 M52.5,226.2h10"/>
<path class="st9" d="M60,210.7h-5 M52.5,195.2h10"/>
<path class="st9" d="M60,179.7h-5 M52.5,164.2h10"/>
<path class="st9" d="M60,148.7h-5 M52.5,133.2h10"/>
<path class="st9" d="M60,117.7h-5 M52.5,102.2h10"/>
<path class="st9" d="M60,86.7h-5 M52.5,71.2h10"/>
<path class="st9" d="M60,55.7h-5 M52.5,40.2h10"/>
<path class="st9" d="M60,24.7h-5 M52.5,9.2h10"/>
<g>
	<g>
		<path d="M133,310.1v0.6h-6.6v-0.6l2.6-0.4h1.4L133,310.1z M130.3,299l0.3,0.2l-0.1,2.6v5.2c0,1.3,0,2.5,0.1,3.8h-1.5
			c0-1.3,0.1-2.5,0.1-3.8v-6.5l-2.4,0.2v-0.7L130.3,299z"/>
		<path d="M142.2,305c0,4.5-1.9,6-3.7,6c-1.9,0-3.8-1.6-3.8-6c0-4.5,1.9-6.1,3.8-6.1C140.4,298.9,142.2,300.5,142.2,305z
			 M138.5,310.2c1.1,0,2.1-1.1,2.1-5.2c0-4.2-1-5.3-2.1-5.3c-1.1,0-2.2,1-2.2,5.3C136.4,309.2,137.4,310.2,138.5,310.2z"/>
		<path d="M151.2,305c0,4.5-1.9,6-3.7,6c-1.9,0-3.8-1.6-3.8-6c0-4.5,1.9-6.1,3.8-6.1C149.3,298.9,151.2,300.5,151.2,305z
			 M147.5,310.2c1.1,0,2.1-1.1,2.1-5.2c0-4.2-1-5.3-2.1-5.3c-1.1,0-2.2,1-2.2,5.3C145.3,309.2,146.3,310.2,147.5,310.2z"/>
		<path d="M160.1,305c0,4.5-1.9,6-3.7,6c-1.9,0-3.8-1.6-3.8-6c0-4.5,1.9-6.1,3.8-6.1C158.3,298.9,160.1,300.5,160.1,305z
			 M156.4,310.2c1.1,0,2.1-1.1,2.1-5.2c0-4.2-1-5.3-2.1-5.3c-1.1,0-2.2,1-2.2,5.3C154.2,309.2,155.3,310.2,156.4,310.2z"/>
	</g>
</g>
<g>
	<g>
		<path d="M211.1,309.6c1-0.9,1.9-1.9,2.7-2.7c1.8-1.9,2.6-3.4,2.6-4.8c0-1.5-0.9-2.4-2.2-2.4c-0.4,0-1.2,0.1-1.8,0.4l1-0.6L213,301
			c-0.2,0.9-0.5,1.2-1,1.2c-0.4,0-0.7-0.2-0.9-0.6c0.2-1.9,1.8-2.8,3.6-2.8c2.3,0,3.3,1.3,3.3,3.1c0,1.6-0.8,2.8-3.5,5.5
			c-0.6,0.6-1.4,1.4-2.3,2.3l-0.2-0.4h6.6v1.4h-7.3V309.6z"/>
		<path d="M227.4,305c0,4.5-1.9,6-3.7,6c-1.9,0-3.8-1.6-3.8-6c0-4.5,1.9-6.1,3.8-6.1C225.6,298.9,227.4,300.5,227.4,305z
			 M223.7,310.2c1.1,0,2.1-1.1,2.1-5.2c0-4.2-1-5.3-2.1-5.3c-1.1,0-2.2,1-2.2,5.3C221.5,309.2,222.5,310.2,223.7,310.2z"/>
		<path d="M236.4,305c0,4.5-1.9,6-3.7,6c-1.9,0-3.8-1.6-3.8-6c0-4.5,1.9-6.1,3.8-6.1C234.5,298.9,236.4,300.5,236.4,305z
			 M232.6,310.2c1.1,0,2.1-1.1,2.1-5.2c0-4.2-1-5.3-2.1-5.3c-1.1,0-2.2,1-2.2,5.3C230.5,309.2,231.5,310.2,232.6,310.2z"/>
		<path d="M245.3,305c0,4.5-1.9,6-3.7,6c-1.9,0-3.8-1.6-3.8-6c0-4.5,1.9-6.1,3.8-6.1C243.4,298.9,245.3,300.5,245.3,305z
			 M241.6,310.2c1.1,0,2.1-1.1,2.1-5.2c0-4.2-1-5.3-2.1-5.3c-1.1,0-2.2,1-2.2,5.3C239.4,309.2,240.4,310.2,241.6,310.2z"/>
	</g>
</g>
<g>
	<g>
		<path d="M299.9,304.2c1.6,0,2.6-0.9,2.6-2.4c0-1.3-0.8-2.1-2.2-2.1c-0.4,0-0.9,0.1-1.5,0.3l0.8-0.5l-0.3,1.2
			c-0.2,0.8-0.4,1.2-1,1.2c-0.4,0-0.7-0.2-0.9-0.7c0.3-1.5,1.7-2.3,3.3-2.3c2.1,0,3.4,1.2,3.4,2.8c0,1.5-1.2,2.7-3,3.1v-0.3
			c2.3,0.2,3.4,1.4,3.4,3c0,2-1.6,3.5-4,3.5c-1.7,0-3.1-0.7-3.4-2.5c0.2-0.4,0.5-0.6,0.9-0.6c0.6,0,0.8,0.4,1,1.3l0.4,1.4l-0.7-0.6
			c0.6,0.3,1.2,0.3,1.6,0.3c1.8,0,2.7-1,2.7-2.6c0-1.6-0.9-2.5-2.8-2.5h-0.9v-0.9H299.9z"/>
		<path d="M313.3,305c0,4.5-1.9,6-3.7,6c-1.9,0-3.8-1.6-3.8-6c0-4.5,1.9-6.1,3.8-6.1C311.5,298.9,313.3,300.5,313.3,305z
			 M309.6,310.2c1.1,0,2.1-1.1,2.1-5.2c0-4.2-1-5.3-2.1-5.3c-1.1,0-2.2,1-2.2,5.3C307.4,309.2,308.5,310.2,309.6,310.2z"/>
		<path d="M322.3,305c0,4.5-1.9,6-3.7,6c-1.9,0-3.8-1.6-3.8-6c0-4.5,1.9-6.1,3.8-6.1C320.4,298.9,322.3,300.5,322.3,305z
			 M318.5,310.2c1.1,0,2.1-1.1,2.1-5.2c0-4.2-1-5.3-2.1-5.3c-1.1,0-2.2,1-2.2,5.3C316.4,309.2,317.4,310.2,318.5,310.2z"/>
		<path d="M331.2,305c0,4.5-1.9,6-3.7,6c-1.9,0-3.8-1.6-3.8-6c0-4.5,1.9-6.1,3.8-6.1C329.4,298.9,331.2,300.5,331.2,305z
			 M327.5,310.2c1.1,0,2.1-1.1,2.1-5.2c0-4.2-1-5.3-2.1-5.3c-1.1,0-2.2,1-2.2,5.3C325.3,309.2,326.3,310.2,327.5,310.2z"/>
	</g>
</g>
<g>
	<g>
		<path d="M382.1,307.2v-0.9l5.4-7.3h1v11.8H387v-10.6h0.5l-4.5,6.3l0-0.3h7.4v1.1H382.1z"/>
		<path d="M398.9,305c0,4.5-1.9,6-3.7,6c-1.9,0-3.8-1.6-3.8-6c0-4.5,1.9-6.1,3.8-6.1C397,298.9,398.9,300.5,398.9,305z M395.1,310.2
			c1.1,0,2.1-1.1,2.1-5.2c0-4.2-1-5.3-2.1-5.3c-1.1,0-2.2,1-2.2,5.3C393,309.2,394,310.2,395.1,310.2z"/>
		<path d="M407.8,305c0,4.5-1.9,6-3.7,6c-1.9,0-3.8-1.6-3.8-6c0-4.5,1.9-6.1,3.8-6.1C405.9,298.9,407.8,300.5,407.8,305z
			 M404.1,310.2c1.1,0,2.1-1.1,2.1-5.2c0-4.2-1-5.3-2.1-5.3c-1.1,0-2.2,1-2.2,5.3C401.9,309.2,402.9,310.2,404.1,310.2z"/>
		<path d="M416.7,305c0,4.5-1.9,6-3.7,6c-1.9,0-3.8-1.6-3.8-6c0-4.5,1.9-6.1,3.8-6.1C414.9,298.9,416.7,300.5,416.7,305z M413,310.2
			c1.1,0,2.1-1.1,2.1-5.2c0-4.2-1-5.3-2.1-5.3c-1.1,0-2.2,1-2.2,5.3C410.9,309.2,411.9,310.2,413,310.2z"/>
	</g>
</g>
<g>
	<g>
		<path d="M469.4,303.9c0.8-0.3,1.6-0.5,2.5-0.5c2.3,0,3.9,1.3,3.9,3.7c0,2.3-1.7,3.9-4.2,3.9c-1.8,0-3-0.8-3.3-2.5
			c0.2-0.4,0.5-0.6,0.9-0.6c0.5,0,0.8,0.3,1,1.2l0.4,1.3l-0.7-0.6c0.6,0.3,1.2,0.4,1.7,0.4c1.8,0,2.7-1.1,2.7-2.9
			c0-1.8-1.1-2.8-2.9-2.8c-0.5,0-1.1,0.1-1.7,0.2l-0.5-0.1l0.4-5.5h5.9v1.4H470l0.5-0.8l-0.3,4.4h-0.8V303.9z"/>
		<path d="M484.8,305c0,4.5-1.9,6-3.7,6c-1.9,0-3.8-1.6-3.8-6c0-4.5,1.9-6.1,3.8-6.1C482.9,298.9,484.8,300.5,484.8,305z
			 M481.1,310.2c1.1,0,2.1-1.1,2.1-5.2c0-4.2-1-5.3-2.1-5.3c-1.1,0-2.2,1-2.2,5.3C478.9,309.2,479.9,310.2,481.1,310.2z"/>
		<path d="M493.8,305c0,4.5-1.9,6-3.7,6c-1.9,0-3.8-1.6-3.8-6c0-4.5,1.9-6.1,3.8-6.1C491.9,298.9,493.8,300.5,493.8,305z M490,310.2
			c1.1,0,2.1-1.1,2.1-5.2c0-4.2-1-5.3-2.1-5.3c-1.1,0-2.2,1-2.2,5.3C487.9,309.2,488.9,310.2,490,310.2z"/>
		<path d="M502.7,305c0,4.5-1.9,6-3.7,6c-1.9,0-3.8-1.6-3.8-6c0-4.5,1.9-6.1,3.8-6.1C500.8,298.9,502.7,300.5,502.7,305z M499,310.2
			c1.1,0,2.1-1.1,2.1-5.2c0-4.2-1-5.3-2.1-5.3c-1.1,0-2.2,1-2.2,5.3C496.8,309.2,497.8,310.2,499,310.2z"/>
	</g>
</g>
<g>
	<g>
		<path d="M52.3,299.9c0,4.5-1.9,6-3.7,6c-1.9,0-3.8-1.6-3.8-6c0-4.5,1.9-6.1,3.8-6.1C50.5,293.8,52.3,295.4,52.3,299.9z
			 M48.6,305.1c1.1,0,2.1-1.1,2.1-5.2c0-4.2-1-5.3-2.1-5.3c-1.1,0-2.2,1-2.2,5.3C46.4,304.1,47.5,305.1,48.6,305.1z"/>
	</g>
</g>
<g>
	<g>
		<path d="M33.9,256.7c0,4.5-1.9,6-3.7,6c-1.9,0-3.8-1.6-3.8-6c0-4.5,1.9-6.1,3.8-6.1C32.1,250.6,33.9,252.2,33.9,256.7z
			 M30.2,261.9c1.1,0,2.1-1.1,2.1-5.2c0-4.2-1-5.3-2.1-5.3c-1.1,0-2.2,1-2.2,5.3C28,260.8,29.1,261.9,30.2,261.9z"/>
		<path d="M36.1,261.4c0-0.7,0.6-1.3,1.3-1.3s1.3,0.6,1.3,1.3c0,0.7-0.6,1.3-1.3,1.3S36.1,262.1,36.1,261.4z"/>
		<path d="M40.9,261.3c1-0.9,1.9-1.9,2.7-2.7c1.8-1.9,2.6-3.4,2.6-4.8c0-1.5-0.9-2.4-2.2-2.4c-0.4,0-1.2,0.1-1.8,0.4l1-0.6l-0.4,1.6
			c-0.2,0.9-0.5,1.2-1,1.2c-0.4,0-0.7-0.2-0.9-0.6c0.2-1.9,1.8-2.8,3.6-2.8c2.3,0,3.3,1.3,3.3,3.1c0,1.6-0.8,2.8-3.5,5.5
			c-0.6,0.6-1.4,1.4-2.3,2.3l-0.2-0.4h6.6v1.4h-7.3V261.3z"/>
	</g>
</g>
<g>
	<g>
		<path d="M33.9,225.4c0,4.5-1.9,6-3.7,6c-1.9,0-3.8-1.6-3.8-6c0-4.5,1.9-6.1,3.8-6.1C32.1,219.3,33.9,220.9,33.9,225.4z
			 M30.2,230.6c1.1,0,2.1-1.1,2.1-5.2c0-4.2-1-5.3-2.1-5.3c-1.1,0-2.2,1-2.2,5.3C28,229.5,29.1,230.6,30.2,230.6z"/>
		<path d="M36.1,230.1c0-0.7,0.6-1.3,1.3-1.3s1.3,0.6,1.3,1.3c0,0.7-0.6,1.3-1.3,1.3S36.1,230.8,36.1,230.1z"/>
		<path d="M40.5,227.6v-0.9l5.4-7.3h1v11.8h-1.4v-10.6h0.5l-4.5,6.3l0-0.3h7.4v1.1H40.5z"/>
	</g>
</g>
<g>
	<g>
		<path d="M33.9,195.7c0,4.5-1.9,6-3.7,6c-1.9,0-3.8-1.6-3.8-6c0-4.5,1.9-6.1,3.8-6.1C32.1,189.6,33.9,191.2,33.9,195.7z
			 M30.2,200.9c1.1,0,2.1-1.1,2.1-5.2c0-4.2-1-5.3-2.1-5.3c-1.1,0-2.2,1-2.2,5.3C28,199.8,29.1,200.9,30.2,200.9z"/>
		<path d="M36.1,200.4c0-0.7,0.6-1.3,1.3-1.3s1.3,0.6,1.3,1.3c0,0.7-0.6,1.3-1.3,1.3S36.1,201.1,36.1,200.4z"/>
		<path d="M46.8,198.1c0-1.9-0.9-2.7-2.1-2.7c-0.8,0-1.8,0.3-2.5,1.1l-0.3-0.3c0.8-1.2,2-1.9,3.2-1.9c1.9,0,3.3,1.4,3.3,3.5
			c0,2.6-1.6,3.9-3.7,3.9c-2.4,0-3.9-1.9-3.9-5.1c0-3.5,2.4-6.5,6.8-7l0.1,0.6c-3.8,0.9-5.4,2.9-5.4,6.2c0,3.1,0.9,4.6,2.4,4.6
			C46,200.9,46.8,200,46.8,198.1z"/>
	</g>
</g>
<g>
	<g>
		<path d="M33.9,164.4c0,4.5-1.9,6-3.7,6c-1.9,0-3.8-1.6-3.8-6c0-4.5,1.9-6.1,3.8-6.1C32.1,158.3,33.9,159.9,33.9,164.4z
			 M30.2,169.6c1.1,0,2.1-1.1,2.1-5.2c0-4.2-1-5.3-2.1-5.3c-1.1,0-2.2,1-2.2,5.3C28,168.6,29.1,169.6,30.2,169.6z"/>
		<path d="M36.1,169.2c0-0.7,0.6-1.3,1.3-1.3s1.3,0.6,1.3,1.3c0,0.7-0.6,1.3-1.3,1.3S36.1,169.9,36.1,169.2z"/>
		<path d="M43.7,164.3l0.8,0.3c-1.4,0.8-2.2,1.5-2.2,2.8c0,1.3,1,2.2,2.3,2.2c1.3,0,2.1-1,2.1-2.2c0-1.1-0.7-1.7-2.8-2.7
			c-1.9-0.9-2.7-2.1-2.7-3.4c0-1.9,1.5-3,3.3-3c1.9,0,3.1,1.2,3.1,2.8c0,0.9-0.6,2.1-2.6,3.1l-0.7-0.3c1.5-1,2-1.7,2-2.8
			c0-1.1-0.6-2-1.8-2c-1,0-1.9,0.7-1.9,1.8c0,1,0.5,1.9,2.6,2.9c2,0.9,3,1.9,3,3.6c0,1.8-1.6,3.1-3.6,3.1c-2.1,0-3.7-1-3.7-2.9
			C40.8,166.1,41.8,165.2,43.7,164.3z"/>
	</g>
</g>
<g>
	<g>
		<path d="M33.7,138.7v0.6H27v-0.6l2.6-0.4h1.4L33.7,138.7z M30.9,127.6l0.3,0.2l-0.1,2.6v5.2c0,1.3,0,2.5,0.1,3.8h-1.5
			c0-1.3,0.1-2.5,0.1-3.8v-6.5l-2.4,0.2v-0.7L30.9,127.6z"/>
		<path d="M36.1,138.4c0-0.7,0.6-1.3,1.3-1.3s1.3,0.6,1.3,1.3c0,0.7-0.6,1.3-1.3,1.3S36.1,139,36.1,138.4z"/>
		<path d="M48.3,133.6c0,4.5-1.9,6-3.7,6c-1.9,0-3.8-1.6-3.8-6c0-4.5,1.9-6.1,3.8-6.1C46.4,127.5,48.3,129.1,48.3,133.6z
			 M44.5,138.8c1.1,0,2.1-1.1,2.1-5.2c0-4.2-1-5.3-2.1-5.3c-1.1,0-2.2,1-2.2,5.3C42.4,137.8,43.4,138.8,44.5,138.8z"/>
	</g>
</g>
<g>
	<g>
		<path d="M33.7,107.4v0.6H27v-0.6l2.6-0.4h1.4L33.7,107.4z M30.9,96.2l0.3,0.2l-0.1,2.6v5.2c0,1.3,0,2.5,0.1,3.8h-1.5
			c0-1.3,0.1-2.5,0.1-3.8v-6.5l-2.4,0.2v-0.7L30.9,96.2z"/>
		<path d="M36.1,107c0-0.7,0.6-1.3,1.3-1.3s1.3,0.6,1.3,1.3c0,0.7-0.6,1.3-1.3,1.3S36.1,107.6,36.1,107z"/>
		<path d="M40.9,106.8c1-0.9,1.9-1.9,2.7-2.7c1.8-1.9,2.6-3.4,2.6-4.8c0-1.5-0.9-2.4-2.2-2.4c-0.4,0-1.2,0.1-1.8,0.4l1-0.6l-0.4,1.6
			c-0.2,0.9-0.5,1.2-1,1.2c-0.4,0-0.7-0.2-0.9-0.6c0.2-1.9,1.8-2.8,3.6-2.8c2.3,0,3.3,1.3,3.3,3.1c0,1.6-0.8,2.8-3.5,5.5
			c-0.6,0.6-1.4,1.4-2.3,2.3l-0.2-0.4h6.6v1.4h-7.3V106.8z"/>
	</g>
</g>
<g>
	<g>
		<path d="M33.7,76.4V77H27v-0.6l2.6-0.4h1.4L33.7,76.4z M30.9,65.2l0.3,0.2l-0.1,2.6v5.2c0,1.3,0,2.5,0.1,3.8h-1.5
			c0-1.3,0.1-2.5,0.1-3.8v-6.5l-2.4,0.2v-0.7L30.9,65.2z"/>
		<path d="M36.1,76c0-0.7,0.6-1.3,1.3-1.3s1.3,0.6,1.3,1.3c0,0.7-0.6,1.3-1.3,1.3S36.1,76.6,36.1,76z"/>
		<path d="M40.5,73.4v-0.9l5.4-7.3h1V77h-1.4V66.3h0.5l-4.5,6.3l0-0.3h7.4v1.1H40.5z"/>
	</g>
</g>
<g>
	<g>
		<path d="M33.7,45.7v0.6H27v-0.6l2.6-0.4h1.4L33.7,45.7z M30.9,34.5l0.3,0.2l-0.1,2.6v5.2c0,1.3,0,2.5,0.1,3.8h-1.5
			c0-1.3,0.1-2.5,0.1-3.8V36l-2.4,0.2v-0.7L30.9,34.5z"/>
		<path d="M36.1,45.3c0-0.7,0.6-1.3,1.3-1.3s1.3,0.6,1.3,1.3c0,0.7-0.6,1.3-1.3,1.3S36.1,45.9,36.1,45.3z"/>
		<path d="M46.8,42.9c0-1.9-0.9-2.7-2.1-2.7c-0.8,0-1.8,0.3-2.5,1.1L41.8,41c0.8-1.2,2-1.9,3.2-1.9c1.9,0,3.3,1.4,3.3,3.5
			c0,2.6-1.6,3.9-3.7,3.9c-2.4,0-3.9-1.9-3.9-5.1c0-3.5,2.4-6.5,6.8-7l0.1,0.6c-3.8,0.9-5.4,2.9-5.4,6.2c0,3.1,0.9,4.6,2.4,4.6
			C46,45.7,46.8,44.8,46.8,42.9z"/>
	</g>
</g>
<g>
	<g>
		<path d="M33.7,14.4V15H27v-0.6l2.6-0.4h1.4L33.7,14.4z M30.9,3.2l0.3,0.2L31.1,6v5.2c0,1.3,0,2.5,0.1,3.8h-1.5
			c0-1.3,0.1-2.5,0.1-3.8V4.7l-2.4,0.2V4.2L30.9,3.2z"/>
		<path d="M36.1,14c0-0.7,0.6-1.3,1.3-1.3s1.3,0.6,1.3,1.3c0,0.7-0.6,1.3-1.3,1.3S36.1,14.7,36.1,14z"/>
		<path d="M43.7,9.1l0.8,0.3c-1.4,0.8-2.2,1.5-2.2,2.8c0,1.3,1,2.2,2.3,2.2c1.3,0,2.1-1,2.1-2.2c0-1.1-0.7-1.7-2.8-2.7
			c-1.9-0.9-2.7-2.1-2.7-3.4c0-1.9,1.5-3,3.3-3c1.9,0,3.1,1.2,3.1,2.8c0,0.9-0.6,2.1-2.6,3.1l-0.7-0.3c1.5-1,2-1.7,2-2.8
			c0-1.1-0.6-2-1.8-2c-1,0-1.9,0.7-1.9,1.8c0,1,0.5,1.9,2.6,2.9c2,0.9,3,1.9,3,3.6c0,1.8-1.6,3.1-3.6,3.1c-2.1,0-3.7-1-3.7-2.9
			C40.8,10.9,41.8,10,43.7,9.1z"/>
	</g>
</g>
<g>
	<g>
		<path d="M14.4,175.6c0-0.4-0.2-0.8-0.5-1.2l0.5-0.4c0.6,0.4,0.9,1.2,0.9,2.1c0,1.2-0.6,2-2,2c-0.4,0-0.8,0-1.5,0H7.4v1.5H6.7
			l-0.3-2.2L7,178L4,177.5v-1l3.2,0.1H13C14,176.6,14.4,176.2,14.4,175.6z M6.5,174.1h0.9v3.2H6.5V174.1z"/>
		<path d="M3.1,172.3c-0.7,0-1.1-0.5-1.1-1.2s0.5-1.2,1.1-1.2c0.7,0,1.1,0.5,1.1,1.2S3.8,172.3,3.1,172.3z M15,171.9
			c-0.8,0-2.7-0.1-3.8-0.1h-0.8c-1,0-1.5,0-2.3,0.1L8,173.3H7.3l-1.1-2.7l0.2-0.3l2.4,0.1h2.4c1.1,0,3,0,3.8-0.1V171.9z M14.4,169.1
			H15v4.1h-0.6l-0.4-2v-0.4L14.4,169.1z"/>
		<path d="M9.4,154.2h1.9c1.2,0,3,0,3.8-0.1v1.5c-0.8,0-2.6-0.1-3.8-0.1H9.7c-1.7,0-2.2,0.5-2.2,1.5c0,0.8,0.3,1.6,1.2,2.6v0.4H8.1
			v-1l0.1,0.8c-1.3-0.9-2-2.3-2-3.5C6.3,155,7.2,154.2,9.4,154.2z M9.6,159.6h1.7c1.2,0,3,0,3.8-0.1v1.5c-0.8,0-2.6-0.1-3.8-0.1H9.7
			c-1.7,0-2.2,0.4-2.2,1.5c0,0.9,0.4,1.6,1.2,2.6v0.4H8v-0.9l0.3,0.8c-1.1-0.8-2-2.2-2-3.5C6.3,160.3,7.2,159.6,9.6,159.6z
			 M15,166.5c-0.8,0-2.7-0.1-3.8-0.1h-0.8c-1,0-1.5,0-2.3,0.1L8,167.9H7.3l-1.1-2.4l0.2-0.3l2.1-0.2h2.7c1.1,0,3,0,3.8-0.1V166.5z
			 M14,154.6l0.4-1.8H15v4.1h-0.6l-0.4-2V154.6z M14,160l0.4-1.8H15v4.1h-0.6l-0.4-2V160z M14.4,163.6H15v4.1h-0.6l-0.4-2v-0.4
			L14.4,163.6z"/>
		<path d="M9.7,144c0.4,0,0.8,0.1,1,0.1v6.6H10v-4.3c0-0.9-0.4-1.1-0.9-1.1c-1,0-2,0.9-2,2c0,1.2,1,2.5,3.5,2.5c2.3,0,3.5-1.2,3.5-3
			c0-1.2-0.5-1.9-1.3-2.5l0.3-0.4c1.3,0.6,2.1,1.8,2.1,3.4c0,2.4-1.7,4-4.4,4c-2.8,0-4.6-1.9-4.6-4.1C6.3,145.5,7.5,144,9.7,144z"/>
		<path d="M18.1,133.3l0.4,0.5c-2.4,2.5-5.2,3.7-8.5,3.7s-6.1-1.2-8.5-3.7l0.4-0.5c3.1,2.1,5.2,2.8,8.1,2.8S15,135.4,18.1,133.3z"/>
		<path d="M14.6,131.9l-2,0.1v-1l2.1-0.5l-0.4,0.9h-0.6c0.5-0.6,0.7-1.3,0.7-2.2c0-1.4-0.6-2-1.4-2c-0.8,0-1.2,0.5-1.6,1.7l-0.3,0.8
			c-0.5,1.3-1.2,2.2-2.4,2.2c-1.3,0-2.5-1.1-2.5-3.1c0-1,0.3-1.7,0.7-2.5l1.8,0.1v0.9L7,127.6l0.3-0.6h0.5c-0.5,0.6-0.7,1.2-0.7,1.8
			c0,1.1,0.5,1.7,1.2,1.7c0.8,0,1.1-0.4,1.6-1.7l0.2-0.5c0.7-1.8,1.5-2.5,2.6-2.5c1.3,0,2.6,1.2,2.6,3.5
			C15.3,130.3,15,131,14.6,131.9z"/>
		<path d="M9.7,116.8c0.4,0,0.8,0.1,1,0.1v6.6H10v-4.3c0-0.9-0.4-1.1-0.9-1.1c-1,0-2,0.9-2,2c0,1.2,1,2.5,3.5,2.5
			c2.3,0,3.5-1.2,3.5-3c0-1.2-0.5-1.9-1.3-2.5l0.3-0.4c1.3,0.6,2.1,1.8,2.1,3.4c0,2.4-1.7,4-4.4,4c-2.8,0-4.6-1.9-4.6-4.1
			C6.3,118.3,7.5,116.8,9.7,116.8z"/>
		<path d="M10.6,113.6c2.3,0,3.5-1.2,3.5-2.9c0-1-0.5-2-1.4-2.5l0.2-0.4c1.5,0.5,2.3,1.6,2.3,3.3c0,2.5-1.7,4-4.5,4
			c-2.8,0-4.5-2-4.5-4.1c0-1.6,1-2.9,2.3-3.2c0.5,0.1,0.7,0.4,0.7,0.8c0,0.6-0.4,0.8-0.8,1l-1.6,0.5l0.7-0.8
			c-0.3,0.6-0.5,1.2-0.5,1.7C7.1,112.5,8.3,113.6,10.6,113.6z"/>
		<path d="M1.9,106.7l-0.4-0.5c2.4-2.5,5.2-3.7,8.5-3.7s6.1,1.2,8.5,3.7l-0.4,0.5c-3.1-2.1-5.2-2.8-8.1-2.8S5,104.6,1.9,106.7z"/>
	</g>
</g>
<g>
	<g>
		<path d="M213.6,332.2c0-0.8,0.1-2.7,0.1-3.8v-0.8c0-1,0-1.5-0.1-2.3l-1.4-0.2v-0.6l2.4-1.1l0.3,0.2l0.2,2.1v2.7c0,1.1,0,3,0.1,3.8
			H213.6z M216.4,331.6v0.6h-4.1v-0.6l2-0.4h0.4L216.4,331.6z M220.5,326.8v1.7c0,1.2,0,3,0.1,3.8H219c0-0.8,0.1-2.6,0.1-3.8v-1.5
			c0-1.7-0.4-2.2-1.5-2.2c-0.9,0-1.6,0.4-2.7,1.2h-0.4v-0.8h0.9l-0.8,0.3c0.8-1.1,2.3-2,3.6-2C219.8,323.4,220.5,324.4,220.5,326.8z
			 M220,331.2l1.8,0.4v0.6h-4.1v-0.6l2-0.4H220z"/>
		<path d="M225.5,329c0,1.6,0.5,2.2,1.5,2.2c0.9,0,1.9-0.5,2.8-1.4h0.4v0.9h-0.9l0.6-0.3c-1,1.4-2.3,2-3.4,2c-1.4,0-2.3-0.9-2.3-3.2
			l0.1-4.8l0.4,0.3l-1.7-0.4v-0.6l2.6-0.2l0.2,0.2l-0.1,2.5V329z M229.8,332.4l-0.3-2.1l0.1-5.8l0.4,0.3l-1.7-0.4v-0.6l2.6-0.2
			l0.2,0.2l-0.1,2.5v5.4l-0.4-0.4l1.7,0.4v0.6L229.8,332.4z"/>
		<path d="M234.9,332.2c0-0.8,0.1-2.7,0.1-3.8v-0.8c0-1,0-1.5-0.1-2.3l-1.4-0.2v-0.6l2.4-1.1l0.3,0.2l0.2,2.1v2.7c0,1.1,0,3,0.1,3.8
			H234.9z M237.7,331.6v0.6h-4.1v-0.6l2-0.4h0.4L237.7,331.6z M241.8,326.8v1.7c0,1.2,0,3,0.1,3.8h-1.5c0-0.8,0.1-2.6,0.1-3.8v-1.5
			c0-1.7-0.4-2.2-1.5-2.2c-0.9,0-1.6,0.4-2.6,1.2h-0.4v-0.8h0.9l-0.8,0.3c0.8-1.1,2.2-2,3.5-2C241.1,323.4,241.8,324.4,241.8,326.8z
			 M241.3,331.2l1.8,0.4v0.6H239v-0.6l2-0.4H241.3z M247.2,326.6v1.9c0,1.2,0,3,0.1,3.8h-1.5c0-0.8,0.1-2.6,0.1-3.8v-1.5
			c0-1.7-0.5-2.2-1.5-2.2c-0.8,0-1.6,0.3-2.6,1.2h-0.4v-0.6h1l-0.8,0.1c0.9-1.3,2.3-2,3.5-2C246.4,323.4,247.2,324.3,247.2,326.6z
			 M246.7,331.2l1.8,0.4v0.6h-4.1v-0.6l2-0.4H246.7z"/>
		<path d="M254.2,331.8l-0.1-2h1l0.5,2.1l-0.9-0.4v-0.6c0.6,0.5,1.3,0.7,2.2,0.7c1.4,0,2-0.6,2-1.4c0-0.8-0.5-1.2-1.7-1.6l-0.8-0.3
			c-1.3-0.5-2.2-1.2-2.2-2.4c0-1.3,1.1-2.5,3.1-2.5c1,0,1.7,0.3,2.5,0.7l-0.1,1.8h-0.9l-0.4-1.8l0.6,0.3v0.5
			c-0.6-0.5-1.2-0.7-1.8-0.7c-1.1,0-1.7,0.5-1.7,1.2c0,0.8,0.4,1.1,1.7,1.6l0.5,0.2c1.8,0.7,2.5,1.5,2.5,2.6c0,1.3-1.2,2.6-3.5,2.6
			C255.9,332.5,255.1,332.2,254.2,331.8z"/>
		<path d="M269.3,326.9c0,0.4-0.1,0.8-0.1,1h-6.6v-0.8h4.3c0.9,0,1.1-0.4,1.1-0.9c0-1-0.9-2-2-2c-1.2,0-2.5,1-2.5,3.5
			c0,2.3,1.2,3.5,3,3.5c1.2,0,1.9-0.5,2.5-1.3l0.4,0.3c-0.6,1.3-1.8,2.1-3.4,2.1c-2.4,0-4-1.7-4-4.4c0-2.8,1.9-4.6,4.1-4.6
			C267.9,323.4,269.3,324.7,269.3,326.9z"/>
		<path d="M277.7,333.9c0-0.8-0.5-1.4-1.8-1.4h-2.1c-0.3,0-0.6,0-0.9-0.1v-0.1c-0.9-0.2-1.4-0.7-1.4-1.4c0-0.6,0.4-1.3,1.6-2.4
			l0.4,0.3c-0.5,0.6-0.8,1-0.8,1.5c0,0.5,0.2,0.8,1,0.8h2.4c1.9,0,2.8,0.8,2.8,2.3c0,1.5-1.5,3.1-4.4,3.1c-2.6,0-3.7-0.9-3.7-2.2
			c0-0.9,0.6-1.5,2.4-2.3l0.1,0.1c-0.7,0.7-1,1.2-1,1.9c0,1.2,0.9,1.7,2.3,1.7C276.7,335.7,277.7,334.9,277.7,333.9z M274.6,323.4
			c1.8,0,3.2,1,3.2,3c0,1.9-1.4,3-3.2,3c-1.9,0-3.2-1-3.2-3C271.3,324.5,272.7,323.4,274.6,323.4z M272.7,326.4
			c0,1.3,0.6,2.2,1.8,2.2c1.2,0,1.9-1,1.9-2.3c0-1.3-0.6-2.2-1.8-2.2C273.4,324.2,272.7,325.1,272.7,326.4z M278.8,323.4l0.3,0.2
			v1.1h-2.6v-0.5L278.8,323.4z"/>
		<path d="M281.6,332.2c0-0.8,0.1-2.7,0.1-3.8v-0.8c0-1,0-1.5-0.1-2.3l-1.4-0.2v-0.6l2.4-1.1l0.3,0.2l0.2,2.1v2.7c0,1.1,0,3,0.1,3.8
			H281.6z M284.4,331.6v0.6h-4.1v-0.6l2-0.4h0.4L284.4,331.6z M288.5,326.8v1.7c0,1.2,0,3,0.1,3.8H287c0-0.8,0.1-2.6,0.1-3.8v-1.5
			c0-1.7-0.4-2.2-1.5-2.2c-0.9,0-1.6,0.4-2.6,1.2h-0.4v-0.8h0.9l-0.8,0.3c0.8-1.1,2.2-2,3.5-2C287.8,323.4,288.5,324.4,288.5,326.8z
			 M288,331.2l1.8,0.4v0.6h-4.1v-0.6l2-0.4H288z M293.9,326.6v1.9c0,1.2,0,3,0.1,3.8h-1.5c0-0.8,0.1-2.6,0.1-3.8v-1.5
			c0-1.7-0.5-2.2-1.5-2.2c-0.8,0-1.6,0.3-2.6,1.2h-0.4v-0.6h1l-0.8,0.1c0.9-1.3,2.3-2,3.5-2C293.1,323.4,293.9,324.3,293.9,326.6z
			 M293.4,331.2l1.8,0.4v0.6h-4.1v-0.6l2-0.4H293.4z"/>
		<path d="M304,326.9c0,0.4-0.1,0.8-0.1,1h-6.6v-0.8h4.3c0.9,0,1.1-0.4,1.1-0.9c0-1-0.9-2-2-2c-1.2,0-2.5,1-2.5,3.5
			c0,2.3,1.2,3.5,3,3.5c1.2,0,1.9-0.5,2.5-1.3l0.4,0.3c-0.6,1.3-1.8,2.1-3.4,2.1c-2.4,0-4-1.7-4-4.4c0-2.8,1.9-4.6,4.1-4.6
			C302.5,323.4,304,324.7,304,326.9z"/>
		<path d="M307,332.2c0-0.8,0.1-2.7,0.1-3.8v-0.8c0-1,0-1.5-0.1-2.3l-1.4-0.2v-0.6l2.4-1.1l0.3,0.2l0.2,2.1v2.7c0,1.1,0,3,0.1,3.8
			H307z M309.8,331.6v0.6h-4.1v-0.6l2-0.4h0.4L309.8,331.6z M313.9,326.8v1.7c0,1.2,0,3,0.1,3.8h-1.5c0-0.8,0.1-2.6,0.1-3.8v-1.5
			c0-1.7-0.4-2.2-1.5-2.2c-0.9,0-1.6,0.4-2.7,1.2H308v-0.8h0.9l-0.8,0.3c0.8-1.1,2.3-2,3.6-2C313.2,323.4,313.9,324.4,313.9,326.8z
			 M313.5,331.2l1.8,0.4v0.6h-4.1v-0.6l2-0.4H313.5z"/>
		<path d="M319.9,331.5c0.4,0,0.8-0.2,1.2-0.5l0.4,0.5c-0.5,0.6-1.2,0.9-2.1,0.9c-1.2,0-2-0.6-2-2c0-0.4,0-0.8,0-1.5v-4.3H316v-0.8
			l2.2-0.3l-0.7,0.6l0.5-2.9h1l-0.1,3.2v5.8C318.9,331.2,319.3,331.5,319.9,331.5z M321.4,323.7v0.9h-3.2v-0.9H321.4z"/>
		<path d="M322.5,331.8l-0.1-2h1l0.5,2.1l-0.9-0.4v-0.6c0.6,0.5,1.3,0.7,2.2,0.7c1.4,0,2-0.6,2-1.4c0-0.8-0.5-1.2-1.7-1.6l-0.8-0.3
			c-1.3-0.5-2.2-1.2-2.2-2.4c0-1.3,1.1-2.5,3.1-2.5c1,0,1.7,0.3,2.5,0.7l-0.1,1.8h-0.9l-0.4-1.8l0.6,0.3v0.5
			c-0.6-0.5-1.2-0.7-1.8-0.7c-1.1,0-1.7,0.5-1.7,1.2c0,0.8,0.5,1.1,1.7,1.6l0.5,0.2c1.8,0.7,2.5,1.5,2.5,2.6c0,1.3-1.2,2.6-3.5,2.6
			C324.2,332.5,323.4,332.2,322.5,331.8z"/>
	</g>
</g>
</svg>
