<?xml version="1.0" encoding="utf-8"?>
<!-- Generator: Adobe Illustrator 24.0.3, SVG Export Plug-In . SVG Version: 6.00 Build 0)  -->
<svg version="1.1" id="Layer_1" xmlns="http://www.w3.org/2000/svg" xmlns:xlink="http://www.w3.org/1999/xlink" x="0px" y="0px"
	 width="491.8px" height="403.79px" viewBox="0 0 491.8 403.79" style="enable-background:new 0 0 491.8 403.79;"
	 xml:space="preserve">
<style type="text/css">
	.st0{fill:none;stroke:#0D7A0A;stroke-width:1.5;stroke-linecap:round;stroke-linejoin:round;stroke-miterlimit:10;}
	.st1{fill:none;stroke:#B70909;stroke-width:1.5;stroke-linecap:round;stroke-linejoin:round;stroke-miterlimit:10;}
	.st2{fill:none;stroke:#000000;stroke-width:1.5;stroke-linecap:round;stroke-linejoin:round;}
</style>
<g>
	<path class="st0" d="M290.05,403.04l0.62-199.51 M290.67,203.07l0.61-195.16 M482.45,5.37l-194.98-0.6 M490.45,199.02l0.6-194.15
		 M489.83,399.44l0.62-200.31 M480.68,200.15l-195-0.61 M480.06,401.58l-192.86-0.6 M350,102.89l30.79-38.49 M390.25,134.34
		l-40.07-32.06 M418.75,94.73L382.96,66.1 M391.11,132.5l28.64-35.8 M357.26,309.51l33.69-33.46 M419.79,307.64l-29.7-29.91
		 M389.3,342.12l-33.01-33.24 M388.89,340.36l30.68-30.47"/>
</g>
<g>
	<path class="st1" d="M8.21,400.75L0.75,201.23 M8.21,200.75L14.88,5.56 M8.21,0.75l195,6.96 M208.21,5.75l-6.5,194.18
		 M216.76,200.42l-11.57,200.13 M3.1,197.43l195.11,3.32 M1.21,400.75l193-0.2 M68.21,100.75l33.21-36.47 M68.07,102.48l41.96,29.61
		 M103.4,64.44l33.9,30.89 M110.03,132.09l28.63-35.85 M72.42,307.9l35.18-31.95 M107.6,275.95l26.52,32.8 M71.2,308.44l33.89,32.39
		 M134.12,308.75l-29.03,32.08"/>
</g>
<g>
	<g>
		<line class="st2" x1="234.8" y1="199.43" x2="261.53" y2="199.43"/>
		<g>
			<polygon points="258.58,203.32 260.23,199.43 258.58,195.55 267.8,199.43 			"/>
		</g>
	</g>
</g>
</svg>
