<?xml version="1.0" encoding="utf-8"?>
<!-- Generator: Adobe Illustrator 24.0.3, SVG Export Plug-In . SVG Version: 6.00 Build 0)  -->
<svg version="1.1" id="Layer_1" xmlns="http://www.w3.org/2000/svg" xmlns:xlink="http://www.w3.org/1999/xlink" x="0px" y="0px"
	 width="883.65px" height="337.54px" viewBox="0 0 883.65 337.54" style="enable-background:new 0 0 883.65 337.54;"
	 xml:space="preserve">
<style type="text/css">
	.st0{fill:none;stroke:#B70909;stroke-width:1.5;stroke-linecap:round;stroke-linejoin:round;stroke-miterlimit:10;}
	.st1{fill:none;stroke:#0D7A0A;stroke-width:1.5;stroke-linecap:round;stroke-linejoin:round;stroke-miterlimit:10;}
	.st2{fill:none;stroke:#000000;stroke-width:1.5;stroke-linecap:round;stroke-linejoin:round;}
</style>
<g>
	<path class="st0" d="M8.06,259.24l-0.48,56.78 M292.1,139.72l1.31-27.83 M25.87,75.22l1.59,162.02 M42.54,201.71l17.95-1.48
		 M185.95,191.28l36.22-0.97 M218.84,164.68l50.81-0.63 M57.27,15.37l342.82,2.52 M379.65,29.46l7.78,177.17 M271.99,164.71
		l0.2,129.72 M400.75,31.7l-0.1,175.87 M2.78,259.55l132.32,0.05 M39.86,237l0.73-32.65 M134.85,164.13l1.38,100.66 M294.13,141.38
		l9.56,0.36 M286.71,272.64l61.2-0.72 M64.07,111.12l203.23-8.19 M364.91,79.15l1.11,214.38 M61.4,75.91L160.91,77 M154.28,181.07
		l27.63-1.6 M348.21,179.31l-7.56,96.82 M1.45,238.25l24.6,0.09 M183.85,179.76l0.48,11.19 M289.08,295.86l76.75-0.35
		 M286.79,274.97l0.09,19.22 M71.3,3.84l329.06-2.68 M252.13,181.98l-0.26,91.06 M157.15,274.04l93.5-1.94 M24.42,280.72
		l104.63,0.08 M2.29,75.47L0.75,237.96 M137.6,293.18l132.29,2.45 M288.38,88.17l61.05,0.49 M288.7,185.65l56.86-8.8 M288.34,79.11
		l76.13-3.3 M287.54,185.38l10.86-30.07 M153.94,182.95l-0.29,90.92 M215.52,74.85l9.56,4.66 M22.41,281.47l4.07,55.32
		 M189.96,155.79l26.7,0.1 M49.21,18.29l1.06,10.41 M383.35,37.81l17.05-8.35 M294.1,158.48l52.48,8.82 M347.28,90.35l4.72,73.18
		 M221.98,179.94l0.01,11.35 M40.96,237.68l76.72-1.29 M388.53,207.33l9.25-7.76 M137.12,163.94l53.14-4.5 M223.22,178.94
		l23.75-0.27 M162.88,57.34l45.38-1.67 M61.29,77.05l0.93,34 M67.78,204.31l48.74-2.14 M118.53,203l2.27,31.02 M4.75,75.06
		l18.57,0.39 M304.99,129.17l2.15,9.93 M400.24,16.07l0.01-12.58 M301.2,124.49l3.8-13.98 M233.02,77.83l38.47,0.2 M271.61,79.87
		l-0.28,28.2 M379.39,199.43l9.29,4.57 M161.69,58.57l1.99,16.48 M313.82,158l11.58-0.54 M211.1,53.88l0.59,17.43 M5.88,306.57
		l10.61,18.95 M218.03,157.99l-1.33,6.55 M40.07,27.25l3.27-9.36 M294.62,110.26l13.13-0.12"/>
</g>
<g>
	<path class="st1" d="M488.54,309.87v-56.46 M773.7,137.88v-27.7 M508.92,231.77l0.01-161.11 M542.07,197.34h-17.91 M702.93,187.62
		H666.9 M750.43,161.81h-50.52 M881.85,14.74l-340.9-0.03 M864.2,205.52l0.01-176.34 M752.1,291.46l0.01-128.99 M881.64,206.57
		l0.01-174.88 M615.55,254.46l-131.57-0.01 M521.67,231.68V199.2 M616.5,260.41l0.01-100.1 M784.54,139.76h-9.51 M827.01,272.48
		l-60.86-0.01 M748.85,103.89l-202.25-0.02 M845.44,291.64l0.02-213.18 M643.33,71.71l-98.96-0.01 M663.03,176.74h-27.52
		 M824.05,274.24l0.01-96.57 M507.37,232.4h-24.46 M665.11,187.56v-11.14 M844.55,292l-76.32-0.01 M766.13,291.38v-19.11
		 M882.28,0.78L555.06,0.75 M732.15,269.95l0.01-90.55 M730.3,272.47l-93-0.01 M609.29,272.46l-104.04-0.01 M487.06,232.19
		l0.01-161.59 M749.19,291.99l-131.57-0.01 M830.64,87.15l-60.71-0.01 M826.05,177.7h-57.21 M845.74,75.72l-75.77-0.01 M773.7,184.2
		v-31.79 M634.5,269.65l0.01-90.41 M707.66,75.71h-10.58 M504.95,330.79v-55.16 M697.84,155.54h-26.55 M533.39,24.7V14.29
		 M882.9,33.52h-18.88 M827.3,158.65h-52.91 M830.4,162.27l0.01-72.92 M699.64,188.31v-11.28 M598.5,232.41l-76.3-0.01
		 M878.79,202.39h-12.01 M671.62,155.54h-53.04 M727.71,177.69h-23.62 M690.65,53.88h-45.16 M544.53,106.7V72.87 M597.75,197.35
		h-48.52 M600.68,229.67v-30.93 M506.54,71.7h-18.47 M785.61,137.52v-10.1 M881.66,16.15V3.64 M785.61,123.09v-14.4 M753.26,75.71
		h-38.25 M753.05,106.14V78.1 M868.86,201.02l-10.27-0.72 M645.2,72.12v-16.5 M805.95,158.65h-11.53 M696.83,68.9V51.56
		 M488.54,320.73v-21.6 M698.48,161.73v-6.65 M525.42,23.41v-9.86 M788.94,108.6h-13.06"/>
</g>
<g>
	<g>
		<line class="st2" x1="418.65" y1="156.9" x2="464.85" y2="156.9"/>
		<g>
			<polygon points="461.9,160.79 463.55,156.9 461.9,153.01 471.11,156.9 			"/>
		</g>
	</g>
</g>
</svg>
