<?xml version="1.0" encoding="utf-8"?>
<!-- Generator: Adobe Illustrator 24.0.3, SVG Export Plug-In . SVG Version: 6.00 Build 0)  -->
<svg version="1.1" id="Layer_1" xmlns="http://www.w3.org/2000/svg" xmlns:xlink="http://www.w3.org/1999/xlink" x="0px" y="0px"
	 width="846.04px" height="214.75px" viewBox="0 0 846.04 214.75" style="enable-background:new 0 0 846.04 214.75;"
	 xml:space="preserve">
<style type="text/css">
	.st0{fill:none;stroke:#B70909;stroke-width:1.5;stroke-linecap:round;stroke-linejoin:round;stroke-miterlimit:10;}
	.st1{fill:none;stroke:#0D7A0A;stroke-width:1.5;stroke-linecap:round;stroke-linejoin:round;stroke-miterlimit:10;}
	.st2{fill:none;stroke:#000000;stroke-width:1.5;stroke-linecap:round;stroke-linejoin:round;}
</style>
<g>
	<path class="st0" d="M397.91,176.32l-1.65-6.63 M396.26,169.69l4.49-8.39 M400.75,161.3l-3.26-36.75 M397.49,124.55l-13.33,5.89
		 M384.17,130.44l-5.58-0.73 M378.59,129.72l-2.59-4.76 M376,124.96l-17.24,2.4 M358.76,127.36l-2.83,5.63 M355.93,132.99
		l-19.61-3.35 M336.32,129.65l-38.74,7.51 M297.58,137.16l-2.98-5.36 M294.6,131.79l-16.19,0.03 M278.41,131.82l-2.94,6.13
		 M275.47,137.95l-8.51,0.7 M266.96,138.65l-4.57-9.9 M262.39,128.76l-29.77-4.58 M232.62,124.18l-3.55,6.51 M229.07,130.69
		l-78.36,4.9 M150.72,135.6l-2.56,11.43 M148.16,147.03l-8.4,0.21 M139.76,147.24l-3.47-5.48 M136.29,141.76l-14.53,1.97
		 M121.75,143.73l-4.43,5.79 M117.32,149.52l-43.59-3.49 M73.73,146.03l-4.56-19.29 M69.18,126.74l6.53-5.85 M75.71,120.89
		l-3.07-14.26 M72.64,106.63l-4.25-2 M68.38,104.64L64.77,48.5 M64.77,48.49l5.72-18.56 M70.49,29.94l-4.47-5.7 M66.03,24.24
		l1.58-21.05 M67.61,3.19L32.19,5.18 M32.19,5.18L26.4,0.75 M26.39,0.75l-6.65,11.04 M19.74,11.79l-5.35-6.42 M14.39,5.37L17,35.71
		 M17,35.71L0.75,38.34 M0.75,38.34l1.74,20.23 M2.49,58.56l8.73,3 M11.21,61.56l2.27,31.83 M13.48,93.39l-8.63,5.9 M4.85,99.29
		l1.79,22.32 M6.64,121.61l15.31-0.75 M21.95,120.86l1.62,20.72 M23.57,141.58l9.67,1.12 M33.24,142.7l-2.75,28.62 M30.49,171.32
		l-6.25,2.26 M24.24,173.58l0.07,22.99 M24.31,196.56l19.01-0.96 M43.32,195.6l2.77-7.73 M46.1,187.87l19.73-1.85 M65.82,186.02
		l4.19,4.59 M70.02,190.61l-0.79,8.18 M69.23,198.79l7.46,1.67 M76.69,200.46L78.88,214 M78.88,214l20.72-1.62 M99.6,212.37
		l1.78-7.95 M101.38,204.42l18.01-1.19 M119.39,203.23l4.99-8.28 M124.38,194.95l32.33-2.16 M156.7,192.79l7.34,6.86 M164.04,199.66
		l19.68-3.95 M183.72,195.71l3.77-7.51 M187.49,188.2l31.83-2.27 M219.32,185.93l3.8,8.68 M223.12,194.61l28.24-2.55 M251.35,192.06
		l-1.31-8.12 M250.04,183.94l5.48-8.17 M255.52,175.77l9.56,1.62 M265.08,177.38l-0.29,8.29 M264.79,185.67l21.22-1.51
		 M286.01,184.16l1.19,13.32 M287.2,197.48l3.64,2.38 M290.85,199.86l20.23-1.74 M311.07,198.12l1.39-8.56 M312.47,189.56
		l32.82-2.05 M345.29,187.51l12.92,7.59 M358.21,195.1l15.08,0.24 M373.29,195.35l1.8-17.35 M375.09,178l22.82-1.68"/>
</g>
<g>
	<line class="st1" x1="845.29" y1="174.31" x2="842.23" y2="125.37"/>
	<line class="st1" x1="842.22" y1="125.37" x2="821.69" y2="126.65"/>
	<line class="st1" x1="821.7" y1="126.65" x2="821.51" y2="123.6"/>
	<line class="st1" x1="821.51" y1="123.6" x2="801.46" y2="124.85"/>
	<line class="st1" x1="801.46" y1="124.86" x2="801.71" y2="128.88"/>
	<line class="st1" x1="801.71" y1="128.88" x2="740.43" y2="132.72"/>
	<line class="st1" x1="740.43" y1="132.71" x2="740.21" y2="129.27"/>
	<line class="st1" x1="740.22" y1="129.28" x2="721.12" y2="130.48"/>
	<line class="st1" x1="721.12" y1="130.47" x2="721.47" y2="135.99"/>
	<line class="st1" x1="721.47" y1="135.99" x2="709.33" y2="136.75"/>
	<line class="st1" x1="709.33" y1="136.75" x2="708.5" y2="123.48"/>
	<line class="st1" x1="708.5" y1="123.48" x2="675.19" y2="125.56"/>
	<line class="st1" x1="675.19" y1="125.57" x2="675.38" y2="128.63"/>
	<line class="st1" x1="675.38" y1="128.63" x2="593.43" y2="133.76"/>
	<line class="st1" x1="593.43" y1="133.75" x2="594.12" y2="144.82"/>
	<line class="st1" x1="594.12" y1="144.82" x2="582.55" y2="145.54"/>
	<line class="st1" x1="582.55" y1="145.55" x2="582.22" y2="140.25"/>
	<line class="st1" x1="582.22" y1="140.25" x2="563.68" y2="141.41"/>
	<line class="st1" x1="563.68" y1="141.41" x2="563.86" y2="144.33"/>
	<line class="st1" x1="563.86" y1="144.33" x2="516.61" y2="147.29"/>
	<line class="st1" x1="516.61" y1="147.29" x2="515.03" y2="121.99"/>
	<line class="st1" x1="515.03" y1="121.98" x2="519.14" y2="121.72"/>
	<line class="st1" x1="519.14" y1="121.72" x2="518" y2="103.49"/>
	<line class="st1" x1="518" y1="103.49" x2="513.59" y2="103.77"/>
	<polyline class="st1" points="513.59,103.77 507.18,1.34 459.34,4.84 461.2,34.59 	"/>
	<line class="st1" x1="461.2" y1="34.59" x2="445.29" y2="35.59"/>
	<line class="st1" x1="445.29" y1="35.58" x2="446.72" y2="58.4"/>
	<line class="st1" x1="446.72" y1="58.4" x2="455.6" y2="57.84"/>
	<line class="st1" x1="455.59" y1="57.85" x2="457.86" y2="94.13"/>
	<line class="st1" x1="457.86" y1="94.12" x2="449.23" y2="94.66"/>
	<line class="st1" x1="449.23" y1="94.66" x2="450.8" y2="119.78"/>
	<line class="st1" x1="450.81" y1="119.78" x2="466.46" y2="118.8"/>
	<line class="st1" x1="466.46" y1="118.8" x2="467.82" y2="140.5"/>
	<line class="st1" x1="467.81" y1="140.51" x2="475.27" y2="140.04"/>
	<line class="st1" x1="475.27" y1="140.04" x2="477.16" y2="170.16"/>
	<line class="st1" x1="477.16" y1="170.16" x2="467.85" y2="170.74"/>
	<line class="st1" x1="467.85" y1="170.74" x2="469.35" y2="194.68"/>
	<line class="st1" x1="469.35" y1="194.68" x2="489.29" y2="193.43"/>
	<line class="st1" x1="489.29" y1="193.43" x2="488.81" y2="185.71"/>
	<line class="st1" x1="488.81" y1="185.71" x2="512.97" y2="184.2"/>
	<line class="st1" x1="512.96" y1="184.2" x2="513.82" y2="197.89"/>
	<line class="st1" x1="513.82" y1="197.89" x2="521.64" y2="197.4"/>
	<line class="st1" x1="521.64" y1="197.4" x2="522.55" y2="211.92"/>
	<line class="st1" x1="522.55" y1="211.93" x2="545.09" y2="210.52"/>
	<line class="st1" x1="545.09" y1="210.51" x2="544.59" y2="202.51"/>
	<line class="st1" x1="544.59" y1="202.51" x2="566.48" y2="201.14"/>
	<line class="st1" x1="566.48" y1="201.14" x2="565.98" y2="193.11"/>
	<line class="st1" x1="565.98" y1="193.11" x2="604.49" y2="190.7"/>
	<line class="st1" x1="604.49" y1="190.7" x2="604.86" y2="196.57"/>
	<line class="st1" x1="604.86" y1="196.57" x2="630.26" y2="194.98"/>
	<line class="st1" x1="630.25" y1="194.98" x2="629.7" y2="186.25"/>
	<line class="st1" x1="629.71" y1="186.25" x2="665.29" y2="184.02"/>
	<line class="st1" x1="665.28" y1="184.02" x2="665.8" y2="192.37"/>
	<line class="st1" x1="665.81" y1="192.37" x2="696.84" y2="190.43"/>
	<line class="st1" x1="696.83" y1="190.43" x2="695.88" y2="175.17"/>
	<line class="st1" x1="695.88" y1="175.18" x2="708.94" y2="174.36"/>
	<line class="st1" x1="708.94" y1="174.36" x2="709.52" y2="183.61"/>
	<line class="st1" x1="709.52" y1="183.61" x2="730.53" y2="182.3"/>
	<line class="st1" x1="730.53" y1="182.29" x2="731.5" y2="197.86"/>
	<line class="st1" x1="731.5" y1="197.86" x2="756.37" y2="196.3"/>
	<line class="st1" x1="756.38" y1="196.3" x2="755.89" y2="188.39"/>
	<line class="st1" x1="755.88" y1="188.39" x2="795.86" y2="185.89"/>
	<line class="st1" x1="795.86" y1="185.89" x2="796.38" y2="194.13"/>
	<line class="st1" x1="796.38" y1="194.13" x2="819.02" y2="192.71"/>
	<line class="st1" x1="819.02" y1="192.72" x2="817.98" y2="176.02"/>
	<line class="st1" x1="817.97" y1="176.02" x2="845.29" y2="174.31"/>
</g>
<g>
	<g>
		<line class="st2" x1="413.16" y1="145.55" x2="446.97" y2="145.55"/>
		<g>
			<polygon points="444.03,149.44 445.68,145.55 444.03,141.66 453.24,145.55 			"/>
		</g>
	</g>
</g>
</svg>
