<?xml version="1.0" encoding="utf-8"?>
<!-- Generator: Adobe Illustrator 24.0.3, SVG Export Plug-In . SVG Version: 6.00 Build 0)  -->
<svg version="1.1" id="Layer_1" xmlns="http://www.w3.org/2000/svg" xmlns:xlink="http://www.w3.org/1999/xlink" x="0px" y="0px"
	 width="874.17px" height="399.22px" viewBox="0 0 874.17 399.22" style="enable-background:new 0 0 874.17 399.22;"
	 xml:space="preserve">
<style type="text/css">
	.st0{fill:none;stroke:#B70909;stroke-linecap:round;stroke-linejoin:round;stroke-miterlimit:10;}
	.st1{fill:none;stroke:#0D7A0A;stroke-linecap:round;stroke-linejoin:round;stroke-miterlimit:10;}
	.st2{fill:none;stroke:#000000;stroke-linecap:round;stroke-linejoin:round;}
</style>
<g>
	<path class="st0" d="M200.5,200.11h100 M300.5,200.11h100 M200.5,200.11l99.21-12.53 M299.71,189.57l99.21-12.53 M200.5,200.11
		l96.86-24.87 M297.36,179.24l96.86-24.87 M200.5,200.11l92.98-36.81 M293.48,169.29l92.98-36.81 M200.5,200.11l87.63-48.18
		 M288.13,159.93l87.63-48.18 M200.5,200.11l80.9-58.78 M281.4,151.33l80.9-58.78 M200.5,200.11l72.9-68.45 M273.4,143.65
		l72.9-68.45 M200.5,200.11l63.74-77.05 M264.24,133.05L327.98,56 M200.5,200.11l53.58-84.43 M254.08,123.67l53.58-84.43
		 M200.5,200.11l42.58-90.48 M243.08,115.62l42.58-90.48 M200.5,200.11L231.4,105 M231.4,109l30.9-95.11 M200.5,200.11l18.74-98.23
		 M219.24,103.88l18.74-98.23 M200.5,200.11l6.28-99.8 M206.78,100.3l6.28-99.8 M200.5,200.11l-6.28-99.8 M194.22,102.3l-6.28-99.8
		 M200.5,200.11l-18.74-98.23 M181.76,105.88L163.02,7.65 M200.5,200.11L169.6,105 M169.6,111l-30.9-95.11 M200.5,200.11
		l-42.58-90.48 M157.92,117.62l-42.58-90.48 M200.5,200.11l-53.58-84.43 M146.92,125.67L93.33,41.24 M200.5,200.11l-63.74-77.05
		 M136.76,135.05L73.02,58 M200.5,200.11l-72.9-68.45 M127.6,141.65L54.71,73.2 M200.5,200.11l-80.9-58.78 M119.6,149.33L38.7,90.55
		 M200.5,200.11l-87.63-48.18 M112.87,157.93l-87.63-48.18 M200.5,200.11l-92.98-36.81 M107.52,167.29l-92.98-36.81 M200.5,200.11
		l-96.86-24.87 M103.64,177.24L6.78,152.37 M200.5,200.11l-99.21-12.53 M101.29,187.57L2.08,175.04 M200.5,200.11h-100
		 M100.5,198.11H0.5 M200.5,200.11l-99.21,12.53 M101.29,208.64L2.08,221.17 M200.5,200.11l-96.86,24.87 M103.64,218.97L6.78,243.84
		 M200.5,200.11l-92.98,36.81 M107.52,228.92l-92.98,36.81 M200.5,200.11l-87.63,48.18 M112.87,238.28l-87.63,48.18 M200.5,200.11
		l-80.9,58.78 M119.6,246.88l-80.9,58.78 M200.5,200.11l-72.9,68.45 M127.6,254.56l-72.9,68.45 M200.5,200.11l-63.74,77.05
		 M136.76,265.16l-63.74,77.05 M200.5,200.11l-53.58,84.43 M146.92,274.54l-53.58,84.43 M200.5,200.11l-42.58,90.48 M157.92,282.59
		l-42.58,90.48 M200.5,200.11l-30.9,95.11 M169.6,289.21l-30.9,95.11 M200.5,200.11l-18.74,98.23 M181.76,294.33l-18.74,98.23
		 M200.5,200.11l-6.28,99.8 M194.22,297.91l-6.28,99.8 M200.5,200.11l6.28,99.8 M206.78,295.91l6.28,99.8 M200.5,200.11l18.74,98.23
		 M219.24,292.33l18.74,98.23 M200.5,200.11l30.9,95.11 M231.4,287.21l30.9,95.11 M200.5,200.11l42.58,90.48 M243.08,280.59
		l42.58,90.48 M200.5,200.11l53.58,84.43 M254.08,272.54l53.58,84.43 M200.5,200.11l63.74,77.05 M264.24,263.16l63.74,77.05
		 M200.5,200.11l72.9,68.45 M273.4,256.56l72.9,68.45 M200.5,200.11l80.9,58.78 M281.4,248.88l80.9,58.78 M200.5,200.11l87.63,48.18
		 M288.13,240.28l87.63,48.18 M200.5,200.11l92.98,36.81 M293.48,230.92l92.98,36.81 M200.5,200.11l96.86,24.87 M297.36,220.97
		l96.86,24.87 M200.5,200.11l99.21,12.53 M299.71,210.64l99.21,12.53"/>
</g>
<g>
	<path class="st1" d="M673.67,200.61h100 M773.67,200.61h100 M673.61,200.62l99.21-12.53 M772.57,188.11l99.21-12.53 M673.55,200.64
		l96.86-24.87 M769.44,176.02l96.86-24.87 M673.5,200.68l92.98-36.81 M764.42,164.68l92.98-36.81 M673.46,200.72l87.63-48.18
		 M757.71,154.4l87.63-48.18 M673.43,200.78l80.9-58.78 M749.58,145.46l80.9-58.78 M673.42,200.84l72.9-68.45 M740.33,138.01
		l72.9-68.45 M673.42,200.9l63.74-77.05 M732.25,129.79L796,52.74 M673.44,200.96l53.58-84.43 M723.41,122.23l53.58-84.43
		 M673.48,201.02l42.58-90.48 M713.74,115.45l42.58-90.48 M673.52,201.06l30.9-95.11 M703.25,109.57l30.9-95.11 M673.58,201.09
		l18.74-98.23 M691.95,104.79l18.74-98.23 M673.64,201.11l6.28-99.8 M679.92,101.3l6.28-99.8 M673.7,201.11l-6.28-99.8
		 M667.55,103.29l-6.28-99.8 M673.76,201.09l-18.74-98.23 M655.76,106.72L637.02,8.49 M673.82,201.06l-30.9-95.11 M644.68,111.38
		l-30.9-95.11 M673.86,201.02l-42.58-90.48 M634.36,117.08L591.79,26.6 M673.89,200.96l-53.58-84.43 M624.84,123.66l-53.58-84.43
		 M673.91,200.9l-63.74-77.05 M616.07,130.98l-63.74-77.05 M673.92,200.84l-72.9-68.45 M606.01,137.07l-72.9-68.45 M673.91,200.78
		L593,142 M596.81,144.77l-80.9-58.78 M673.88,200.72l-87.63-48.18 M588.78,153.94l-87.63-48.18 M673.84,200.68l-92.98-36.81
		 M582.23,164.4l-92.98-36.81 M673.79,200.64l-96.86-24.87 M577.41,175.89l-96.86-24.87 M673.73,200.62l-99.21-12.53 M574.52,188.08
		l-99.21-12.53 M673.67,200.61h-100 M573.67,200.61h-100 M673.61,200.62l-99.21,12.53 M574.89,213.09l-99.21,12.53 M673.55,200.64
		l-96.86,24.87 M578.13,225.14l-96.86,24.87 M673.5,200.68l-92.98,36.81 M583.26,236.4l-92.98,36.81 M673.46,200.72l-87.63,48.18
		 M590.05,246.58l-87.63,48.18 M673.43,200.78l-80.9,58.78 M598.24,255.41l-80.9,58.78 M673.42,200.84l-72.9,68.45 M607.51,262.74
		l-72.9,68.45 M673.42,200.9l-63.74,77.05 M615.57,270.83l-63.74,77.05 M673.44,200.96l-53.58,84.43 M624.38,278.27L570.8,362.7
		 M673.48,201.02L630.9,291.5 M633.98,284.95l-42.58,90.48 M673.52,201.06l-30.9,95.11 M644.38,290.74l-30.9,95.11 M673.58,201.09
		l-18.74,98.23 M655.57,295.46l-18.74,98.23 M673.64,201.11l-6.28,99.8 M667.48,298.92l-6.28,99.8 M673.7,201.11l6.28,99.8
		 M679.73,296.92l6.28,99.8 M673.76,201.09l18.74,98.23 M691.39,293.53l18.74,98.23 M673.82,201.06l30.9,95.11 M702.37,288.93
		l30.9,95.11 M673.86,201.02l42.58,90.48 M712.59,283.31l42.58,90.48 M673.89,200.96l53.58,84.43 M722.05,276.84l53.58,84.43
		 M673.91,200.9l63.74,77.05 M730.78,269.64l63.74,77.05 M673.92,200.84l72.9,68.45 M740.83,263.67l72.9,68.45 M673.91,200.78
		l80.9,58.78 M750.05,256.1l80.9,58.78 M673.88,200.72l87.63,48.18 M758.13,247.04l87.63,48.18 M673.84,200.68l92.98,36.81
		 M764.76,236.67l92.98,36.81 M673.79,200.64l96.86,24.87 M769.68,225.26l96.86,24.87 M673.73,200.62l99.21,12.53 M772.69,213.12
		l99.21,12.53"/>
</g>
<g>
	<g>
		<line class="st2" x1="421.53" y1="200.61" x2="449.89" y2="200.19"/>
		<g>
			<polygon points="447.13,203.94 448.65,200.21 447.02,196.53 455.86,200.11 			"/>
		</g>
	</g>
</g>
</svg>
