<?xml version="1.0" encoding="utf-8"?>
<!-- Generator: Adobe Illustrator 24.0.3, SVG Export Plug-In . SVG Version: 6.00 Build 0)  -->
<svg version="1.1" id="Layer_1" xmlns="http://www.w3.org/2000/svg" xmlns:xlink="http://www.w3.org/1999/xlink" x="0px" y="0px"
	 width="854.19px" height="215.76px" viewBox="0 0 854.19 215.76" style="enable-background:new 0 0 854.19 215.76;"
	 xml:space="preserve">
<style type="text/css">
	.st0{fill:none;stroke:#B70909;stroke-width:1.5;stroke-linecap:round;stroke-linejoin:round;stroke-miterlimit:10;}
	.st1{fill:none;stroke:#0D7A0A;stroke-width:1.5;stroke-linecap:round;stroke-linejoin:round;stroke-miterlimit:10;}
	.st2{fill:none;stroke:#000000;stroke-width:1.5;stroke-linecap:round;stroke-linejoin:round;}
</style>
<g>
	<path class="st0" d="M397.91,177.34l-1.65-6.63 M396.26,170.7l4.49-8.39 M400.75,162.31l-3.26-36.75 M397.49,125.56l-13.33,5.89
		 M384.17,131.45l-5.58-0.73 M378.59,130.73l-2.59-4.76 M376,125.97l-17.24,2.4 M358.76,128.37l-2.83,5.63 M355.93,134.01
		l-19.61-3.35 M336.32,130.66l-38.74,7.51 M297.58,138.17l-2.98-5.36 M294.6,132.8l-16.19,0.03 M278.41,132.83l-2.94,6.13
		 M275.47,138.96l-8.51,0.7 M266.96,139.67l-4.57-9.9 M262.39,129.77l-29.77-4.58 M232.62,125.19l-3.55,6.51 M229.07,131.71
		l-78.36,4.9 M150.72,136.61l-2.56,11.43 M148.16,148.04l-8.4,0.21 M139.76,148.25l-3.47-5.48 M136.29,142.77l-14.53,1.97
		 M121.75,144.74l-4.43,5.79 M117.32,150.53l-43.59-3.49 M73.73,147.04l-4.56-19.29 M69.18,127.75l6.53-5.85 M75.71,121.9
		l-3.07-14.26 M72.64,107.64l-4.25-2 M68.38,105.65l-3.61-56.14 M64.77,49.51l5.72-18.56 M70.49,30.95l-4.47-5.7 M66.03,25.25
		L67.61,4.2 M67.61,4.2L32.19,6.19 M32.19,6.19L26.4,1.76 M26.39,1.76L19.74,12.8 M19.74,12.8l-5.35-6.42 M14.39,6.38L17,36.72
		 M17,36.72L0.75,39.35 M0.75,39.35l1.74,20.23 M2.49,59.57l8.73,3 M11.21,62.57l2.27,31.83 M13.48,94.4l-8.63,5.9 M4.85,100.3
		l1.79,22.32 M6.64,122.62l15.31-0.75 M21.95,121.87l1.62,20.72 M23.57,142.6l9.67,1.12 M33.24,143.72l-2.75,28.62 M30.49,172.33
		l-6.25,2.26 M24.24,174.59l0.07,22.99 M24.31,197.57l19.01-0.96 M43.32,196.61l2.77-7.73 M46.1,188.88l19.73-1.85 M65.82,187.03
		l4.19,4.59 M70.02,191.62l-0.79,8.18 M69.23,199.8l7.46,1.67 M76.69,201.47l2.19,13.54 M78.88,215.01l20.72-1.62 M99.6,213.38
		l1.78-7.95 M101.38,205.43l18.01-1.19 M119.39,204.24l4.99-8.28 M124.38,195.96l32.33-2.16 M156.7,193.8l7.34,6.86 M164.04,200.67
		l19.68-3.95 M183.72,196.72l3.77-7.51 M187.49,189.21l31.83-2.27 M219.32,186.94l3.8,8.68 M223.12,195.62l28.24-2.55
		 M251.35,193.07l-1.31-8.12 M250.04,184.95l5.48-8.17 M255.52,176.78l9.56,1.62 M265.08,178.4l-0.29,8.29 M264.79,186.68
		l21.22-1.51 M286.01,185.17l1.19,13.32 M287.2,198.49l3.64,2.38 M290.85,200.87l20.23-1.74 M311.07,199.13l1.39-8.56
		 M312.47,190.57l32.82-2.05 M345.29,188.52l12.92,7.59 M358.21,196.11l15.08,0.24 M373.29,196.36l1.8-17.35"/>
</g>
<g>
	<line class="st1" x1="853.44" y1="173.65" x2="850.38" y2="124.78"/>
	<line class="st1" x1="850.38" y1="124.78" x2="829.85" y2="126.06"/>
	<line class="st1" x1="829.85" y1="126.07" x2="829.66" y2="123.02"/>
	<line class="st1" x1="829.66" y1="123.02" x2="809.61" y2="124.27"/>
	<line class="st1" x1="809.61" y1="124.27" x2="809.86" y2="128.29"/>
	<line class="st1" x1="809.86" y1="128.29" x2="748.58" y2="132.13"/>
	<line class="st1" x1="748.58" y1="132.12" x2="748.37" y2="128.68"/>
	<line class="st1" x1="748.37" y1="128.69" x2="729.27" y2="129.89"/>
	<line class="st1" x1="729.27" y1="129.88" x2="729.62" y2="135.4"/>
	<line class="st1" x1="729.62" y1="135.4" x2="717.48" y2="136.16"/>
	<line class="st1" x1="717.48" y1="136.16" x2="716.65" y2="122.89"/>
	<line class="st1" x1="716.65" y1="122.89" x2="683.34" y2="124.97"/>
	<line class="st1" x1="683.34" y1="124.98" x2="683.53" y2="128.04"/>
	<line class="st1" x1="683.53" y1="128.04" x2="601.58" y2="133.17"/>
	<line class="st1" x1="601.58" y1="133.17" x2="602.27" y2="144.24"/>
	<line class="st1" x1="602.27" y1="144.24" x2="590.7" y2="144.96"/>
	<line class="st1" x1="590.7" y1="144.96" x2="590.37" y2="139.66"/>
	<line class="st1" x1="590.37" y1="139.66" x2="571.83" y2="140.82"/>
	<line class="st1" x1="571.83" y1="140.82" x2="572.01" y2="143.74"/>
	<line class="st1" x1="572.01" y1="143.74" x2="524.76" y2="146.7"/>
	<line class="st1" x1="524.76" y1="146.7" x2="523.18" y2="121.39"/>
	<line class="st1" x1="523.17" y1="121.39" x2="527.28" y2="121.13"/>
	<line class="st1" x1="527.29" y1="121.14" x2="526.15" y2="102.91"/>
	<line class="st1" x1="526.15" y1="102.91" x2="521.74" y2="103.19"/>
	<polyline class="st1" points="521.74,103.18 515.33,0.75 467.49,4.25 469.35,34 	"/>
	<line class="st1" x1="469.35" y1="34" x2="453.44" y2="35"/>
	<line class="st1" x1="453.44" y1="34.99" x2="454.87" y2="57.81"/>
	<line class="st1" x1="454.86" y1="57.81" x2="463.74" y2="57.25"/>
	<line class="st1" x1="463.74" y1="57.26" x2="466.01" y2="93.54"/>
	<line class="st1" x1="466.01" y1="93.54" x2="457.38" y2="94.08"/>
	<line class="st1" x1="457.38" y1="94.08" x2="458.95" y2="119.2"/>
	<line class="st1" x1="458.95" y1="119.2" x2="474.6" y2="118.22"/>
	<line class="st1" x1="474.6" y1="118.22" x2="475.96" y2="139.92"/>
	<line class="st1" x1="475.96" y1="139.92" x2="483.42" y2="139.45"/>
	<line class="st1" x1="483.42" y1="139.45" x2="485.31" y2="169.57"/>
	<line class="st1" x1="485.31" y1="169.57" x2="476" y2="170.15"/>
	<line class="st1" x1="476" y1="170.16" x2="477.5" y2="194.1"/>
	<line class="st1" x1="477.5" y1="194.1" x2="497.44" y2="192.85"/>
	<line class="st1" x1="497.44" y1="192.85" x2="496.96" y2="185.13"/>
	<line class="st1" x1="496.95" y1="185.13" x2="521.11" y2="183.62"/>
	<line class="st1" x1="521.11" y1="183.62" x2="521.97" y2="197.31"/>
	<line class="st1" x1="521.97" y1="197.31" x2="529.79" y2="196.82"/>
	<line class="st1" x1="529.78" y1="196.82" x2="530.69" y2="211.34"/>
	<line class="st1" x1="530.69" y1="211.34" x2="553.23" y2="209.93"/>
	<line class="st1" x1="553.24" y1="209.93" x2="552.74" y2="201.93"/>
	<line class="st1" x1="552.74" y1="201.92" x2="574.63" y2="200.55"/>
	<line class="st1" x1="574.63" y1="200.55" x2="574.13" y2="192.52"/>
	<line class="st1" x1="574.13" y1="192.52" x2="612.64" y2="190.11"/>
	<line class="st1" x1="612.64" y1="190.11" x2="613.01" y2="195.98"/>
	<line class="st1" x1="613.01" y1="195.98" x2="638.41" y2="194.39"/>
	<line class="st1" x1="638.4" y1="194.39" x2="637.85" y2="185.66"/>
	<line class="st1" x1="637.86" y1="185.66" x2="673.44" y2="183.43"/>
	<line class="st1" x1="673.43" y1="183.43" x2="673.95" y2="191.78"/>
	<line class="st1" x1="673.96" y1="191.79" x2="704.99" y2="189.85"/>
	<line class="st1" x1="704.98" y1="189.84" x2="704.03" y2="174.58"/>
	<line class="st1" x1="704.03" y1="174.59" x2="717.09" y2="173.77"/>
	<line class="st1" x1="717.09" y1="173.77" x2="717.67" y2="183.02"/>
	<line class="st1" x1="717.67" y1="183.02" x2="738.68" y2="181.71"/>
	<line class="st1" x1="738.68" y1="181.7" x2="739.65" y2="197.27"/>
	<line class="st1" x1="739.65" y1="197.27" x2="764.52" y2="195.71"/>
	<line class="st1" x1="764.53" y1="195.71" x2="764.04" y2="187.8"/>
	<line class="st1" x1="764.03" y1="187.81" x2="804.01" y2="185.31"/>
	<line class="st1" x1="804.01" y1="185.3" x2="804.53" y2="193.54"/>
	<line class="st1" x1="804.53" y1="193.55" x2="827.17" y2="192.13"/>
	<line class="st1" x1="827.17" y1="192.13" x2="826.13" y2="175.44"/>
</g>
<g>
	<g>
		<line class="st2" x1="418.78" y1="146.51" x2="450.08" y2="146.51"/>
		<g>
			<polygon points="447.13,150.4 448.78,146.51 447.13,142.63 456.35,146.51 			"/>
		</g>
	</g>
</g>
</svg>
