<?xml version="1.0" encoding="utf-8"?>
<!-- Generator: Adobe Illustrator 24.0.3, SVG Export Plug-In . SVG Version: 6.00 Build 0)  -->
<svg version="1.1" id="Layer_1" xmlns="http://www.w3.org/2000/svg" xmlns:xlink="http://www.w3.org/1999/xlink" x="0px" y="0px"
	 width="1201.5px" height="343.4px" viewBox="0 0 1201.5 343.4" style="enable-background:new 0 0 1201.5 343.4;"
	 xml:space="preserve">
<style type="text/css">
	.st0{fill:none;stroke:#0D7A0A;stroke-width:1.5;stroke-linecap:round;stroke-linejoin:round;stroke-miterlimit:10;}
	.st1{fill:none;stroke:#B70909;stroke-width:1.5;stroke-linecap:round;stroke-linejoin:round;stroke-miterlimit:10;}
	.st2{fill:none;stroke:#F9C316;stroke-width:1.5;stroke-linecap:round;stroke-linejoin:round;stroke-miterlimit:10;}
	.st3{fill:none;stroke:#000000;stroke-width:1.5;stroke-linecap:round;stroke-linejoin:round;}
	.st4{fill:none;stroke:#020202;stroke-width:1.5;stroke-linecap:round;stroke-linejoin:round;stroke-miterlimit:10;}
	.st5{font-family:'MyriadPro-Regular';}
	.st6{font-size:12px;}
</style>
<g>
	<path class="st0" d="M845.2,324l-1.4-51.4 M1100.8,160.5l-0.7-25.2 M861.9,252.4L858,105.6 M891.2,220.2l-16.3,0.4 M1037.4,207.5
		l-32.8,0.9 M1080.1,182.8l-46,1.2 M1196.2,45.7l-310.5,8.2 M1184.8,219.9l-4.3-160.6 M1084.8,300.9l-3.1-117.5 M1200.8,220.4
		l-4.2-159.3 M959.5,270.5l-119.8,3.2 M873.5,252l-0.8-29.6 M960.5,275.9l-2.4-91.2 M1110.6,161.9l-8.7,0.2 M1152.5,281.8l-55.4,1.5
		 M1077.2,130.1L893.1,135 M1169.8,298.8l-5.1-194.2 M980.4,103.3l-90.1,2.4 M1000.9,198.5l-25.1,0.7 M1149.8,283.4l-2.3-88
		 M860.5,253l-22.3,0.6 M1003,208.3l-0.3-10.1 M1168.9,299.1l-69.5,1.8 M1097.5,300.5l-0.5-17.4 M1196.3,33l-298,7.9 M1066,281.8
		l-2.2-82.5 M1064.4,284.1l-84.7,2.2 M954.2,287l-94.8,2.5 M842,253.3L838,106.1 M1082.1,301.4l-119.8,3.2 M1151.3,112.9l-55.3,1.5
		 M1149.3,195.5l-52.1,1.4 M1164.8,102.1l-69,1.8 M1101.8,202.6l-0.8-29 M977.2,283.8l-2.2-82.4 M1039,105.4l-9.6,0.3 M860.5,342.7
		l-1.3-50.2 M1032,178.4l-24.2,0.6 M879,63.2l-0.3-9.5 M1197.6,62.8l-17.2,0.5 M1150,178.1l-48.2,1.3 M1152.9,181.3l-1.8-66.4
		 M1034.4,208.2l-0.3-10.3 M943.5,250.8l-69.5,1.8 M1197.9,216.7L1187,217 M1008.2,179l-48.3,1.3 M1059.8,197.8l-21.5,0.6 M1023,86
		L982,87 M891.2,137.6l-0.8-30.8 M941.9,218.9l-44.2,1.2 M945.4,248.2l-0.7-28.2 M855.8,106.6l-16.8,0.5 M1111.5,159.8l-0.2-9.2
		 M1196.1,47l-0.3-11.4 M1111.2,146.7l-0.3-13.1 M1080.5,104.3l-34.8,0.9 M1081.1,132l-0.7-25.5 M1188.9,215.7l-9.4-0.4 M982,103.7
		l-0.4-15 M1130.5,178.6l-10.5,0.3 M1029,99.5l-0.4-15.8 M845.5,333.9l-0.5-19.7 M1032.8,184l-0.2-6.1 M871.9,62.2l-0.2-9
		 M1113.8,133.4l-11.9,0.3"/>
</g>
<g>
	<path class="st1" d="M8.4,272.4l0.3,51.4 M264.2,160.2L265,135 M22.1,105.4l3.6,146.8 M38.9,219.8l16.2-1.6 M168.6,208.4l32.8-1.4
		 M198.1,183.8l46-1.3 M49.7,50.8l310.6-2.4 M342,59.2l9.5,160.4 M246.2,183.2l1.9,117.5 M361.1,60.9l2.3,159.3 M3.7,272.7
		l119.9-1.8 M37,251.8l0.2-29.6 M121.9,184.5l2.6,91.2 M266,161.7l8.7,0.2 M261.1,280.7l55.4-1.5 M57.2,137.4l184-10.2 M329.2,104.4
		l3.9,194.2 M54.2,105.6l90.2-0.4 M139.8,199.6l25-1.8 M315.5,195.3l-5.5,87.9 M2.2,253.4l22.3-0.3 M166.6,198l0.6,10.1
		 M263.5,301.7l69.5-1.4 M261.2,282.8l0.3,17.4 M62.2,40.1l298.1-6.9 M228.4,199.1l1,82.5 M143.6,283.8l84.7-3 M23.6,291.6l94.8-1.3
		 M0.8,106l0.8,147.2 M126.2,301.4l119.9,0.4 M260.1,113.6l55.3-0.4 M261.7,201.9l51.4-8.7 M259.9,105.4l68.9-4 M260.7,201.7
		l9.4-27.4 M139.6,201.3l1,82.4 M193.8,102.5l8.7,4.1 M21.8,292.3l4.4,50.1 M171.8,176.2l24.2-0.3 M42.5,53.5l1.1,9.4 M345.5,66.7
		l15.3-7.8 M266.2,177.2l47.7,7.3 M313.5,114.8l5.3,66.2 M201.1,197.6l0.2,10.3 M38,252.4l69.5-2.2 M352.4,220.2l8.3-7.2 M124,184.3
		l48.1-4.8 M202.2,196.7l21.5-0.6 M145.9,87.4l41.1-2.1 M54.2,106.6l1.3,30.8 M61.8,221.8l44.2-2.6 M107.8,219.9l2.5,28.1 M3,105.6
		l16.8,0.1 M275.7,150.5l2.1,9 M360.5,46.8l-0.2-11.4 M272.2,146.3l3.3-12.7 M209.8,105l34.9-0.3 M244.8,106.3l0.1,25.6
		 M344.1,213.2l8.5,4 M144.8,88.5l2,14.9 M284.1,176.5l10.5-0.6 M189.6,83.6l0.8,15.8 M7,315.3l9.9,17 M197.2,177.8l-1.1,6
		 M34.2,61.8l2.8-8.5 M266.1,133.5l11.9-0.3"/>
</g>
<g>
	<path class="st2" d="M429.5,323.1l-1.4-51.1 M683.2,160.6l-0.7-25.1 M445.9,251.9L442,106.2 M475,218.8l-16.2,0.4 M620.2,207.3
		l-32.6,0.9 M662.7,182.8L617,184 M778,46.7l-308.4,8.2 M766.5,219.7l-4.2-159.5 M667.2,300.1l-3.1-116.7 M782,220.2L777.8,62
		 M542.9,269.9l-119,3.2 M457.4,251.5l-0.8-29.4 M543.9,275.3l-2.4-90.6 M693,162.1l-8.6,0.2 M734.5,278.8l-55.1,1.5 M659.9,130.5
		l-183,4.8 M751.7,298l-5.1-192.8 M563.7,105l-89.5,2.4 M584,198.5l-24.9,0.7 M732,282.8l-2.3-87.4 M444.5,252.8l-22.1,0.6
		 M586,208.2l-0.3-10.1 M751,299.6l-69,1.8 M680,299.7l-0.5-17.3 M778,34l-296,7.8 M648.7,281.1l-2.2-81.9 M647,280.7l-84.1,2.2
		 M537.7,289.2l-94.1,2.5 M423.2,252.9l-3.9-146.2 M664.7,299.4l-119,3.2 M733.4,113.4l-54.9,1.5 M731.5,197l-51.8,1.4 M746.8,103.2
		l-68.5,1.8 M684,202.6l-0.8-28.8 M560.4,283.2l-2.2-81.8 M621.9,105.2l-9.6,0.3 M444.7,341.6l-1.3-49.9 M614.9,176l-24,0.6
		 M463.1,64l-0.2-9.4 M779.4,63.6l-17.1,0.5 M732.2,180.5l-47.9,1.3 M735,181.3l-1.7-66 M620.2,208l-0.3-10.2 M526.9,250.1l-69,1.8
		 M779.8,216.5l-10.9,0.3 M591.2,181.5l-48,1.3 M642.5,196.3l-21.4,0.6 M606,86.7l-40.8,1.1 M475.1,137.9l-0.8-30.6 M525.5,219.9
		l-43.9,1.2 M528.8,247.8l-0.7-28 M439.9,106.2l-16.7,0.4 M695.2,160l-0.2-9.1 M778.2,47.9L778,36.6 M692.2,147l-0.3-13
		 M663.2,105.1l-34.6,0.9 M663.7,132.4l-0.7-25.3 M770.8,215.4l-9.3-0.4 M565.2,104.2l-0.4-14.9 M712.8,176.3l-10.4,0.3 M609,100.2
		l-0.4-15.7 M432.4,332.8l-0.5-19.5 M615.7,184l-0.2-6 M455.8,63.1l-0.2-8.9 M696.2,133.8l-11.8,0.3"/>
</g>
<g>
	<g>
		<line class="st3" x1="378.2" y1="179" x2="402.5" y2="179"/>
		<g>
			<polygon points="399.8,182.5 401.2,179 399.8,175.5 408.2,179 			"/>
		</g>
	</g>
</g>
<g>
	<g>
		<line class="st3" x1="796" y1="179" x2="820.4" y2="179"/>
		<g>
			<polygon points="817.5,182.5 819.2,179 817.5,175.5 826,179 			"/>
		</g>
	</g>
</g>
<line class="st4" x1="590.5" y1="19.7" x2="615.5" y2="19.5"/>
<text transform="matrix(1 0 0 1 565.4827 10.0439)" class="st5 st6">25 unit lengths</text>
</svg>
