<?xml version="1.0" encoding="utf-8"?>
<!-- Generator: Adobe Illustrator 24.0.3, SVG Export Plug-In . SVG Version: 6.00 Build 0)  -->
<svg version="1.1" id="Layer_1" xmlns="http://www.w3.org/2000/svg" xmlns:xlink="http://www.w3.org/1999/xlink" x="0px" y="0px"
	 width="215.5px" height="156.8px" viewBox="0 0 215.5 156.8" style="enable-background:new 0 0 215.5 156.8;" xml:space="preserve"
	>
<style type="text/css">
	.st0{fill:none;stroke:#000000;stroke-miterlimit:10;}
	.st1{display:none;}
	.st2{display:inline;}
</style>
<circle cx="3.3" cy="87" r="2.5"/>
<circle cx="95.8" cy="139.9" r="2.5"/>
<circle cx="208.9" cy="82.7" r="2.5"/>
<circle cx="89.8" cy="20.4" r="2.5"/>
<polyline class="st0" points="89.8,20.4 3.3,87 95.8,139.9 89.8,20.4 "/>
<polyline class="st0" points="95.8,139.9 208.9,82.6 89.8,20.4 "/>
<g id="Layer_2_1_">
	<g class="st1">
		<g class="st2">
			<path class="st0" d="M67.2,118.7c5.9-8.7,15.6-14.6,26.8-15.2"/>
			<g>
				<polygon points="70.5,118.4 67.7,118 66,115.7 65.1,122.3 				"/>
			</g>
		</g>
	</g>
	<g class="st1">
		<g class="st2">
			<path class="st0" d="M98.1,107.3c10,2.3,18.8,9.2,23.3,19.2"/>
			<g>
				<polygon points="99.6,110.2 99,107.5 100.5,105.1 94,106.6 				"/>
			</g>
		</g>
	</g>
	<g>
		<g>
			<path class="st0" d="M172,96.1c-3.6-9.9-2.6-21.3,3.5-30.6"/>
			<g>
				<polygon points="173.7,93.3 171.7,95.3 168.9,95.3 173.7,99.9 				"/>
			</g>
		</g>
	</g>
	<g>
		<g>
			<path class="st0" d="M29.3,72.4c5.6,8.9,7.1,20.2,3.1,30.7"/>
			<g>
				<polygon points="28.2,75.5 29.7,73.1 32.5,72.5 26.8,69 				"/>
			</g>
		</g>
	</g>
	<g class="st1">
		<g class="st2">
			<path class="st0" d="M115.9,38.8c-4.5,9.5-13.3,16.8-24.2,19.1"/>
			<g>
				<polygon points="112.7,39.6 115.5,39.5 117.5,41.5 117.5,34.9 				"/>
			</g>
		</g>
	</g>
	<g class="st1">
		<g class="st2">
			<path class="st0" d="M87.1,54.3c-10,0.9-20.2-2.8-27.3-10.7"/>
			<g>
				<polygon points="84.8,51.9 86.2,54.3 85.5,57.1 91.2,53.6 				"/>
			</g>
		</g>
	</g>
	<g>
		<g class="st1">
			<path class="st2" d="M83.8,121v1.5c-0.4-2-1.1-3.9-1.8-5.7c-0.5-1.5-0.8-2-1.4-2c-0.2,0-0.4,0-0.6,0.1l-0.2-0.5
				c0.4-0.4,0.8-0.7,1.4-0.7c0.7,0,1.3,0.3,2,2.4c0.4,1.1,0.9,2.8,1.4,5.4l0.1,0.1l0.1,3.9l-1.4,0.3l-0.2-0.2L83.8,121z M84.3,121.6
				c1.2-2.1,1.7-3.5,2.5-5.5l-0.2,1.4c-0.2-1.7-0.3-2.3-0.3-2.7c0-0.8,0.4-1.2,0.9-1.2c0.3,0,0.5,0.1,0.6,0.2
				c0.1,0.2,0.1,0.4,0.1,0.8c0,1.9-1.8,5.3-3.3,7.8L84.3,121.6z"/>
		</g>
	</g>
	<g>
		<g class="st1">
			<path class="st2" d="M99.9,127.3v-8.8c0-2.6,1.6-4.3,3.8-4.3c1.8,0,3.2,1.1,3.2,3c0,1.4-1,3.3-3.6,3.5l-0.1-0.2
				c3-0.1,4.7,1,4.7,3.4c0,2.5-1.9,3.8-3.7,3.8c-1.3,0-2.6-0.6-3.3-2.2l0.2-0.2c0.8,0.7,1.7,1.2,2.8,1.2c1.7,0,2.6-1.1,2.6-2.7
				c0-1.5-0.8-2.9-3.5-2.8l-0.2-1c1.7-0.3,2.7-1.3,2.7-2.9c0-1.4-0.7-2.3-1.9-2.3c-1.3,0-2.2,1.2-2.2,3.2v7.7l-0.1,0.3l0.3,4.5
				l-1.4,0.3l-0.2-0.2L99.9,127.3z"/>
		</g>
	</g>
	<g>
		<g class="st1">
			<path class="st2" d="M82.7,78.7v-0.8c0-1,0-1.5-0.1-2.3l-1.4-0.2v-0.6l2.4-1.1l0.3,0.2l0.2,2.3v2.6c0,1.1,0,3,0.1,3.8h-1.5
				C82.7,81.7,82.7,79.9,82.7,78.7z M81.4,81.9l2-0.4h0.4l2,0.4v0.6h-4.3L81.4,81.9L81.4,81.9z M83.5,76.3h1L84,76.4
				c0.6-1.7,1.7-2.7,2.7-2.7c0.5,0,1.1,0.3,1.3,0.6c0,0.8-0.3,1.3-1,1.3c-0.4,0-0.8-0.2-1.1-0.4l-0.5-0.4l0.9-0.2
				c-1.1,0.6-1.8,1.5-2.2,2.9h-0.7L83.5,76.3L83.5,76.3z"/>
		</g>
	</g>
	<g>
		<g>
			<path d="M20.7,89.3v-8.8c0-2.6,1.6-4.3,3.8-4.3c1.8,0,3.2,1.1,3.2,3c0,1.4-1,3.3-3.6,3.5L24,82.5c3-0.1,4.7,1,4.7,3.4
				c0,2.5-1.9,3.8-3.7,3.8c-1.3,0-2.6-0.6-3.3-2.2l0.2-0.2c0.8,0.7,1.7,1.2,2.8,1.2c1.7,0,2.6-1.1,2.6-2.7c0-1.5-0.8-2.9-3.5-2.8
				l-0.2-1c1.7-0.3,2.7-1.3,2.7-2.9c0-1.4-0.7-2.3-1.9-2.3c-1.3,0-2.2,1.2-2.2,3.2v7.7L22.1,88l0.3,4.5L21,92.8l-0.2-0.2L20.7,89.3z
				"/>
		</g>
	</g>
	<g>
		<g>
			<path d="M181.5,84.2v1.5c-0.4-2-1.1-3.9-1.8-5.7c-0.5-1.5-0.8-2-1.4-2c-0.2,0-0.4,0-0.6,0.1l-0.2-0.5c0.4-0.4,0.8-0.7,1.4-0.7
				c0.7,0,1.3,0.3,2,2.4c0.4,1.1,0.9,2.8,1.4,5.4l0.1,0.1l0.1,3.9l-1.4,0.3l-0.2-0.2L181.5,84.2z M182,84.8c1.2-2.1,1.7-3.5,2.5-5.5
				l-0.2,1.4c-0.2-1.7-0.3-2.3-0.3-2.7c0-0.8,0.4-1.2,0.9-1.2c0.3,0,0.5,0.1,0.6,0.2c0.1,0.2,0.1,0.4,0.1,0.8c0,1.9-1.8,5.3-3.3,7.8
				L182,84.8z"/>
		</g>
	</g>
</g>
<g>
	<g>
		<path d="M86.9,8c0.9,0,1.5-0.4,2.4-1.5L89.5,7c-0.8,1.4-1.7,2-2.9,2c-2.2,0-3.7-1.8-3.7-4.4c0-2.7,1.6-4.6,3.8-4.6
			c1,0,2,0.4,2.9,1.8l-0.2,0.5c-1-1-1.8-1.3-2.4-1.3c-1.4,0-2.5,1.1-2.5,3.6C84.4,6.9,85.4,8,86.9,8z M90,12.1l2,0.4v0.6h-4.6v-0.6
			l2.2-0.4H90z M90.5,13.1H89c0-1.3,0.1-2.6,0.1-3.8V7.5L89,7.2V1.3L90.2,0l0.3,0.2l-0.1,2.4v6.7C90.5,10.5,90.5,11.8,90.5,13.1z"/>
	</g>
</g>
<g>
	<g>
		<path d="M3.9,104.5c0.4,0,0.8-0.2,1.2-0.5l0.4,0.5c-0.5,0.6-1.2,0.9-2.1,0.9c-1.2,0-2-0.6-2-2c0-0.4,0-0.8,0-1.5v-4.3H0v-0.8
			l2.2-0.3l-0.7,0.6L2,94.2h1l-0.1,3.2v5.8C2.9,104.1,3.3,104.5,3.9,104.5z M5.4,96.6v0.9H2.2v-0.9H5.4z"/>
	</g>
</g>
<g>
	<g>
		<path d="M94.5,152.9v-0.8c0-1,0-1.5-0.1-2.3l-1.4-0.2V149l2.4-1.1l0.3,0.2l0.2,2.3v2.6c0,1.1,0,3,0.1,3.8h-1.5
			C94.4,155.9,94.5,154,94.5,152.9z M93.1,156.1l2-0.4h0.4l2,0.4v0.6h-4.3L93.1,156.1L93.1,156.1z M95.2,150.5h1l-0.5,0.1
			c0.6-1.7,1.7-2.7,2.7-2.7c0.5,0,1.1,0.3,1.3,0.6c0,0.8-0.3,1.3-1,1.3c-0.4,0-0.8-0.2-1.1-0.4l-0.5-0.4l0.9-0.2
			c-1.1,0.6-1.8,1.5-2.2,2.9h-0.7L95.2,150.5L95.2,150.5z"/>
	</g>
</g>
<g>
	<g>
		<path d="M211.2,103v0.6h-4.6V103l2-0.4h0.4L211.2,103z M208.1,94.7c0-1,0-1.5-0.1-2.3l-1.4-0.2v-0.6l2.4-1.1l0.3,0.2l0.1,1.5h0.1
			v5.6l-0.1,0.1v1.8c0,1.3,0,2.6,0.1,3.8H208c0-1.3,0.1-2.5,0.1-3.8L208.1,94.7L208.1,94.7z M211.8,91.5c-0.7,0-1.6,0.3-2.9,1.6
			l-0.2-0.3c1-1.6,2.2-2.3,3.4-2.3c1.9,0,3.4,1.7,3.4,4.5s-1.6,4.5-3.7,4.5c-1.1,0-2.2-0.5-3.2-2.4l0.2-0.3c0.9,1.2,1.8,1.7,2.7,1.7
			c1.4,0,2.5-1.1,2.5-3.4C214,92.8,213.1,91.5,211.8,91.5z"/>
	</g>
</g>
</svg>
