<?xml version="1.0" encoding="utf-8"?>
<!-- Generator: Adobe Illustrator 24.0.3, SVG Export Plug-In . SVG Version: 6.00 Build 0)  -->
<svg version="1.1" id="Layer_1" xmlns="http://www.w3.org/2000/svg" xmlns:xlink="http://www.w3.org/1999/xlink" x="0px" y="0px"
	 width="494.5px" height="157.4px" viewBox="0 0 494.5 157.4" style="enable-background:new 0 0 494.5 157.4;" xml:space="preserve"
	>
<style type="text/css">
	.st0{fill:none;stroke:#000000;stroke-miterlimit:10;}
	.st1{display:none;}
	.st2{display:inline;}
</style>
<circle cx="3.3" cy="87.7" r="2.5"/>
<circle cx="95.8" cy="140.6" r="2.5"/>
<circle cx="208.9" cy="83.4" r="2.5"/>
<circle cx="89.8" cy="21.1" r="2.5"/>
<polyline class="st0" points="89.8,21.1 3.3,87.7 95.8,140.6 89.8,21.1 "/>
<polyline class="st0" points="95.8,140.6 208.9,83.3 89.8,21.1 "/>
<g class="st1">
	<g class="st2">
		<path class="st0" d="M67.2,119.4c5.9-8.7,15.6-14.6,26.8-15.2"/>
		<g>
			<polygon points="70.5,119.1 67.7,118.7 66,116.4 65.1,123 			"/>
		</g>
	</g>
</g>
<g class="st1">
	<g class="st2">
		<path class="st0" d="M98.1,108c10,2.3,18.8,9.2,23.3,19.2"/>
		<g>
			<polygon points="99.6,110.9 99,108.2 100.5,105.8 94,107.3 			"/>
		</g>
	</g>
</g>
<g class="st1">
	<g class="st2">
		<path class="st0" d="M172,96.8c-3.6-9.9-2.6-21.3,3.5-30.6"/>
		<g>
			<polygon points="173.7,94 171.7,96 168.9,96 173.7,100.6 			"/>
		</g>
	</g>
</g>
<g class="st1">
	<g class="st2">
		<path class="st0" d="M29.3,73.1c5.6,8.9,7.1,20.2,3.1,30.7"/>
		<g>
			<polygon points="28.2,76.2 29.7,73.8 32.5,73.2 26.8,69.7 			"/>
		</g>
	</g>
</g>
<g class="st1">
	<g class="st2">
		<path class="st0" d="M115.9,39.5c-4.5,9.5-13.3,16.8-24.2,19.1"/>
		<g>
			<polygon points="112.7,40.3 115.5,40.2 117.5,42.2 117.5,35.6 			"/>
		</g>
	</g>
</g>
<g class="st1">
	<g class="st2">
		<path class="st0" d="M87.1,55c-10,0.9-20.2-2.8-27.3-10.7"/>
		<g>
			<polygon points="84.8,52.6 86.2,55 85.5,57.8 91.2,54.3 			"/>
		</g>
	</g>
</g>
<g>
	<g class="st1">
		<path class="st2" d="M83.8,121.7v1.5c-0.4-2-1.1-3.9-1.8-5.7c-0.5-1.5-0.8-2-1.4-2c-0.2,0-0.4,0-0.6,0.1l-0.2-0.5
			c0.4-0.4,0.8-0.7,1.4-0.7c0.7,0,1.3,0.3,2,2.4c0.4,1.1,0.9,2.8,1.4,5.4l0.1,0.1l0.1,3.9l-1.4,0.3l-0.2-0.2L83.8,121.7z
			 M84.3,122.3c1.2-2.1,1.7-3.5,2.5-5.5l-0.2,1.4c-0.2-1.7-0.3-2.3-0.3-2.7c0-0.8,0.4-1.2,0.9-1.2c0.3,0,0.5,0.1,0.6,0.2
			c0.1,0.2,0.1,0.4,0.1,0.8c0,1.9-1.8,5.3-3.3,7.8L84.3,122.3z"/>
	</g>
</g>
<g>
	<g class="st1">
		<path class="st2" d="M99.9,128v-8.8c0-2.6,1.6-4.3,3.8-4.3c1.8,0,3.2,1.1,3.2,3c0,1.4-1,3.3-3.6,3.5l-0.1-0.2c3-0.1,4.7,1,4.7,3.4
			c0,2.5-1.9,3.8-3.7,3.8c-1.3,0-2.6-0.6-3.3-2.2l0.2-0.2c0.8,0.7,1.7,1.2,2.8,1.2c1.7,0,2.6-1.1,2.6-2.7c0-1.5-0.8-2.9-3.5-2.8
			l-0.2-1c1.7-0.3,2.7-1.3,2.7-2.9c0-1.4-0.7-2.3-1.9-2.3c-1.3,0-2.2,1.2-2.2,3.2v7.7l-0.1,0.3l0.3,4.5l-1.4,0.3l-0.2-0.2L99.9,128z
			"/>
	</g>
</g>
<g>
	<g class="st1">
		<path class="st2" d="M20.7,90v-8.8c0-2.6,1.6-4.3,3.8-4.3c1.8,0,3.2,1.1,3.2,3c0,1.4-1,3.3-3.6,3.5L24,83.2c3-0.1,4.7,1,4.7,3.4
			c0,2.5-1.9,3.8-3.7,3.8c-1.3,0-2.6-0.6-3.3-2.2l0.2-0.2c0.8,0.7,1.7,1.2,2.8,1.2c1.7,0,2.6-1.1,2.6-2.7c0-1.5-0.8-2.9-3.5-2.8
			l-0.2-1c1.7-0.3,2.7-1.3,2.7-2.9c0-1.4-0.7-2.3-1.9-2.3c-1.3,0-2.2,1.2-2.2,3.2v7.7l-0.1,0.3l0.3,4.5L21,93.5l-0.2-0.2L20.7,90z"
			/>
	</g>
</g>
<g>
	<g class="st1">
		<path class="st2" d="M181.5,84.9v1.5c-0.4-2-1.1-3.9-1.8-5.7c-0.5-1.5-0.8-2-1.4-2c-0.2,0-0.4,0-0.6,0.1l-0.2-0.5
			c0.4-0.4,0.8-0.7,1.4-0.7c0.7,0,1.3,0.3,2,2.4c0.4,1.1,0.9,2.8,1.4,5.4l0.1,0.1l0.1,3.9l-1.4,0.3l-0.2-0.2L181.5,84.9z M182,85.5
			c1.2-2.1,1.7-3.5,2.5-5.5l-0.2,1.4c-0.2-1.7-0.3-2.3-0.3-2.7c0-0.8,0.4-1.2,0.9-1.2c0.3,0,0.5,0.1,0.6,0.2
			c0.1,0.2,0.1,0.4,0.1,0.8c0,1.9-1.8,5.3-3.3,7.8L182,85.5z"/>
	</g>
</g>
<circle cx="283" cy="88.3" r="2.5"/>
<circle cx="375.5" cy="141.2" r="2.5"/>
<circle cx="488.5" cy="84" r="2.5"/>
<circle cx="369.4" cy="21.6" r="2.5"/>
<line class="st0" x1="369.4" y1="21.6" x2="283" y2="88.3"/>
<line class="st0" x1="488.5" y1="83.9" x2="369.4" y2="21.6"/>
<polygon class="st0" points="375.5,141.2 283,88.3 488.5,83.9 "/>
<g>
	<g>
		<path d="M366.7,54.4v-0.7h2.5v1H369L366.7,54.4z M369.2,64.8v1h-2.5V65l2.3-0.3h0.2V64.8z M368.4,59.3c0-1.9,0-3.7-0.1-5.6h1.7
			c-0.1,1.8-0.1,3.7-0.1,5.6v0.6c0,2.1,0,4,0.1,5.9h-1.7c0.1-1.8,0.1-3.7,0.1-5.6V59.3z M369.2,59.1h1.8c2.2,0,3.2-0.7,3.2-2.4
			s-1-2.2-2.8-2.2h-2.2v-0.8h2.7c2.5,0,3.9,1.2,3.9,3c0,1.4-1,2.6-3.4,2.9v-0.2c2.8,0.2,4,1.5,4,3c0,1.6-1.4,3.3-4.8,3.3h-2.4v-0.8
			h2c2.3,0,3.5-0.9,3.5-2.5c0-1.7-1.1-2.5-3.6-2.5h-1.9L369.2,59.1L369.2,59.1z"/>
	</g>
</g>
<g>
	<g class="st1">
		<path class="st2" d="M379.6,113.1v1l-1.1,0.3l0.5-2.7h1.1l-0.1,2.6c-1.1,0.6-2.4,0.9-3.6,0.9c-3.6,0-6.1-2.6-6.1-6.3
			c0-3.6,2.6-6.3,6.1-6.3c1,0,2.3,0.2,3.5,0.9l0.1,2.6h-1.1l-0.5-2.7l1.1,0.3v1.1c-1-1-2-1.3-2.9-1.3c-2.4,0-4.4,1.9-4.4,5.4
			s1.8,5.4,4.3,5.4C377.4,114.2,378.6,113.9,379.6,113.1z"/>
	</g>
</g>
<g>
	<g>
		<path d="M87.3,8c0.9,0,1.5-0.4,2.4-1.5L89.9,7c-0.8,1.4-1.7,2-2.9,2c-2.2,0-3.7-1.8-3.7-4.4c0-2.7,1.6-4.6,3.8-4.6
			c1,0,2,0.4,2.9,1.8l-0.2,0.5c-1-1-1.8-1.3-2.4-1.3c-1.4,0-2.5,1.1-2.5,3.6C84.8,6.9,85.8,8,87.3,8z M90.4,12.1l2,0.4v0.6h-4.6
			v-0.6l2.2-0.4H90.4z M90.9,13.1h-1.5c0-1.3,0.1-2.6,0.1-3.8V7.5l-0.1-0.3V1.3L90.6,0l0.3,0.2l-0.1,2.4v6.7
			C90.9,10.5,90.9,11.8,90.9,13.1z"/>
	</g>
</g>
<g>
	<g>
		<path d="M366.6,8c0.9,0,1.5-0.4,2.4-1.5l0.2,0.5c-0.8,1.4-1.7,2-2.9,2c-2.2,0-3.7-1.8-3.7-4.4c0-2.7,1.6-4.6,3.8-4.6
			c1,0,2,0.4,2.9,1.8l-0.2,0.5c-1-1-1.8-1.3-2.4-1.3c-1.4,0-2.5,1.1-2.5,3.6C364.1,6.9,365.2,8,366.6,8z M369.7,12.1l2,0.4v0.6h-4.6
			v-0.6l2.2-0.4H369.7z M370.3,13.1h-1.5c0-1.3,0.1-2.6,0.1-3.8V7.5l-0.1-0.3V1.3L370,0l0.3,0.2l-0.1,2.4v6.7
			C370.2,10.5,370.2,11.8,370.3,13.1z"/>
	</g>
</g>
<g>
	<g>
		<path d="M3.9,106.5c0.4,0,0.8-0.2,1.2-0.5l0.4,0.5c-0.5,0.6-1.2,0.9-2.1,0.9c-1.2,0-2-0.6-2-2c0-0.4,0-0.8,0-1.5v-4.3H0v-0.8
			l2.2-0.3l-0.7,0.6L2,96.2h1l-0.1,3.2v5.8C2.9,106.1,3.3,106.5,3.9,106.5z M5.4,98.7v0.9H2.2v-0.9H5.4z"/>
	</g>
</g>
<g>
	<g>
		<path d="M283.6,106.5c0.4,0,0.8-0.2,1.2-0.5l0.4,0.5c-0.5,0.6-1.2,0.9-2.1,0.9c-1.2,0-2-0.6-2-2c0-0.4,0-0.8,0-1.5v-4.3h-1.5v-0.8
			l2.2-0.3l-0.7,0.6l0.5-2.9h1l-0.1,3.2v5.8C282.6,106.1,283,106.5,283.6,106.5z M285.1,98.7v0.9h-3.2v-0.9H285.1z"/>
	</g>
</g>
<g>
	<g>
		<path d="M93.9,153.5v-0.8c0-1,0-1.5-0.1-2.3l-1.4-0.2v-0.6l2.4-1.1l0.3,0.2l0.2,2.3v2.6c0,1.1,0,3,0.1,3.8h-1.5
			C93.9,156.5,93.9,154.6,93.9,153.5z M92.6,156.7l2-0.4H95l2,0.4v0.6h-4.3L92.6,156.7L92.6,156.7z M94.6,151.1h1l-0.5,0.1
			c0.6-1.7,1.7-2.7,2.7-2.7c0.5,0,1.1,0.3,1.3,0.6c0,0.8-0.3,1.3-1,1.3c-0.4,0-0.8-0.2-1.1-0.4l-0.5-0.4l0.9-0.2
			c-1.1,0.6-1.8,1.5-2.2,2.9h-0.7L94.6,151.1L94.6,151.1z"/>
	</g>
</g>
<g>
	<g>
		<path d="M374,153.5v-0.8c0-1,0-1.5-0.1-2.3l-1.4-0.2v-0.6l2.4-1.1l0.3,0.2l0.2,2.3v2.6c0,1.1,0,3,0.1,3.8H374
			C374,156.5,374,154.6,374,153.5z M372.7,156.7l2-0.4h0.4l2,0.4v0.6h-4.3v-0.6H372.7z M374.7,151.1h1l-0.5,0.1
			c0.6-1.7,1.7-2.7,2.7-2.7c0.5,0,1.1,0.3,1.3,0.6c0,0.8-0.3,1.3-1,1.3c-0.4,0-0.8-0.2-1.1-0.4l-0.5-0.4l0.9-0.2
			c-1.1,0.6-1.8,1.5-2.2,2.9h-0.7v-1.2H374.7z"/>
	</g>
</g>
<g>
	<g>
		<path d="M210.6,103.5v0.6H206v-0.6l2-0.4h0.4L210.6,103.5z M207.5,95.2c0-1,0-1.5-0.1-2.3l-1.4-0.2v-0.6l2.4-1.1l0.3,0.2l0.1,1.5
			h0.1v5.6l-0.1,0.1v1.8c0,1.3,0,2.6,0.1,3.8h-1.5c0-1.3,0.1-2.5,0.1-3.8L207.5,95.2L207.5,95.2z M211.2,92c-0.7,0-1.6,0.3-2.9,1.6
			l-0.2-0.3c1-1.6,2.2-2.3,3.4-2.3c1.9,0,3.4,1.7,3.4,4.5s-1.6,4.5-3.7,4.5c-1.1,0-2.2-0.5-3.2-2.4l0.2-0.3c0.9,1.2,1.8,1.7,2.7,1.7
			c1.4,0,2.5-1.1,2.5-3.4C213.5,93.4,212.5,92,211.2,92z"/>
	</g>
</g>
<g>
	<g>
		<path d="M490.2,103.5v0.6h-4.6v-0.6l2-0.4h0.4L490.2,103.5z M487.1,95.2c0-1,0-1.5-0.1-2.3l-1.4-0.2v-0.6L488,91l0.3,0.2l0.1,1.5
			h0.1v5.6l-0.1,0.1v1.8c0,1.3,0,2.6,0.1,3.8H487c0-1.3,0.1-2.5,0.1-3.8V95.2z M490.8,92c-0.7,0-1.6,0.3-2.9,1.6l-0.2-0.3
			c1-1.6,2.2-2.3,3.4-2.3c1.9,0,3.4,1.7,3.4,4.5s-1.6,4.5-3.7,4.5c-1.1,0-2.2-0.5-3.2-2.4l0.2-0.3c0.9,1.2,1.8,1.7,2.7,1.7
			c1.4,0,2.5-1.1,2.5-3.4C493.1,93.4,492.1,92,490.8,92z"/>
	</g>
</g>
<g>
	<g>
		<path d="M33.1,50c0.9,0,1.5-0.4,2.4-1.5l0.2,0.5c-0.7,1.2-1.5,2-2.9,2c-2.2,0-3.7-1.8-3.7-4.4c0-2.7,1.6-4.6,3.8-4.6
			c1,0,1.9,0.4,2.8,1.8l-0.2,0.5c-1-1-1.8-1.3-2.4-1.3c-1.4,0-2.5,1.1-2.5,3.5C30.6,49,31.6,50,33.1,50z M38.1,50.2v0.6L35.3,51
			l-0.2-1.8v-5.3l0.1-0.2v-4.5L33.7,39v-0.6l2.8-0.8l0.3,0.1l-0.1,2.6v10.6L36.4,50L38.1,50.2z"/>
		<path d="M44,50.3v0.5h-4.5v-0.5l1.7-0.3h1.1L44,50.3z M42.3,43.5l0.2,0.1v7.1h-1.2v-6.1l-1.5,0.2v-0.6L42.3,43.5z"/>
	</g>
</g>
<g>
	<g>
		<path d="M103.2,81.7c0.9,0,1.5-0.4,2.4-1.5l0.2,0.5c-0.7,1.2-1.5,2-2.9,2c-2.2,0-3.7-1.8-3.7-4.4c0-2.7,1.6-4.6,3.8-4.6
			c1,0,1.9,0.4,2.8,1.8l-0.2,0.5c-1-1-1.8-1.3-2.4-1.3c-1.4,0-2.5,1.1-2.5,3.5C100.7,80.6,101.7,81.7,103.2,81.7z M108.2,81.8v0.6
			l-2.8,0.2l-0.2-1.8v-5.3l0.1-0.2v-4.6l-1.5-0.2v-0.6l2.8-0.8l0.3,0.1l-0.1,2.6v10.6l-0.3-0.9L108.2,81.8z"/>
	</g>
</g>
<g>
	<g>
		<path d="M159,49c0.9,0,1.5-0.4,2.4-1.5l0.2,0.5c-0.7,1.2-1.5,2-2.9,2c-2.2,0-3.7-1.8-3.7-4.4c0-2.7,1.6-4.6,3.8-4.6
			c1,0,1.9,0.4,2.8,1.8l-0.2,0.5c-1-1-1.8-1.3-2.4-1.3c-1.4,0-2.5,1.1-2.5,3.5C156.4,48,157.5,49,159,49z M164,49.2v0.6l-2.8,0.2
			l-0.2-1.8v-5.3l0.1-0.2v-4.5l-1.5-0.2v-0.6l2.8-0.8l0.3,0.1l-0.1,2.6v10.6l-0.3-0.9L164,49.2z"/>
		<path d="M165.2,48.9l1.7-1.6c1.1-1,1.6-1.9,1.6-2.8c0-0.9-0.5-1.4-1.4-1.4c-0.3,0-0.7,0.1-1.1,0.2l0.7-0.5l-0.3,1
			c-0.2,0.7-0.4,0.9-0.7,0.9s-0.5-0.2-0.6-0.4c0.1-1.2,1.2-1.8,2.5-1.8c1.6,0,2.2,0.9,2.2,1.9s-0.7,1.8-2.3,3.3l-1.7,1.6l0.3-0.7h4
			v1.2h-4.8L165.2,48.9L165.2,48.9z"/>
	</g>
</g>
<g>
	<g>
		<path d="M54.2,87.6l1.8-0.3h0.4l2,0.3v0.7h-4.1v-0.7H54.2z M59.6,76.2h1.1l4.1,12.1h-1.7l-3.6-10.8h0.4l-3.7,10.8h-0.8L59.6,76.2z
			 M57.5,83.6h4.9l0.3,0.8h-5.4L57.5,83.6z M61.1,87.6l2.3-0.3h0.4l2.2,0.3v0.7h-4.9C61.1,88.3,61.1,87.6,61.1,87.6z"/>
		<path d="M71.7,87.8v0.5h-4.5v-0.5l1.7-0.3H70L71.7,87.8z M70,81.1l0.2,0.1v7.1H69v-6.1l-1.4,0.1v-0.6L70,81.1z"/>
	</g>
</g>
<g>
	<g>
		<path d="M125.4,85.8l1.8-0.3h0.4l2,0.3v0.7h-4.1v-0.7H125.4z M130.7,74.4h1.1l4.1,12.2h-1.7l-3.6-10.8h0.4l-3.7,10.8h-0.8
			L130.7,74.4z M128.6,81.8h4.9l0.3,0.8h-5.4L128.6,81.8z M132.2,85.8l2.3-0.3h0.4l2.2,0.3v0.7h-4.9V85.8z"/>
		<path d="M138.2,85.7l1.7-1.6c1.1-1,1.6-1.9,1.6-2.8s-0.5-1.4-1.4-1.4c-0.3,0-0.7,0.1-1.1,0.2l0.7-0.5l-0.3,1
			c-0.2,0.7-0.4,0.9-0.7,0.9s-0.5-0.2-0.6-0.4c0.1-1.2,1.2-1.8,2.5-1.8c1.6,0,2.2,0.9,2.2,1.9s-0.7,1.8-2.3,3.3l-1.7,1.6l0.3-0.7h4
			v1.2h-4.8L138.2,85.7L138.2,85.7z"/>
	</g>
</g>
</svg>
