<?xml version="1.0" encoding="utf-8"?>
<!-- Generator: Adobe Illustrator 24.0.3, SVG Export Plug-In . SVG Version: 6.00 Build 0)  -->
<svg version="1.1" id="Layer_1" xmlns="http://www.w3.org/2000/svg" xmlns:xlink="http://www.w3.org/1999/xlink" x="0px" y="0px"
	 width="214.9px" height="158.1px" viewBox="0 0 214.9 158.1" style="enable-background:new 0 0 214.9 158.1;" xml:space="preserve"
	>
<style type="text/css">
	.st0{fill:none;stroke:#000000;stroke-miterlimit:10;}
</style>
<circle cx="3.3" cy="88.3" r="2.5"/>
<circle cx="95.8" cy="141.2" r="2.5"/>
<circle cx="208.9" cy="84" r="2.5"/>
<circle cx="89.8" cy="21.7" r="2.5"/>
<line class="st0" x1="95.8" y1="141.2" x2="89.8" y2="21.7"/>
<g>
	<g>
		<path d="M87.5,8c0.9,0,1.5-0.4,2.4-1.5L90.1,7c-0.8,1.4-1.7,2-2.9,2c-2.2,0-3.7-1.8-3.7-4.4c0-2.7,1.6-4.6,3.8-4.6
			c1,0,2,0.4,2.9,1.8L90,2.3c-1-1-1.8-1.3-2.4-1.3c-1.4,0-2.5,1.1-2.5,3.6C85,6.9,86.1,8,87.5,8z M90.6,12.1l2,0.4v0.6H88v-0.6
			l2.2-0.4H90.6z M91.2,13.1h-1.5c0-1.3,0.1-2.6,0.1-3.8V7.5l-0.1-0.3V1.3L90.9,0l0.3,0.2l-0.1,2.4v6.7
			C91.1,10.5,91.1,11.8,91.2,13.1z"/>
	</g>
</g>
<g>
	<g>
		<path d="M3.9,106.4c0.4,0,0.8-0.2,1.2-0.5l0.4,0.5c-0.5,0.6-1.2,0.9-2.1,0.9c-1.2,0-2-0.6-2-2c0-0.4,0-0.8,0-1.5v-4.3H0v-0.8
			l2.2-0.3L1.5,99L2,96.1h1l-0.1,3.2v5.8C2.9,106,3.3,106.4,3.9,106.4z M5.4,98.5v0.9H2.2v-0.9H5.4z"/>
	</g>
</g>
<g>
	<g>
		<path d="M210.6,104.7v0.6H206v-0.6l2-0.4h0.4L210.6,104.7z M207.5,96.4c0-1,0-1.5-0.1-2.3l-1.4-0.2v-0.6l2.4-1.1l0.3,0.2l0.1,1.5
			h0.1v5.6l-0.1,0.1v1.8c0,1.3,0,2.6,0.1,3.8h-1.5c0-1.3,0.1-2.5,0.1-3.8L207.5,96.4L207.5,96.4z M211.2,93.3
			c-0.7,0-1.6,0.3-2.9,1.6l-0.2-0.3c1-1.6,2.2-2.3,3.4-2.3c1.9,0,3.4,1.7,3.4,4.5s-1.6,4.5-3.7,4.5c-1.1,0-2.2-0.5-3.2-2.4l0.2-0.3
			c0.9,1.2,1.8,1.7,2.7,1.7c1.4,0,2.5-1.1,2.5-3.4C213.5,94.6,212.5,93.3,211.2,93.3z"/>
	</g>
</g>
<g>
	<g>
		<path d="M94.4,154.2v-0.8c0-1,0-1.5-0.1-2.3l-1.4-0.2v-0.6l2.4-1.1l0.3,0.2l0.2,2.3v2.6c0,1.1,0,3,0.1,3.8h-1.5
			C94.4,157.2,94.4,155.3,94.4,154.2z M93.1,157.4l2-0.4h0.4l2,0.4v0.6h-4.3L93.1,157.4L93.1,157.4z M95.1,151.8h1l-0.5,0.1
			c0.6-1.7,1.7-2.7,2.7-2.7c0.5,0,1.1,0.3,1.3,0.6c0,0.8-0.3,1.3-1,1.3c-0.4,0-0.8-0.2-1.1-0.4l-0.5-0.4l0.9-0.2
			c-1.1,0.6-1.8,1.5-2.2,2.9H95L95.1,151.8L95.1,151.8z"/>
	</g>
</g>
<g>
	<g>
		<path d="M103.2,86.5c0.9,0,1.5-0.4,2.4-1.5l0.2,0.5c-0.7,1.2-1.5,2-2.9,2c-2.2,0-3.7-1.8-3.7-4.4c0-2.7,1.6-4.6,3.8-4.6
			c1,0,1.9,0.4,2.8,1.8l-0.2,0.5c-1-1-1.8-1.3-2.4-1.3c-1.4,0-2.5,1.1-2.5,3.5C100.7,85.5,101.7,86.5,103.2,86.5z M108.2,86.7v0.6
			l-2.8,0.2l-0.2-1.8v-5.3l0.1-0.2v-4.5l-1.5-0.2v-0.6l2.8-0.8l0.3,0.1l-0.1,2.6v10.6l-0.3-0.9L108.2,86.7z"/>
	</g>
</g>
<path class="st0" d="M3.3,88.3"/>
</svg>
