<?xml version="1.0" encoding="utf-8"?>
<!-- Generator: Adobe Illustrator 24.0.3, SVG Export Plug-In . SVG Version: 6.00 Build 0)  -->
<svg version="1.1" id="Layer_1" xmlns="http://www.w3.org/2000/svg" xmlns:xlink="http://www.w3.org/1999/xlink" x="0px" y="0px"
	 width="214.2px" height="155.6px" viewBox="0 0 214.2 155.6" style="enable-background:new 0 0 214.2 155.6;" xml:space="preserve"
	>
<style type="text/css">
	.st0{fill:none;stroke:#000000;stroke-miterlimit:10;}
</style>
<circle cx="3.3" cy="86.8" r="2.5"/>
<circle cx="95.8" cy="139.7" r="2.5"/>
<circle cx="208.9" cy="82.5" r="2.5"/>
<circle cx="89.8" cy="20.2" r="2.5"/>
<line class="st0" x1="89.8" y1="20.2" x2="3.3" y2="86.8"/>
<line class="st0" x1="95.8" y1="139.7" x2="89.8" y2="20.2"/>
<line class="st0" x1="208.9" y1="82.4" x2="89.8" y2="20.2"/>
<g>
	<g>
		<path d="M86.2,8c0.9,0,1.5-0.4,2.4-1.5L88.8,7c-0.8,1.4-1.7,2-2.9,2c-2.2,0-3.7-1.8-3.7-4.4C82.2,1.9,83.8,0,86,0
			c1,0,2,0.4,2.9,1.8l-0.2,0.5c-1-1-1.8-1.3-2.4-1.3c-1.4,0-2.5,1.1-2.5,3.6C83.7,6.9,84.8,8,86.2,8z M89.3,12.1l2,0.4v0.6h-4.6
			v-0.6l2.2-0.4H89.3z M89.9,13.1h-1.5c0-1.3,0.1-2.6,0.1-3.8V7.5l-0.1-0.3V1.3L89.6,0l0.3,0.2l-0.1,2.4v6.7
			C89.8,10.5,89.8,11.8,89.9,13.1z"/>
	</g>
</g>
<g>
	<g>
		<path d="M3.9,104.4c0.4,0,0.8-0.2,1.2-0.5l0.4,0.5c-0.5,0.6-1.2,0.9-2.1,0.9c-1.2,0-2-0.6-2-2c0-0.4,0-0.8,0-1.5v-4.3H0v-0.8
			l2.2-0.3L1.5,97L2,94.1h1l-0.1,3.2v5.8C2.9,104,3.3,104.4,3.9,104.4z M5.4,96.6v0.9H2.2v-0.9H5.4z"/>
	</g>
</g>
<g>
	<g>
		<path d="M94.4,151.7v-0.8c0-1,0-1.5-0.1-2.3l-1.4-0.2v-0.6l2.4-1.1l0.3,0.2l0.2,2.3v2.6c0,1.1,0,3,0.1,3.8h-1.5
			C94.4,154.6,94.4,152.8,94.4,151.7z M93.1,154.8l2-0.4h0.4l2,0.4v0.6h-4.3L93.1,154.8L93.1,154.8z M95.1,149.2h1l-0.5,0.1
			c0.6-1.7,1.7-2.7,2.7-2.7c0.5,0,1.1,0.3,1.3,0.6c0,0.8-0.3,1.3-1,1.3c-0.4,0-0.8-0.2-1.1-0.4l-0.5-0.4l0.9-0.2
			c-1.1,0.6-1.8,1.5-2.2,2.9H95L95.1,149.2L95.1,149.2z"/>
	</g>
</g>
<g>
	<g>
		<path d="M209.9,101.7v0.6h-4.6v-0.6l2-0.4h0.4L209.9,101.7z M206.8,93.4c0-1,0-1.5-0.1-2.3l-1.4-0.2v-0.6l2.4-1.1l0.3,0.2l0.1,1.5
			h0.1v5.6l-0.1,0.1v1.8c0,1.3,0,2.6,0.1,3.8h-1.5c0-1.3,0.1-2.5,0.1-3.8L206.8,93.4L206.8,93.4z M210.5,90.3
			c-0.7,0-1.6,0.3-2.9,1.6l-0.2-0.3c1-1.6,2.2-2.3,3.4-2.3c1.9,0,3.4,1.7,3.4,4.5s-1.6,4.5-3.7,4.5c-1.1,0-2.2-0.5-3.2-2.4l0.2-0.3
			c0.9,1.2,1.8,1.7,2.7,1.7c1.4,0,2.5-1.1,2.5-3.4C212.7,91.6,211.8,90.3,210.5,90.3z"/>
	</g>
</g>
<g>
	<g>
		<path d="M33.5,48.3c0.9,0,1.5-0.4,2.4-1.5l0.2,0.5c-0.7,1.2-1.5,2-2.9,2c-2.2,0-3.7-1.8-3.7-4.4c0-2.7,1.6-4.6,3.8-4.6
			c1,0,1.9,0.4,2.8,1.8l-0.2,0.5c-1-1-1.8-1.3-2.4-1.3c-1.4,0-2.5,1.1-2.5,3.5C31,47.2,32.1,48.3,33.5,48.3z M38.5,48.4V49l-2.7,0.2
			l-0.2-1.8v-5.3l0.1-0.2v-4.5l-1.5-0.2v-0.6l2.8-0.8l0.3,0.1l-0.1,2.6v10.6l-0.3-0.9L38.5,48.4z"/>
		<path d="M44.4,48.5V49h-4.5v-0.5l1.7-0.3h1.2L44.4,48.5z M42.7,41.8l0.2,0.1V49h-1.2v-6.1L40.3,43v-0.6L42.7,41.8z"/>
	</g>
</g>
<g>
	<g>
		<path d="M103.2,88.5c0.9,0,1.5-0.4,2.4-1.5l0.2,0.5c-0.7,1.2-1.5,2-2.9,2c-2.2,0-3.7-1.8-3.7-4.4c0-2.7,1.6-4.6,3.8-4.6
			c1,0,1.9,0.4,2.8,1.8l-0.2,0.5c-1-1-1.8-1.3-2.4-1.3c-1.4,0-2.5,1.1-2.5,3.5C100.7,87.4,101.7,88.5,103.2,88.5z M108.2,88.7v0.6
			l-2.8,0.2l-0.2-1.8v-5.3l0.1-0.2v-4.5l-1.5-0.2v-0.6l2.8-0.8l0.3,0.1l-0.1,2.6v10.6l-0.3-0.9L108.2,88.7z"/>
	</g>
</g>
<g>
	<g>
		<path d="M155.2,47.3c0.9,0,1.5-0.4,2.4-1.5l0.2,0.5c-0.7,1.2-1.5,2-2.9,2c-2.2,0-3.7-1.8-3.7-4.4c0-2.7,1.6-4.6,3.8-4.6
			c1,0,1.9,0.4,2.8,1.8l-0.2,0.5c-1-1-1.8-1.3-2.4-1.3c-1.3,0-2.5,1.1-2.5,3.5C152.7,46.2,153.8,47.3,155.2,47.3z M160.3,47.4V48
			l-2.8,0.2l-0.2-1.8v-5.3l0.1-0.2v-4.5l-1.5-0.2v-0.6l2.8-0.8l0.3,0.1l-0.1,2.6v10.6l-0.3-0.9L160.3,47.4z"/>
		<path d="M161.5,47.2l1.7-1.6c1.1-1,1.6-1.9,1.6-2.8c0-0.9-0.5-1.4-1.4-1.4c-0.3,0-0.7,0.1-1.1,0.2l0.7-0.5l-0.3,1
			c-0.2,0.7-0.4,0.9-0.7,0.9s-0.5-0.2-0.6-0.4c0.1-1.2,1.2-1.8,2.5-1.8c1.6,0,2.2,0.9,2.2,1.9s-0.7,1.8-2.3,3.3l-1.7,1.6l0.3-0.7h4
			v1.2h-4.8L161.5,47.2L161.5,47.2z"/>
	</g>
</g>
</svg>
