<?xml version="1.0" encoding="utf-8"?>
<!-- Generator: Adobe Illustrator 24.0.3, SVG Export Plug-In . SVG Version: 6.00 Build 0)  -->
<svg version="1.1" id="Layer_1" xmlns="http://www.w3.org/2000/svg" xmlns:xlink="http://www.w3.org/1999/xlink" x="0px" y="0px"
	 width="444.3px" height="211.3px" viewBox="0 0 444.3 211.3" style="enable-background:new 0 0 444.3 211.3;" xml:space="preserve"
	>
<style type="text/css">
	.st0{display:none;fill:#AFAEAE;}
	.st1{display:none;fill:#AFAEAE;stroke:#000000;stroke-width:0.5;stroke-miterlimit:10;}
	.st2{fill:#AFAEAE;stroke:#000000;stroke-width:0.5;stroke-miterlimit:10;}
	.st3{fill:none;stroke:#000000;stroke-width:0.5;stroke-miterlimit:10;stroke-dasharray:4;}
	.st4{fill:none;stroke:#000000;stroke-width:2;stroke-miterlimit:10;}
	.st5{fill:none;stroke:#000000;stroke-miterlimit:10;}
	.st6{fill:none;stroke:#000000;stroke-miterlimit:10;stroke-dasharray:3.8947,3.8947;}
	.st7{fill:none;stroke:#000000;stroke-miterlimit:10;stroke-dasharray:3.8526,3.8526;}
	.st8{fill:none;stroke:#000000;stroke-miterlimit:10;stroke-dasharray:4.0747,4.0747;}
	.st9{fill:none;stroke:#000000;stroke-miterlimit:10;stroke-dasharray:4.168,4.168;}
	.st10{fill:none;stroke:#000000;stroke-width:1.5;stroke-miterlimit:10;}
</style>
<polygon class="st0" points="85.9,104.3 92,223.8 205,166.5 "/>
<polygon class="st1" points="85.9,104.3 89,164 127.7,164.9 145.5,135.4 "/>
<g>
	<polygon class="st2" points="88.9,87.2 80.4,139.7 136.6,148.8 142.8,90.5 	"/>
	<g>
		<polyline class="st3" points="90.9,87.3 88.9,87.2 88.6,89.2 		"/>
		<line class="st3" x1="88" y1="92.9" x2="81" y2="135.9"/>
		<polyline class="st3" points="80.7,137.7 80.4,139.7 82.4,140 		"/>
		<line class="st3" x1="86.4" y1="140.7" x2="132.6" y2="148.1"/>
		<polyline class="st3" points="134.6,148.5 136.6,148.8 136.8,146.8 		"/>
		<line class="st3" x1="137.2" y1="142.6" x2="142.4" y2="94.6"/>
		<polyline class="st3" points="142.6,92.5 142.8,90.5 140.8,90.4 		"/>
		<line class="st3" x1="137" y1="90.1" x2="92.8" y2="87.4"/>
	</g>
</g>
<polygon class="st4" points="26,46.6 2.5,153.8 71.9,192.2 191.7,93.8 183.1,52.5 118.5,2.6 "/>
<circle cx="118.5" cy="2.6" r="2.5"/>
<circle cx="183.1" cy="52.5" r="2.5"/>
<circle cx="26" cy="46.6" r="2.5"/>
<circle cx="2.5" cy="153.8" r="2.5"/>
<circle cx="71.9" cy="192.2" r="2.5"/>
<circle cx="191.7" cy="93.8" r="2.5"/>
<circle cx="88.9" cy="87.2" r="2.5"/>
<g>
	<g>
		<line class="st5" x1="88.9" y1="87.2" x2="87.4" y2="88.4"/>
		<line class="st6" x1="84.3" y1="90.8" x2="5.6" y2="151.4"/>
		<line class="st5" x1="4.1" y1="152.6" x2="2.5" y2="153.8"/>
	</g>
</g>
<g>
	<g>
		<line class="st5" x1="88.9" y1="87.2" x2="90.8" y2="86.5"/>
		<line class="st7" x1="94.4" y1="85.1" x2="179.4" y2="53.9"/>
		<line class="st5" x1="181.2" y1="53.2" x2="183.1" y2="52.5"/>
	</g>
</g>
<g>
	<g>
		<line class="st5" x1="118.5" y1="2.6" x2="117.8" y2="4.5"/>
		<line class="st8" x1="116.5" y1="8.3" x2="90.3" y2="83.3"/>
		<line class="st5" x1="89.6" y1="85.3" x2="88.9" y2="87.2"/>
	</g>
</g>
<g>
	<g>
		<line class="st5" x1="26" y1="46.6" x2="27.7" y2="47.7"/>
		<line class="st9" x1="31.2" y1="50" x2="85.5" y2="84.9"/>
		<line class="st5" x1="87.3" y1="86.1" x2="88.9" y2="87.2"/>
	</g>
</g>
<g>
	<g>
		<path d="M82.6,71.1c0.9,0,1.5-0.4,2.4-1.5l0.2,0.5c-0.8,1.4-1.7,2-2.9,2c-2.2,0-3.7-1.8-3.7-4.4c0-2.7,1.6-4.6,3.8-4.6
			c1,0,2,0.4,2.9,1.8L85,65.4c-1-1-1.8-1.3-2.4-1.3c-1.4,0-2.5,1.1-2.5,3.6C80,70.1,81.1,71.1,82.6,71.1z M85.6,75.2l2,0.4v0.6H83
			v-0.6l2.2-0.4H85.6z M86.2,76.2h-1.5c0-1.3,0.1-2.6,0.1-3.8v-1.8l-0.1-0.3v-5.9l1.2-1.3l0.3,0.2l-0.1,2.4v6.7
			C86.2,73.6,86.2,74.9,86.2,76.2z"/>
	</g>
</g>
<g>
	<g>
		<path d="M68.9,200.6l-1.8-0.3v-0.7h4.3v0.7l-2.2,0.3H68.9z M69.4,199.7l2.8,7.3l-0.7,0.9l2.9-8.3h1l-3.3,8.6h-0.7l-3.6-8.6h1.6
			C69.4,199.6,69.4,199.7,69.4,199.7z M74.4,200.6l-1.8-0.3v-0.7H76v0.7l-1.3,0.3H74.4z"/>
		<path d="M77.5,205.1c0-0.7,0-1,0-1.5l-1-0.1v-0.4l1.8-0.7l0.2,0.1v1.6v2.9c0,2-0.1,2.9-0.7,3.6c-0.4,0.4-0.8,0.7-1.5,0.7
			s-1-0.4-1-0.7c0.1-0.3,0.3-0.5,0.7-0.5c0.3,0,0.6,0.1,0.9,0.3l0.5,0.4l-1.5,0.2v-0.5c0.1,0.2,0.5,0.3,0.7,0.3
			c0.3,0,0.6-0.1,0.8-0.5c0.2-0.5,0.3-1.5,0.3-3.3v-1.9H77.5z M77.2,200.2c0-0.5,0.3-0.8,0.8-0.8c0.4,0,0.8,0.3,0.8,0.8
			c0,0.4-0.3,0.8-0.8,0.8C77.6,201,77.2,200.7,77.2,200.2z"/>
	</g>
</g>
<g>
	<g>
		<path d="M190.5,104.2l-1.8-0.3v-0.7h4.3v0.7l-2.2,0.3H190.5z M191.1,103.2l2.8,7.3l-0.7,0.9l2.9-8.3h1l-3.3,8.6H193l-3.6-8.6
			L191.1,103.2L191.1,103.2L191.1,103.2z M196,104.2l-1.8-0.3v-0.7h3.4v0.7l-1.3,0.3H196z"/>
		<path d="M201.3,114.2v0.4h-3.1v-0.4l1.4-0.2h0.2L201.3,114.2z M199.3,108.6c0-0.7,0-1,0-1.5l-1-0.1v-0.4l1.6-0.7l0.2,0.1l0.1,1
			l0,0v3.7v0.1v1.2c0,0.8,0,1.7,0,2.5h-1c0-0.8,0-1.7,0-2.5L199.3,108.6L199.3,108.6z M201.7,106.5c-0.4,0-1,0.2-1.9,1.1l-0.1-0.2
			c0.7-1.1,1.5-1.5,2.3-1.5c1.3,0,2.3,1.1,2.3,3c0,1.8-1.1,3-2.5,3c-0.7,0-1.5-0.3-2.1-1.6l0.1-0.2c0.6,0.8,1.2,1.1,1.8,1.1
			c0.9,0,1.7-0.7,1.7-2.3C203.2,107.4,202.6,106.5,201.7,106.5z"/>
	</g>
</g>
<line class="st5" x1="88.9" y1="87.2" x2="71.9" y2="192.2"/>
<line class="st5" x1="191.7" y1="93.8" x2="88.9" y2="87.2"/>
<polygon class="st2" points="328.9,87.1 320.4,139.6 372,142.8 382.8,90.4 "/>
<polygon class="st4" points="266,46.5 242.5,153.7 311.9,192.1 431.7,93.7 423.1,52.4 358.5,2.5 "/>
<circle cx="358.5" cy="2.5" r="2.5"/>
<circle cx="423.1" cy="52.4" r="2.5"/>
<circle cx="266" cy="46.5" r="2.5"/>
<circle cx="242.5" cy="153.7" r="2.5"/>
<circle cx="311.9" cy="192.1" r="2.5"/>
<circle cx="431.7" cy="93.7" r="2.5"/>
<circle cx="328.9" cy="87.1" r="2.5"/>
<g>
	<g>
		<line class="st5" x1="328.9" y1="87.1" x2="327.4" y2="88.3"/>
		<line class="st6" x1="324.3" y1="90.7" x2="245.6" y2="151.3"/>
		<line class="st5" x1="244.1" y1="152.5" x2="242.5" y2="153.7"/>
	</g>
</g>
<g>
	<g>
		<line class="st5" x1="328.9" y1="87.1" x2="330.8" y2="86.4"/>
		<line class="st7" x1="334.4" y1="85" x2="419.4" y2="53.8"/>
		<line class="st5" x1="421.2" y1="53.1" x2="423.1" y2="52.4"/>
	</g>
</g>
<g>
	<g>
		<line class="st5" x1="358.5" y1="2.5" x2="357.8" y2="4.4"/>
		<line class="st8" x1="356.5" y1="8.2" x2="330.3" y2="83.2"/>
		<line class="st5" x1="329.6" y1="85.2" x2="328.9" y2="87.1"/>
	</g>
</g>
<g>
	<g>
		<line class="st5" x1="266" y1="46.5" x2="267.7" y2="47.6"/>
		<line class="st9" x1="271.2" y1="49.9" x2="325.5" y2="84.8"/>
		<line class="st5" x1="327.3" y1="86" x2="328.9" y2="87.1"/>
	</g>
</g>
<g>
	<g>
		<path d="M322.6,71c0.9,0,1.5-0.4,2.4-1.5l0.2,0.5c-0.8,1.4-1.7,2-2.9,2c-2.2,0-3.7-1.8-3.7-4.4c0-2.7,1.6-4.6,3.8-4.6
			c1,0,2,0.4,2.9,1.8l-0.3,0.5c-1-1-1.8-1.3-2.4-1.3c-1.4,0-2.5,1.1-2.5,3.6C320,70,321.1,71,322.6,71z M325.6,75.1l2,0.4v0.6H323
			v-0.6l2.2-0.4H325.6z M326.2,76.1h-1.5c0-1.3,0.1-2.6,0.1-3.8v-1.8l-0.1-0.3v-5.9l1.2-1.3l0.3,0.2l-0.1,2.4v6.7
			C326.2,73.5,326.2,74.8,326.2,76.1z"/>
	</g>
</g>
<g>
	<g>
		<path d="M308.9,200.5l-1.8-0.3v-0.7h4.3v0.7l-2.2,0.3H308.9z M309.4,199.6l2.8,7.3l-0.7,0.9l2.9-8.3h1l-3.3,8.6h-0.7l-3.6-8.6h1.6
			C309.4,199.5,309.4,199.6,309.4,199.6z M314.4,200.5l-1.8-0.3v-0.7h3.4v0.7l-1.3,0.3H314.4z"/>
		<path d="M317.5,205c0-0.7,0-1,0-1.5l-1-0.1V203l1.8-0.7l0.2,0.1v1.6v2.9c0,2-0.1,2.9-0.7,3.6c-0.4,0.4-0.8,0.7-1.5,0.7
			c-0.7,0-1-0.4-1-0.7c0.1-0.3,0.3-0.5,0.7-0.5c0.3,0,0.6,0.1,0.9,0.3l0.5,0.4l-1.5,0.2v-0.5c0.1,0.2,0.5,0.3,0.7,0.3
			c0.3,0,0.6-0.1,0.8-0.5c0.2-0.5,0.3-1.5,0.3-3.3V205H317.5z M317.2,200.1c0-0.5,0.3-0.8,0.8-0.8c0.4,0,0.8,0.3,0.8,0.8
			c0,0.4-0.3,0.8-0.8,0.8C317.6,200.9,317.2,200.6,317.2,200.1z"/>
	</g>
</g>
<g>
	<g>
		<path d="M430.5,104.1l-1.8-0.3v-0.7h4.3v0.7l-2.2,0.3H430.5z M431.1,103.1l2.8,7.3l-0.7,0.9l2.9-8.3h1l-3.3,8.6H433l-3.6-8.6
			L431.1,103.1L431.1,103.1L431.1,103.1z M436,104.1l-1.8-0.3v-0.7h3.4v0.7l-1.3,0.3H436z"/>
		<path d="M441.3,114.1v0.4h-3.1v-0.4l1.4-0.2h0.2L441.3,114.1z M439.3,108.5c0-0.7,0-1,0-1.5l-1-0.1v-0.4l1.6-0.7l0.2,0.1l0.1,1
			l0,0v3.7v0.1v1.2c0,0.8,0,1.7,0,2.5h-1c0-0.8,0-1.7,0-2.5L439.3,108.5L439.3,108.5z M441.7,106.4c-0.4,0-1,0.2-1.9,1.1l-0.1-0.2
			c0.7-1.1,1.5-1.5,2.3-1.5c1.3,0,2.3,1.1,2.3,3c0,1.8-1.1,3-2.5,3c-0.7,0-1.5-0.3-2.1-1.6l0.1-0.2c0.6,0.8,1.2,1.1,1.8,1.1
			c0.9,0,1.7-0.7,1.7-2.3C443.2,107.3,442.6,106.4,441.7,106.4z"/>
	</g>
</g>
<line class="st5" x1="328.9" y1="87.1" x2="311.9" y2="192.1"/>
<line class="st5" x1="431.7" y1="93.7" x2="328.9" y2="87.1"/>
<g>
	<g>
		<line class="st10" x1="210.3" y1="84.6" x2="234.6" y2="84.6"/>
		<g>
			<polygon points="232.1,87.9 233.5,84.6 232.1,81.3 240,84.6 			"/>
		</g>
	</g>
</g>
</svg>
