<?xml version="1.0" encoding="utf-8"?>
<!-- Generator: Adobe Illustrator 24.0.3, SVG Export Plug-In . SVG Version: 6.00 Build 0)  -->
<svg version="1.1" id="Layer_1" xmlns="http://www.w3.org/2000/svg" xmlns:xlink="http://www.w3.org/1999/xlink" x="0px" y="0px"
	 width="214.9px" height="156.1px" viewBox="0 0 214.9 156.1" style="enable-background:new 0 0 214.9 156.1;" xml:space="preserve"
	>
<style type="text/css">
	.st0{fill:none;stroke:#000000;stroke-miterlimit:10;}
</style>
<circle cx="3.3" cy="86.7" r="2.5"/>
<circle cx="95.8" cy="139.6" r="2.5"/>
<circle cx="208.9" cy="82.4" r="2.5"/>
<circle cx="89.8" cy="20.1" r="2.5"/>
<polyline class="st0" points="89.8,20.1 3.3,86.7 95.8,139.6 89.8,20.1 "/>
<polyline class="st0" points="95.8,139.6 208.9,82.3 89.8,20.1 "/>
<g>
	<g>
		<path d="M86.6,8c0.9,0,1.5-0.4,2.4-1.5L89.2,7c-0.8,1.4-1.7,2-2.9,2c-2.2,0-3.7-1.8-3.7-4.4c0-2.7,1.6-4.6,3.8-4.6
			c1,0,2,0.4,2.9,1.8l-0.2,0.5c-1-1-1.8-1.3-2.4-1.3c-1.4,0-2.5,1.1-2.5,3.6C84.1,6.9,85.1,8,86.6,8z M89.7,12.1l2,0.4v0.6h-4.6
			v-0.6l2.2-0.4H89.7z M90.2,13.1h-1.5c0-1.3,0.1-2.6,0.1-3.8V7.5l-0.1-0.3V1.3L89.9,0l0.3,0.2l-0.1,2.4v6.7
			C90.2,10.5,90.2,11.8,90.2,13.1z"/>
	</g>
</g>
<g>
	<g>
		<path d="M33.9,48.4c0.9,0,1.5-0.4,2.4-1.5l0.2,0.5c-0.7,1.2-1.5,2-2.9,2c-2.2,0-3.7-1.8-3.7-4.4c0-2.7,1.6-4.6,3.8-4.6
			c1,0,1.9,0.4,2.8,1.8l-0.2,0.5c-1-1-1.8-1.3-2.4-1.3c-1.4,0-2.5,1.1-2.5,3.5C31.4,47.3,32.5,48.4,33.9,48.4z M38.9,48.5v0.6
			l-2.8,0.2l-0.2-1.8v-5.3L36,42v-4.5l-1.5-0.2v-0.6l2.8-0.8l0.3,0.1l-0.1,2.6v10.6l-0.3-0.9L38.9,48.5z"/>
		<path d="M44.8,48.6v0.5h-4.5v-0.5l1.7-0.3h1.1L44.8,48.6z M43.1,41.9l0.2,0.1v7.1h-1.2V43l-1.4,0.1v-0.6L43.1,41.9z"/>
	</g>
</g>
<g>
	<g>
		<path d="M101.7,75.4c0.9,0,1.5-0.4,2.4-1.5l0.2,0.5c-0.7,1.2-1.5,2-2.9,2c-2.2,0-3.7-1.8-3.7-4.4c0-2.7,1.6-4.6,3.8-4.6
			c1,0,1.9,0.4,2.8,1.8l-0.2,0.5c-1-1-1.8-1.3-2.4-1.3c-1.4,0-2.5,1.1-2.5,3.5C99.2,74.3,100.2,75.4,101.7,75.4z M106.7,75.5v0.6
			l-2.8,0.2l-0.2-1.8v-5.3l0.1-0.2v-4.5l-1.5-0.2v-0.6l2.8-0.8l0.3,0.1l-0.1,2.6v10.6l-0.3-0.9L106.7,75.5z"/>
	</g>
</g>
<g>
	<g>
		<path d="M157.6,48.4c0.9,0,1.5-0.4,2.4-1.5l0.2,0.5c-0.7,1.2-1.5,2-2.9,2c-2.2,0-3.7-1.8-3.7-4.4c0-2.7,1.6-4.6,3.8-4.6
			c1,0,1.9,0.4,2.8,1.8l-0.2,0.5c-1-1-1.8-1.3-2.4-1.3c-1.4,0-2.5,1.1-2.5,3.5C155,47.3,156.1,48.4,157.6,48.4z M162.6,48.5v0.6
			l-2.8,0.2l-0.2-1.8v-5.3l0.1-0.2v-4.5l-1.5-0.2v-0.6l2.8-0.8l0.3,0.1l-0.1,2.6v10.6l-0.3-0.9L162.6,48.5z"/>
		<path d="M163.8,48.3l1.7-1.6c1.1-1,1.6-1.9,1.6-2.8c0-0.9-0.5-1.4-1.4-1.4c-0.3,0-0.7,0.1-1.1,0.2l0.7-0.5l-0.3,1
			c-0.2,0.7-0.4,0.9-0.7,0.9s-0.5-0.2-0.6-0.4c0.1-1.2,1.2-1.8,2.5-1.8c1.6,0,2.2,0.9,2.2,1.9s-0.7,1.8-2.3,3.3l-1.7,1.6l0.3-0.7h4
			v1.2h-4.9V48.3z"/>
	</g>
</g>
<g>
	<g>
		<path d="M3.9,104.1c0.4,0,0.8-0.2,1.2-0.5l0.4,0.5C5,104.7,4.3,105,3.4,105c-1.2,0-2-0.6-2-2c0-0.4,0-0.8,0-1.5v-4.3H0v-0.8
			l2.2-0.3l-0.7,0.6L2,93.8h1L2.9,97v5.8C2.9,103.7,3.3,104.1,3.9,104.1z M5.4,96.2v0.9H2.2v-0.9H5.4z"/>
	</g>
</g>
<g>
	<g>
		<path d="M94.4,152.2v-0.8c0-1,0-1.5-0.1-2.3l-1.4-0.2v-0.6l2.4-1.1l0.3,0.2l0.2,2.3v2.6c0,1.1,0,3,0.1,3.8h-1.5
			C94.4,155.2,94.4,153.3,94.4,152.2z M93.1,155.3l2-0.4h0.4l2,0.4v0.6h-4.3L93.1,155.3L93.1,155.3z M95.1,149.8h1l-0.5,0.1
			c0.6-1.7,1.7-2.7,2.7-2.7c0.5,0,1.1,0.3,1.3,0.6c0,0.8-0.3,1.3-1,1.3c-0.4,0-0.8-0.2-1.1-0.4l-0.5-0.4l0.9-0.2
			c-1.1,0.6-1.8,1.5-2.2,2.9H95L95.1,149.8L95.1,149.8z"/>
	</g>
</g>
<g>
	<g>
		<path d="M210.6,102.4v0.6H206v-0.6l2-0.4h0.4L210.6,102.4z M207.5,94c0-1,0-1.5-0.1-2.3l-1.4-0.2v-0.6l2.4-1.1l0.3,0.2l0.1,1.5
			h0.1v5.6l-0.1,0.1V99c0,1.3,0,2.6,0.1,3.8h-1.5c0-1.3,0.1-2.5,0.1-3.8L207.5,94L207.5,94z M211.2,90.9c-0.7,0-1.6,0.3-2.9,1.6
			l-0.2-0.3c1-1.6,2.2-2.3,3.4-2.3c1.9,0,3.4,1.7,3.4,4.5s-1.6,4.5-3.7,4.5c-1.1,0-2.2-0.5-3.2-2.4l0.2-0.3c0.9,1.2,1.8,1.7,2.7,1.7
			c1.4,0,2.5-1.1,2.5-3.4C213.5,92.2,212.5,90.9,211.2,90.9z"/>
	</g>
</g>
<g>
	<g>
		<path d="M49.6,83.6l1.8-0.3h0.4l2,0.3v0.7h-4.1v-0.7H49.6z M55,72.2h1.1l4.1,12.2h-1.7l-3.6-10.8h0.4l-3.7,10.8h-0.8L55,72.2z
			 M52.9,79.6h4.9l0.3,0.8h-5.4L52.9,79.6z M56.4,83.6l2.3-0.3h0.4l2.2,0.3v0.7h-4.9V83.6z"/>
		<path d="M67.1,83.8v0.5h-4.5v-0.5l1.7-0.3h1.1L67.1,83.8z M65.4,77.1l0.2,0.1v7.1h-1.2v-6.1L63,78.3v-0.6L65.4,77.1z"/>
	</g>
</g>
<g>
	<g>
		<path d="M122.6,83.4l1.8-0.3h0.4l2,0.3v0.7h-4.1v-0.7H122.6z M128,72h1.1l4.1,12.2h-1.7l-3.6-10.8h0.4l-3.7,10.8h-0.8L128,72z
			 M125.9,79.4h4.9l0.3,0.8h-5.4L125.9,79.4z M129.4,83.4l2.3-0.3h0.4l2.2,0.3v0.7h-4.9V83.4z"/>
		<path d="M135.5,83.3l1.7-1.6c1.1-1,1.6-1.9,1.6-2.8s-0.5-1.4-1.4-1.4c-0.3,0-0.7,0.1-1.1,0.2l0.7-0.5l-0.3,1
			c-0.2,0.7-0.4,0.9-0.7,0.9s-0.5-0.2-0.6-0.4c0.1-1.2,1.2-1.8,2.5-1.8c1.6,0,2.2,0.9,2.2,1.9s-0.7,1.8-2.3,3.3l-1.7,1.6l0.3-0.7h4
			v1.2h-4.8L135.5,83.3L135.5,83.3z"/>
	</g>
</g>
</svg>
