<?xml version="1.0" encoding="utf-8"?>
<!-- Generator: Adobe Illustrator 24.0.3, SVG Export Plug-In . SVG Version: 6.00 Build 0)  -->
<svg version="1.1" xmlns="http://www.w3.org/2000/svg" xmlns:xlink="http://www.w3.org/1999/xlink" x="0px" y="0px" width="513.1px"
	 height="230.5px" viewBox="0 0 513.1 230.5" style="enable-background:new 0 0 513.1 230.5;" xml:space="preserve">
<style type="text/css">
	.st0{fill:#FFFFFF;}
	.st1{fill:none;stroke:#000000;stroke-width:2;stroke-miterlimit:10;}
	.st2{fill:none;stroke:#000000;stroke-miterlimit:10;}
	.st3{fill:none;stroke:#000000;stroke-miterlimit:10;stroke-dasharray:3.8526,3.8526;}
	.st4{fill:none;stroke:#000000;stroke-miterlimit:10;stroke-dasharray:4.0747,4.0747;}
	.st5{fill:none;stroke:#000000;stroke-miterlimit:10;stroke-dasharray:4.168,4.168;}
	.st6{display:none;}
	.st7{display:inline;}
</style>
<g id="Layer_1">
	<g>
		<g>
			<polyline class="st0" points="44.2,170.3 15.1,153.7 38.6,46.5 131.1,2.5 195.7,52.4 220.7,149.3 107.6,206.6 44.2,170.3 			"/>
		</g>
		<g>
			<polyline class="st1" points="44.2,170.3 15.1,153.7 38.6,46.5 131.1,2.5 195.7,52.4 220.7,149.3 107.6,206.6 44.2,170.3 			"/>
		</g>
	</g>
	<circle cx="131.1" cy="2.5" r="2.5"/>
	<circle cx="195.7" cy="52.4" r="2.5"/>
	<circle cx="38.6" cy="46.5" r="2.5"/>
	<circle cx="15.1" cy="153.7" r="2.5"/>
	<circle cx="107.6" cy="206.6" r="2.5"/>
	<circle cx="220.7" cy="149.4" r="2.5"/>
	<circle cx="101.6" cy="87.1" r="2.5"/>
	<line class="st2" x1="101.6" y1="87.1" x2="15.1" y2="153.7"/>
	<line class="st2" x1="107.6" y1="206.6" x2="101.6" y2="87.1"/>
	<line class="st2" x1="220.7" y1="149.3" x2="101.6" y2="87.1"/>
	<g>
		<g>
			<line class="st2" x1="101.6" y1="87.1" x2="103.5" y2="86.4"/>
			<line class="st3" x1="107.1" y1="85" x2="192" y2="53.8"/>
			<line class="st2" x1="193.8" y1="53.1" x2="195.7" y2="52.4"/>
		</g>
	</g>
	<g>
		<g>
			<line class="st2" x1="131.1" y1="2.5" x2="130.5" y2="4.4"/>
			<line class="st4" x1="129.1" y1="8.2" x2="102.9" y2="83.2"/>
			<line class="st2" x1="102.2" y1="85.2" x2="101.6" y2="87.1"/>
		</g>
	</g>
	<g>
		<g>
			<line class="st2" x1="38.6" y1="46.5" x2="40.3" y2="47.6"/>
			<line class="st5" x1="43.8" y1="49.9" x2="98.1" y2="84.8"/>
			<line class="st2" x1="99.9" y1="86" x2="101.6" y2="87.1"/>
		</g>
	</g>
	<g>
		<g>
			<path d="M95.2,71c0.9,0,1.5-0.4,2.4-1.5l0.2,0.5c-0.8,1.4-1.7,2-2.9,2c-2.2,0-3.7-1.8-3.7-4.4c0-2.7,1.6-4.6,3.8-4.6
				c1,0,2,0.4,2.9,1.8l-0.2,0.5c-1-1-1.8-1.3-2.4-1.3c-1.4,0-2.5,1.1-2.5,3.6C92.7,70,93.8,71,95.2,71z M98.3,75.1l2,0.4v0.6h-4.6
				v-0.6l2.2-0.4H98.3z M98.9,76.1h-1.5c0-1.3,0.1-2.6,0.1-3.8v-1.8l-0.1-0.3v-5.9l1.2-1.3l0.3,0.2l-0.1,2.4v6.7
				C98.8,73.5,98.8,74.8,98.9,76.1z"/>
		</g>
	</g>
	<g>
		<g>
			<path d="M1.8,161.4L0,161.1v-0.7h4.3v0.7l-2.2,0.3H1.8z M2.3,160.4l2.8,7.3l-0.7,0.9l2.9-8.3h1L5,169.1H4.3l-3.6-8.6H2.3z
				 M7.3,161.4l-1.8-0.3v-0.7h3.4v0.7l-1.3,0.3H7.3z"/>
			<path d="M10.5,169c0-0.5,0-1.8,0-2.5v-0.6c0-0.7,0-1,0-1.5l-1-0.1v-0.4l1.6-0.7l0.2,0.1l0.1,1.4v1.8c0,0.7,0,2,0,2.5H10.5z
				 M12.3,168.6v0.4H9.6v-0.4l1.3-0.2h0.2L12.3,168.6z M15,165.3v1.1c0,0.8,0,2,0,2.5h-1c0-0.5,0-1.8,0-2.5v-1c0-1.1-0.3-1.5-1-1.5
				c-0.6,0-1.1,0.2-1.7,0.8h-0.3v-0.5h0.6l-0.5,0.2c0.6-0.8,1.5-1.3,2.3-1.3C14.6,163.1,15,163.8,15,165.3z M14.7,168.3l1.2,0.2v0.4
				h-2.8v-0.4l1.3-0.2H14.7z M18.6,165.2v1.2c0,0.8,0,2,0,2.5h-1c0-0.5,0-1.8,0-2.5v-1c0-1.1-0.3-1.5-1-1.5c-0.5,0-1,0.2-1.7,0.8
				h-0.3v-0.4h0.6l-0.6,0.1c0.6-0.9,1.5-1.3,2.4-1.3C18.1,163.1,18.6,163.7,18.6,165.2z M18.3,168.3l1.2,0.2v0.4h-2.8v-0.4l1.3-0.2
				H18.3z"/>
		</g>
	</g>
	<g>
		<g>
			<path d="M105.6,216.3l-1.8-0.3v-0.7h4.3v0.7l-2.2,0.3H105.6z M106.2,215.4l2.8,7.3l-0.7,0.9l2.9-8.3h1l-3.3,8.6h-0.7l-3.6-8.6
				H106.2z M111.1,216.3l-1.8-0.3v-0.7h3.4v0.7l-1.3,0.3H111.1z"/>
			<path d="M114.3,220.8c0-0.7,0-1,0-1.5l-1-0.1v-0.4l1.8-0.7l0.2,0.1l0,1.6v2.9c0,2-0.1,2.9-0.7,3.6c-0.4,0.4-0.8,0.7-1.5,0.7
				c-0.7,0-1-0.4-1-0.7c0.1-0.3,0.3-0.5,0.7-0.5c0.3,0,0.6,0.1,0.9,0.3l0.5,0.4l-1.5,0.2v-0.5c0.1,0.2,0.5,0.3,0.7,0.3
				c0.3,0,0.6-0.1,0.8-0.5c0.2-0.5,0.3-1.5,0.3-3.3V220.8z M114,215.9c0-0.5,0.3-0.8,0.8-0.8c0.4,0,0.8,0.3,0.8,0.8
				c0,0.4-0.3,0.8-0.8,0.8C114.3,216.7,114,216.4,114,215.9z"/>
		</g>
	</g>
	<g>
		<g>
			<path d="M219.2,159.4l-1.8-0.3v-0.7h4.3v0.7l-2.2,0.3H219.2z M219.7,158.4l2.8,7.3l-0.7,0.9l2.9-8.3h1l-3.3,8.6h-0.7l-3.6-8.6
				H219.7z M224.7,159.4l-1.8-0.3v-0.7h3.4v0.7l-1.3,0.3H224.7z"/>
			<path d="M230,169.4v0.4h-3.1v-0.4l1.4-0.2h0.2L230,169.4z M227.9,163.8c0-0.7,0-1,0-1.5l-1-0.1v-0.4l1.6-0.7l0.2,0.1l0.1,1l0,0
				v3.7l0,0.1v1.2c0,0.8,0,1.7,0,2.5h-1c0-0.8,0-1.7,0-2.5V163.8z M230.3,161.7c-0.4,0-1,0.2-1.9,1.1l-0.1-0.2
				c0.7-1.1,1.5-1.5,2.3-1.5c1.3,0,2.3,1.1,2.3,3c0,1.8-1.1,3-2.5,3c-0.7,0-1.5-0.3-2.1-1.6l0.1-0.2c0.6,0.8,1.2,1.1,1.8,1.1
				c0.9,0,1.7-0.7,1.7-2.3C231.9,162.6,231.2,161.7,230.3,161.7z"/>
		</g>
	</g>
</g>
<g id="Layer_2">
	<g class="st6">
		<g class="st7">
			<path class="st2" d="M79,185.4c5.9-8.7,15.6-14.6,26.8-15.2"/>
			<g>
				<polygon points="82.3,185.1 79.5,184.7 77.8,182.4 76.9,189 				"/>
			</g>
		</g>
	</g>
	<g class="st6">
		<g class="st7">
			<path class="st2" d="M109.9,174c10,2.3,18.8,9.2,23.3,19.2"/>
			<g>
				<polygon points="111.4,176.9 110.8,174.2 112.3,171.8 105.8,173.3 				"/>
			</g>
		</g>
	</g>
	<g class="st6">
		<g class="st7">
			<path class="st2" d="M183.8,162.8c-3.6-9.9-2.6-21.3,3.5-30.6"/>
			<g>
				<polygon points="185.5,160 183.5,162 180.7,162 185.5,166.6 				"/>
			</g>
		</g>
	</g>
	<g class="st6">
		<g class="st7">
			<path class="st2" d="M41.1,139.1c5.6,8.9,7.1,20.2,3.1,30.7"/>
			<g>
				<polygon points="40,142.2 41.5,139.8 44.3,139.2 38.6,135.7 				"/>
			</g>
		</g>
	</g>
	<g class="st6">
		<g class="st7">
			<path class="st2" d="M127.7,105.5c-4.5,9.5-13.3,16.8-24.2,19.1"/>
			<g>
				<polygon points="124.5,106.3 127.3,106.2 129.3,108.2 129.3,101.6 				"/>
			</g>
		</g>
	</g>
	<g class="st6">
		<g class="st7">
			<path class="st2" d="M98.9,121c-10,0.9-20.2-2.8-27.3-10.7"/>
			<g>
				<polygon points="96.6,118.6 98,121 97.3,123.8 103,120.3 				"/>
			</g>
		</g>
	</g>
	<g>
		<g class="st6">
			<path class="st7" d="M95.6,187.7l0,1.5c-0.4-2-1.1-3.9-1.8-5.7c-0.5-1.5-0.8-2-1.4-2c-0.2,0-0.4,0-0.6,0.1l-0.2-0.5
				c0.4-0.4,0.8-0.7,1.4-0.7c0.7,0,1.3,0.3,2,2.4c0.4,1.1,0.9,2.8,1.4,5.4l0.1,0.1l0.1,3.9l-1.4,0.3l-0.2-0.2L95.6,187.7z
				 M96.1,188.3c1.2-2.1,1.7-3.5,2.5-5.5l-0.2,1.4c-0.2-1.7-0.3-2.3-0.3-2.7c0-0.8,0.4-1.2,0.9-1.2c0.3,0,0.5,0.1,0.6,0.2
				c0.1,0.2,0.1,0.4,0.1,0.8c0,1.9-1.8,5.3-3.3,7.8L96.1,188.3z"/>
		</g>
	</g>
	<g>
		<g class="st6">
			<path class="st7" d="M111.7,194l0-8.8c0-2.6,1.6-4.3,3.8-4.3c1.8,0,3.2,1.1,3.2,3c0,1.4-1,3.3-3.6,3.5l-0.1-0.2
				c3-0.1,4.7,1,4.7,3.4c0,2.5-1.9,3.8-3.7,3.8c-1.3,0-2.6-0.6-3.3-2.2l0.2-0.2c0.8,0.7,1.7,1.2,2.8,1.2c1.7,0,2.6-1.1,2.6-2.7
				c0-1.5-0.8-2.9-3.5-2.8l-0.2-1c1.7-0.3,2.7-1.3,2.7-2.9c0-1.4-0.7-2.3-1.9-2.3c-1.3,0-2.2,1.2-2.2,3.2v7.7l-0.1,0.3l0.3,4.5
				l-1.4,0.3l-0.2-0.2L111.7,194z"/>
		</g>
	</g>
	<g>
		<g>
			<path d="M94.5,145.4v-0.8c0-1,0-1.5-0.1-2.3l-1.4-0.2v-0.6l2.4-1.1l0.3,0.2l0.2,2.3v2.6c0,1.1,0,3,0.1,3.8h-1.5
				C94.5,148.4,94.5,146.6,94.5,145.4z M93.2,148.6l2-0.4h0.4l2,0.4v0.6h-4.3V148.6z M95.3,143h1l-0.5,0.1c0.6-1.7,1.7-2.7,2.7-2.7
				c0.5,0,1.1,0.3,1.3,0.6c0,0.8-0.3,1.3-1,1.3c-0.4,0-0.8-0.2-1.1-0.4l-0.5-0.4l0.9-0.2c-1.1,0.6-1.8,1.5-2.2,2.9h-0.7V143z"/>
		</g>
	</g>
	<g>
		<g class="st6">
			<path class="st7" d="M32.5,156l0-8.8c0-2.6,1.6-4.3,3.8-4.3c1.8,0,3.2,1.1,3.2,3c0,1.4-1,3.3-3.6,3.5l-0.1-0.2
				c3-0.1,4.7,1,4.7,3.4c0,2.5-1.9,3.8-3.7,3.8c-1.3,0-2.6-0.6-3.3-2.2l0.2-0.2c0.8,0.7,1.7,1.2,2.8,1.2c1.7,0,2.6-1.1,2.6-2.7
				c0-1.5-0.8-2.9-3.5-2.8l-0.2-1c1.7-0.3,2.7-1.3,2.7-2.9c0-1.4-0.7-2.3-1.9-2.3c-1.3,0-2.2,1.2-2.2,3.2v7.7l-0.1,0.3l0.3,4.5
				l-1.4,0.3l-0.2-0.2L32.5,156z"/>
		</g>
	</g>
	<g>
		<g class="st6">
			<path class="st7" d="M193.3,150.9l0,1.5c-0.4-2-1.1-3.9-1.8-5.7c-0.5-1.5-0.8-2-1.4-2c-0.2,0-0.4,0-0.6,0.1l-0.2-0.5
				c0.4-0.4,0.8-0.7,1.4-0.7c0.7,0,1.3,0.3,2,2.4c0.4,1.1,0.9,2.8,1.4,5.4l0.1,0.1l0.1,3.9l-1.4,0.3l-0.2-0.2L193.3,150.9z
				 M193.8,151.5c1.2-2.1,1.7-3.5,2.5-5.5l-0.2,1.4c-0.2-1.7-0.3-2.3-0.3-2.7c0-0.8,0.4-1.2,0.9-1.2c0.3,0,0.5,0.1,0.6,0.2
				c0.1,0.2,0.1,0.4,0.1,0.8c0,1.9-1.8,5.3-3.3,7.8L193.8,151.5z"/>
		</g>
	</g>
	<g>
		<g>
			<path d="M44.3,108.8v-0.8c0-1,0-1.5-0.1-2.3l-1.4-0.2v-0.6l2.4-1.1l0.3,0.2l0.2,2.3v2.6c0,1.1,0,3,0.1,3.8h-1.5
				C44.2,111.7,44.3,109.9,44.3,108.8z M42.9,111.9l2-0.4h0.4l2,0.4v0.6h-4.3V111.9z M45,106.3h1l-0.5,0.1c0.6-1.7,1.7-2.7,2.7-2.7
				c0.5,0,1.1,0.3,1.3,0.6c0,0.8-0.3,1.3-1,1.3c-0.4,0-0.8-0.2-1.1-0.4l-0.5-0.4l0.9-0.2c-1.1,0.6-1.8,1.5-2.2,2.9H45V106.3z"/>
			<path d="M51.1,112.5c0-0.5,0-1.8,0-2.5v-0.6c0-0.7,0-1,0-1.5l-1-0.1v-0.4l1.6-0.7l0.2,0.1l0.1,1.4v1.8c0,0.7,0,2,0,2.5H51.1z
				 M52.9,112.1v0.4h-2.8v-0.4l1.3-0.2h0.2L52.9,112.1z M55.7,108.9v1.1c0,0.8,0,2,0,2.5h-1c0-0.5,0-1.8,0-2.5v-1
				c0-1.1-0.3-1.5-1-1.5c-0.6,0-1.1,0.2-1.7,0.8h-0.3v-0.5h0.6l-0.5,0.2c0.6-0.8,1.5-1.3,2.3-1.3C55.2,106.7,55.7,107.3,55.7,108.9z
				 M55.3,111.9l1.2,0.2v0.4h-2.8v-0.4l1.3-0.2H55.3z M59.3,108.8v1.2c0,0.8,0,2,0,2.5h-1c0-0.5,0-1.8,0-2.5v-1c0-1.1-0.3-1.5-1-1.5
				c-0.5,0-1,0.2-1.7,0.8h-0.3v-0.4h0.6l-0.6,0.1c0.6-0.9,1.5-1.3,2.4-1.3C58.7,106.7,59.3,107.3,59.3,108.8z M58.9,111.9l1.2,0.2
				v0.4h-2.8v-0.4l1.3-0.2H58.9z"/>
		</g>
	</g>
	<g>
		<g>
			<path d="M163.3,108.8v-0.8c0-1,0-1.5-0.1-2.3l-1.4-0.2v-0.6l2.4-1.1l0.3,0.2l0.2,2.2v2.6c0,1.1,0,3,0.1,3.8h-1.5
				C163.2,111.7,163.3,109.9,163.3,108.8z M161.9,111.9l2-0.4h0.4l2,0.4v0.6h-4.3V111.9z M164,106.3h1l-0.5,0.1
				c0.6-1.7,1.7-2.7,2.7-2.7c0.5,0,1.1,0.3,1.3,0.6c0,0.8-0.3,1.3-1,1.3c-0.4,0-0.8-0.2-1.1-0.4l-0.5-0.4l0.9-0.2
				c-1.1,0.6-1.8,1.5-2.2,2.9H164V106.3z"/>
			<path d="M172.2,115v0.4h-3.1V115l1.4-0.2h0.2L172.2,115z M170.1,109.5c0-0.7,0-1,0-1.5l-1-0.1v-0.4l1.6-0.7l0.2,0.1l0.1,1l0,0
				v3.7l0,0.1v1.2c0,0.8,0,1.7,0,2.5h-1c0-0.8,0-1.7,0-2.5V109.5z M172.6,107.4c-0.4,0-1,0.2-1.9,1.1l-0.1-0.2
				c0.7-1.1,1.5-1.5,2.3-1.5c1.3,0,2.3,1.1,2.3,3c0,1.8-1.1,3-2.5,3c-0.7,0-1.5-0.3-2.1-1.6l0.1-0.2c0.6,0.8,1.2,1.1,1.8,1.1
				c0.9,0,1.7-0.7,1.7-2.3S173.5,107.4,172.6,107.4z"/>
		</g>
	</g>
	<g>
		<g>
			<path d="M58.5,153l1.8-0.3h0.4l2,0.3v0.7h-4.1V153z M63.8,141.6h1.1l4.1,12.2h-1.7l-3.6-10.8h0.4l-3.7,10.8h-0.8L63.8,141.6z
				 M61.7,148.9h4.9l0.3,0.8h-5.4L61.7,148.9z M65.3,153l2.3-0.3h0.4l2.2,0.3v0.7h-4.9V153z"/>
			<path d="M71.7,153.7c0-0.5,0-1.8,0-2.5v-0.6c0-0.7,0-1,0-1.5l-1-0.1v-0.4l1.6-0.7l0.2,0.1l0.1,1.4v1.8c0,0.7,0,2,0,2.5H71.7z
				 M73.5,153.3v0.4h-2.8v-0.4l1.3-0.2h0.2L73.5,153.3z M76.3,150.1v1.1c0,0.8,0,2,0,2.5h-1c0-0.5,0-1.8,0-2.5v-1
				c0-1.1-0.3-1.5-1-1.5c-0.6,0-1.1,0.2-1.7,0.8h-0.3V149h0.6l-0.5,0.2c0.6-0.8,1.5-1.3,2.3-1.3C75.8,147.9,76.3,148.5,76.3,150.1z
				 M75.9,153.1l1.2,0.2v0.4h-2.8v-0.4l1.3-0.2H75.9z M79.9,150v1.2c0,0.8,0,2,0,2.5h-1c0-0.5,0-1.8,0-2.5v-1c0-1.1-0.3-1.5-1-1.5
				c-0.5,0-1,0.2-1.7,0.8h-0.3v-0.4h0.6l-0.6,0.1c0.6-0.9,1.5-1.3,2.4-1.3C79.3,147.9,79.9,148.5,79.9,150z M79.5,153.1l1.2,0.2v0.4
				H78v-0.4l1.3-0.2H79.5z"/>
		</g>
	</g>
	<g>
		<g>
			<path d="M136.2,153l1.8-0.3h0.4l2,0.3v0.7h-4.1V153z M141.6,141.6h1.1l4.1,12.2h-1.7l-3.6-10.8h0.4l-3.7,10.8h-0.8L141.6,141.6z
				 M139.5,148.9h4.9l0.3,0.8h-5.4L139.5,148.9z M143,153l2.3-0.3h0.4l2.2,0.3v0.7H143V153z"/>
		</g>
	</g>
	<g>
		<g>
			<g>
				<polyline class="st0" points="323.8,170.9 294.8,154.3 318.3,47.1 410.7,3.1 475.3,53 500.3,149.9 387.3,207.2 323.8,170.9 				
					"/>
			</g>
			<g>
				<polyline class="st1" points="323.8,170.9 294.8,154.3 318.3,47.1 410.7,3.1 475.3,53 500.3,149.9 387.3,207.2 323.8,170.9 				
					"/>
			</g>
		</g>
		<circle cx="410.7" cy="3.1" r="2.5"/>
		<circle cx="475.3" cy="53" r="2.5"/>
		<circle cx="318.3" cy="47.1" r="2.5"/>
		<circle cx="294.8" cy="154.3" r="2.5"/>
		<circle cx="387.3" cy="207.2" r="2.5"/>
		<circle cx="500.3" cy="150" r="2.5"/>
		<circle cx="381.2" cy="87.6" r="2.5"/>
		<line class="st2" x1="381.2" y1="87.6" x2="294.8" y2="154.3"/>
		<line class="st2" x1="500.3" y1="149.9" x2="381.2" y2="87.6"/>
		<g>
			<g>
				<line class="st2" x1="381.2" y1="87.6" x2="383.1" y2="87"/>
				<line class="st3" x1="386.7" y1="85.6" x2="471.7" y2="54.4"/>
				<line class="st2" x1="473.5" y1="53.7" x2="475.3" y2="53"/>
			</g>
		</g>
		<g>
			<g>
				<line class="st2" x1="410.7" y1="3.1" x2="410.1" y2="5"/>
				<line class="st4" x1="408.7" y1="8.8" x2="382.5" y2="83.8"/>
				<line class="st2" x1="381.9" y1="85.8" x2="381.2" y2="87.6"/>
			</g>
		</g>
		<g>
			<g>
				<line class="st2" x1="318.3" y1="47.1" x2="319.9" y2="48.2"/>
				<line class="st5" x1="323.4" y1="50.5" x2="377.8" y2="85.4"/>
				<line class="st2" x1="379.5" y1="86.6" x2="381.2" y2="87.6"/>
			</g>
		</g>
		<g>
			<g>
				<path d="M374.8,71.6c0.9,0,1.5-0.4,2.4-1.5l0.2,0.5c-0.8,1.4-1.7,2-2.9,2c-2.2,0-3.7-1.8-3.7-4.4c0-2.7,1.6-4.6,3.8-4.6
					c1,0,2,0.4,2.9,1.8l-0.2,0.5c-1-1-1.8-1.3-2.4-1.3c-1.4,0-2.5,1.1-2.5,3.6C372.3,70.5,373.4,71.6,374.8,71.6z M377.9,75.7l2,0.4
					v0.6h-4.6v-0.6l2.2-0.4H377.9z M378.5,76.7H377c0-1.3,0.1-2.6,0.1-3.8v-1.8l-0.1-0.3v-5.9l1.2-1.3l0.3,0.2l-0.1,2.4v6.7
					C378.4,74.1,378.4,75.4,378.5,76.7z"/>
			</g>
		</g>
		<g>
			<g>
				<path d="M281.4,162l-1.8-0.3V161h4.3v0.7l-2.2,0.3H281.4z M282,161l2.8,7.3l-0.7,0.9l2.9-8.3h1l-3.3,8.6h-0.7l-3.6-8.6H282z
					 M286.9,162l-1.8-0.3V161h3.4v0.7l-1.3,0.3H286.9z"/>
				<path d="M290.1,169.6c0-0.5,0-1.8,0-2.5v-0.6c0-0.7,0-1,0-1.5l-1-0.1v-0.4l1.6-0.7l0.2,0.1l0.1,1.4v1.8c0,0.7,0,2,0,2.5H290.1z
					 M291.9,169.1v0.4h-2.8v-0.4l1.3-0.2h0.2L291.9,169.1z M294.7,165.9v1.1c0,0.8,0,2,0,2.5h-1c0-0.5,0-1.8,0-2.5v-1
					c0-1.1-0.3-1.5-1-1.5c-0.6,0-1.1,0.2-1.7,0.8h-0.3v-0.5h0.6l-0.5,0.2c0.6-0.8,1.5-1.3,2.3-1.3
					C294.2,163.7,294.7,164.4,294.7,165.9z M294.3,168.9l1.2,0.2v0.4h-2.8v-0.4l1.3-0.2H294.3z M298.3,165.8v1.2c0,0.8,0,2,0,2.5h-1
					c0-0.5,0-1.8,0-2.5v-1c0-1.1-0.3-1.5-1-1.5c-0.5,0-1,0.2-1.7,0.8h-0.3V165h0.6l-0.6,0.1c0.6-0.9,1.5-1.3,2.4-1.3
					C297.7,163.7,298.3,164.3,298.3,165.8z M297.9,168.9l1.2,0.2v0.4h-2.8v-0.4l1.3-0.2H297.9z"/>
			</g>
		</g>
		<g>
			<g>
				<path d="M385.2,216.9l-1.8-0.3v-0.7h4.3v0.7l-2.2,0.3H385.2z M385.8,215.9l2.8,7.3l-0.7,0.9l2.9-8.3h1l-3.3,8.6h-0.7l-3.6-8.6
					H385.8z M390.7,216.9l-1.8-0.3v-0.7h3.4v0.7l-1.3,0.3H390.7z"/>
				<path d="M393.9,221.4c0-0.7,0-1,0-1.5l-1-0.1v-0.4l1.8-0.7l0.2,0.1l0,1.6v2.9c0,2-0.1,2.9-0.7,3.6c-0.4,0.4-0.8,0.7-1.5,0.7
					c-0.7,0-1-0.4-1-0.7c0.1-0.3,0.3-0.5,0.7-0.5c0.3,0,0.6,0.1,0.9,0.3l0.5,0.4l-1.5,0.2v-0.5c0.1,0.2,0.5,0.3,0.7,0.3
					c0.3,0,0.6-0.1,0.8-0.5c0.2-0.5,0.3-1.5,0.3-3.3V221.4z M393.6,216.5c0-0.5,0.3-0.8,0.8-0.8c0.4,0,0.8,0.3,0.8,0.8
					c0,0.4-0.3,0.8-0.8,0.8C393.9,217.3,393.6,217,393.6,216.5z"/>
			</g>
		</g>
		<g>
			<g>
				<path d="M498.8,160l-1.8-0.3V159h4.3v0.7l-2.2,0.3H498.8z M499.4,159l2.8,7.3l-0.7,0.9l2.9-8.3h1l-3.3,8.6h-0.7l-3.6-8.6H499.4z
					 M504.3,160l-1.8-0.3V159h3.4v0.7l-1.3,0.3H504.3z"/>
				<path d="M509.6,170v0.4h-3.1V170l1.4-0.2h0.2L509.6,170z M507.5,164.4c0-0.7,0-1,0-1.5l-1-0.1v-0.4l1.6-0.7l0.2,0.1l0.1,1l0,0
					v3.7l0,0.1v1.2c0,0.8,0,1.7,0,2.5h-1c0-0.8,0-1.7,0-2.5V164.4z M510,162.3c-0.4,0-1,0.2-1.9,1.1l-0.1-0.2
					c0.7-1.1,1.5-1.5,2.3-1.5c1.3,0,2.3,1.1,2.3,3c0,1.8-1.1,3-2.5,3c-0.7,0-1.5-0.3-2.1-1.6l0.1-0.2c0.6,0.8,1.2,1.1,1.8,1.1
					c0.9,0,1.7-0.7,1.7-2.3C511.5,163.2,510.8,162.3,510,162.3z"/>
			</g>
		</g>
		<line class="st2" x1="294.8" y1="154.3" x2="500.3" y2="149.9"/>
		<g>
			<g>
				<path d="M378.5,120.4v-0.7h2.5v1h-0.2L378.5,120.4z M381,130.8v1h-2.5V131l2.3-0.3H381z M380.2,125.3c0-1.9,0-3.7-0.1-5.6h1.7
					c-0.1,1.8-0.1,3.7-0.1,5.6v0.6c0,2.1,0,4,0.1,5.9h-1.7c0.1-1.8,0.1-3.7,0.1-5.6V125.3z M381,125.1h1.8c2.2,0,3.2-0.7,3.2-2.4
					s-1-2.2-2.8-2.2H381v-0.8h2.7c2.5,0,3.9,1.2,3.9,3c0,1.4-1,2.6-3.4,2.9v-0.2c2.8,0.2,4,1.5,4,3c0,1.6-1.4,3.3-4.8,3.3H381v-0.8
					h2c2.3,0,3.5-0.9,3.5-2.5c0-1.7-1.1-2.5-3.6-2.5H381V125.1z"/>
			</g>
		</g>
		<g>
			<g class="st6">
				<path class="st7" d="M391.4,179.1v1l-1.1,0.3l0.5-2.7h1.1l-0.1,2.6c-1.1,0.6-2.4,0.9-3.6,0.9c-3.6,0-6.1-2.6-6.1-6.3
					c0-3.6,2.6-6.3,6.1-6.3c1,0,2.3,0.2,3.5,0.9l0.1,2.6h-1.1l-0.5-2.7l1.1,0.3v1.1c-1-1-2-1.3-2.9-1.3c-2.4,0-4.4,1.9-4.4,5.4
					c0,3.5,1.8,5.4,4.3,5.4C389.2,180.2,390.4,179.9,391.4,179.1z"/>
			</g>
		</g>
	</g>
</g>
</svg>
