<?xml version="1.0" encoding="utf-8"?>
<!-- Generator: Adobe Illustrator 24.0.3, SVG Export Plug-In . SVG Version: 6.00 Build 0)  -->
<svg version="1.1" id="Layer_1" xmlns="http://www.w3.org/2000/svg" xmlns:xlink="http://www.w3.org/1999/xlink" x="0px" y="0px"
	 width="220.8px" height="229.9px" viewBox="0 0 220.8 229.9" style="enable-background:new 0 0 220.8 229.9;" xml:space="preserve"
	>
<style type="text/css">
	.st0{display:none;fill:#AFAEAE;}
	.st1{display:none;fill:#AFAEAE;stroke:#000000;stroke-width:0.5;stroke-miterlimit:10;}
	.st2{fill:#AFAEAE;stroke:#000000;stroke-width:0.5;stroke-miterlimit:10;}
	.st3{fill:none;stroke:#000000;stroke-width:2;stroke-miterlimit:10;}
	.st4{fill:none;stroke:#000000;stroke-miterlimit:10;}
	.st5{fill:none;stroke:#000000;stroke-miterlimit:10;stroke-dasharray:3.8947,3.8947;}
	.st6{fill:none;stroke:#000000;stroke-miterlimit:10;stroke-dasharray:3.8526,3.8526;}
	.st7{fill:none;stroke:#000000;stroke-miterlimit:10;stroke-dasharray:4.0747,4.0747;}
	.st8{fill:none;stroke:#000000;stroke-miterlimit:10;stroke-dasharray:4.168,4.168;}
</style>
<polygon class="st0" points="88.9,87.1 95,206.6 208,149.3 "/>
<polygon class="st1" points="88.9,87.1 92,146.8 130.7,147.7 148.5,118.2 "/>
<polygon class="st2" points="88.9,87.1 92,146.8 134.7,144.6 148.5,118.2 "/>
<g>
	<g>
		<polyline class="st3" points="31.6,170.3 2.5,153.7 26,46.5 118.5,2.5 183.1,52.4 208,149.3 95,206.6 31.6,170.3 		"/>
	</g>
</g>
<circle cx="118.5" cy="2.5" r="2.5"/>
<circle cx="183.1" cy="52.4" r="2.5"/>
<circle cx="26" cy="46.5" r="2.5"/>
<circle cx="2.5" cy="153.7" r="2.5"/>
<circle cx="95" cy="206.6" r="2.5"/>
<circle cx="208" cy="149.4" r="2.5"/>
<circle cx="88.9" cy="87.1" r="2.5"/>
<g>
	<g>
		<line class="st4" x1="88.9" y1="87.1" x2="87.4" y2="88.3"/>
		<line class="st5" x1="84.3" y1="90.7" x2="5.6" y2="151.3"/>
		<line class="st4" x1="4.1" y1="152.5" x2="2.5" y2="153.7"/>
	</g>
</g>
<polyline class="st4" points="95,206.6 92,146.8 88.9,87.1 "/>
<polyline class="st4" points="208,149.3 148.5,118.2 88.9,87.1 "/>
<g>
	<g>
		<line class="st4" x1="88.9" y1="87.1" x2="90.8" y2="86.4"/>
		<line class="st6" x1="94.4" y1="85" x2="179.4" y2="53.8"/>
		<line class="st4" x1="181.2" y1="53.1" x2="183.1" y2="52.4"/>
	</g>
</g>
<g>
	<g>
		<line class="st4" x1="118.5" y1="2.5" x2="117.8" y2="4.4"/>
		<line class="st7" x1="116.5" y1="8.2" x2="90.3" y2="83.2"/>
		<line class="st4" x1="89.6" y1="85.2" x2="88.9" y2="87.1"/>
	</g>
</g>
<g>
	<g>
		<line class="st4" x1="26" y1="46.5" x2="27.7" y2="47.6"/>
		<line class="st8" x1="31.2" y1="49.9" x2="85.5" y2="84.8"/>
		<line class="st4" x1="87.3" y1="86" x2="88.9" y2="87.1"/>
	</g>
</g>
<g>
	<g>
		<path d="M82.6,71c0.9,0,1.5-0.4,2.4-1.5l0.2,0.5c-0.8,1.4-1.7,2-2.9,2c-2.2,0-3.7-1.8-3.7-4.4c0-2.7,1.6-4.6,3.8-4.6
			c1,0,2,0.4,2.9,1.8L85,65.3c-1-1-1.8-1.3-2.4-1.3c-1.4,0-2.5,1.1-2.5,3.6C80,70,81.1,71,82.6,71z M85.6,75.1l2,0.4v0.6h-4.6v-0.6
			l2.2-0.4H85.6z M86.2,76.1h-1.5c0-1.3,0.1-2.6,0.1-3.8v-1.8l-0.1-0.3v-5.9l1.2-1.3l0.3,0.2l-0.1,2.4v6.7
			C86.2,73.5,86.2,74.8,86.2,76.1z"/>
	</g>
</g>
<g>
	<g>
		<path d="M93,216.3l-1.8-0.3v-0.7h4.3v0.7l-2.2,0.3H93z M93.5,215.4l2.8,7.3l-0.7,0.9l2.9-8.3h1l-3.3,8.6h-0.7l-3.6-8.6H93.5z
			 M98.5,216.3l-1.8-0.3v-0.7h3.4v0.7l-1.3,0.3H98.5z"/>
		<path d="M101.6,220.8c0-0.7,0-1,0-1.5l-1-0.1v-0.4l1.8-0.7l0.2,0.1l0,1.6v2.9c0,2-0.1,2.9-0.7,3.6c-0.4,0.4-0.8,0.7-1.5,0.7
			c-0.7,0-1-0.4-1-0.7c0.1-0.3,0.3-0.5,0.7-0.5c0.3,0,0.6,0.1,0.9,0.3l0.5,0.4l-1.5,0.2v-0.5c0.1,0.2,0.5,0.3,0.7,0.3
			c0.3,0,0.6-0.1,0.8-0.5c0.2-0.5,0.3-1.5,0.3-3.3V220.8z M101.3,215.9c0-0.5,0.3-0.8,0.8-0.8c0.4,0,0.8,0.3,0.8,0.8
			c0,0.4-0.3,0.8-0.8,0.8C101.7,216.7,101.3,216.4,101.3,215.9z"/>
	</g>
</g>
<g>
	<g>
		<path d="M206.5,159.4l-1.8-0.3v-0.7h4.3v0.7l-2.2,0.3H206.5z M207.1,158.4l2.8,7.3l-0.7,0.9l2.9-8.3h1l-3.3,8.6H209l-3.6-8.6
			H207.1z M212,159.4l-1.8-0.3v-0.7h3.4v0.7l-1.3,0.3H212z"/>
		<path d="M217.3,169.4v0.4h-3.1v-0.4l1.4-0.2h0.2L217.3,169.4z M215.3,163.8c0-0.7,0-1,0-1.5l-1-0.1v-0.4l1.6-0.7l0.2,0.1l0.1,1
			l0,0v3.7l0,0.1v1.2c0,0.8,0,1.7,0,2.5h-1c0-0.8,0-1.7,0-2.5V163.8z M217.7,161.7c-0.4,0-1,0.2-1.9,1.1l-0.1-0.2
			c0.7-1.1,1.5-1.5,2.3-1.5c1.3,0,2.3,1.1,2.3,3c0,1.8-1.1,3-2.5,3c-0.7,0-1.5-0.3-2.1-1.6l0.1-0.2c0.6,0.8,1.2,1.1,1.8,1.1
			c0.9,0,1.7-0.7,1.7-2.3C219.2,162.6,218.6,161.7,217.7,161.7z"/>
	</g>
</g>
</svg>
