<?xml version="1.0" encoding="utf-8"?>
<!-- Generator: Adobe Illustrator 24.0.3, SVG Export Plug-In . SVG Version: 6.00 Build 0)  -->
<svg version="1.1" id="Layer_1" xmlns="http://www.w3.org/2000/svg" xmlns:xlink="http://www.w3.org/1999/xlink" x="0px" y="0px"
	 width="494.5px" height="156.7px" viewBox="0 0 494.5 156.7" style="enable-background:new 0 0 494.5 156.7;" xml:space="preserve"
	>
<style type="text/css">
	.st0{fill:none;stroke:#000000;stroke-miterlimit:10;}
	.st1{display:none;}
	.st2{display:inline;}
</style>
<circle cx="3.3" cy="86.7" r="2.5"/>
<circle cx="95.8" cy="139.6" r="2.5"/>
<circle cx="208.9" cy="82.4" r="2.5"/>
<circle cx="89.8" cy="20.1" r="2.5"/>
<polyline class="st0" points="89.8,20.1 3.3,86.7 95.8,139.6 89.8,20.1 "/>
<polyline class="st0" points="95.8,139.6 208.9,82.3 89.8,20.1 "/>
<g class="st1">
	<g class="st2">
		<path class="st0" d="M67.2,118.4c5.9-8.7,15.6-14.6,26.8-15.2"/>
		<g>
			<polygon points="70.5,118.1 67.7,117.7 66,115.4 65.1,122 			"/>
		</g>
	</g>
</g>
<g class="st1">
	<g class="st2">
		<path class="st0" d="M98.1,107c10,2.3,18.8,9.2,23.3,19.2"/>
		<g>
			<polygon points="99.6,109.9 99,107.2 100.5,104.8 94,106.3 			"/>
		</g>
	</g>
</g>
<g class="st1">
	<g class="st2">
		<path class="st0" d="M172,95.8c-3.6-9.9-2.6-21.3,3.5-30.6"/>
		<g>
			<polygon points="173.7,93 171.7,95 168.9,95 173.7,99.6 			"/>
		</g>
	</g>
</g>
<g class="st1">
	<g class="st2">
		<path class="st0" d="M29.3,72.1c5.6,8.9,7.1,20.2,3.1,30.7"/>
		<g>
			<polygon points="28.2,75.2 29.7,72.8 32.5,72.2 26.8,68.7 			"/>
		</g>
	</g>
</g>
<g class="st1">
	<g class="st2">
		<path class="st0" d="M115.9,38.5c-4.5,9.5-13.3,16.8-24.2,19.1"/>
		<g>
			<polygon points="112.7,39.3 115.5,39.2 117.5,41.2 117.5,34.6 			"/>
		</g>
	</g>
</g>
<g class="st1">
	<g class="st2">
		<path class="st0" d="M87.1,54c-10,0.9-20.2-2.8-27.3-10.7"/>
		<g>
			<polygon points="84.8,51.6 86.2,54 85.5,56.8 91.2,53.3 			"/>
		</g>
	</g>
</g>
<g>
	<g class="st1">
		<path class="st2" d="M83.8,120.7v1.5c-0.4-2-1.1-3.9-1.8-5.7c-0.5-1.5-0.8-2-1.4-2c-0.2,0-0.4,0-0.6,0.1l-0.2-0.5
			c0.4-0.4,0.8-0.7,1.4-0.7c0.7,0,1.3,0.3,2,2.4c0.4,1.1,0.9,2.8,1.4,5.4l0.1,0.1l0.1,3.9l-1.4,0.3l-0.2-0.2L83.8,120.7z
			 M84.3,121.3c1.2-2.1,1.7-3.5,2.5-5.5l-0.2,1.4c-0.2-1.7-0.3-2.3-0.3-2.7c0-0.8,0.4-1.2,0.9-1.2c0.3,0,0.5,0.1,0.6,0.2
			c0.1,0.2,0.1,0.4,0.1,0.8c0,1.9-1.8,5.3-3.3,7.8L84.3,121.3z"/>
	</g>
</g>
<g>
	<g class="st1">
		<path class="st2" d="M99.9,127v-8.8c0-2.6,1.6-4.3,3.8-4.3c1.8,0,3.2,1.1,3.2,3c0,1.4-1,3.3-3.6,3.5l-0.1-0.2c3-0.1,4.7,1,4.7,3.4
			c0,2.5-1.9,3.8-3.7,3.8c-1.3,0-2.6-0.6-3.3-2.2l0.2-0.2c0.8,0.7,1.7,1.2,2.8,1.2c1.7,0,2.6-1.1,2.6-2.7c0-1.5-0.8-2.9-3.5-2.8
			l-0.2-1c1.7-0.3,2.7-1.3,2.7-2.9c0-1.4-0.7-2.3-1.9-2.3c-1.3,0-2.2,1.2-2.2,3.2v7.7l-0.1,0.3l0.3,4.5l-1.4,0.3l-0.2-0.2L99.9,127z
			"/>
	</g>
</g>
<g>
	<g class="st1">
		<path class="st2" d="M82.7,78.4v-0.8c0-1,0-1.5-0.1-2.3l-1.4-0.2v-0.6l2.4-1.1l0.3,0.2l0.2,2.3v2.6c0,1.1,0,3,0.1,3.8h-1.5
			C82.7,81.4,82.7,79.6,82.7,78.4z M81.4,81.6l2-0.4h0.4l2,0.4v0.6h-4.3L81.4,81.6L81.4,81.6z M83.5,76h1L84,76.1
			c0.6-1.7,1.7-2.7,2.7-2.7c0.5,0,1.1,0.3,1.3,0.6c0,0.8-0.3,1.3-1,1.3c-0.4,0-0.8-0.2-1.1-0.4l-0.5-0.4l0.9-0.2
			c-1.1,0.6-1.8,1.5-2.2,2.9h-0.7L83.5,76L83.5,76z"/>
	</g>
</g>
<g>
	<g class="st1">
		<path class="st2" d="M20.7,89v-8.8c0-2.6,1.6-4.3,3.8-4.3c1.8,0,3.2,1.1,3.2,3c0,1.4-1,3.3-3.6,3.5L24,82.2c3-0.1,4.7,1,4.7,3.4
			c0,2.5-1.9,3.8-3.7,3.8c-1.3,0-2.6-0.6-3.3-2.2l0.2-0.2c0.8,0.7,1.7,1.2,2.8,1.2c1.7,0,2.6-1.1,2.6-2.7c0-1.5-0.8-2.9-3.5-2.8
			l-0.2-1c1.7-0.3,2.7-1.3,2.7-2.9c0-1.4-0.7-2.3-1.9-2.3c-1.3,0-2.2,1.2-2.2,3.2v7.7l-0.1,0.3l0.3,4.5L21,92.5l-0.2-0.2L20.7,89z"
			/>
	</g>
</g>
<g>
	<g class="st1">
		<path class="st2" d="M181.5,83.9v1.5c-0.4-2-1.1-3.9-1.8-5.7c-0.5-1.5-0.8-2-1.4-2c-0.2,0-0.4,0-0.6,0.1l-0.2-0.5
			c0.4-0.4,0.8-0.7,1.4-0.7c0.7,0,1.3,0.3,2,2.4c0.4,1.1,0.9,2.8,1.4,5.4l0.1,0.1l0.1,3.9l-1.4,0.3l-0.2-0.2L181.5,83.9z M182,84.5
			c1.2-2.1,1.7-3.5,2.5-5.5l-0.2,1.4c-0.2-1.7-0.3-2.3-0.3-2.7c0-0.8,0.4-1.2,0.9-1.2c0.3,0,0.5,0.1,0.6,0.2
			c0.1,0.2,0.1,0.4,0.1,0.8c0,1.9-1.8,5.3-3.3,7.8L182,84.5z"/>
	</g>
</g>
<g>
	<g class="st1">
		<path class="st2" d="M32.5,41.8V41c0-1,0-1.5-0.1-2.3L31,38.5v-0.6l2.4-1.1l0.3,0.2l0.2,2.3v2.6c0,1.1,0,3,0.1,3.8h-1.5
			C32.4,44.7,32.5,42.9,32.5,41.8z M31.1,44.9l2-0.4h0.4l2,0.4v0.6h-4.3v-0.6H31.1z M33.2,39.3h1l-0.5,0.1c0.6-1.7,1.7-2.7,2.7-2.7
			c0.5,0,1.1,0.3,1.3,0.6c0,0.8-0.3,1.3-1,1.3c-0.4,0-0.8-0.2-1.1-0.4l-0.5-0.4l0.9-0.2c-1.1,0.6-1.8,1.5-2.2,2.9h-0.6
			C33.2,40.5,33.2,39.3,33.2,39.3z"/>
		<path class="st2" d="M39.3,45.5c0-0.5,0-1.8,0-2.5v-0.6c0-0.7,0-1,0-1.5l-1-0.1v-0.4l1.6-0.7l0.2,0.1l0.1,1.4V43c0,0.7,0,2,0,2.5
			C40.2,45.5,39.3,45.5,39.3,45.5z M41.1,45.1v0.4h-2.8v-0.4l1.3-0.2h0.2L41.1,45.1z M43.9,41.9V43c0,0.8,0,2,0,2.5h-1
			c0-0.5,0-1.8,0-2.5v-1c0-1.1-0.3-1.5-1-1.5c-0.6,0-1.1,0.2-1.7,0.8h-0.3v-0.5h0.6L40,41c0.6-0.8,1.5-1.3,2.3-1.3
			C43.4,39.7,43.9,40.3,43.9,41.9z M43.5,44.9l1.2,0.2v0.4h-2.8v-0.4l1.3-0.2H43.5z M47.5,41.8V43c0,0.8,0,2,0,2.5h-1
			c0-0.5,0-1.8,0-2.5v-1c0-1.1-0.3-1.5-1-1.5c-0.5,0-1,0.2-1.7,0.8h-0.3v-0.4h0.6L43.5,41c0.6-0.9,1.5-1.3,2.4-1.3
			C46.9,39.7,47.5,40.3,47.5,41.8z M47.1,44.9l1.2,0.2v0.4h-2.8v-0.4l1.3-0.2H47.1z"/>
	</g>
</g>
<g>
	<g class="st1">
		<path class="st2" d="M151.5,41.8V41c0-1,0-1.5-0.1-2.3l-1.4-0.2v-0.6l2.4-1.1l0.3,0.2l0.2,2.2v2.6c0,1.1,0,3,0.1,3.8h-1.5
			C151.4,44.7,151.5,42.9,151.5,41.8z M150.1,44.9l2-0.4h0.4l2,0.4v0.6h-4.3L150.1,44.9L150.1,44.9z M152.2,39.3h1l-0.5,0.1
			c0.6-1.7,1.7-2.7,2.7-2.7c0.5,0,1.1,0.3,1.3,0.6c0,0.8-0.3,1.3-1,1.3c-0.4,0-0.8-0.2-1.1-0.4l-0.5-0.4l0.9-0.2
			c-1.1,0.6-1.8,1.5-2.2,2.9h-0.6L152.2,39.3L152.2,39.3z"/>
		<path class="st2" d="M160.4,48v0.4h-3.1V48l1.4-0.2h0.2L160.4,48z M158.3,42.5c0-0.7,0-1,0-1.5l-1-0.1v-0.4l1.6-0.7l0.2,0.1l0.1,1
			l0,0v3.7v0.1v1.2c0,0.8,0,1.7,0,2.5h-1c0-0.8,0-1.7,0-2.5L158.3,42.5L158.3,42.5z M160.8,40.4c-0.4,0-1,0.2-1.9,1.1l-0.1-0.2
			c0.7-1.1,1.5-1.5,2.3-1.5c1.3,0,2.3,1.1,2.3,3c0,1.8-1.1,3-2.5,3c-0.7,0-1.5-0.3-2.1-1.6l0.1-0.2c0.6,0.8,1.2,1.1,1.8,1.1
			c0.9,0,1.7-0.7,1.7-2.3S161.7,40.4,160.8,40.4z"/>
	</g>
</g>
<circle cx="283" cy="87.3" r="2.5"/>
<circle cx="375.5" cy="140.2" r="2.5"/>
<circle cx="488.5" cy="83" r="2.5"/>
<circle cx="369.4" cy="20.6" r="2.5"/>
<line class="st0" x1="369.4" y1="20.6" x2="283" y2="87.3"/>
<line class="st0" x1="488.5" y1="82.9" x2="369.4" y2="20.6"/>
<polygon class="st0" points="375.5,140.2 283,87.3 488.5,82.9 "/>
<g>
	<g class="st1">
		<path class="st2" d="M366.7,53.4v-0.7h2.5v1H369L366.7,53.4z M369.2,63.8v1h-2.5V64l2.3-0.3h0.2V63.8z M368.4,58.3
			c0-1.9,0-3.7-0.1-5.6h1.7c-0.1,1.8-0.1,3.7-0.1,5.6v0.6c0,2.1,0,4,0.1,5.9h-1.7c0.1-1.8,0.1-3.7,0.1-5.6V58.3z M369.2,58.1h1.8
			c2.2,0,3.2-0.7,3.2-2.4s-1-2.2-2.8-2.2h-2.2v-0.8h2.7c2.5,0,3.9,1.2,3.9,3c0,1.4-1,2.6-3.4,2.9v-0.2c2.8,0.2,4,1.5,4,3
			c0,1.6-1.4,3.3-4.8,3.3h-2.4v-0.8h2c2.3,0,3.5-0.9,3.5-2.5c0-1.7-1.1-2.5-3.6-2.5h-1.9L369.2,58.1L369.2,58.1z"/>
	</g>
</g>
<g>
	<g>
		<path d="M379.6,112.1v1l-1.1,0.3l0.5-2.7h1.1l-0.1,2.6c-1.1,0.6-2.4,0.9-3.6,0.9c-3.6,0-6.1-2.6-6.1-6.3c0-3.6,2.6-6.3,6.1-6.3
			c1,0,2.3,0.2,3.5,0.9l0.1,2.6h-1.1l-0.5-2.7l1.1,0.3v1.1c-1-1-2-1.3-2.9-1.3c-2.4,0-4.4,1.9-4.4,5.4s1.8,5.4,4.3,5.4
			C377.4,113.2,378.6,112.9,379.6,112.1z"/>
	</g>
</g>
<g>
	<g>
		<path d="M86.1,8c0.9,0,1.5-0.4,2.4-1.5L88.7,7c-0.8,1.4-1.7,2-2.9,2c-2.2,0-3.7-1.8-3.7-4.4c0-2.7,1.6-4.6,3.8-4.6
			c1,0,2,0.4,2.9,1.8l-0.2,0.5c-1-1-1.8-1.3-2.4-1.3c-1.4,0-2.5,1.1-2.5,3.6C83.6,6.9,84.6,8,86.1,8z M89.2,12.1l2,0.4v0.6h-4.6
			v-0.6l2.2-0.4H89.2z M89.7,13.1h-1.5c0-1.3,0.1-2.6,0.1-3.8V7.5l-0.1-0.3V1.3L89.4,0l0.3,0.2l-0.1,2.4v6.7
			C89.7,10.5,89.7,11.8,89.7,13.1z"/>
	</g>
</g>
<g>
	<g>
		<path d="M365.8,8c0.9,0,1.5-0.4,2.4-1.5l0.2,0.5c-0.8,1.4-1.7,2-2.9,2c-2.2,0-3.7-1.8-3.7-4.4c0-2.7,1.6-4.6,3.8-4.6
			c1,0,2,0.4,2.9,1.8l-0.2,0.5c-1-1-1.8-1.3-2.4-1.3c-1.3,0-2.5,1.1-2.5,3.6C363.3,6.9,364.3,8,365.8,8z M368.9,12.1l2,0.4v0.6h-4.6
			v-0.6l2.2-0.4H368.9z M369.4,13.1h-1.5c0-1.3,0.1-2.6,0.1-3.8V7.5l-0.1-0.3V1.3l1.2-1.3l0.3,0.2l-0.1,2.4v6.7
			C369.4,10.5,369.4,11.8,369.4,13.1z"/>
	</g>
</g>
<g>
	<g>
		<path d="M3.9,104.3c0.4,0,0.8-0.2,1.2-0.5l0.4,0.5c-0.5,0.6-1.2,0.9-2.1,0.9c-1.2,0-2-0.6-2-2c0-0.4,0-0.8,0-1.5v-4.3H0v-0.8
			l2.2-0.3l-0.7,0.6L2,94h1l-0.1,3.2v5.8C2.9,103.9,3.3,104.3,3.9,104.3z M5.4,96.4v0.9H2.2v-0.9H5.4z"/>
	</g>
</g>
<g>
	<g>
		<path d="M283.6,104.3c0.4,0,0.8-0.2,1.2-0.5l0.4,0.5c-0.5,0.6-1.2,0.9-2.1,0.9c-1.2,0-2-0.6-2-2c0-0.4,0-0.8,0-1.5v-4.3h-1.5v-0.8
			l2.2-0.3l-0.7,0.6l0.5-2.9h1l-0.1,3.2v5.8C282.6,103.9,283,104.3,283.6,104.3z M285.1,96.4v0.9h-3.2v-0.9H285.1z"/>
	</g>
</g>
<g>
	<g>
		<path d="M94.4,152.8V152c0-1,0-1.5-0.1-2.3l-1.4-0.2v-0.6l2.4-1.1l0.3,0.2l0.2,2.3v2.6c0,1.1,0,3,0.1,3.8h-1.5
			C94.4,155.7,94.4,153.9,94.4,152.8z M93.1,155.9l2-0.4h0.4l2,0.4v0.6h-4.3L93.1,155.9L93.1,155.9z M95.1,150.3h1l-0.5,0.1
			c0.6-1.7,1.7-2.7,2.7-2.7c0.5,0,1.1,0.3,1.3,0.6c0,0.8-0.3,1.3-1,1.3c-0.4,0-0.8-0.2-1.1-0.4l-0.5-0.4l0.9-0.2
			c-1.1,0.6-1.8,1.5-2.2,2.9H95L95.1,150.3L95.1,150.3z"/>
	</g>
</g>
<g>
	<g>
		<path d="M374.5,152.8V152c0-1,0-1.5-0.1-2.3l-1.4-0.2v-0.6l2.4-1.1l0.3,0.2l0.2,2.3v2.6c0,1.1,0,3,0.1,3.8h-1.5
			C374.5,155.7,374.5,153.9,374.5,152.8z M373.2,155.9l2-0.4h0.4l2,0.4v0.6h-4.3v-0.6H373.2z M375.2,150.3h1l-0.5,0.1
			c0.6-1.7,1.7-2.7,2.7-2.7c0.5,0,1.1,0.3,1.3,0.6c0,0.8-0.3,1.3-1,1.3c-0.4,0-0.8-0.2-1.1-0.4l-0.5-0.4l0.9-0.2
			c-1.1,0.6-1.8,1.5-2.2,2.9h-0.7v-1.2H375.2z"/>
	</g>
</g>
<g>
	<g>
		<path d="M210.6,102.6v0.6H206v-0.6l2-0.4h0.4L210.6,102.6z M207.5,94.3c0-1,0-1.5-0.1-2.3l-1.4-0.2v-0.6l2.4-1.1l0.3,0.2l0.1,1.5
			h0.1v5.6l-0.1,0.1v1.8c0,1.3,0,2.6,0.1,3.8h-1.5c0-1.3,0.1-2.5,0.1-3.8L207.5,94.3L207.5,94.3z M211.2,91.2
			c-0.7,0-1.6,0.3-2.9,1.6l-0.2-0.3c1-1.6,2.2-2.3,3.4-2.3c1.9,0,3.4,1.7,3.4,4.5s-1.6,4.5-3.7,4.5c-1.1,0-2.2-0.5-3.2-2.4l0.2-0.3
			c0.9,1.2,1.8,1.7,2.7,1.7c1.4,0,2.5-1.1,2.5-3.4C213.5,92.5,212.5,91.2,211.2,91.2z"/>
	</g>
</g>
<g>
	<g>
		<path d="M490.2,102.6v0.6h-4.6v-0.6l2-0.4h0.4L490.2,102.6z M487.1,94.3c0-1,0-1.5-0.1-2.3l-1.4-0.2v-0.6l2.4-1.1l0.3,0.2l0.1,1.5
			h0.1v5.6l-0.1,0.1v1.8c0,1.3,0,2.6,0.1,3.8H487c0-1.3,0.1-2.5,0.1-3.8V94.3z M490.8,91.2c-0.7,0-1.6,0.3-2.9,1.6l-0.2-0.3
			c1-1.6,2.2-2.3,3.4-2.3c1.9,0,3.4,1.7,3.4,4.5s-1.6,4.5-3.7,4.5c-1.1,0-2.2-0.5-3.2-2.4l0.2-0.3c0.9,1.2,1.8,1.7,2.7,1.7
			c1.4,0,2.5-1.1,2.5-3.4C493.1,92.5,492.1,91.2,490.8,91.2z"/>
	</g>
</g>
<g>
	<g>
		<path d="M54.9,84.2l1.8-0.3h0.4l2,0.3v0.7H55v-0.7H54.9z M60.3,72.8h1.1L65.5,85h-1.7l-3.6-10.8h0.4L56.9,85h-0.8L60.3,72.8z
			 M58.2,80.2h4.9l0.3,0.8H58L58.2,80.2z M61.7,84.2l2.3-0.3h0.4l2.2,0.3v0.7h-4.9V84.2z"/>
		<path d="M72.4,84.4v0.5h-4.5v-0.5l1.7-0.3h1.1L72.4,84.4z M70.7,77.7l0.2,0.1v7.1h-1.2v-6.1l-1.4,0.1v-0.6L70.7,77.7z"/>
	</g>
</g>
<g>
	<g>
		<path d="M122.7,84.8l1.8-0.3h0.4l2,0.3v0.7h-4.1v-0.7H122.7z M128.1,73.4h1.1l4.1,12.2h-1.7L128,74.7h0.4l-3.7,10.8h-0.8
			L128.1,73.4z M125.9,80.8h4.9l0.3,0.8h-5.4L125.9,80.8z M129.5,84.8l2.3-0.3h0.4l2.2,0.3v0.7h-4.9V84.8z"/>
		<path d="M135.5,84.6l1.7-1.6c1.1-1,1.6-1.9,1.6-2.8s-0.5-1.4-1.4-1.4c-0.3,0-0.7,0.1-1.1,0.2l0.7-0.5l-0.3,1
			c-0.2,0.7-0.4,0.9-0.7,0.9s-0.5-0.2-0.6-0.4c0.1-1.2,1.2-1.8,2.5-1.8c1.6,0,2.2,0.9,2.2,1.9s-0.7,1.8-2.3,3.3l-1.7,1.6l0.3-0.7h4
			v1.2h-4.8L135.5,84.6L135.5,84.6z"/>
	</g>
</g>
</svg>
